M48
;GenerationSoftware,Autodesk,EAGLE,9.6.2*%
;CreationDate,2026-03-23T13:28:29Z*%
FMAT,2
ICI,OFF
METRIC,TZ,000.000
T23C0.300
T22C0.350
T21C0.400
T20C0.500
T19C0.600
T18C0.610
T17C0.800
T16C0.900
T15C0.914
T14C0.950
T13C0.990
T12C1.000
T11C1.016
T10C1.090
T9C1.110
T8C1.270
T7C1.600
T6C1.700
T5C2.193
T4C2.200
T3C2.240
T2C2.300
T1C3.200
%
G90
M71
T1
X103940Y129590
X78940Y129590
T2
X74515Y130810
X61375Y130810
T3
X120320Y133500
X120320Y128800
X110820Y133500
X110820Y128800
T4
X132535Y134150
X148135Y134150
T5
X115570Y133000
T6
X115570Y127000
X137835Y134150
X142835Y134150
T7
X115570Y136250
T8
X20320Y127000
X106362Y13970
X102552Y13970
X120332Y13970
X24130Y127000
X27940Y127000
X31750Y127000
X35560Y127000
X45720Y127000
X49530Y127000
X53340Y127000
X57150Y127000
X140653Y13970
X136843Y13970
X96202Y13970
X92392Y13970
X116522Y13970
X12700Y127000
X41910Y127000
X75565Y118110
X79375Y118110
X83185Y118110
X9525Y85725
X9525Y81915
X82233Y133985
X86043Y133985
X89852Y133985
X93662Y133985
X97472Y133985
X101282Y133985
X16510Y127000
X71755Y118110
T9
X124460Y120650
X124460Y118110
X124460Y115570
X124460Y113030
X124460Y110490
X124460Y72390
X124460Y74930
X124460Y77470
X124460Y107950
X124460Y80010
X124460Y82550
T10
X85900Y128170
X88670Y128170
X96980Y128170
X94210Y128170
X87285Y131010
X95595Y131010
X92825Y131010
X90055Y131010
X91440Y128170
T11
X98742Y59690
X96202Y57150
X96202Y54610
X98742Y57150
X98742Y54610
X96202Y52070
X96202Y49530
X96202Y46990
X96202Y44450
X96202Y41910
X96202Y39370
X98742Y52070
X98742Y49530
X98742Y46990
X98742Y44450
X98742Y41910
X98742Y39370
X87947Y33020
X85408Y33020
X82868Y33020
X80328Y33020
X87947Y29845
X85408Y29845
X82868Y29845
X80328Y29845
X87947Y26670
X85408Y26670
X82868Y26670
X80328Y26670
X142240Y93345
X144780Y93345
X142240Y90805
X144780Y90805
X142240Y88265
X144780Y88265
X67310Y15240
X67310Y17780
X64770Y12700
X64770Y15240
X64770Y17780
X25400Y19050
X25400Y16510
X25400Y13970
X25400Y11430
X25400Y40005
X25400Y37465
X25400Y34925
X25400Y32385
X83820Y12700
X83820Y17780
X17780Y49530
X17780Y52070
X17780Y54610
X17780Y57150
X81280Y12700
X81280Y15240
X81280Y17780
X78740Y12700
X78740Y15240
X78740Y17780
X142240Y85725
X144780Y85725
X142240Y83185
X17780Y28575
X17780Y31115
X17780Y33655
X17780Y36195
X67310Y12700
X76200Y12700
X76200Y15240
X76200Y17780
X73660Y12700
X73660Y15240
X73660Y17780
X144780Y83185
X142240Y80645
X144780Y80645
X142240Y78105
X144780Y78105
X142240Y75565
X144780Y75565
X142240Y73025
X144780Y73025
X142240Y70485
X144780Y70485
X142240Y67945
X144780Y67945
X142240Y65405
X144780Y65405
X142240Y62865
X144780Y62865
X8890Y69215
X3810Y69215
X107950Y74930
X107950Y69850
X97155Y74930
X97155Y69850
X51435Y49212
X48895Y49212
X46355Y49212
X43815Y49212
X19050Y19050
X19050Y16510
X19050Y13970
X19050Y11430
X96202Y59690
X98742Y62230
X96202Y62230
X108902Y121285
X108902Y118745
X108902Y116205
X108902Y113665
X108902Y111125
X111442Y121285
X111442Y118745
X111442Y116205
X111442Y113665
X111442Y111125
X64770Y69533
X67310Y69533
X69850Y69533
X72390Y69533
X74930Y69533
X77470Y69533
X64770Y72073
X67310Y72073
X69850Y72073
X38100Y13970
X72390Y72073
X74930Y72073
X77470Y72073
X83820Y15240
X35560Y34925
X38100Y34925
X35560Y32385
X38100Y32385
X35560Y29845
X38100Y29845
X7620Y54610
X5080Y54610
X7620Y57150
X5080Y57150
X7620Y59690
X5080Y59690
X7620Y33655
X5080Y33655
X7620Y36195
X5080Y36195
X7620Y38735
X5080Y38735
X7620Y12700
X5080Y12700
X7620Y15240
X5080Y15240
X7620Y17780
X5080Y17780
X35560Y13970
X35560Y11430
X38100Y11430
X35560Y8890
X38100Y8890
X142240Y111125
X144780Y111125
X142240Y108585
X144780Y108585
X142240Y106045
X144780Y106045
X142240Y103505
X144780Y103505
X142240Y100965
X144780Y100965
X142240Y98425
X144780Y98425
X142240Y95885
X144780Y95885
T12
X140335Y136150
T13
X69925Y38073
X63425Y38073
X69925Y42573
X63425Y42573
T14
X68945Y128100
X66945Y128100
X71445Y128100
X64445Y128100
T15
X52387Y75248
X54927Y72708
X54927Y75248
X62865Y97472
X57467Y75248
X60325Y82233
X60325Y97472
X130175Y68580
X57467Y72708
X132715Y68580
X52387Y72708
X49847Y75248
X49847Y72708
X62865Y84773
X60325Y84773
X62865Y87313
X60325Y92392
X62865Y94932
X62865Y82233
X60325Y94932
X60325Y87313
X62865Y89852
X60325Y89852
X62865Y92392
T16
X40640Y45085
X40640Y42545
X40640Y40005
X40640Y37465
X40640Y34925
X40640Y32385
X40640Y29845
X40640Y27305
X15240Y62230
X15240Y59690
X15240Y57150
X15240Y54610
X15240Y52070
X15240Y49530
X15240Y46990
X15240Y44450
X2540Y44450
X2540Y46990
X2540Y49530
X2540Y52070
X2540Y54610
X2540Y57150
X2540Y59690
X15240Y41275
X15240Y38735
X15240Y36195
X15240Y33655
X15240Y31115
X15240Y28575
X15240Y26035
X15240Y23495
X2540Y23495
X2540Y26035
X2540Y28575
X2540Y31115
X2540Y33655
X2540Y36195
X2540Y38735
X2540Y41275
X15240Y20320
X40640Y8890
X15240Y17780
X15240Y15240
X15240Y12700
X2540Y7620
X40640Y6350
X40640Y11430
X40640Y13970
X40640Y16510
X40640Y19050
X40640Y21590
X40640Y24130
X27940Y24130
X27940Y21590
X27940Y19050
X27940Y16510
X27940Y13970
X27940Y11430
X27940Y8890
X56197Y64452
X56197Y61912
X51117Y61912
X51117Y64452
X53657Y64452
X53657Y61912
X27940Y6350
X2540Y20320
X2540Y17780
X2540Y15240
X2540Y12700
X2540Y10160
X27940Y27305
X27940Y29845
X27940Y32385
X27940Y34925
X2540Y5080
X2540Y2540
X15240Y2540
X27940Y37465
X27940Y40005
X27940Y42545
X27940Y45085
X15240Y5080
X15240Y7620
X15240Y10160
X2540Y62230
T17
X129857Y65405
X106680Y48895
X106680Y52705
X106680Y51435
X106680Y50165
X106680Y47625
X106680Y53975
X102870Y64135
X115570Y56515
X109220Y56515
X110490Y56515
X111760Y56515
X113030Y56515
X125095Y67310
X114300Y56515
X135890Y46355
X90805Y63182
X120650Y74930
X137160Y55245
X137160Y56515
X119380Y48577
X92075Y63182
X121920Y66675
X138430Y50800
X146050Y15240
X142240Y53975
X137160Y53975
X132080Y56515
X133350Y56515
X134620Y56515
X135890Y56515
X135890Y55245
X119380Y50800
X134620Y55245
X135890Y53975
X102870Y62865
T18
X146685Y51435
X146685Y53975
X40640Y83820
X40640Y81280
X40640Y78740
X85725Y38100
X85725Y43180
X145733Y34290
X145733Y36830
X145733Y39370
X6350Y97790
X8890Y97790
X11430Y97790
X125412Y34290
X125412Y36830
X125412Y39370
X21590Y97790
X24130Y97790
X26670Y97790
X36830Y97790
X39370Y97790
X41910Y97790
X121920Y49530
X121920Y52070
X121920Y54610
X146685Y48895
T19
X24130Y64770
X135890Y116205
X128587Y13970
X127317Y13970
X126047Y13970
X130810Y116205
X86360Y76200
X53340Y123190
X126682Y30480
X126682Y31432
X126682Y32385
X86360Y78740
X93980Y69850
X100330Y69850
X105410Y69850
X86360Y92710
X86360Y93980
X86360Y99060
X86360Y97790
X36830Y67310
X27940Y71120
X27940Y73660
X14605Y90170
X36830Y85090
X143235Y127000
X137435Y127000
X142835Y130650
X55880Y38100
X29527Y47625
X27940Y47625
X55880Y35878
X63182Y35878
X61912Y35878
X82233Y58420
X94930Y122555
X20320Y137478
X90487Y121285
X137835Y130650
X148135Y125650
X55245Y106362
X93027Y122555
X41910Y113982
X40640Y113982
X39370Y113982
X38100Y113982
X36830Y113982
X35560Y113982
X10795Y113982
X9525Y113982
X8255Y113982
X71120Y123825
X69850Y123825
X144463Y16510
X6985Y113982
X59372Y110807
X100012Y112077
X94615Y91440
X94615Y97790
X94615Y100330
X106680Y101600
X106680Y102870
X105410Y101600
X105410Y102870
X5715Y113982
X99060Y102870
X100330Y101600
X100330Y102870
X39030Y63820
X44450Y88900
X22860Y64770
X4445Y113982
X25400Y64770
X25400Y66040
X24130Y66040
X22860Y66040
X15240Y64770
X13970Y64770
X12700Y64770
X12700Y66040
X13970Y66040
X15240Y66040
X26670Y113982
X25400Y113982
X24130Y113982
X22860Y113982
X21590Y113982
X13335Y88900
X13335Y90170
X14605Y88900
X132535Y125650
X105410Y114617
X105410Y115887
X69533Y110807
X69533Y112077
X58420Y110807
X58420Y112077
X59372Y109537
X59372Y113347
X59372Y112077
X70485Y110807
X70485Y112077
X106362Y114617
X106362Y115887
X101917Y2540
X96837Y2540
X100012Y26670
X100012Y27940
X89852Y26670
X89852Y27940
X129222Y26670
X129222Y27940
X99060Y101600
X109537Y26670
X109537Y27622
X17780Y114617
X17780Y113665
X33020Y114617
X33020Y113665
X48260Y114935
X48260Y113665
X96520Y86360
X44450Y91440
X27940Y92075
X135890Y103010
X135890Y77330
T20
X110490Y43815
X43180Y40005
X88582Y46037
X50800Y19050
X91122Y45402
X55245Y22860
X55880Y32385
X53340Y34925
X43180Y19050
X49530Y20320
X49530Y6350
X118110Y43815
X142240Y48260
X132080Y46355
X137795Y43815
X114935Y40005
X135255Y40005
X52705Y26670
X32385Y81280
X89852Y45720
X33020Y89535
X50800Y26670
X44450Y41275
X44450Y22860
X43180Y74930
T21
X93980Y34290
X94615Y36830
X87630Y45720
X93980Y35560
X83503Y60960
X64135Y64135
X92710Y38100
X92710Y43180
X73660Y44450
X85408Y66358
X87630Y37148
T22
X136843Y84455
X75057Y44577
X75692Y45466
X69850Y12700
X76835Y109220
X45085Y99060
X86360Y109220
X10160Y60960
X94310Y109855
X133350Y83185
X129222Y94297
X71438Y15240
X75946Y108267
X82550Y109220
X14605Y98425
X88900Y119380
X95885Y110807
X29845Y99060
T23
X31432Y104775
X70803Y46990
X64452Y51435
X123507Y88582
X8255Y111125
X23495Y111125
X38735Y111125
X62865Y29210
X67310Y60642
X124460Y92075
X68263Y60007
X54134Y29369
X132398Y43498
X142177Y45212
X60642Y66675
X63817Y60960
X63817Y51117
X63182Y50800
X79812Y38100
X114617Y38100
X134938Y38270
X81280Y38100
X69850Y104775
X71438Y52705
X73025Y106362
X79693Y106362
X83820Y67310
X84773Y66993
X71438Y55245
X83820Y54292
X81280Y60642
X44450Y16510
X80010Y67310
X79693Y107315
X74994Y107315
X79058Y67310
X27940Y58420
X27940Y59690
X27940Y60960
X27940Y54610
X27940Y55880
X27940Y57150
X60960Y50800
X60960Y53340
X80963Y67310
X86360Y61595
X88900Y61595
X107632Y36830
X128587Y30797
X38100Y41910
X5080Y5080
X5080Y26035
X50800Y76835
X31115Y81280
X5080Y46990
X38100Y20955
X86995Y8255
X76200Y48260
X71120Y85725
X122237Y90170
X83185Y100965
X67310Y100965
X122237Y91122
X82868Y102235
X82868Y67310
X79375Y48260
X71120Y45085
X68898Y45062
X64770Y102235
X81598Y97472
X61595Y117475
X62230Y107950
X122237Y92075
X81598Y63500
X73025Y60960
X28575Y133985
X68898Y133033
X77788Y123507
X81915Y67310
X22225Y134620
X82550Y103505
X66040Y103505
X122237Y89217
X83503Y99695
X68580Y99695
X61277Y73660
X51752Y84773
X48260Y118110
X37465Y104140
X22225Y104140
X65723Y59372
X87630Y61595
X44132Y76835
X72128Y60960
X47942Y29527
X51752Y79693
X17780Y118110
X6985Y104140
X85408Y123190
X71438Y48895
X46672Y104775
X60960Y52070
X16192Y105092
X51752Y82233
X33020Y118110
M30