M48
;GenerationSoftware,Autodesk,EAGLE,9.6.2*%
;CreationDate,2026-03-23T13:33:10Z*%
FMAT,2
ICI,OFF
METRIC,TZ,000.000
T3C0.610
T2C1.300
T1C3.200
%
G90
M71
T1
X-44000Y500
X44000Y500
T2
X-2561Y-25
X2519Y-25
T3
X12000Y6000
X14000Y6000
X16000Y6000
X18000Y6000
X20000Y6000
X-8000Y-3000
X8000Y-3000
X12000Y-5000
X14000Y-5000
X16000Y-5000
X18000Y-5000
X20000Y-5000
X-12000Y6000
X-14000Y6000
X-16000Y6000
X-18000Y6000
X-20000Y6000
X-12000Y-5000
X-14000Y-5000
X-16000Y-5000
X-18000Y-5000
X-20000Y-5000
M30