G04 EAGLE Gerber RS-274X export*
G75*
%MOMM*%
%FSLAX34Y34*%
%LPD*%
%INTop Copper*%
%IPPOS*%
%AMOC8*
5,1,8,0,0,1.08239X$1,22.5*%
G01*
%ADD10R,2.200000X1.400000*%
%ADD11R,1.500000X1.300000*%
%ADD12R,3.000000X1.400000*%
%ADD13R,1.300000X1.500000*%
%ADD14R,1.400000X3.000000*%
%ADD15C,2.540000*%
%ADD16P,2.749271X8X202.500000*%
%ADD17R,3.400000X1.900000*%
%ADD18R,1.400000X2.200000*%
%ADD19R,1.900000X3.400000*%
%ADD20P,2.749271X8X292.500000*%
%ADD21R,1.700000X1.800000*%
%ADD22R,1.800000X1.700000*%
%ADD23R,2.400000X2.400000*%
%ADD24C,1.524000*%
%ADD25C,1.778000*%
%ADD26C,1.371600*%
%ADD27R,1.200000X0.600000*%
%ADD28R,2.200000X0.600000*%
%ADD29R,2.032000X0.660400*%
%ADD30R,0.600000X2.200000*%
%ADD31R,0.660400X2.032000*%
%ADD32R,0.600000X1.200000*%
%ADD33R,3.000000X1.600000*%
%ADD34R,4.191000X4.826000*%
%ADD35C,1.665000*%
%ADD36C,4.216000*%
%ADD37C,1.635000*%
%ADD38C,2.550000*%
%ADD39C,3.420000*%
%ADD40C,3.360000*%
%ADD41C,1.879600*%
%ADD42P,1.649562X8X112.500000*%
%ADD43P,1.649562X8X292.500000*%
%ADD44P,1.484606X8X22.500000*%
%ADD45R,3.600000X2.950000*%
%ADD46C,0.914400*%
%ADD47R,1.600000X3.000000*%
%ADD48R,4.826000X4.191000*%
%ADD49C,1.422400*%
%ADD50R,1.803000X1.600000*%
%ADD51P,1.484606X8X112.500000*%
%ADD52C,1.485000*%
%ADD53R,1.485000X1.485000*%
%ADD54R,1.000000X1.400000*%
%ADD55C,1.350000*%
%ADD56R,10.410000X10.800000*%
%ADD57R,2.159000X1.066800*%
%ADD58C,0.159000*%
%ADD59R,0.990600X0.304800*%
%ADD60C,1.905000*%
%ADD61C,0.260000*%
%ADD62C,1.625600*%
%ADD63C,1.600000*%
%ADD64C,1.750000*%
%ADD65C,1.425000*%
%ADD66C,3.316000*%
%ADD67R,1.500000X2.000000*%
%ADD68R,3.800000X2.000000*%
%ADD69P,1.649562X8X22.500000*%
%ADD70C,0.406400*%
%ADD71C,0.609600*%
%ADD72C,0.900000*%
%ADD73C,1.270000*%
%ADD74C,1.016000*%
%ADD75C,0.750000*%
%ADD76C,2.540000*%
%ADD77C,1.500000*%
%ADD78C,0.812800*%
%ADD79C,0.503200*%
%ADD80C,0.304800*%
%ADD81C,0.553200*%
%ADD82C,1.200000*%
%ADD83C,0.603200*%
%ADD84C,0.508000*%

G36*
X1079518Y385321D02*
X1079518Y385321D01*
X1079536Y385319D01*
X1079718Y385340D01*
X1079901Y385359D01*
X1079918Y385364D01*
X1079935Y385366D01*
X1080110Y385423D01*
X1080286Y385477D01*
X1080301Y385485D01*
X1080318Y385491D01*
X1080478Y385581D01*
X1080640Y385669D01*
X1080653Y385680D01*
X1080669Y385689D01*
X1080808Y385809D01*
X1080949Y385926D01*
X1080960Y385940D01*
X1080974Y385952D01*
X1081086Y386097D01*
X1081201Y386240D01*
X1081209Y386256D01*
X1081220Y386270D01*
X1081302Y386435D01*
X1081387Y386597D01*
X1081392Y386614D01*
X1081400Y386631D01*
X1081447Y386809D01*
X1081498Y386984D01*
X1081500Y387002D01*
X1081504Y387019D01*
X1081531Y387350D01*
X1081531Y518669D01*
X1205992Y518669D01*
X1206010Y518671D01*
X1206028Y518669D01*
X1206210Y518690D01*
X1206393Y518709D01*
X1206410Y518714D01*
X1206427Y518716D01*
X1206602Y518773D01*
X1206778Y518827D01*
X1206793Y518835D01*
X1206810Y518841D01*
X1206970Y518931D01*
X1207132Y519019D01*
X1207145Y519030D01*
X1207161Y519039D01*
X1207300Y519159D01*
X1207441Y519276D01*
X1207452Y519290D01*
X1207466Y519302D01*
X1207578Y519447D01*
X1207693Y519590D01*
X1207701Y519606D01*
X1207712Y519620D01*
X1207794Y519785D01*
X1207879Y519947D01*
X1207884Y519964D01*
X1207892Y519981D01*
X1207939Y520159D01*
X1207990Y520334D01*
X1207992Y520352D01*
X1207996Y520369D01*
X1208023Y520700D01*
X1208023Y522923D01*
X1208377Y523776D01*
X1208386Y523806D01*
X1208400Y523834D01*
X1208444Y523999D01*
X1208493Y524162D01*
X1208496Y524193D01*
X1208504Y524223D01*
X1208531Y524554D01*
X1208531Y542246D01*
X1208528Y542278D01*
X1208530Y542309D01*
X1208508Y542477D01*
X1208491Y542647D01*
X1208482Y542677D01*
X1208478Y542708D01*
X1208377Y543024D01*
X1208023Y543877D01*
X1208023Y548323D01*
X1208377Y549176D01*
X1208386Y549206D01*
X1208400Y549234D01*
X1208444Y549399D01*
X1208493Y549562D01*
X1208496Y549593D01*
X1208504Y549623D01*
X1208531Y549954D01*
X1208531Y622781D01*
X1208528Y622813D01*
X1208530Y622844D01*
X1208508Y623012D01*
X1208491Y623182D01*
X1208482Y623212D01*
X1208478Y623243D01*
X1208377Y623559D01*
X1208135Y624142D01*
X1208135Y655758D01*
X1208377Y656341D01*
X1208386Y656371D01*
X1208400Y656399D01*
X1208444Y656563D01*
X1208493Y656727D01*
X1208496Y656758D01*
X1208504Y656788D01*
X1208531Y657119D01*
X1208531Y704850D01*
X1208529Y704868D01*
X1208531Y704886D01*
X1208510Y705068D01*
X1208491Y705251D01*
X1208486Y705268D01*
X1208484Y705285D01*
X1208427Y705460D01*
X1208373Y705636D01*
X1208365Y705651D01*
X1208359Y705668D01*
X1208269Y705828D01*
X1208181Y705990D01*
X1208170Y706003D01*
X1208161Y706019D01*
X1208041Y706158D01*
X1207924Y706299D01*
X1207910Y706310D01*
X1207898Y706324D01*
X1207753Y706436D01*
X1207610Y706551D01*
X1207594Y706559D01*
X1207580Y706570D01*
X1207415Y706652D01*
X1207253Y706737D01*
X1207236Y706742D01*
X1207220Y706750D01*
X1207041Y706797D01*
X1206866Y706848D01*
X1206848Y706850D01*
X1206831Y706854D01*
X1206500Y706881D01*
X1169582Y706881D01*
X1169555Y706879D01*
X1169528Y706881D01*
X1169354Y706859D01*
X1169181Y706841D01*
X1169155Y706834D01*
X1169129Y706830D01*
X1168963Y706775D01*
X1168796Y706723D01*
X1168772Y706710D01*
X1168747Y706702D01*
X1168595Y706615D01*
X1168442Y706531D01*
X1168421Y706514D01*
X1168398Y706501D01*
X1168145Y706286D01*
X1116223Y654364D01*
X1111221Y649363D01*
X1105060Y646810D01*
X1041146Y646810D01*
X1041128Y646808D01*
X1041110Y646810D01*
X1040928Y646789D01*
X1040745Y646770D01*
X1040728Y646765D01*
X1040711Y646763D01*
X1040536Y646706D01*
X1040360Y646652D01*
X1040345Y646644D01*
X1040328Y646638D01*
X1040168Y646548D01*
X1040006Y646460D01*
X1039993Y646449D01*
X1039977Y646440D01*
X1039838Y646320D01*
X1039697Y646203D01*
X1039686Y646189D01*
X1039672Y646177D01*
X1039560Y646032D01*
X1039445Y645889D01*
X1039437Y645873D01*
X1039426Y645859D01*
X1039344Y645694D01*
X1039259Y645532D01*
X1039254Y645515D01*
X1039246Y645499D01*
X1039199Y645320D01*
X1039148Y645145D01*
X1039146Y645127D01*
X1039142Y645110D01*
X1039115Y644779D01*
X1039115Y620228D01*
X1037529Y616401D01*
X1034599Y613471D01*
X1030772Y611885D01*
X1026628Y611885D01*
X1022801Y613471D01*
X1019871Y616401D01*
X1018285Y620228D01*
X1018285Y644779D01*
X1018283Y644797D01*
X1018285Y644815D01*
X1018264Y644997D01*
X1018245Y645180D01*
X1018240Y645197D01*
X1018238Y645214D01*
X1018181Y645389D01*
X1018127Y645565D01*
X1018119Y645580D01*
X1018113Y645597D01*
X1018023Y645757D01*
X1017935Y645919D01*
X1017924Y645932D01*
X1017915Y645948D01*
X1017795Y646087D01*
X1017678Y646228D01*
X1017664Y646239D01*
X1017652Y646253D01*
X1017507Y646365D01*
X1017364Y646480D01*
X1017348Y646488D01*
X1017334Y646499D01*
X1017169Y646581D01*
X1017007Y646666D01*
X1016990Y646671D01*
X1016974Y646679D01*
X1016795Y646726D01*
X1016620Y646777D01*
X1016602Y646779D01*
X1016585Y646783D01*
X1016254Y646810D01*
X1003300Y646810D01*
X1003282Y646808D01*
X1003264Y646810D01*
X1003082Y646789D01*
X1002899Y646770D01*
X1002882Y646765D01*
X1002865Y646763D01*
X1002690Y646706D01*
X1002514Y646652D01*
X1002499Y646644D01*
X1002482Y646638D01*
X1002322Y646548D01*
X1002160Y646460D01*
X1002147Y646449D01*
X1002131Y646440D01*
X1001992Y646320D01*
X1001851Y646203D01*
X1001840Y646189D01*
X1001827Y646177D01*
X1001714Y646032D01*
X1001599Y645889D01*
X1001591Y645873D01*
X1001580Y645859D01*
X1001498Y645694D01*
X1001413Y645532D01*
X1001408Y645515D01*
X1001400Y645499D01*
X1001353Y645320D01*
X1001302Y645145D01*
X1001300Y645127D01*
X1001296Y645110D01*
X1001269Y644779D01*
X1001269Y387350D01*
X1001271Y387332D01*
X1001269Y387314D01*
X1001290Y387132D01*
X1001309Y386949D01*
X1001314Y386932D01*
X1001316Y386915D01*
X1001373Y386740D01*
X1001427Y386564D01*
X1001435Y386549D01*
X1001441Y386532D01*
X1001531Y386372D01*
X1001619Y386210D01*
X1001630Y386197D01*
X1001639Y386181D01*
X1001759Y386042D01*
X1001876Y385901D01*
X1001890Y385890D01*
X1001902Y385877D01*
X1002047Y385764D01*
X1002190Y385649D01*
X1002206Y385641D01*
X1002220Y385630D01*
X1002385Y385548D01*
X1002547Y385463D01*
X1002564Y385458D01*
X1002581Y385450D01*
X1002759Y385403D01*
X1002934Y385352D01*
X1002952Y385350D01*
X1002969Y385346D01*
X1003300Y385319D01*
X1079500Y385319D01*
X1079518Y385321D01*
G37*
G36*
X1416126Y530359D02*
X1416126Y530359D01*
X1416202Y530357D01*
X1416371Y530379D01*
X1416542Y530393D01*
X1416616Y530411D01*
X1416691Y530421D01*
X1416855Y530470D01*
X1417021Y530511D01*
X1417090Y530541D01*
X1417164Y530563D01*
X1417317Y530639D01*
X1417474Y530706D01*
X1417538Y530747D01*
X1417607Y530780D01*
X1417746Y530879D01*
X1417890Y530971D01*
X1417947Y531022D01*
X1418009Y531066D01*
X1418130Y531186D01*
X1418258Y531300D01*
X1418306Y531359D01*
X1418360Y531413D01*
X1418461Y531551D01*
X1418568Y531684D01*
X1418605Y531750D01*
X1418650Y531811D01*
X1418727Y531964D01*
X1418812Y532112D01*
X1418838Y532184D01*
X1418873Y532252D01*
X1418924Y532415D01*
X1418983Y532575D01*
X1418998Y532650D01*
X1419021Y532722D01*
X1419033Y532827D01*
X1419078Y533059D01*
X1419085Y533295D01*
X1419097Y533400D01*
X1419097Y568571D01*
X1419259Y568611D01*
X1419328Y568641D01*
X1419402Y568663D01*
X1419555Y568739D01*
X1419712Y568806D01*
X1419776Y568847D01*
X1419845Y568880D01*
X1419984Y568979D01*
X1420128Y569071D01*
X1420185Y569122D01*
X1420247Y569166D01*
X1420368Y569286D01*
X1420496Y569400D01*
X1420544Y569459D01*
X1420598Y569513D01*
X1420699Y569651D01*
X1420806Y569784D01*
X1420843Y569850D01*
X1420888Y569911D01*
X1420965Y570064D01*
X1421050Y570212D01*
X1421076Y570284D01*
X1421111Y570352D01*
X1421162Y570515D01*
X1421221Y570675D01*
X1421236Y570750D01*
X1421259Y570822D01*
X1421271Y570927D01*
X1421316Y571159D01*
X1421323Y571395D01*
X1421335Y571500D01*
X1421335Y573459D01*
X1421954Y574953D01*
X1423097Y576096D01*
X1424591Y576715D01*
X1439209Y576715D01*
X1440703Y576096D01*
X1441846Y574953D01*
X1442181Y574144D01*
X1442281Y573949D01*
X1442376Y573753D01*
X1442393Y573730D01*
X1442406Y573705D01*
X1442536Y573529D01*
X1442662Y573351D01*
X1442682Y573331D01*
X1442699Y573308D01*
X1442856Y573155D01*
X1443009Y573000D01*
X1443032Y572983D01*
X1443052Y572963D01*
X1443232Y572838D01*
X1443407Y572710D01*
X1443433Y572697D01*
X1443456Y572681D01*
X1443653Y572586D01*
X1443848Y572487D01*
X1443875Y572479D01*
X1443901Y572466D01*
X1444110Y572405D01*
X1444318Y572339D01*
X1444342Y572336D01*
X1444374Y572327D01*
X1444863Y572266D01*
X1444944Y572269D01*
X1444996Y572263D01*
X1461915Y572263D01*
X1464529Y571180D01*
X1466364Y569345D01*
X1466451Y569271D01*
X1466531Y569190D01*
X1466638Y569112D01*
X1466740Y569026D01*
X1466838Y568967D01*
X1466930Y568900D01*
X1467048Y568840D01*
X1467162Y568771D01*
X1467268Y568729D01*
X1467370Y568677D01*
X1467497Y568637D01*
X1467620Y568588D01*
X1467732Y568563D01*
X1467841Y568529D01*
X1467934Y568519D01*
X1468102Y568481D01*
X1468426Y568463D01*
X1468518Y568453D01*
X1491618Y568453D01*
X1491694Y568459D01*
X1491770Y568457D01*
X1491939Y568479D01*
X1492110Y568493D01*
X1492184Y568511D01*
X1492259Y568521D01*
X1492423Y568570D01*
X1492589Y568611D01*
X1492658Y568641D01*
X1492732Y568663D01*
X1492885Y568739D01*
X1493042Y568806D01*
X1493106Y568847D01*
X1493175Y568880D01*
X1493314Y568979D01*
X1493458Y569071D01*
X1493515Y569122D01*
X1493577Y569166D01*
X1493698Y569286D01*
X1493826Y569400D01*
X1493874Y569459D01*
X1493928Y569513D01*
X1494029Y569651D01*
X1494136Y569784D01*
X1494173Y569850D01*
X1494218Y569911D01*
X1494295Y570064D01*
X1494380Y570212D01*
X1494406Y570284D01*
X1494441Y570352D01*
X1494492Y570515D01*
X1494551Y570675D01*
X1494566Y570750D01*
X1494589Y570822D01*
X1494601Y570927D01*
X1494646Y571159D01*
X1494653Y571395D01*
X1494665Y571500D01*
X1494665Y666750D01*
X1494659Y666826D01*
X1494661Y666902D01*
X1494639Y667071D01*
X1494625Y667242D01*
X1494607Y667316D01*
X1494597Y667391D01*
X1494548Y667555D01*
X1494507Y667721D01*
X1494477Y667790D01*
X1494455Y667864D01*
X1494379Y668017D01*
X1494312Y668174D01*
X1494271Y668238D01*
X1494238Y668307D01*
X1494139Y668446D01*
X1494047Y668590D01*
X1493996Y668647D01*
X1493952Y668709D01*
X1493832Y668830D01*
X1493718Y668958D01*
X1493659Y669006D01*
X1493605Y669060D01*
X1493467Y669161D01*
X1493334Y669268D01*
X1493268Y669305D01*
X1493207Y669350D01*
X1493054Y669427D01*
X1492906Y669512D01*
X1492834Y669538D01*
X1492766Y669573D01*
X1492603Y669624D01*
X1492443Y669683D01*
X1492368Y669698D01*
X1492296Y669721D01*
X1492191Y669733D01*
X1491959Y669778D01*
X1491723Y669785D01*
X1491618Y669797D01*
X1458449Y669797D01*
X1458410Y669794D01*
X1458373Y669796D01*
X1458335Y669792D01*
X1458297Y669793D01*
X1458127Y669771D01*
X1457957Y669757D01*
X1457920Y669748D01*
X1457882Y669744D01*
X1457845Y669734D01*
X1457807Y669729D01*
X1457644Y669680D01*
X1457478Y669639D01*
X1457443Y669623D01*
X1457406Y669613D01*
X1457372Y669598D01*
X1457335Y669587D01*
X1457182Y669511D01*
X1457025Y669444D01*
X1456992Y669423D01*
X1456958Y669408D01*
X1456926Y669387D01*
X1456892Y669370D01*
X1456753Y669271D01*
X1456609Y669179D01*
X1456580Y669153D01*
X1456549Y669132D01*
X1456521Y669106D01*
X1456490Y669084D01*
X1456368Y668964D01*
X1456241Y668850D01*
X1456217Y668820D01*
X1456189Y668794D01*
X1456166Y668764D01*
X1456139Y668737D01*
X1456038Y668599D01*
X1455931Y668466D01*
X1455912Y668433D01*
X1455889Y668403D01*
X1455871Y668369D01*
X1455848Y668339D01*
X1455771Y668186D01*
X1455687Y668038D01*
X1455674Y668002D01*
X1455656Y667968D01*
X1455643Y667932D01*
X1455626Y667898D01*
X1455575Y667735D01*
X1455515Y667575D01*
X1455508Y667538D01*
X1455496Y667502D01*
X1455489Y667464D01*
X1455478Y667428D01*
X1455467Y667335D01*
X1455461Y667295D01*
X1455421Y667091D01*
X1455419Y667053D01*
X1455413Y667015D01*
X1455412Y666843D01*
X1455401Y666750D01*
X1455408Y666674D01*
X1455405Y666598D01*
X1455410Y666560D01*
X1455410Y666522D01*
X1455431Y666391D01*
X1455441Y666258D01*
X1455460Y666184D01*
X1455470Y666109D01*
X1455481Y666072D01*
X1455487Y666035D01*
X1455528Y665908D01*
X1455560Y665779D01*
X1455590Y665709D01*
X1455612Y665637D01*
X1455629Y665602D01*
X1455641Y665566D01*
X1455702Y665448D01*
X1455755Y665326D01*
X1455796Y665262D01*
X1455829Y665193D01*
X1455851Y665162D01*
X1455869Y665128D01*
X1455927Y665055D01*
X1455928Y665054D01*
X1456020Y664910D01*
X1456070Y664853D01*
X1456114Y664791D01*
X1456234Y664670D01*
X1456236Y664668D01*
X1456294Y664595D01*
X1459213Y661676D01*
X1461263Y656728D01*
X1461263Y651372D01*
X1459213Y646424D01*
X1456294Y643505D01*
X1456245Y643447D01*
X1456189Y643394D01*
X1456085Y643259D01*
X1455974Y643129D01*
X1455935Y643064D01*
X1455889Y643003D01*
X1455808Y642853D01*
X1455720Y642706D01*
X1455692Y642635D01*
X1455656Y642568D01*
X1455600Y642407D01*
X1455537Y642248D01*
X1455520Y642174D01*
X1455496Y642102D01*
X1455467Y641933D01*
X1455430Y641766D01*
X1455426Y641690D01*
X1455413Y641615D01*
X1455412Y641444D01*
X1455402Y641274D01*
X1455410Y641198D01*
X1455410Y641122D01*
X1455436Y640953D01*
X1455455Y640783D01*
X1455475Y640710D01*
X1455487Y640635D01*
X1455540Y640472D01*
X1455585Y640308D01*
X1455617Y640238D01*
X1455641Y640166D01*
X1455720Y640015D01*
X1455791Y639859D01*
X1455833Y639796D01*
X1455869Y639728D01*
X1455934Y639646D01*
X1456066Y639450D01*
X1456228Y639278D01*
X1456294Y639195D01*
X1459213Y636276D01*
X1461263Y631328D01*
X1461263Y625972D01*
X1459213Y621024D01*
X1455426Y617237D01*
X1450478Y615187D01*
X1445122Y615187D01*
X1440174Y617237D01*
X1439590Y617821D01*
X1439532Y617870D01*
X1439479Y617926D01*
X1439344Y618030D01*
X1439214Y618141D01*
X1439148Y618180D01*
X1439088Y618226D01*
X1438938Y618307D01*
X1438791Y618395D01*
X1438720Y618424D01*
X1438653Y618460D01*
X1438492Y618515D01*
X1438333Y618578D01*
X1438259Y618595D01*
X1438187Y618620D01*
X1438018Y618648D01*
X1437851Y618685D01*
X1437775Y618689D01*
X1437700Y618702D01*
X1437529Y618703D01*
X1437359Y618713D01*
X1437283Y618705D01*
X1437207Y618705D01*
X1437038Y618679D01*
X1436868Y618661D01*
X1436795Y618640D01*
X1436720Y618629D01*
X1436557Y618575D01*
X1436393Y618530D01*
X1436323Y618498D01*
X1436251Y618474D01*
X1436099Y618395D01*
X1435944Y618324D01*
X1435881Y618282D01*
X1435813Y618246D01*
X1435731Y618181D01*
X1435535Y618049D01*
X1435362Y617887D01*
X1435280Y617821D01*
X1431897Y614438D01*
X1425735Y611885D01*
X1419065Y611885D01*
X1412903Y614438D01*
X1408188Y619153D01*
X1405635Y625315D01*
X1405635Y634238D01*
X1405629Y634314D01*
X1405631Y634390D01*
X1405609Y634559D01*
X1405595Y634730D01*
X1405577Y634804D01*
X1405567Y634879D01*
X1405518Y635043D01*
X1405477Y635209D01*
X1405447Y635278D01*
X1405425Y635352D01*
X1405349Y635505D01*
X1405282Y635662D01*
X1405241Y635726D01*
X1405208Y635795D01*
X1405109Y635934D01*
X1405017Y636078D01*
X1404966Y636135D01*
X1404922Y636197D01*
X1404802Y636318D01*
X1404688Y636446D01*
X1404629Y636494D01*
X1404575Y636548D01*
X1404437Y636649D01*
X1404304Y636756D01*
X1404238Y636793D01*
X1404177Y636838D01*
X1404024Y636915D01*
X1403876Y637000D01*
X1403804Y637026D01*
X1403736Y637061D01*
X1403573Y637112D01*
X1403413Y637171D01*
X1403338Y637186D01*
X1403266Y637209D01*
X1403161Y637221D01*
X1402929Y637266D01*
X1402693Y637273D01*
X1402588Y637285D01*
X1387315Y637285D01*
X1381153Y639838D01*
X1370088Y650903D01*
X1367535Y657065D01*
X1367535Y666750D01*
X1367529Y666826D01*
X1367531Y666902D01*
X1367509Y667071D01*
X1367495Y667242D01*
X1367477Y667316D01*
X1367467Y667391D01*
X1367418Y667555D01*
X1367377Y667721D01*
X1367347Y667790D01*
X1367325Y667864D01*
X1367249Y668017D01*
X1367182Y668174D01*
X1367141Y668238D01*
X1367108Y668307D01*
X1367009Y668446D01*
X1366917Y668590D01*
X1366866Y668647D01*
X1366822Y668709D01*
X1366702Y668830D01*
X1366588Y668958D01*
X1366529Y669006D01*
X1366475Y669060D01*
X1366337Y669161D01*
X1366204Y669268D01*
X1366138Y669305D01*
X1366077Y669350D01*
X1365924Y669427D01*
X1365776Y669512D01*
X1365704Y669538D01*
X1365636Y669573D01*
X1365473Y669624D01*
X1365313Y669683D01*
X1365238Y669698D01*
X1365166Y669721D01*
X1365061Y669733D01*
X1364829Y669778D01*
X1364593Y669785D01*
X1364488Y669797D01*
X1334221Y669797D01*
X1334211Y669796D01*
X1334202Y669797D01*
X1333966Y669777D01*
X1333729Y669757D01*
X1333720Y669755D01*
X1333710Y669754D01*
X1333672Y669743D01*
X1333251Y669639D01*
X1333130Y669587D01*
X1333055Y669565D01*
X1329323Y668019D01*
X1324977Y668019D01*
X1321245Y669565D01*
X1321236Y669568D01*
X1321227Y669573D01*
X1321001Y669644D01*
X1320775Y669717D01*
X1320766Y669718D01*
X1320757Y669721D01*
X1320716Y669725D01*
X1320288Y669790D01*
X1320157Y669788D01*
X1320079Y669797D01*
X1308821Y669797D01*
X1308811Y669796D01*
X1308802Y669797D01*
X1308566Y669777D01*
X1308329Y669757D01*
X1308320Y669755D01*
X1308310Y669754D01*
X1308272Y669743D01*
X1307851Y669639D01*
X1307730Y669587D01*
X1307655Y669565D01*
X1304791Y668379D01*
X1304757Y668361D01*
X1304721Y668349D01*
X1304537Y668249D01*
X1304352Y668154D01*
X1304321Y668131D01*
X1304287Y668113D01*
X1304123Y667985D01*
X1303955Y667861D01*
X1303928Y667833D01*
X1303898Y667810D01*
X1303756Y667657D01*
X1303610Y667508D01*
X1303588Y667476D01*
X1303562Y667448D01*
X1303447Y667275D01*
X1303327Y667103D01*
X1303311Y667069D01*
X1303290Y667037D01*
X1303204Y666847D01*
X1303113Y666659D01*
X1303102Y666622D01*
X1303087Y666588D01*
X1303033Y666386D01*
X1302974Y666186D01*
X1302969Y666148D01*
X1302959Y666111D01*
X1302938Y665903D01*
X1302912Y665696D01*
X1302914Y665658D01*
X1302910Y665620D01*
X1302923Y665412D01*
X1302931Y665203D01*
X1302938Y665166D01*
X1302941Y665128D01*
X1302987Y664924D01*
X1303029Y664720D01*
X1303042Y664684D01*
X1303051Y664647D01*
X1303129Y664453D01*
X1303203Y664258D01*
X1303222Y664225D01*
X1303237Y664190D01*
X1303346Y664012D01*
X1303450Y663831D01*
X1303474Y663802D01*
X1303494Y663769D01*
X1303630Y663611D01*
X1303762Y663449D01*
X1303791Y663424D01*
X1303816Y663395D01*
X1303976Y663261D01*
X1304132Y663123D01*
X1304165Y663103D01*
X1304194Y663078D01*
X1304275Y663033D01*
X1304397Y662956D01*
X1307404Y659949D01*
X1308990Y656122D01*
X1308990Y651978D01*
X1307404Y648151D01*
X1304474Y645221D01*
X1300647Y643635D01*
X1251712Y643635D01*
X1251636Y643629D01*
X1251560Y643631D01*
X1251391Y643609D01*
X1251220Y643595D01*
X1251146Y643577D01*
X1251071Y643567D01*
X1250907Y643518D01*
X1250741Y643477D01*
X1250672Y643447D01*
X1250598Y643425D01*
X1250445Y643349D01*
X1250288Y643282D01*
X1250224Y643241D01*
X1250155Y643208D01*
X1250016Y643109D01*
X1249872Y643017D01*
X1249815Y642966D01*
X1249753Y642922D01*
X1249632Y642802D01*
X1249504Y642688D01*
X1249456Y642629D01*
X1249402Y642575D01*
X1249301Y642437D01*
X1249194Y642304D01*
X1249157Y642238D01*
X1249112Y642177D01*
X1249035Y642024D01*
X1248950Y641876D01*
X1248924Y641804D01*
X1248889Y641736D01*
X1248838Y641573D01*
X1248779Y641413D01*
X1248764Y641338D01*
X1248741Y641266D01*
X1248729Y641161D01*
X1248684Y640929D01*
X1248677Y640693D01*
X1248665Y640588D01*
X1248665Y594828D01*
X1248135Y593549D01*
X1248132Y593540D01*
X1248127Y593531D01*
X1248056Y593303D01*
X1247983Y593079D01*
X1247982Y593070D01*
X1247979Y593060D01*
X1247975Y593020D01*
X1247910Y592591D01*
X1247912Y592461D01*
X1247903Y592383D01*
X1247903Y533400D01*
X1247909Y533324D01*
X1247907Y533248D01*
X1247929Y533079D01*
X1247943Y532908D01*
X1247961Y532834D01*
X1247971Y532759D01*
X1248020Y532595D01*
X1248061Y532429D01*
X1248091Y532360D01*
X1248113Y532287D01*
X1248189Y532133D01*
X1248256Y531976D01*
X1248297Y531912D01*
X1248330Y531843D01*
X1248429Y531704D01*
X1248521Y531560D01*
X1248572Y531503D01*
X1248616Y531441D01*
X1248736Y531320D01*
X1248850Y531192D01*
X1248909Y531144D01*
X1248963Y531090D01*
X1249101Y530989D01*
X1249234Y530882D01*
X1249300Y530845D01*
X1249361Y530800D01*
X1249514Y530723D01*
X1249662Y530638D01*
X1249734Y530612D01*
X1249802Y530577D01*
X1249965Y530526D01*
X1250125Y530467D01*
X1250200Y530452D01*
X1250272Y530429D01*
X1250377Y530417D01*
X1250609Y530372D01*
X1250845Y530365D01*
X1250950Y530353D01*
X1416050Y530353D01*
X1416126Y530359D01*
G37*
G36*
X117501Y1131955D02*
X117501Y1131955D01*
X117527Y1131953D01*
X117674Y1131975D01*
X117821Y1131992D01*
X117846Y1132000D01*
X117872Y1132004D01*
X118010Y1132059D01*
X118149Y1132109D01*
X118171Y1132123D01*
X118196Y1132133D01*
X118317Y1132218D01*
X118442Y1132298D01*
X118460Y1132317D01*
X118482Y1132332D01*
X118581Y1132442D01*
X118684Y1132549D01*
X118698Y1132571D01*
X118715Y1132591D01*
X118787Y1132721D01*
X118863Y1132848D01*
X118871Y1132873D01*
X118884Y1132896D01*
X118924Y1133039D01*
X118969Y1133180D01*
X118971Y1133206D01*
X118979Y1133231D01*
X118998Y1133475D01*
X118998Y1217677D01*
X171450Y1217677D01*
X171476Y1217680D01*
X171502Y1217678D01*
X171649Y1217700D01*
X171796Y1217717D01*
X171821Y1217725D01*
X171847Y1217729D01*
X171985Y1217784D01*
X172124Y1217834D01*
X172146Y1217848D01*
X172171Y1217858D01*
X172292Y1217943D01*
X172417Y1218023D01*
X172435Y1218042D01*
X172457Y1218057D01*
X172556Y1218167D01*
X172659Y1218274D01*
X172673Y1218296D01*
X172690Y1218316D01*
X172762Y1218446D01*
X172838Y1218573D01*
X172846Y1218598D01*
X172859Y1218621D01*
X172899Y1218764D01*
X172944Y1218905D01*
X172946Y1218931D01*
X172954Y1218956D01*
X172973Y1219200D01*
X172973Y1241425D01*
X172970Y1241451D01*
X172972Y1241477D01*
X172950Y1241624D01*
X172933Y1241771D01*
X172925Y1241796D01*
X172921Y1241822D01*
X172866Y1241960D01*
X172816Y1242099D01*
X172802Y1242121D01*
X172792Y1242146D01*
X172707Y1242267D01*
X172627Y1242392D01*
X172608Y1242410D01*
X172593Y1242432D01*
X172483Y1242531D01*
X172376Y1242634D01*
X172354Y1242648D01*
X172334Y1242665D01*
X172204Y1242737D01*
X172077Y1242813D01*
X172052Y1242821D01*
X172029Y1242834D01*
X171886Y1242874D01*
X171745Y1242919D01*
X171719Y1242921D01*
X171694Y1242929D01*
X171450Y1242948D01*
X12700Y1242948D01*
X12674Y1242945D01*
X12648Y1242947D01*
X12501Y1242925D01*
X12354Y1242908D01*
X12329Y1242900D01*
X12303Y1242896D01*
X12165Y1242841D01*
X12026Y1242791D01*
X12004Y1242777D01*
X11979Y1242767D01*
X11858Y1242682D01*
X11733Y1242602D01*
X11715Y1242583D01*
X11693Y1242568D01*
X11594Y1242458D01*
X11491Y1242351D01*
X11477Y1242329D01*
X11460Y1242309D01*
X11388Y1242179D01*
X11312Y1242052D01*
X11304Y1242027D01*
X11291Y1242004D01*
X11251Y1241861D01*
X11206Y1241720D01*
X11204Y1241694D01*
X11196Y1241669D01*
X11177Y1241425D01*
X11177Y1133475D01*
X11180Y1133449D01*
X11178Y1133423D01*
X11200Y1133276D01*
X11217Y1133129D01*
X11225Y1133104D01*
X11229Y1133078D01*
X11284Y1132940D01*
X11334Y1132801D01*
X11348Y1132779D01*
X11358Y1132754D01*
X11443Y1132633D01*
X11523Y1132508D01*
X11542Y1132490D01*
X11557Y1132468D01*
X11667Y1132369D01*
X11774Y1132266D01*
X11796Y1132252D01*
X11816Y1132235D01*
X11946Y1132163D01*
X12073Y1132087D01*
X12098Y1132079D01*
X12121Y1132066D01*
X12264Y1132026D01*
X12405Y1131981D01*
X12431Y1131979D01*
X12456Y1131971D01*
X12700Y1131952D01*
X117475Y1131952D01*
X117501Y1131955D01*
G37*
G36*
X282593Y788546D02*
X282593Y788546D01*
X282611Y788544D01*
X282793Y788565D01*
X282976Y788584D01*
X282993Y788589D01*
X283010Y788591D01*
X283185Y788648D01*
X283361Y788702D01*
X283376Y788710D01*
X283393Y788716D01*
X283553Y788806D01*
X283715Y788894D01*
X283728Y788905D01*
X283744Y788914D01*
X283883Y789034D01*
X284024Y789151D01*
X284035Y789165D01*
X284049Y789177D01*
X284161Y789322D01*
X284276Y789465D01*
X284284Y789481D01*
X284295Y789495D01*
X284377Y789660D01*
X284462Y789822D01*
X284467Y789839D01*
X284475Y789856D01*
X284522Y790034D01*
X284573Y790209D01*
X284575Y790227D01*
X284579Y790244D01*
X284606Y790575D01*
X284606Y869950D01*
X284604Y869968D01*
X284606Y869986D01*
X284585Y870168D01*
X284566Y870351D01*
X284561Y870368D01*
X284559Y870385D01*
X284502Y870560D01*
X284448Y870736D01*
X284440Y870751D01*
X284434Y870768D01*
X284344Y870928D01*
X284256Y871090D01*
X284245Y871103D01*
X284236Y871119D01*
X284116Y871258D01*
X283999Y871399D01*
X283985Y871410D01*
X283973Y871424D01*
X283828Y871536D01*
X283685Y871651D01*
X283669Y871659D01*
X283655Y871670D01*
X283490Y871752D01*
X283328Y871837D01*
X283311Y871842D01*
X283295Y871850D01*
X283116Y871897D01*
X282941Y871948D01*
X282923Y871950D01*
X282906Y871954D01*
X282575Y871981D01*
X139700Y871981D01*
X139682Y871979D01*
X139664Y871981D01*
X139482Y871960D01*
X139299Y871941D01*
X139282Y871936D01*
X139265Y871934D01*
X139090Y871877D01*
X138914Y871823D01*
X138899Y871815D01*
X138882Y871809D01*
X138722Y871719D01*
X138560Y871631D01*
X138547Y871620D01*
X138531Y871611D01*
X138392Y871491D01*
X138251Y871374D01*
X138240Y871360D01*
X138227Y871348D01*
X138114Y871203D01*
X137999Y871060D01*
X137991Y871044D01*
X137980Y871030D01*
X137898Y870865D01*
X137813Y870703D01*
X137808Y870686D01*
X137800Y870670D01*
X137753Y870491D01*
X137702Y870316D01*
X137700Y870298D01*
X137696Y870281D01*
X137669Y869950D01*
X137669Y790575D01*
X137671Y790557D01*
X137669Y790539D01*
X137690Y790357D01*
X137709Y790174D01*
X137714Y790157D01*
X137716Y790140D01*
X137773Y789965D01*
X137827Y789789D01*
X137835Y789774D01*
X137841Y789757D01*
X137931Y789597D01*
X138019Y789435D01*
X138030Y789422D01*
X138039Y789406D01*
X138159Y789267D01*
X138276Y789126D01*
X138290Y789115D01*
X138302Y789102D01*
X138447Y788989D01*
X138590Y788874D01*
X138606Y788866D01*
X138620Y788855D01*
X138785Y788773D01*
X138947Y788688D01*
X138964Y788683D01*
X138981Y788675D01*
X139159Y788628D01*
X139334Y788577D01*
X139352Y788575D01*
X139369Y788571D01*
X139700Y788544D01*
X282575Y788544D01*
X282593Y788546D01*
G37*
G36*
X1104926Y735080D02*
X1104926Y735080D01*
X1104952Y735078D01*
X1105099Y735100D01*
X1105246Y735117D01*
X1105271Y735125D01*
X1105297Y735129D01*
X1105435Y735184D01*
X1105574Y735234D01*
X1105596Y735248D01*
X1105621Y735258D01*
X1105742Y735343D01*
X1105867Y735423D01*
X1105885Y735442D01*
X1105907Y735457D01*
X1106006Y735567D01*
X1106109Y735674D01*
X1106123Y735696D01*
X1106140Y735716D01*
X1106212Y735846D01*
X1106288Y735973D01*
X1106296Y735998D01*
X1106309Y736021D01*
X1106349Y736164D01*
X1106394Y736305D01*
X1106396Y736331D01*
X1106404Y736356D01*
X1106423Y736600D01*
X1106423Y822325D01*
X1106421Y822342D01*
X1106423Y822358D01*
X1106401Y822515D01*
X1106383Y822671D01*
X1106378Y822687D01*
X1106376Y822703D01*
X1106319Y822851D01*
X1106266Y822999D01*
X1106257Y823013D01*
X1106251Y823029D01*
X1106163Y823159D01*
X1106077Y823292D01*
X1106065Y823304D01*
X1106056Y823318D01*
X1105940Y823425D01*
X1105826Y823534D01*
X1105812Y823543D01*
X1105800Y823554D01*
X1105662Y823632D01*
X1105527Y823713D01*
X1105511Y823718D01*
X1105497Y823727D01*
X1105345Y823771D01*
X1105195Y823819D01*
X1105179Y823821D01*
X1105163Y823825D01*
X1104919Y823848D01*
X1022369Y824880D01*
X1022333Y824876D01*
X1022298Y824879D01*
X1022160Y824859D01*
X1022022Y824844D01*
X1021989Y824833D01*
X1021953Y824828D01*
X1021824Y824776D01*
X1021693Y824731D01*
X1021663Y824712D01*
X1021629Y824699D01*
X1021515Y824620D01*
X1021398Y824546D01*
X1021372Y824520D01*
X1021343Y824500D01*
X1021250Y824397D01*
X1021152Y824298D01*
X1021134Y824268D01*
X1021110Y824241D01*
X1021042Y824119D01*
X1020970Y824001D01*
X1020958Y823967D01*
X1020941Y823936D01*
X1020903Y823802D01*
X1020859Y823671D01*
X1020856Y823635D01*
X1020846Y823601D01*
X1020827Y823357D01*
X1020827Y801623D01*
X958850Y801623D01*
X958824Y801620D01*
X958798Y801622D01*
X958651Y801600D01*
X958504Y801583D01*
X958479Y801575D01*
X958453Y801571D01*
X958315Y801516D01*
X958176Y801466D01*
X958154Y801452D01*
X958129Y801442D01*
X958008Y801357D01*
X957883Y801277D01*
X957865Y801258D01*
X957843Y801243D01*
X957744Y801133D01*
X957641Y801026D01*
X957627Y801004D01*
X957610Y800984D01*
X957538Y800854D01*
X957462Y800727D01*
X957454Y800702D01*
X957441Y800679D01*
X957401Y800536D01*
X957356Y800395D01*
X957354Y800369D01*
X957346Y800344D01*
X957327Y800100D01*
X957327Y736600D01*
X957330Y736574D01*
X957328Y736548D01*
X957350Y736401D01*
X957367Y736254D01*
X957375Y736229D01*
X957379Y736203D01*
X957434Y736065D01*
X957484Y735926D01*
X957498Y735904D01*
X957508Y735879D01*
X957593Y735758D01*
X957673Y735633D01*
X957692Y735615D01*
X957707Y735593D01*
X957817Y735494D01*
X957924Y735391D01*
X957946Y735377D01*
X957966Y735360D01*
X958096Y735288D01*
X958223Y735212D01*
X958248Y735204D01*
X958271Y735191D01*
X958414Y735151D01*
X958555Y735106D01*
X958581Y735104D01*
X958606Y735096D01*
X958850Y735077D01*
X1104900Y735077D01*
X1104926Y735080D01*
G37*
G36*
X831870Y494542D02*
X831870Y494542D01*
X831889Y494540D01*
X831991Y494562D01*
X832093Y494579D01*
X832110Y494588D01*
X832130Y494592D01*
X832219Y494645D01*
X832310Y494694D01*
X832324Y494708D01*
X832341Y494718D01*
X832408Y494797D01*
X832480Y494872D01*
X832488Y494890D01*
X832501Y494905D01*
X832540Y495001D01*
X832583Y495095D01*
X832585Y495115D01*
X832593Y495133D01*
X832611Y495300D01*
X832611Y596900D01*
X832608Y596920D01*
X832610Y596939D01*
X832588Y597041D01*
X832572Y597143D01*
X832562Y597160D01*
X832558Y597180D01*
X832505Y597269D01*
X832456Y597360D01*
X832442Y597374D01*
X832432Y597391D01*
X832353Y597458D01*
X832278Y597530D01*
X832260Y597538D01*
X832245Y597551D01*
X832149Y597590D01*
X832055Y597633D01*
X832035Y597635D01*
X832017Y597643D01*
X831850Y597661D01*
X723900Y597661D01*
X723880Y597658D01*
X723861Y597660D01*
X723759Y597638D01*
X723657Y597622D01*
X723640Y597612D01*
X723620Y597608D01*
X723531Y597555D01*
X723440Y597506D01*
X723426Y597492D01*
X723409Y597482D01*
X723342Y597403D01*
X723271Y597328D01*
X723262Y597310D01*
X723249Y597295D01*
X723210Y597199D01*
X723167Y597105D01*
X723165Y597085D01*
X723157Y597067D01*
X723139Y596900D01*
X723139Y495300D01*
X723142Y495280D01*
X723140Y495261D01*
X723162Y495159D01*
X723179Y495057D01*
X723188Y495040D01*
X723192Y495020D01*
X723245Y494931D01*
X723294Y494840D01*
X723308Y494826D01*
X723318Y494809D01*
X723397Y494742D01*
X723472Y494671D01*
X723490Y494662D01*
X723505Y494649D01*
X723601Y494610D01*
X723695Y494567D01*
X723715Y494565D01*
X723733Y494557D01*
X723900Y494539D01*
X831850Y494539D01*
X831870Y494542D01*
G37*
G36*
X425476Y1131955D02*
X425476Y1131955D01*
X425502Y1131953D01*
X425649Y1131975D01*
X425796Y1131992D01*
X425821Y1132000D01*
X425847Y1132004D01*
X425985Y1132059D01*
X426124Y1132109D01*
X426146Y1132123D01*
X426171Y1132133D01*
X426292Y1132218D01*
X426417Y1132298D01*
X426435Y1132317D01*
X426457Y1132332D01*
X426556Y1132442D01*
X426659Y1132549D01*
X426673Y1132571D01*
X426690Y1132591D01*
X426762Y1132721D01*
X426838Y1132848D01*
X426846Y1132873D01*
X426859Y1132896D01*
X426899Y1133039D01*
X426944Y1133180D01*
X426946Y1133206D01*
X426954Y1133231D01*
X426973Y1133475D01*
X426973Y1214502D01*
X498475Y1214502D01*
X498501Y1214505D01*
X498527Y1214503D01*
X498674Y1214525D01*
X498821Y1214542D01*
X498846Y1214550D01*
X498872Y1214554D01*
X499010Y1214609D01*
X499149Y1214659D01*
X499171Y1214673D01*
X499196Y1214683D01*
X499317Y1214768D01*
X499442Y1214848D01*
X499460Y1214867D01*
X499482Y1214882D01*
X499581Y1214992D01*
X499684Y1215099D01*
X499698Y1215121D01*
X499715Y1215141D01*
X499787Y1215271D01*
X499863Y1215398D01*
X499871Y1215423D01*
X499884Y1215446D01*
X499924Y1215589D01*
X499969Y1215730D01*
X499971Y1215756D01*
X499979Y1215781D01*
X499998Y1216025D01*
X499998Y1241425D01*
X499995Y1241451D01*
X499997Y1241477D01*
X499975Y1241624D01*
X499958Y1241771D01*
X499950Y1241796D01*
X499946Y1241822D01*
X499891Y1241960D01*
X499841Y1242099D01*
X499827Y1242121D01*
X499817Y1242146D01*
X499732Y1242267D01*
X499652Y1242392D01*
X499633Y1242410D01*
X499618Y1242432D01*
X499508Y1242531D01*
X499401Y1242634D01*
X499379Y1242648D01*
X499359Y1242665D01*
X499229Y1242737D01*
X499102Y1242813D01*
X499077Y1242821D01*
X499054Y1242834D01*
X498911Y1242874D01*
X498770Y1242919D01*
X498744Y1242921D01*
X498719Y1242929D01*
X498475Y1242948D01*
X346075Y1242948D01*
X346049Y1242945D01*
X346023Y1242947D01*
X345876Y1242925D01*
X345729Y1242908D01*
X345704Y1242900D01*
X345678Y1242896D01*
X345540Y1242841D01*
X345401Y1242791D01*
X345379Y1242777D01*
X345354Y1242767D01*
X345233Y1242682D01*
X345108Y1242602D01*
X345090Y1242583D01*
X345068Y1242568D01*
X344969Y1242458D01*
X344866Y1242351D01*
X344852Y1242329D01*
X344835Y1242309D01*
X344763Y1242179D01*
X344687Y1242052D01*
X344679Y1242027D01*
X344666Y1242004D01*
X344626Y1241861D01*
X344581Y1241720D01*
X344579Y1241694D01*
X344571Y1241669D01*
X344552Y1241425D01*
X344552Y1133475D01*
X344555Y1133449D01*
X344553Y1133423D01*
X344575Y1133276D01*
X344592Y1133129D01*
X344600Y1133104D01*
X344604Y1133078D01*
X344659Y1132940D01*
X344709Y1132801D01*
X344723Y1132779D01*
X344733Y1132754D01*
X344818Y1132633D01*
X344898Y1132508D01*
X344917Y1132490D01*
X344932Y1132468D01*
X345042Y1132369D01*
X345149Y1132266D01*
X345171Y1132252D01*
X345191Y1132235D01*
X345321Y1132163D01*
X345448Y1132087D01*
X345473Y1132079D01*
X345496Y1132066D01*
X345639Y1132026D01*
X345780Y1131981D01*
X345806Y1131979D01*
X345831Y1131971D01*
X346075Y1131952D01*
X425450Y1131952D01*
X425476Y1131955D01*
G37*
G36*
X898543Y683771D02*
X898543Y683771D01*
X898561Y683769D01*
X898743Y683790D01*
X898926Y683809D01*
X898943Y683814D01*
X898960Y683816D01*
X899135Y683873D01*
X899311Y683927D01*
X899326Y683935D01*
X899343Y683941D01*
X899503Y684031D01*
X899665Y684119D01*
X899678Y684130D01*
X899694Y684139D01*
X899833Y684259D01*
X899974Y684376D01*
X899985Y684390D01*
X899999Y684402D01*
X900111Y684547D01*
X900226Y684690D01*
X900234Y684706D01*
X900245Y684720D01*
X900327Y684885D01*
X900412Y685047D01*
X900417Y685064D01*
X900425Y685081D01*
X900472Y685259D01*
X900523Y685434D01*
X900525Y685452D01*
X900529Y685469D01*
X900556Y685800D01*
X900556Y783384D01*
X903136Y785964D01*
X903153Y785984D01*
X903174Y786002D01*
X903281Y786140D01*
X903391Y786275D01*
X903404Y786299D01*
X903420Y786320D01*
X903498Y786477D01*
X903580Y786631D01*
X903588Y786656D01*
X903600Y786681D01*
X903645Y786850D01*
X903695Y787017D01*
X903697Y787043D01*
X903704Y787069D01*
X903731Y787400D01*
X903731Y805028D01*
X903729Y805046D01*
X903731Y805064D01*
X903710Y805246D01*
X903691Y805429D01*
X903686Y805446D01*
X903684Y805463D01*
X903627Y805638D01*
X903573Y805814D01*
X903565Y805829D01*
X903559Y805846D01*
X903469Y806006D01*
X903381Y806168D01*
X903370Y806181D01*
X903361Y806197D01*
X903241Y806336D01*
X903124Y806477D01*
X903110Y806488D01*
X903098Y806502D01*
X902953Y806614D01*
X902810Y806729D01*
X902794Y806737D01*
X902780Y806748D01*
X902615Y806830D01*
X902453Y806915D01*
X902436Y806920D01*
X902420Y806928D01*
X902241Y806975D01*
X902066Y807026D01*
X902048Y807028D01*
X902031Y807032D01*
X901700Y807059D01*
X854963Y807059D01*
X854963Y861568D01*
X854961Y861586D01*
X854963Y861603D01*
X854941Y861786D01*
X854923Y861969D01*
X854918Y861986D01*
X854916Y862003D01*
X854859Y862178D01*
X854805Y862353D01*
X854797Y862369D01*
X854791Y862386D01*
X854701Y862546D01*
X854613Y862707D01*
X854602Y862721D01*
X854593Y862737D01*
X854473Y862876D01*
X854356Y863017D01*
X854342Y863028D01*
X854330Y863041D01*
X854185Y863154D01*
X854042Y863269D01*
X854026Y863277D01*
X854012Y863288D01*
X853847Y863370D01*
X853685Y863455D01*
X853668Y863459D01*
X853651Y863467D01*
X853473Y863515D01*
X853298Y863566D01*
X853280Y863567D01*
X853263Y863572D01*
X852932Y863599D01*
X848868Y863599D01*
X848850Y863597D01*
X848833Y863599D01*
X848650Y863577D01*
X848467Y863559D01*
X848450Y863554D01*
X848433Y863552D01*
X848258Y863495D01*
X848083Y863441D01*
X848067Y863433D01*
X848050Y863427D01*
X847890Y863337D01*
X847728Y863249D01*
X847715Y863238D01*
X847699Y863229D01*
X847560Y863109D01*
X847419Y862992D01*
X847408Y862978D01*
X847395Y862966D01*
X847282Y862821D01*
X847167Y862678D01*
X847159Y862662D01*
X847148Y862648D01*
X847066Y862483D01*
X846981Y862321D01*
X846976Y862303D01*
X846968Y862287D01*
X846921Y862109D01*
X846870Y861934D01*
X846869Y861916D01*
X846864Y861899D01*
X846837Y861568D01*
X846837Y807059D01*
X800100Y807059D01*
X800082Y807057D01*
X800064Y807059D01*
X799882Y807038D01*
X799699Y807019D01*
X799682Y807014D01*
X799665Y807012D01*
X799490Y806955D01*
X799314Y806901D01*
X799299Y806893D01*
X799282Y806887D01*
X799122Y806797D01*
X798960Y806709D01*
X798947Y806698D01*
X798931Y806689D01*
X798792Y806569D01*
X798651Y806452D01*
X798640Y806438D01*
X798627Y806426D01*
X798514Y806281D01*
X798399Y806138D01*
X798391Y806122D01*
X798380Y806108D01*
X798298Y805943D01*
X798213Y805781D01*
X798208Y805764D01*
X798200Y805748D01*
X798153Y805569D01*
X798102Y805394D01*
X798100Y805376D01*
X798096Y805359D01*
X798069Y805028D01*
X798069Y771525D01*
X798071Y771498D01*
X798069Y771472D01*
X798091Y771298D01*
X798109Y771124D01*
X798117Y771099D01*
X798120Y771072D01*
X798176Y770907D01*
X798227Y770739D01*
X798240Y770716D01*
X798248Y770691D01*
X798335Y770539D01*
X798419Y770385D01*
X798436Y770365D01*
X798449Y770342D01*
X798664Y770089D01*
X884389Y684364D01*
X884409Y684347D01*
X884427Y684327D01*
X884565Y684219D01*
X884700Y684109D01*
X884724Y684096D01*
X884745Y684080D01*
X884902Y684002D01*
X885056Y683920D01*
X885081Y683912D01*
X885106Y683900D01*
X885275Y683855D01*
X885442Y683805D01*
X885468Y683803D01*
X885494Y683796D01*
X885825Y683769D01*
X898525Y683769D01*
X898543Y683771D01*
G37*
G36*
X273076Y1131955D02*
X273076Y1131955D01*
X273102Y1131953D01*
X273249Y1131975D01*
X273396Y1131992D01*
X273421Y1132000D01*
X273447Y1132004D01*
X273585Y1132059D01*
X273724Y1132109D01*
X273746Y1132123D01*
X273771Y1132133D01*
X273892Y1132218D01*
X274017Y1132298D01*
X274035Y1132317D01*
X274057Y1132332D01*
X274156Y1132442D01*
X274259Y1132549D01*
X274273Y1132571D01*
X274290Y1132591D01*
X274362Y1132721D01*
X274438Y1132848D01*
X274446Y1132873D01*
X274459Y1132896D01*
X274499Y1133039D01*
X274544Y1133180D01*
X274546Y1133206D01*
X274554Y1133231D01*
X274573Y1133475D01*
X274573Y1217677D01*
X339725Y1217677D01*
X339751Y1217680D01*
X339777Y1217678D01*
X339924Y1217700D01*
X340071Y1217717D01*
X340096Y1217725D01*
X340122Y1217729D01*
X340260Y1217784D01*
X340399Y1217834D01*
X340421Y1217848D01*
X340446Y1217858D01*
X340567Y1217943D01*
X340692Y1218023D01*
X340710Y1218042D01*
X340732Y1218057D01*
X340831Y1218167D01*
X340934Y1218274D01*
X340948Y1218296D01*
X340965Y1218316D01*
X341037Y1218446D01*
X341113Y1218573D01*
X341121Y1218598D01*
X341134Y1218621D01*
X341174Y1218764D01*
X341219Y1218905D01*
X341221Y1218931D01*
X341229Y1218956D01*
X341248Y1219200D01*
X341248Y1241425D01*
X341245Y1241451D01*
X341247Y1241477D01*
X341225Y1241624D01*
X341208Y1241771D01*
X341200Y1241796D01*
X341196Y1241822D01*
X341141Y1241960D01*
X341091Y1242099D01*
X341077Y1242121D01*
X341067Y1242146D01*
X340982Y1242267D01*
X340902Y1242392D01*
X340883Y1242410D01*
X340868Y1242432D01*
X340758Y1242531D01*
X340651Y1242634D01*
X340629Y1242648D01*
X340609Y1242665D01*
X340479Y1242737D01*
X340352Y1242813D01*
X340327Y1242821D01*
X340304Y1242834D01*
X340161Y1242874D01*
X340020Y1242919D01*
X339994Y1242921D01*
X339969Y1242929D01*
X339725Y1242948D01*
X263525Y1242948D01*
X263399Y1242934D01*
X263273Y1242927D01*
X263227Y1242914D01*
X263179Y1242908D01*
X263060Y1242866D01*
X262938Y1242831D01*
X262896Y1242807D01*
X262851Y1242791D01*
X262744Y1242722D01*
X262634Y1242661D01*
X262588Y1242621D01*
X262558Y1242602D01*
X262524Y1242567D01*
X262448Y1242502D01*
X237494Y1217548D01*
X196850Y1217548D01*
X196824Y1217545D01*
X196798Y1217547D01*
X196651Y1217525D01*
X196504Y1217508D01*
X196479Y1217500D01*
X196453Y1217496D01*
X196315Y1217441D01*
X196176Y1217391D01*
X196154Y1217377D01*
X196129Y1217367D01*
X196008Y1217282D01*
X195883Y1217202D01*
X195865Y1217183D01*
X195843Y1217168D01*
X195744Y1217058D01*
X195641Y1216951D01*
X195627Y1216929D01*
X195610Y1216909D01*
X195538Y1216779D01*
X195462Y1216652D01*
X195454Y1216627D01*
X195441Y1216604D01*
X195401Y1216461D01*
X195356Y1216320D01*
X195354Y1216294D01*
X195346Y1216269D01*
X195327Y1216025D01*
X195327Y1133475D01*
X195330Y1133449D01*
X195328Y1133423D01*
X195350Y1133276D01*
X195367Y1133129D01*
X195375Y1133104D01*
X195379Y1133078D01*
X195434Y1132940D01*
X195484Y1132801D01*
X195498Y1132779D01*
X195508Y1132754D01*
X195593Y1132633D01*
X195673Y1132508D01*
X195692Y1132490D01*
X195707Y1132468D01*
X195817Y1132369D01*
X195924Y1132266D01*
X195946Y1132252D01*
X195966Y1132235D01*
X196096Y1132163D01*
X196223Y1132087D01*
X196248Y1132079D01*
X196271Y1132066D01*
X196414Y1132026D01*
X196555Y1131981D01*
X196581Y1131979D01*
X196606Y1131971D01*
X196850Y1131952D01*
X273050Y1131952D01*
X273076Y1131955D01*
G37*
G36*
X1339914Y1053110D02*
X1339914Y1053110D01*
X1339978Y1053109D01*
X1340053Y1053130D01*
X1340129Y1053141D01*
X1340188Y1053167D01*
X1340250Y1053184D01*
X1340316Y1053225D01*
X1340386Y1053257D01*
X1340435Y1053299D01*
X1340490Y1053332D01*
X1340542Y1053390D01*
X1340600Y1053440D01*
X1340636Y1053494D01*
X1340679Y1053542D01*
X1340712Y1053611D01*
X1340755Y1053676D01*
X1340774Y1053738D01*
X1340802Y1053795D01*
X1340813Y1053865D01*
X1340837Y1053946D01*
X1340838Y1054031D01*
X1340849Y1054100D01*
X1340849Y1143000D01*
X1340840Y1143064D01*
X1340841Y1143128D01*
X1340820Y1143203D01*
X1340809Y1143279D01*
X1340783Y1143338D01*
X1340766Y1143400D01*
X1340725Y1143466D01*
X1340693Y1143536D01*
X1340651Y1143585D01*
X1340618Y1143640D01*
X1340560Y1143692D01*
X1340510Y1143750D01*
X1340456Y1143786D01*
X1340408Y1143829D01*
X1340339Y1143862D01*
X1340274Y1143905D01*
X1340212Y1143924D01*
X1340155Y1143952D01*
X1340085Y1143963D01*
X1340004Y1143987D01*
X1339919Y1143988D01*
X1339850Y1143999D01*
X1248927Y1143999D01*
X1248885Y1143993D01*
X1248844Y1143996D01*
X1248760Y1143976D01*
X1248647Y1143959D01*
X1248594Y1143935D01*
X1248544Y1143923D01*
X1247064Y1143310D01*
X1242136Y1143310D01*
X1240656Y1143923D01*
X1240615Y1143934D01*
X1240578Y1143952D01*
X1240493Y1143965D01*
X1240383Y1143993D01*
X1240324Y1143991D01*
X1240273Y1143999D01*
X1231900Y1143999D01*
X1231836Y1143990D01*
X1231772Y1143991D01*
X1231697Y1143970D01*
X1231621Y1143959D01*
X1231562Y1143933D01*
X1231500Y1143916D01*
X1231434Y1143875D01*
X1231364Y1143843D01*
X1231315Y1143801D01*
X1231260Y1143768D01*
X1231208Y1143710D01*
X1231150Y1143660D01*
X1231114Y1143606D01*
X1231071Y1143558D01*
X1231038Y1143489D01*
X1230995Y1143424D01*
X1230976Y1143362D01*
X1230948Y1143305D01*
X1230937Y1143235D01*
X1230913Y1143154D01*
X1230912Y1143069D01*
X1230901Y1143000D01*
X1230901Y1092200D01*
X1230910Y1092136D01*
X1230909Y1092072D01*
X1230930Y1091997D01*
X1230941Y1091921D01*
X1230967Y1091862D01*
X1230984Y1091800D01*
X1231025Y1091734D01*
X1231057Y1091664D01*
X1231099Y1091615D01*
X1231132Y1091560D01*
X1231190Y1091508D01*
X1231240Y1091450D01*
X1231294Y1091414D01*
X1231342Y1091371D01*
X1231411Y1091338D01*
X1231476Y1091295D01*
X1231538Y1091276D01*
X1231595Y1091248D01*
X1231665Y1091237D01*
X1231746Y1091213D01*
X1231831Y1091212D01*
X1231900Y1091201D01*
X1240273Y1091201D01*
X1240315Y1091207D01*
X1240356Y1091204D01*
X1240440Y1091225D01*
X1240553Y1091241D01*
X1240606Y1091265D01*
X1240656Y1091277D01*
X1242136Y1091890D01*
X1247064Y1091890D01*
X1248544Y1091277D01*
X1248585Y1091266D01*
X1248622Y1091248D01*
X1248707Y1091235D01*
X1248817Y1091207D01*
X1248876Y1091209D01*
X1248927Y1091201D01*
X1256301Y1091201D01*
X1256301Y1083827D01*
X1256307Y1083785D01*
X1256304Y1083744D01*
X1256325Y1083660D01*
X1256341Y1083547D01*
X1256365Y1083494D01*
X1256377Y1083444D01*
X1256990Y1081964D01*
X1256990Y1077036D01*
X1256377Y1075556D01*
X1256366Y1075515D01*
X1256348Y1075478D01*
X1256335Y1075393D01*
X1256307Y1075283D01*
X1256309Y1075224D01*
X1256301Y1075173D01*
X1256301Y1054100D01*
X1256310Y1054036D01*
X1256309Y1053972D01*
X1256330Y1053897D01*
X1256341Y1053821D01*
X1256367Y1053762D01*
X1256384Y1053700D01*
X1256425Y1053634D01*
X1256457Y1053564D01*
X1256499Y1053515D01*
X1256532Y1053460D01*
X1256590Y1053408D01*
X1256640Y1053350D01*
X1256694Y1053314D01*
X1256742Y1053271D01*
X1256811Y1053238D01*
X1256876Y1053195D01*
X1256938Y1053176D01*
X1256995Y1053148D01*
X1257065Y1053137D01*
X1257146Y1053113D01*
X1257231Y1053112D01*
X1257300Y1053101D01*
X1339850Y1053101D01*
X1339914Y1053110D01*
G37*
G36*
X852950Y863603D02*
X852950Y863603D01*
X852967Y863601D01*
X853150Y863623D01*
X853333Y863641D01*
X853350Y863646D01*
X853367Y863648D01*
X853542Y863705D01*
X853717Y863759D01*
X853733Y863767D01*
X853750Y863773D01*
X853910Y863863D01*
X854071Y863951D01*
X854085Y863962D01*
X854101Y863971D01*
X854240Y864091D01*
X854381Y864208D01*
X854392Y864222D01*
X854405Y864234D01*
X854518Y864379D01*
X854633Y864522D01*
X854641Y864538D01*
X854652Y864552D01*
X854734Y864717D01*
X854819Y864879D01*
X854823Y864897D01*
X854831Y864913D01*
X854879Y865091D01*
X854930Y865266D01*
X854931Y865284D01*
X854936Y865301D01*
X854963Y865632D01*
X854963Y920141D01*
X903285Y920141D01*
X903979Y919955D01*
X903993Y919948D01*
X904122Y919881D01*
X904176Y919866D01*
X904226Y919843D01*
X904369Y919810D01*
X904509Y919770D01*
X904565Y919765D01*
X904619Y919753D01*
X904765Y919749D01*
X904911Y919737D01*
X904966Y919743D01*
X905021Y919742D01*
X905165Y919767D01*
X905310Y919784D01*
X905363Y919801D01*
X905418Y919811D01*
X905554Y919863D01*
X905693Y919909D01*
X905742Y919936D01*
X905793Y919956D01*
X905917Y920035D01*
X906044Y920107D01*
X906086Y920143D01*
X906133Y920173D01*
X906238Y920274D01*
X906349Y920370D01*
X906383Y920414D01*
X906423Y920452D01*
X906506Y920573D01*
X906595Y920688D01*
X906620Y920738D01*
X906652Y920783D01*
X906710Y920918D01*
X906775Y921048D01*
X906789Y921102D01*
X906811Y921153D01*
X906841Y921296D01*
X906879Y921437D01*
X906884Y921500D01*
X906894Y921547D01*
X906895Y921631D01*
X906906Y921768D01*
X906906Y938582D01*
X906904Y938600D01*
X906906Y938617D01*
X906885Y938800D01*
X906866Y938982D01*
X906861Y938999D01*
X906859Y939017D01*
X906802Y939192D01*
X906748Y939367D01*
X906740Y939383D01*
X906734Y939400D01*
X906713Y939437D01*
X906713Y940172D01*
X906762Y940266D01*
X906767Y940283D01*
X906775Y940299D01*
X906822Y940477D01*
X906873Y940652D01*
X906875Y940670D01*
X906879Y940687D01*
X906906Y941018D01*
X906906Y979028D01*
X906904Y979046D01*
X906906Y979064D01*
X906885Y979246D01*
X906866Y979429D01*
X906861Y979446D01*
X906859Y979463D01*
X906802Y979638D01*
X906748Y979814D01*
X906740Y979829D01*
X906734Y979846D01*
X906644Y980006D01*
X906556Y980168D01*
X906545Y980181D01*
X906536Y980197D01*
X906416Y980336D01*
X906299Y980477D01*
X906285Y980488D01*
X906273Y980502D01*
X906128Y980614D01*
X905985Y980729D01*
X905969Y980737D01*
X905955Y980748D01*
X905790Y980830D01*
X905628Y980915D01*
X905611Y980920D01*
X905595Y980928D01*
X905416Y980975D01*
X905241Y981026D01*
X905223Y981028D01*
X905206Y981032D01*
X904875Y981059D01*
X893899Y981059D01*
X893899Y989132D01*
X893897Y989150D01*
X893899Y989167D01*
X893878Y989350D01*
X893859Y989532D01*
X893854Y989549D01*
X893852Y989567D01*
X893795Y989742D01*
X893741Y989917D01*
X893733Y989933D01*
X893727Y989950D01*
X893637Y990110D01*
X893549Y990271D01*
X893538Y990285D01*
X893529Y990301D01*
X893409Y990440D01*
X893292Y990581D01*
X893278Y990592D01*
X893268Y990604D01*
X893317Y990645D01*
X893328Y990658D01*
X893342Y990670D01*
X893454Y990815D01*
X893569Y990958D01*
X893577Y990974D01*
X893588Y990988D01*
X893670Y991153D01*
X893755Y991316D01*
X893760Y991333D01*
X893768Y991349D01*
X893815Y991527D01*
X893866Y991702D01*
X893868Y991720D01*
X893872Y991737D01*
X893899Y992068D01*
X893899Y1000141D01*
X904875Y1000141D01*
X904893Y1000143D01*
X904911Y1000141D01*
X905093Y1000162D01*
X905276Y1000181D01*
X905293Y1000186D01*
X905310Y1000188D01*
X905485Y1000245D01*
X905661Y1000299D01*
X905676Y1000307D01*
X905693Y1000313D01*
X905853Y1000403D01*
X906015Y1000491D01*
X906028Y1000502D01*
X906044Y1000511D01*
X906183Y1000631D01*
X906324Y1000748D01*
X906335Y1000762D01*
X906349Y1000774D01*
X906461Y1000919D01*
X906576Y1001062D01*
X906584Y1001078D01*
X906595Y1001092D01*
X906677Y1001257D01*
X906762Y1001419D01*
X906767Y1001436D01*
X906775Y1001452D01*
X906822Y1001631D01*
X906873Y1001806D01*
X906875Y1001824D01*
X906879Y1001841D01*
X906906Y1002172D01*
X906906Y1006475D01*
X906904Y1006493D01*
X906906Y1006511D01*
X906885Y1006693D01*
X906866Y1006876D01*
X906861Y1006893D01*
X906859Y1006910D01*
X906802Y1007085D01*
X906748Y1007261D01*
X906740Y1007276D01*
X906734Y1007293D01*
X906644Y1007453D01*
X906556Y1007615D01*
X906545Y1007628D01*
X906536Y1007644D01*
X906416Y1007783D01*
X906299Y1007924D01*
X906285Y1007935D01*
X906273Y1007949D01*
X906128Y1008061D01*
X905985Y1008176D01*
X905969Y1008184D01*
X905955Y1008195D01*
X905790Y1008277D01*
X905628Y1008362D01*
X905611Y1008367D01*
X905595Y1008375D01*
X905416Y1008422D01*
X905241Y1008473D01*
X905223Y1008475D01*
X905206Y1008479D01*
X904875Y1008506D01*
X860425Y1008506D01*
X860398Y1008504D01*
X860372Y1008506D01*
X860198Y1008484D01*
X860024Y1008466D01*
X859999Y1008459D01*
X859972Y1008455D01*
X859807Y1008400D01*
X859639Y1008348D01*
X859616Y1008335D01*
X859591Y1008327D01*
X859439Y1008240D01*
X859285Y1008156D01*
X859265Y1008139D01*
X859242Y1008126D01*
X858989Y1007911D01*
X815134Y964056D01*
X800100Y964056D01*
X800082Y964054D01*
X800064Y964056D01*
X799882Y964035D01*
X799699Y964016D01*
X799682Y964011D01*
X799665Y964009D01*
X799490Y963952D01*
X799314Y963898D01*
X799299Y963890D01*
X799282Y963884D01*
X799122Y963794D01*
X798960Y963706D01*
X798947Y963695D01*
X798931Y963686D01*
X798792Y963566D01*
X798651Y963449D01*
X798640Y963435D01*
X798627Y963423D01*
X798514Y963278D01*
X798399Y963135D01*
X798391Y963119D01*
X798380Y963105D01*
X798298Y962940D01*
X798213Y962778D01*
X798208Y962761D01*
X798200Y962745D01*
X798153Y962566D01*
X798102Y962391D01*
X798100Y962373D01*
X798096Y962356D01*
X798069Y962025D01*
X798069Y922172D01*
X798071Y922154D01*
X798069Y922136D01*
X798090Y921954D01*
X798109Y921771D01*
X798114Y921754D01*
X798116Y921737D01*
X798173Y921562D01*
X798227Y921386D01*
X798235Y921371D01*
X798241Y921354D01*
X798331Y921194D01*
X798419Y921032D01*
X798430Y921019D01*
X798439Y921003D01*
X798559Y920864D01*
X798676Y920723D01*
X798690Y920712D01*
X798702Y920698D01*
X798847Y920586D01*
X798990Y920471D01*
X799006Y920463D01*
X799020Y920452D01*
X799185Y920370D01*
X799347Y920285D01*
X799364Y920280D01*
X799381Y920272D01*
X799559Y920225D01*
X799734Y920174D01*
X799752Y920172D01*
X799769Y920168D01*
X800100Y920141D01*
X846837Y920141D01*
X846837Y865632D01*
X846839Y865614D01*
X846837Y865597D01*
X846859Y865414D01*
X846877Y865231D01*
X846882Y865214D01*
X846884Y865197D01*
X846941Y865022D01*
X846995Y864847D01*
X847003Y864831D01*
X847009Y864814D01*
X847099Y864654D01*
X847187Y864493D01*
X847198Y864479D01*
X847207Y864463D01*
X847327Y864324D01*
X847444Y864183D01*
X847458Y864172D01*
X847470Y864159D01*
X847615Y864046D01*
X847758Y863931D01*
X847774Y863923D01*
X847788Y863912D01*
X847953Y863830D01*
X848115Y863745D01*
X848132Y863741D01*
X848149Y863733D01*
X848327Y863685D01*
X848502Y863634D01*
X848520Y863633D01*
X848537Y863628D01*
X848868Y863601D01*
X852932Y863601D01*
X852950Y863603D01*
G37*
G36*
X577877Y1140971D02*
X577877Y1140971D01*
X577903Y1140969D01*
X578077Y1140991D01*
X578251Y1141009D01*
X578276Y1141017D01*
X578303Y1141020D01*
X578468Y1141076D01*
X578636Y1141127D01*
X578659Y1141140D01*
X578684Y1141148D01*
X578836Y1141235D01*
X578990Y1141319D01*
X579010Y1141336D01*
X579033Y1141349D01*
X579286Y1141564D01*
X585041Y1147319D01*
X603250Y1147319D01*
X603268Y1147321D01*
X603286Y1147319D01*
X603468Y1147340D01*
X603651Y1147359D01*
X603668Y1147364D01*
X603685Y1147366D01*
X603860Y1147423D01*
X604036Y1147477D01*
X604051Y1147485D01*
X604068Y1147491D01*
X604228Y1147581D01*
X604390Y1147669D01*
X604403Y1147680D01*
X604419Y1147689D01*
X604558Y1147809D01*
X604699Y1147926D01*
X604710Y1147940D01*
X604724Y1147952D01*
X604836Y1148097D01*
X604951Y1148240D01*
X604959Y1148256D01*
X604970Y1148270D01*
X605052Y1148435D01*
X605137Y1148597D01*
X605142Y1148614D01*
X605150Y1148631D01*
X605197Y1148809D01*
X605248Y1148984D01*
X605250Y1149002D01*
X605254Y1149019D01*
X605281Y1149350D01*
X605281Y1219200D01*
X605279Y1219218D01*
X605281Y1219236D01*
X605260Y1219418D01*
X605241Y1219601D01*
X605236Y1219618D01*
X605234Y1219635D01*
X605177Y1219810D01*
X605123Y1219986D01*
X605115Y1220001D01*
X605109Y1220018D01*
X605019Y1220178D01*
X604931Y1220340D01*
X604920Y1220353D01*
X604911Y1220369D01*
X604791Y1220508D01*
X604674Y1220649D01*
X604660Y1220660D01*
X604648Y1220674D01*
X604503Y1220786D01*
X604360Y1220901D01*
X604344Y1220909D01*
X604330Y1220920D01*
X604165Y1221002D01*
X604003Y1221087D01*
X603986Y1221092D01*
X603970Y1221100D01*
X603791Y1221147D01*
X603616Y1221198D01*
X603598Y1221200D01*
X603581Y1221204D01*
X603250Y1221231D01*
X508000Y1221231D01*
X507982Y1221229D01*
X507964Y1221231D01*
X507782Y1221210D01*
X507599Y1221191D01*
X507582Y1221186D01*
X507565Y1221184D01*
X507390Y1221127D01*
X507214Y1221073D01*
X507199Y1221065D01*
X507182Y1221059D01*
X507022Y1220969D01*
X506860Y1220881D01*
X506847Y1220870D01*
X506831Y1220861D01*
X506692Y1220741D01*
X506551Y1220624D01*
X506540Y1220610D01*
X506527Y1220598D01*
X506414Y1220453D01*
X506299Y1220310D01*
X506291Y1220294D01*
X506280Y1220280D01*
X506198Y1220115D01*
X506113Y1219953D01*
X506108Y1219936D01*
X506100Y1219920D01*
X506053Y1219741D01*
X506002Y1219566D01*
X506000Y1219548D01*
X505996Y1219531D01*
X505969Y1219200D01*
X505969Y1143000D01*
X505971Y1142982D01*
X505969Y1142964D01*
X505990Y1142782D01*
X506009Y1142599D01*
X506014Y1142582D01*
X506016Y1142565D01*
X506073Y1142390D01*
X506127Y1142214D01*
X506135Y1142199D01*
X506141Y1142182D01*
X506231Y1142022D01*
X506319Y1141860D01*
X506330Y1141847D01*
X506339Y1141831D01*
X506459Y1141692D01*
X506576Y1141551D01*
X506590Y1141540D01*
X506602Y1141527D01*
X506747Y1141414D01*
X506890Y1141299D01*
X506906Y1141291D01*
X506920Y1141280D01*
X507085Y1141198D01*
X507247Y1141113D01*
X507264Y1141108D01*
X507281Y1141100D01*
X507459Y1141053D01*
X507634Y1141002D01*
X507652Y1141000D01*
X507669Y1140996D01*
X508000Y1140969D01*
X577850Y1140969D01*
X577877Y1140971D01*
G37*
G36*
X698518Y1140971D02*
X698518Y1140971D01*
X698536Y1140969D01*
X698718Y1140990D01*
X698901Y1141009D01*
X698918Y1141014D01*
X698935Y1141016D01*
X699110Y1141073D01*
X699286Y1141127D01*
X699301Y1141135D01*
X699318Y1141141D01*
X699478Y1141231D01*
X699640Y1141319D01*
X699653Y1141330D01*
X699669Y1141339D01*
X699808Y1141459D01*
X699949Y1141576D01*
X699960Y1141590D01*
X699974Y1141602D01*
X700086Y1141747D01*
X700201Y1141890D01*
X700209Y1141906D01*
X700220Y1141920D01*
X700302Y1142085D01*
X700387Y1142247D01*
X700392Y1142264D01*
X700400Y1142281D01*
X700447Y1142459D01*
X700498Y1142634D01*
X700500Y1142652D01*
X700504Y1142669D01*
X700531Y1143000D01*
X700531Y1225550D01*
X700529Y1225568D01*
X700531Y1225586D01*
X700510Y1225768D01*
X700491Y1225951D01*
X700486Y1225968D01*
X700484Y1225985D01*
X700427Y1226160D01*
X700373Y1226336D01*
X700365Y1226351D01*
X700359Y1226368D01*
X700269Y1226528D01*
X700181Y1226690D01*
X700170Y1226703D01*
X700161Y1226719D01*
X700041Y1226858D01*
X699924Y1226999D01*
X699910Y1227010D01*
X699898Y1227024D01*
X699753Y1227136D01*
X699610Y1227251D01*
X699594Y1227259D01*
X699580Y1227270D01*
X699415Y1227352D01*
X699253Y1227437D01*
X699236Y1227442D01*
X699220Y1227450D01*
X699041Y1227497D01*
X698866Y1227548D01*
X698848Y1227550D01*
X698831Y1227554D01*
X698500Y1227581D01*
X650769Y1227581D01*
X650606Y1227565D01*
X650442Y1227555D01*
X650406Y1227545D01*
X650369Y1227541D01*
X650212Y1227493D01*
X650053Y1227451D01*
X650015Y1227433D01*
X649984Y1227423D01*
X649936Y1227397D01*
X649235Y1227209D01*
X643094Y1227209D01*
X643042Y1227251D01*
X643026Y1227259D01*
X643012Y1227270D01*
X642847Y1227352D01*
X642685Y1227437D01*
X642668Y1227442D01*
X642651Y1227450D01*
X642473Y1227497D01*
X642298Y1227548D01*
X642280Y1227550D01*
X642263Y1227554D01*
X641932Y1227581D01*
X637868Y1227581D01*
X637850Y1227579D01*
X637833Y1227581D01*
X637650Y1227560D01*
X637467Y1227541D01*
X637450Y1227536D01*
X637433Y1227534D01*
X637258Y1227477D01*
X637083Y1227423D01*
X637067Y1227415D01*
X637050Y1227409D01*
X636890Y1227319D01*
X636728Y1227231D01*
X636715Y1227220D01*
X636699Y1227211D01*
X636697Y1227209D01*
X630565Y1227209D01*
X629845Y1227402D01*
X629750Y1227450D01*
X629714Y1227459D01*
X629680Y1227475D01*
X629520Y1227511D01*
X629361Y1227554D01*
X629320Y1227558D01*
X629287Y1227565D01*
X629200Y1227567D01*
X629031Y1227581D01*
X615950Y1227581D01*
X615932Y1227579D01*
X615914Y1227581D01*
X615732Y1227560D01*
X615549Y1227541D01*
X615532Y1227536D01*
X615515Y1227534D01*
X615340Y1227477D01*
X615164Y1227423D01*
X615149Y1227415D01*
X615132Y1227409D01*
X614972Y1227319D01*
X614810Y1227231D01*
X614797Y1227220D01*
X614781Y1227211D01*
X614642Y1227091D01*
X614501Y1226974D01*
X614490Y1226960D01*
X614477Y1226948D01*
X614364Y1226803D01*
X614249Y1226660D01*
X614241Y1226644D01*
X614230Y1226630D01*
X614148Y1226465D01*
X614063Y1226303D01*
X614058Y1226286D01*
X614050Y1226270D01*
X614003Y1226091D01*
X613952Y1225916D01*
X613950Y1225898D01*
X613946Y1225881D01*
X613919Y1225550D01*
X613919Y1162050D01*
X613921Y1162023D01*
X613919Y1161997D01*
X613941Y1161823D01*
X613959Y1161649D01*
X613967Y1161624D01*
X613970Y1161597D01*
X614026Y1161432D01*
X614077Y1161264D01*
X614090Y1161241D01*
X614098Y1161216D01*
X614185Y1161064D01*
X614269Y1160910D01*
X614286Y1160890D01*
X614299Y1160867D01*
X614514Y1160614D01*
X620269Y1154859D01*
X620269Y1143000D01*
X620271Y1142982D01*
X620269Y1142964D01*
X620290Y1142782D01*
X620309Y1142599D01*
X620314Y1142582D01*
X620316Y1142565D01*
X620373Y1142390D01*
X620427Y1142214D01*
X620435Y1142199D01*
X620441Y1142182D01*
X620531Y1142022D01*
X620619Y1141860D01*
X620630Y1141847D01*
X620639Y1141831D01*
X620759Y1141692D01*
X620876Y1141551D01*
X620890Y1141540D01*
X620902Y1141527D01*
X621047Y1141414D01*
X621190Y1141299D01*
X621206Y1141291D01*
X621220Y1141280D01*
X621385Y1141198D01*
X621547Y1141113D01*
X621564Y1141108D01*
X621581Y1141100D01*
X621759Y1141053D01*
X621934Y1141002D01*
X621952Y1141000D01*
X621969Y1140996D01*
X622300Y1140969D01*
X698500Y1140969D01*
X698518Y1140971D01*
G37*
%LPC*%
G36*
X236087Y1184147D02*
X236087Y1184147D01*
X236087Y1207771D01*
X254330Y1207771D01*
X254976Y1207598D01*
X255555Y1207263D01*
X256028Y1206790D01*
X256363Y1206211D01*
X256536Y1205565D01*
X256536Y1184147D01*
X236087Y1184147D01*
G37*
%LPD*%
%LPC*%
G36*
X83687Y1184147D02*
X83687Y1184147D01*
X83687Y1207771D01*
X101930Y1207771D01*
X102576Y1207598D01*
X103155Y1207263D01*
X103628Y1206790D01*
X103963Y1206211D01*
X104136Y1205565D01*
X104136Y1184147D01*
X83687Y1184147D01*
G37*
%LPD*%
%LPC*%
G36*
X388487Y1184147D02*
X388487Y1184147D01*
X388487Y1207771D01*
X406730Y1207771D01*
X407376Y1207598D01*
X407955Y1207263D01*
X408428Y1206790D01*
X408763Y1206211D01*
X408936Y1205565D01*
X408936Y1184147D01*
X388487Y1184147D01*
G37*
%LPD*%
%LPC*%
G36*
X83687Y1154429D02*
X83687Y1154429D01*
X83687Y1178053D01*
X104136Y1178053D01*
X104136Y1156635D01*
X103963Y1155989D01*
X103628Y1155410D01*
X103155Y1154937D01*
X102576Y1154602D01*
X101930Y1154429D01*
X83687Y1154429D01*
G37*
%LPD*%
%LPC*%
G36*
X388487Y1154429D02*
X388487Y1154429D01*
X388487Y1178053D01*
X408936Y1178053D01*
X408936Y1156635D01*
X408763Y1155989D01*
X408428Y1155410D01*
X407955Y1154937D01*
X407376Y1154602D01*
X406730Y1154429D01*
X388487Y1154429D01*
G37*
%LPD*%
%LPC*%
G36*
X236087Y1154429D02*
X236087Y1154429D01*
X236087Y1178053D01*
X256536Y1178053D01*
X256536Y1156635D01*
X256363Y1155989D01*
X256028Y1155410D01*
X255555Y1154937D01*
X254976Y1154602D01*
X254330Y1154429D01*
X236087Y1154429D01*
G37*
%LPD*%
%LPC*%
G36*
X57144Y1184147D02*
X57144Y1184147D01*
X57144Y1205565D01*
X57317Y1206211D01*
X57652Y1206790D01*
X58125Y1207263D01*
X58704Y1207598D01*
X59350Y1207771D01*
X77593Y1207771D01*
X77593Y1184147D01*
X57144Y1184147D01*
G37*
%LPD*%
%LPC*%
G36*
X209544Y1184147D02*
X209544Y1184147D01*
X209544Y1205565D01*
X209717Y1206211D01*
X210052Y1206790D01*
X210525Y1207263D01*
X211104Y1207598D01*
X211750Y1207771D01*
X229993Y1207771D01*
X229993Y1184147D01*
X209544Y1184147D01*
G37*
%LPD*%
%LPC*%
G36*
X361944Y1184147D02*
X361944Y1184147D01*
X361944Y1205565D01*
X362117Y1206211D01*
X362452Y1206790D01*
X362925Y1207263D01*
X363504Y1207598D01*
X364150Y1207771D01*
X382393Y1207771D01*
X382393Y1184147D01*
X361944Y1184147D01*
G37*
%LPD*%
%LPC*%
G36*
X211750Y1154429D02*
X211750Y1154429D01*
X211104Y1154602D01*
X210525Y1154937D01*
X210052Y1155410D01*
X209717Y1155989D01*
X209544Y1156635D01*
X209544Y1178053D01*
X229993Y1178053D01*
X229993Y1154429D01*
X211750Y1154429D01*
G37*
%LPD*%
%LPC*%
G36*
X59350Y1154429D02*
X59350Y1154429D01*
X58704Y1154602D01*
X58125Y1154937D01*
X57652Y1155410D01*
X57317Y1155989D01*
X57144Y1156635D01*
X57144Y1178053D01*
X77593Y1178053D01*
X77593Y1154429D01*
X59350Y1154429D01*
G37*
%LPD*%
%LPC*%
G36*
X364150Y1154429D02*
X364150Y1154429D01*
X363504Y1154602D01*
X362925Y1154937D01*
X362452Y1155410D01*
X362117Y1155989D01*
X361944Y1156635D01*
X361944Y1178053D01*
X382393Y1178053D01*
X382393Y1154429D01*
X364150Y1154429D01*
G37*
%LPD*%
%LPC*%
G36*
X664463Y1180723D02*
X664463Y1180723D01*
X664463Y1200156D01*
X684865Y1200156D01*
X685511Y1199983D01*
X686090Y1199648D01*
X686563Y1199175D01*
X686898Y1198596D01*
X687071Y1197950D01*
X687071Y1180723D01*
X664463Y1180723D01*
G37*
%LPD*%
%LPC*%
G36*
X550163Y1180723D02*
X550163Y1180723D01*
X550163Y1200156D01*
X570565Y1200156D01*
X571211Y1199983D01*
X571790Y1199648D01*
X572263Y1199175D01*
X572598Y1198596D01*
X572771Y1197950D01*
X572771Y1180723D01*
X550163Y1180723D01*
G37*
%LPD*%
%LPC*%
G36*
X194563Y834003D02*
X194563Y834003D01*
X194563Y853436D01*
X214965Y853436D01*
X215611Y853263D01*
X216190Y852928D01*
X216663Y852455D01*
X216998Y851876D01*
X217171Y851230D01*
X217171Y834003D01*
X194563Y834003D01*
G37*
%LPD*%
%LPC*%
G36*
X519429Y1180723D02*
X519429Y1180723D01*
X519429Y1197950D01*
X519602Y1198596D01*
X519937Y1199175D01*
X520410Y1199648D01*
X520989Y1199983D01*
X521635Y1200156D01*
X542037Y1200156D01*
X542037Y1180723D01*
X519429Y1180723D01*
G37*
%LPD*%
%LPC*%
G36*
X633729Y1180723D02*
X633729Y1180723D01*
X633729Y1197950D01*
X633902Y1198596D01*
X634237Y1199175D01*
X634710Y1199648D01*
X635289Y1199983D01*
X635935Y1200156D01*
X656337Y1200156D01*
X656337Y1180723D01*
X633729Y1180723D01*
G37*
%LPD*%
%LPC*%
G36*
X163829Y834003D02*
X163829Y834003D01*
X163829Y851230D01*
X164002Y851876D01*
X164337Y852455D01*
X164810Y852928D01*
X165389Y853263D01*
X166035Y853436D01*
X186437Y853436D01*
X186437Y834003D01*
X163829Y834003D01*
G37*
%LPD*%
%LPC*%
G36*
X550163Y1153164D02*
X550163Y1153164D01*
X550163Y1172597D01*
X572771Y1172597D01*
X572771Y1155370D01*
X572598Y1154724D01*
X572263Y1154145D01*
X571790Y1153672D01*
X571211Y1153337D01*
X570565Y1153164D01*
X550163Y1153164D01*
G37*
%LPD*%
%LPC*%
G36*
X664463Y1153164D02*
X664463Y1153164D01*
X664463Y1172597D01*
X687071Y1172597D01*
X687071Y1155370D01*
X686898Y1154724D01*
X686563Y1154145D01*
X686090Y1153672D01*
X685511Y1153337D01*
X684865Y1153164D01*
X664463Y1153164D01*
G37*
%LPD*%
%LPC*%
G36*
X194563Y806444D02*
X194563Y806444D01*
X194563Y825877D01*
X217171Y825877D01*
X217171Y808650D01*
X216998Y808004D01*
X216663Y807425D01*
X216190Y806952D01*
X215611Y806617D01*
X214965Y806444D01*
X194563Y806444D01*
G37*
%LPD*%
%LPC*%
G36*
X521635Y1153164D02*
X521635Y1153164D01*
X520989Y1153337D01*
X520410Y1153672D01*
X519937Y1154145D01*
X519602Y1154724D01*
X519429Y1155370D01*
X519429Y1172597D01*
X542037Y1172597D01*
X542037Y1153164D01*
X521635Y1153164D01*
G37*
%LPD*%
%LPC*%
G36*
X635935Y1153164D02*
X635935Y1153164D01*
X635289Y1153337D01*
X634710Y1153672D01*
X634237Y1154145D01*
X633902Y1154724D01*
X633729Y1155370D01*
X633729Y1172597D01*
X656337Y1172597D01*
X656337Y1153164D01*
X635935Y1153164D01*
G37*
%LPD*%
%LPC*%
G36*
X166035Y806444D02*
X166035Y806444D01*
X165389Y806617D01*
X164810Y806952D01*
X164337Y807425D01*
X164002Y808004D01*
X163829Y808650D01*
X163829Y825877D01*
X186437Y825877D01*
X186437Y806444D01*
X166035Y806444D01*
G37*
%LPD*%
%LPC*%
G36*
X872859Y994099D02*
X872859Y994099D01*
X872859Y997935D01*
X873032Y998581D01*
X873367Y999160D01*
X873840Y999633D01*
X874419Y999968D01*
X875065Y1000141D01*
X886901Y1000141D01*
X886901Y994099D01*
X872859Y994099D01*
G37*
%LPD*%
%LPC*%
G36*
X875065Y981059D02*
X875065Y981059D01*
X874419Y981232D01*
X873840Y981567D01*
X873367Y982040D01*
X873032Y982619D01*
X872859Y983265D01*
X872859Y987101D01*
X886901Y987101D01*
X886901Y981059D01*
X875065Y981059D01*
G37*
%LPD*%
%LPC*%
G36*
X896859Y943049D02*
X896859Y943049D01*
X896859Y947635D01*
X897032Y948281D01*
X897367Y948860D01*
X897840Y949333D01*
X898419Y949668D01*
X899065Y949841D01*
X902651Y949841D01*
X902651Y943049D01*
X896859Y943049D01*
G37*
%LPD*%
%LPC*%
G36*
X899065Y929759D02*
X899065Y929759D01*
X898419Y929932D01*
X897840Y930267D01*
X897367Y930740D01*
X897032Y931319D01*
X896859Y931965D01*
X896859Y936551D01*
X902651Y936551D01*
X902651Y929759D01*
X899065Y929759D01*
G37*
%LPD*%
%LPC*%
G36*
X385439Y1181099D02*
X385439Y1181099D01*
X385439Y1181101D01*
X385441Y1181101D01*
X385441Y1181099D01*
X385439Y1181099D01*
G37*
%LPD*%
%LPC*%
G36*
X546099Y1176659D02*
X546099Y1176659D01*
X546099Y1176661D01*
X546101Y1176661D01*
X546101Y1176659D01*
X546099Y1176659D01*
G37*
%LPD*%
%LPC*%
G36*
X660399Y1176659D02*
X660399Y1176659D01*
X660399Y1176661D01*
X660401Y1176661D01*
X660401Y1176659D01*
X660399Y1176659D01*
G37*
%LPD*%
%LPC*%
G36*
X190499Y829939D02*
X190499Y829939D01*
X190499Y829941D01*
X190501Y829941D01*
X190501Y829939D01*
X190499Y829939D01*
G37*
%LPD*%
%LPC*%
G36*
X80639Y1181099D02*
X80639Y1181099D01*
X80639Y1181101D01*
X80641Y1181101D01*
X80641Y1181099D01*
X80639Y1181099D01*
G37*
%LPD*%
%LPC*%
G36*
X233039Y1181099D02*
X233039Y1181099D01*
X233039Y1181101D01*
X233041Y1181101D01*
X233041Y1181099D01*
X233039Y1181099D01*
G37*
%LPD*%
D10*
X943100Y1079500D03*
X911100Y1079500D03*
X873000Y1231900D03*
X905000Y1231900D03*
D11*
X774700Y79400D03*
X774700Y98400D03*
X749300Y79400D03*
X749300Y98400D03*
X825500Y79400D03*
X825500Y98400D03*
X800100Y79400D03*
X800100Y98400D03*
D12*
X140840Y1333500D03*
X188840Y1333500D03*
D11*
X850900Y79400D03*
X850900Y98400D03*
D13*
X720750Y428625D03*
X739750Y428625D03*
D11*
X850900Y628675D03*
X850900Y647675D03*
X657225Y615975D03*
X657225Y634975D03*
D13*
X917550Y431800D03*
X898550Y431800D03*
X917550Y381000D03*
X898550Y381000D03*
D11*
X742950Y387375D03*
X742950Y406375D03*
D13*
X1397025Y381000D03*
X1416025Y381000D03*
X1384325Y457200D03*
X1403325Y457200D03*
X98450Y1117600D03*
X117450Y1117600D03*
D11*
X161925Y1031850D03*
X161925Y1012850D03*
D10*
X66800Y1117600D03*
X34800Y1117600D03*
D11*
X1095375Y333400D03*
X1095375Y352400D03*
D13*
X1193825Y381000D03*
X1212825Y381000D03*
D14*
X993775Y27060D03*
X993775Y75060D03*
D13*
X1181125Y457200D03*
X1200125Y457200D03*
X250850Y1117600D03*
X269850Y1117600D03*
D11*
X314325Y1031850D03*
X314325Y1012850D03*
X1298575Y330225D03*
X1298575Y349225D03*
D10*
X219200Y1117600D03*
X187200Y1117600D03*
D13*
X403250Y1117600D03*
X422250Y1117600D03*
D11*
X466725Y1031850D03*
X466725Y1012850D03*
D14*
X1333500Y773300D03*
X1333500Y725300D03*
X1333500Y1163825D03*
X1333500Y1115825D03*
X1333500Y1030100D03*
X1333500Y1078100D03*
D13*
X698475Y631825D03*
X679475Y631825D03*
D15*
X88900Y692150D03*
D16*
X38100Y692150D03*
D11*
X1298575Y797950D03*
X1298575Y814950D03*
X1266825Y1056250D03*
X1266825Y1039250D03*
X1285875Y1056250D03*
X1285875Y1039250D03*
X647700Y79400D03*
X647700Y98400D03*
X685800Y79400D03*
X685800Y98400D03*
X279400Y771500D03*
X279400Y752500D03*
D13*
X396900Y749300D03*
X415900Y749300D03*
X333400Y850900D03*
X352400Y850900D03*
D11*
X419100Y638200D03*
X419100Y657200D03*
D10*
X943100Y1123950D03*
X911100Y1123950D03*
D17*
X31750Y818700D03*
X31750Y857700D03*
D18*
X419100Y917700D03*
X419100Y885700D03*
D19*
X108400Y768350D03*
X69400Y768350D03*
D11*
X381000Y892200D03*
X381000Y911200D03*
D14*
X1219200Y639950D03*
X1219200Y591950D03*
D11*
X1174750Y504800D03*
X1174750Y485800D03*
D13*
X922900Y939800D03*
X905900Y939800D03*
D15*
X1079500Y749300D03*
D20*
X1079500Y698500D03*
D15*
X971550Y749300D03*
D20*
X971550Y698500D03*
D13*
X986400Y844550D03*
X969400Y844550D03*
D12*
X890400Y990600D03*
X938400Y990600D03*
D11*
X1346200Y850875D03*
X1346200Y831875D03*
X1320800Y850875D03*
X1320800Y831875D03*
D14*
X101600Y39500D03*
X101600Y87500D03*
X101600Y249050D03*
X101600Y297050D03*
X101600Y458600D03*
X101600Y506600D03*
X330200Y227200D03*
X330200Y179200D03*
X330200Y436750D03*
X330200Y388750D03*
D10*
X371600Y1117600D03*
X339600Y1117600D03*
D18*
X419100Y682500D03*
X419100Y714500D03*
D21*
X1261453Y80122D03*
X1261453Y121122D03*
X1460500Y93800D03*
X1460500Y134800D03*
D22*
X1423850Y76200D03*
X1382850Y76200D03*
X1217475Y76200D03*
X1176475Y76200D03*
X1024075Y101600D03*
X1065075Y101600D03*
X680900Y1238250D03*
X639900Y1238250D03*
X922475Y101600D03*
X963475Y101600D03*
D23*
X1314675Y76200D03*
X1358675Y76200D03*
X1098775Y76200D03*
X1142775Y76200D03*
D24*
X514350Y484505D02*
X514350Y499745D01*
X488950Y499745D02*
X488950Y484505D01*
X463550Y484505D02*
X463550Y499745D01*
X438150Y499745D02*
X438150Y484505D01*
D25*
X190500Y190500D03*
X190500Y165100D03*
X190500Y139700D03*
X190500Y114300D03*
D26*
X1301750Y678942D02*
X1301750Y692658D01*
X1327150Y692658D02*
X1327150Y678942D01*
D27*
X1162625Y438150D03*
X1162625Y425450D03*
X1162625Y412750D03*
X1162625Y400050D03*
X1218625Y400050D03*
X1218625Y412750D03*
X1218625Y425450D03*
X1218625Y438150D03*
D28*
X356200Y895350D03*
X304200Y895350D03*
X356200Y882650D03*
X356200Y908050D03*
X356200Y920750D03*
X304200Y882650D03*
X304200Y908050D03*
X304200Y920750D03*
D29*
X464566Y241300D03*
X526034Y241300D03*
X464566Y228600D03*
X464566Y215900D03*
X526034Y228600D03*
X526034Y215900D03*
X464566Y203200D03*
X526034Y203200D03*
X464566Y190500D03*
X526034Y190500D03*
X464566Y177800D03*
X464566Y165100D03*
X526034Y177800D03*
X526034Y165100D03*
X464566Y152400D03*
X526034Y152400D03*
D30*
X107950Y1092800D03*
X107950Y1040800D03*
X120650Y1092800D03*
X95250Y1092800D03*
X82550Y1092800D03*
X120650Y1040800D03*
X95250Y1040800D03*
X82550Y1040800D03*
D27*
X1365825Y438150D03*
X1365825Y425450D03*
X1365825Y412750D03*
X1365825Y400050D03*
X1421825Y400050D03*
X1421825Y412750D03*
X1421825Y425450D03*
X1421825Y438150D03*
D30*
X260350Y1092800D03*
X260350Y1040800D03*
X273050Y1092800D03*
X247650Y1092800D03*
X234950Y1092800D03*
X273050Y1040800D03*
X247650Y1040800D03*
X234950Y1040800D03*
X412750Y1092800D03*
X412750Y1040800D03*
X425450Y1092800D03*
X400050Y1092800D03*
X387350Y1092800D03*
X425450Y1040800D03*
X400050Y1040800D03*
X387350Y1040800D03*
D31*
X704850Y272034D03*
X704850Y210566D03*
X692150Y272034D03*
X679450Y272034D03*
X692150Y210566D03*
X679450Y210566D03*
X666750Y272034D03*
X666750Y210566D03*
X654050Y272034D03*
X654050Y210566D03*
X641350Y272034D03*
X628650Y272034D03*
X641350Y210566D03*
X628650Y210566D03*
X615950Y272034D03*
X615950Y210566D03*
D32*
X349250Y828100D03*
X336550Y828100D03*
X323850Y828100D03*
X311150Y828100D03*
X311150Y772100D03*
X323850Y772100D03*
X336550Y772100D03*
X349250Y772100D03*
D33*
X370600Y650300D03*
X370600Y695900D03*
D34*
X309240Y673100D03*
D35*
X1244600Y723900D03*
X1244600Y749300D03*
X1244600Y774700D03*
X1244600Y800100D03*
X1244600Y825500D03*
X1244600Y1079500D03*
X1244600Y1104900D03*
X1244600Y1130300D03*
X1244600Y1155700D03*
X1244600Y1181100D03*
X1244600Y1206500D03*
D36*
X1039400Y1295900D03*
X789400Y1295900D03*
D37*
X914400Y1281700D03*
X942100Y1281700D03*
X969800Y1281700D03*
X886700Y1281700D03*
X859000Y1281700D03*
X872850Y1310100D03*
X900550Y1310100D03*
X928250Y1310100D03*
X955950Y1310100D03*
D38*
X1155700Y1270000D03*
D39*
X1155700Y1330000D03*
D40*
X1203200Y1288000D03*
X1203200Y1335000D03*
X1108200Y1288000D03*
X1108200Y1335000D03*
D41*
X1447800Y628650D03*
X1422400Y628650D03*
X1447800Y654050D03*
X1422400Y654050D03*
X1447800Y679450D03*
X1422400Y679450D03*
X1447800Y704850D03*
X1422400Y704850D03*
X1447800Y730250D03*
X1422400Y730250D03*
X1447800Y755650D03*
X1422400Y755650D03*
X1447800Y781050D03*
X1422400Y781050D03*
X1447800Y806450D03*
X1422400Y806450D03*
X1447800Y831850D03*
X1422400Y831850D03*
X1447800Y857250D03*
X1422400Y857250D03*
X1447800Y882650D03*
X1422400Y882650D03*
X1447800Y908050D03*
X1422400Y908050D03*
X1447800Y933450D03*
X1422400Y933450D03*
X1447800Y958850D03*
X1422400Y958850D03*
X1447800Y984250D03*
X1422400Y984250D03*
X1447800Y1009650D03*
X1422400Y1009650D03*
X1447800Y1035050D03*
X1422400Y1035050D03*
X1447800Y1060450D03*
X1422400Y1060450D03*
X1447800Y1085850D03*
X1422400Y1085850D03*
X1447800Y1111250D03*
X1422400Y1111250D03*
D42*
X381000Y88900D03*
X355600Y88900D03*
X381000Y114300D03*
X355600Y114300D03*
X381000Y139700D03*
X355600Y139700D03*
D43*
X50800Y177800D03*
X76200Y177800D03*
X50800Y152400D03*
X76200Y152400D03*
X50800Y127000D03*
X76200Y127000D03*
D44*
X498475Y727075D03*
X498475Y752475D03*
X523875Y727075D03*
X523875Y752475D03*
X549275Y727075D03*
X549275Y752475D03*
X574675Y752475D03*
X574675Y727075D03*
D43*
X50800Y387350D03*
X76200Y387350D03*
X50800Y361950D03*
X76200Y361950D03*
X50800Y336550D03*
X76200Y336550D03*
X50800Y596900D03*
X76200Y596900D03*
X50800Y571500D03*
X76200Y571500D03*
X50800Y546100D03*
X76200Y546100D03*
D42*
X381000Y298450D03*
X355600Y298450D03*
X381000Y323850D03*
X355600Y323850D03*
X381000Y349250D03*
X355600Y349250D03*
D45*
X190500Y658200D03*
X190500Y764200D03*
X1028700Y1024550D03*
X1028700Y918550D03*
D46*
X861822Y381000D02*
X852678Y381000D01*
X852678Y431800D02*
X861822Y431800D01*
D47*
X213300Y891300D03*
X167700Y891300D03*
D48*
X190500Y829940D03*
D47*
X1359475Y269000D03*
X1313875Y269000D03*
D48*
X1336675Y207640D03*
D47*
X1067375Y269000D03*
X1021775Y269000D03*
D48*
X1044575Y207640D03*
D47*
X1156275Y269000D03*
X1110675Y269000D03*
D48*
X1133475Y207640D03*
D47*
X965775Y269000D03*
X920175Y269000D03*
D48*
X942975Y207640D03*
D11*
X908050Y1158900D03*
X908050Y1177900D03*
X381000Y377850D03*
X381000Y396850D03*
D13*
X920775Y304800D03*
X939775Y304800D03*
X685825Y873125D03*
X704825Y873125D03*
D11*
X933450Y1158900D03*
X933450Y1177900D03*
D13*
X1101750Y457200D03*
X1120750Y457200D03*
X1000100Y1104900D03*
X981100Y1104900D03*
X660375Y1082675D03*
X641375Y1082675D03*
D11*
X523875Y1063650D03*
X523875Y1082650D03*
D13*
X73000Y203200D03*
X54000Y203200D03*
X73000Y412750D03*
X54000Y412750D03*
X73000Y622300D03*
X54000Y622300D03*
X701700Y1082675D03*
X720700Y1082675D03*
X358800Y273050D03*
X377800Y273050D03*
D11*
X879475Y238100D03*
X879475Y219100D03*
X854075Y238100D03*
X854075Y219100D03*
D13*
X552425Y923925D03*
X533425Y923925D03*
X552425Y949325D03*
X533425Y949325D03*
X685825Y974725D03*
X704825Y974725D03*
D11*
X381000Y168300D03*
X381000Y187300D03*
D13*
X358800Y63500D03*
X377800Y63500D03*
D11*
X1298575Y371500D03*
X1298575Y390500D03*
X1343025Y415950D03*
X1343025Y434950D03*
D13*
X898550Y406400D03*
X917550Y406400D03*
D11*
X1368425Y377800D03*
X1368425Y358800D03*
X1362075Y327000D03*
X1362075Y308000D03*
D13*
X1431950Y304800D03*
X1450950Y304800D03*
X1409675Y304800D03*
X1390675Y304800D03*
D49*
X1457325Y342900D03*
X1457325Y368300D03*
X1457325Y393700D03*
D13*
X161900Y1117600D03*
X142900Y1117600D03*
D11*
X41275Y1044550D03*
X41275Y1025550D03*
D13*
X41300Y1079500D03*
X60300Y1079500D03*
D11*
X161925Y987400D03*
X161925Y968400D03*
X161925Y1085825D03*
X161925Y1066825D03*
D13*
X552475Y1082675D03*
X571475Y1082675D03*
D49*
X63500Y977900D03*
X88900Y977900D03*
X114300Y977900D03*
D13*
X92100Y1016000D03*
X111100Y1016000D03*
D11*
X139700Y1085825D03*
X139700Y1066825D03*
X1095375Y374675D03*
X1095375Y393675D03*
X1139825Y434950D03*
X1139825Y415950D03*
X1171575Y377800D03*
X1171575Y358800D03*
X1158875Y327000D03*
X1158875Y308000D03*
D13*
X1228750Y304800D03*
X1247750Y304800D03*
X1206475Y304800D03*
X1187475Y304800D03*
D11*
X50800Y307950D03*
X50800Y288950D03*
D49*
X1254125Y342900D03*
X1254125Y368300D03*
X1254125Y393700D03*
D11*
X1441450Y428650D03*
X1441450Y447650D03*
X1241425Y429285D03*
X1241425Y448285D03*
X1069975Y327000D03*
X1069975Y308000D03*
D13*
X1022375Y304800D03*
X1041375Y304800D03*
D11*
X1120775Y323825D03*
X1120775Y304825D03*
X1323975Y323825D03*
X1323975Y304825D03*
D13*
X314300Y1117600D03*
X295300Y1117600D03*
D11*
X193675Y1044550D03*
X193675Y1025550D03*
D13*
X193700Y1079500D03*
X212700Y1079500D03*
D11*
X50800Y79400D03*
X50800Y98400D03*
D13*
X244500Y1016000D03*
X263500Y1016000D03*
D11*
X314325Y987400D03*
X314325Y968400D03*
X314325Y1085825D03*
X314325Y1066825D03*
D49*
X215900Y977900D03*
X241300Y977900D03*
X266700Y977900D03*
D11*
X292100Y1085825D03*
X292100Y1066825D03*
D50*
X330200Y1195320D03*
X330200Y1166880D03*
X177800Y1195320D03*
X177800Y1166880D03*
D13*
X466700Y1117600D03*
X447700Y1117600D03*
D11*
X346075Y1044550D03*
X346075Y1025550D03*
D13*
X930300Y1244600D03*
X949300Y1244600D03*
X346100Y1079500D03*
X365100Y1079500D03*
D11*
X466725Y987400D03*
X466725Y968400D03*
X466725Y1085825D03*
X466725Y1066825D03*
D49*
X368300Y977900D03*
X393700Y977900D03*
X419100Y977900D03*
D13*
X396900Y1016000D03*
X415900Y1016000D03*
D11*
X444500Y1085825D03*
X444500Y1066825D03*
D50*
X482600Y1195320D03*
X482600Y1166880D03*
D13*
X511150Y454025D03*
X492150Y454025D03*
X949300Y1206500D03*
X930300Y1206500D03*
D11*
X50800Y517500D03*
X50800Y498500D03*
X1257300Y485800D03*
X1257300Y504800D03*
D49*
X1219200Y495300D03*
X1219200Y520700D03*
X1219200Y546100D03*
D11*
X720725Y387375D03*
X720725Y406375D03*
D13*
X241325Y1346200D03*
X260325Y1346200D03*
X327000Y749300D03*
X308000Y749300D03*
D11*
X368300Y777900D03*
X368300Y796900D03*
D13*
X368275Y749300D03*
X349275Y749300D03*
X263500Y901700D03*
X244500Y901700D03*
D49*
X406400Y838200D03*
X406400Y812800D03*
X406400Y787400D03*
D13*
X987400Y819150D03*
X968400Y819150D03*
X1022375Y1104900D03*
X1041375Y1104900D03*
D11*
X914400Y784250D03*
X914400Y803250D03*
X939800Y803250D03*
X939800Y784250D03*
D13*
X685825Y949325D03*
X704825Y949325D03*
X685825Y923925D03*
X704825Y923925D03*
X685825Y898525D03*
X704825Y898525D03*
X552425Y822325D03*
X533425Y822325D03*
X552425Y796925D03*
X533425Y796925D03*
X552425Y847725D03*
X533425Y847725D03*
X552425Y873125D03*
X533425Y873125D03*
D11*
X968375Y327000D03*
X968375Y308000D03*
D51*
X628650Y822325D03*
X603250Y822325D03*
X628650Y847725D03*
X603250Y847725D03*
X628650Y873125D03*
X603250Y873125D03*
X628650Y898525D03*
X603250Y898525D03*
X628650Y923925D03*
X603250Y923925D03*
X628650Y949325D03*
X603250Y949325D03*
X628650Y974725D03*
X603250Y974725D03*
D52*
X699250Y425725D03*
X699250Y380725D03*
X634250Y425725D03*
D53*
X634250Y380725D03*
D54*
X1323975Y404700D03*
X1333475Y382700D03*
X1314475Y382700D03*
X1406525Y331900D03*
X1397025Y353900D03*
X1416025Y353900D03*
X1120775Y404700D03*
X1130275Y382700D03*
X1111275Y382700D03*
X1203325Y331900D03*
X1193825Y353900D03*
X1212825Y353900D03*
D47*
X1402775Y188200D03*
X1448375Y188200D03*
D48*
X1425575Y249560D03*
D47*
X1199575Y188200D03*
X1245175Y188200D03*
D48*
X1222375Y249560D03*
D33*
X294400Y1158300D03*
X294400Y1203900D03*
D34*
X233040Y1181100D03*
D33*
X142000Y1158300D03*
X142000Y1203900D03*
D34*
X80640Y1181100D03*
D33*
X446800Y1158300D03*
X446800Y1203900D03*
D34*
X385440Y1181100D03*
D55*
X406400Y63500D03*
X406400Y88900D03*
X406400Y114300D03*
X406400Y139700D03*
X406400Y165100D03*
X406400Y190500D03*
X406400Y215900D03*
X406400Y241300D03*
X279400Y241300D03*
X279400Y215900D03*
X279400Y190500D03*
X279400Y165100D03*
X279400Y139700D03*
X279400Y114300D03*
X279400Y88900D03*
X279400Y63500D03*
D56*
X850900Y863600D03*
D57*
X934212Y829564D03*
X934212Y846582D03*
X934212Y863600D03*
X934212Y880618D03*
X934212Y897636D03*
D55*
X25400Y203200D03*
X25400Y177800D03*
X25400Y152400D03*
X25400Y127000D03*
X25400Y101600D03*
X25400Y76200D03*
X25400Y50800D03*
X25400Y25400D03*
X152400Y25400D03*
X152400Y50800D03*
X152400Y76200D03*
X152400Y101600D03*
X152400Y127000D03*
X152400Y152400D03*
X152400Y177800D03*
X152400Y203200D03*
X25400Y412750D03*
X25400Y387350D03*
X25400Y361950D03*
X25400Y336550D03*
X25400Y311150D03*
X25400Y285750D03*
X25400Y260350D03*
X25400Y234950D03*
X152400Y234950D03*
X152400Y260350D03*
X152400Y285750D03*
X152400Y311150D03*
X152400Y336550D03*
X152400Y361950D03*
X152400Y387350D03*
X152400Y412750D03*
X25400Y622300D03*
X25400Y596900D03*
X25400Y571500D03*
X25400Y546100D03*
X25400Y520700D03*
X25400Y495300D03*
X25400Y469900D03*
X25400Y444500D03*
X152400Y444500D03*
X152400Y469900D03*
X152400Y495300D03*
X152400Y520700D03*
X152400Y546100D03*
X152400Y571500D03*
X152400Y596900D03*
X152400Y622300D03*
X406400Y273050D03*
X406400Y298450D03*
X406400Y323850D03*
X406400Y349250D03*
X406400Y374650D03*
X406400Y400050D03*
X406400Y425450D03*
X406400Y450850D03*
X279400Y450850D03*
X279400Y425450D03*
X279400Y400050D03*
X279400Y374650D03*
X279400Y349250D03*
X279400Y323850D03*
X279400Y298450D03*
X279400Y273050D03*
D58*
X692695Y606805D02*
X704105Y606805D01*
X704105Y605395D01*
X692695Y605395D01*
X692695Y606805D01*
X692695Y601805D02*
X704105Y601805D01*
X704105Y600395D01*
X692695Y600395D01*
X692695Y601805D01*
X692695Y596805D02*
X704105Y596805D01*
X704105Y595395D01*
X692695Y595395D01*
X692695Y596805D01*
X692695Y591805D02*
X704105Y591805D01*
X704105Y590395D01*
X692695Y590395D01*
X692695Y591805D01*
X692695Y586805D02*
X704105Y586805D01*
X704105Y585395D01*
X692695Y585395D01*
X692695Y586805D01*
X692695Y581805D02*
X704105Y581805D01*
X704105Y580395D01*
X692695Y580395D01*
X692695Y581805D01*
X692695Y576805D02*
X704105Y576805D01*
X704105Y575395D01*
X692695Y575395D01*
X692695Y576805D01*
X692695Y571805D02*
X704105Y571805D01*
X704105Y570395D01*
X692695Y570395D01*
X692695Y571805D01*
X692695Y566805D02*
X704105Y566805D01*
X704105Y565395D01*
X692695Y565395D01*
X692695Y566805D01*
X692695Y561805D02*
X704105Y561805D01*
X704105Y560395D01*
X692695Y560395D01*
X692695Y561805D01*
X692695Y556805D02*
X704105Y556805D01*
X704105Y555395D01*
X692695Y555395D01*
X692695Y556805D01*
X692695Y551805D02*
X704105Y551805D01*
X704105Y550395D01*
X692695Y550395D01*
X692695Y551805D01*
X692695Y546805D02*
X704105Y546805D01*
X704105Y545395D01*
X692695Y545395D01*
X692695Y546805D01*
X692695Y541805D02*
X704105Y541805D01*
X704105Y540395D01*
X692695Y540395D01*
X692695Y541805D01*
X692695Y536805D02*
X704105Y536805D01*
X704105Y535395D01*
X692695Y535395D01*
X692695Y536805D01*
X692695Y531805D02*
X704105Y531805D01*
X704105Y530395D01*
X692695Y530395D01*
X692695Y531805D01*
X692695Y526805D02*
X704105Y526805D01*
X704105Y525395D01*
X692695Y525395D01*
X692695Y526805D01*
X692695Y521805D02*
X704105Y521805D01*
X704105Y520395D01*
X692695Y520395D01*
X692695Y521805D01*
X692695Y516805D02*
X704105Y516805D01*
X704105Y515395D01*
X692695Y515395D01*
X692695Y516805D01*
X692695Y511805D02*
X704105Y511805D01*
X704105Y510395D01*
X692695Y510395D01*
X692695Y511805D01*
X692695Y506805D02*
X704105Y506805D01*
X704105Y505395D01*
X692695Y505395D01*
X692695Y506805D01*
X692695Y501805D02*
X704105Y501805D01*
X704105Y500395D01*
X692695Y500395D01*
X692695Y501805D01*
X692695Y496805D02*
X704105Y496805D01*
X704105Y495395D01*
X692695Y495395D01*
X692695Y496805D01*
X692695Y491805D02*
X704105Y491805D01*
X704105Y490395D01*
X692695Y490395D01*
X692695Y491805D01*
X692695Y486805D02*
X704105Y486805D01*
X704105Y485395D01*
X692695Y485395D01*
X692695Y486805D01*
X713995Y475505D02*
X713995Y464095D01*
X713995Y475505D02*
X715405Y475505D01*
X715405Y464095D01*
X713995Y464095D01*
X713995Y465605D02*
X715405Y465605D01*
X715405Y467115D02*
X713995Y467115D01*
X713995Y468625D02*
X715405Y468625D01*
X715405Y470135D02*
X713995Y470135D01*
X713995Y471645D02*
X715405Y471645D01*
X715405Y473155D02*
X713995Y473155D01*
X713995Y474665D02*
X715405Y474665D01*
X718995Y475505D02*
X718995Y464095D01*
X718995Y475505D02*
X720405Y475505D01*
X720405Y464095D01*
X718995Y464095D01*
X718995Y465605D02*
X720405Y465605D01*
X720405Y467115D02*
X718995Y467115D01*
X718995Y468625D02*
X720405Y468625D01*
X720405Y470135D02*
X718995Y470135D01*
X718995Y471645D02*
X720405Y471645D01*
X720405Y473155D02*
X718995Y473155D01*
X718995Y474665D02*
X720405Y474665D01*
X723995Y475505D02*
X723995Y464095D01*
X723995Y475505D02*
X725405Y475505D01*
X725405Y464095D01*
X723995Y464095D01*
X723995Y465605D02*
X725405Y465605D01*
X725405Y467115D02*
X723995Y467115D01*
X723995Y468625D02*
X725405Y468625D01*
X725405Y470135D02*
X723995Y470135D01*
X723995Y471645D02*
X725405Y471645D01*
X725405Y473155D02*
X723995Y473155D01*
X723995Y474665D02*
X725405Y474665D01*
X728995Y475505D02*
X728995Y464095D01*
X728995Y475505D02*
X730405Y475505D01*
X730405Y464095D01*
X728995Y464095D01*
X728995Y465605D02*
X730405Y465605D01*
X730405Y467115D02*
X728995Y467115D01*
X728995Y468625D02*
X730405Y468625D01*
X730405Y470135D02*
X728995Y470135D01*
X728995Y471645D02*
X730405Y471645D01*
X730405Y473155D02*
X728995Y473155D01*
X728995Y474665D02*
X730405Y474665D01*
X733995Y475505D02*
X733995Y464095D01*
X733995Y475505D02*
X735405Y475505D01*
X735405Y464095D01*
X733995Y464095D01*
X733995Y465605D02*
X735405Y465605D01*
X735405Y467115D02*
X733995Y467115D01*
X733995Y468625D02*
X735405Y468625D01*
X735405Y470135D02*
X733995Y470135D01*
X733995Y471645D02*
X735405Y471645D01*
X735405Y473155D02*
X733995Y473155D01*
X733995Y474665D02*
X735405Y474665D01*
X738995Y475505D02*
X738995Y464095D01*
X738995Y475505D02*
X740405Y475505D01*
X740405Y464095D01*
X738995Y464095D01*
X738995Y465605D02*
X740405Y465605D01*
X740405Y467115D02*
X738995Y467115D01*
X738995Y468625D02*
X740405Y468625D01*
X740405Y470135D02*
X738995Y470135D01*
X738995Y471645D02*
X740405Y471645D01*
X740405Y473155D02*
X738995Y473155D01*
X738995Y474665D02*
X740405Y474665D01*
X743995Y475505D02*
X743995Y464095D01*
X743995Y475505D02*
X745405Y475505D01*
X745405Y464095D01*
X743995Y464095D01*
X743995Y465605D02*
X745405Y465605D01*
X745405Y467115D02*
X743995Y467115D01*
X743995Y468625D02*
X745405Y468625D01*
X745405Y470135D02*
X743995Y470135D01*
X743995Y471645D02*
X745405Y471645D01*
X745405Y473155D02*
X743995Y473155D01*
X743995Y474665D02*
X745405Y474665D01*
X748995Y475505D02*
X748995Y464095D01*
X748995Y475505D02*
X750405Y475505D01*
X750405Y464095D01*
X748995Y464095D01*
X748995Y465605D02*
X750405Y465605D01*
X750405Y467115D02*
X748995Y467115D01*
X748995Y468625D02*
X750405Y468625D01*
X750405Y470135D02*
X748995Y470135D01*
X748995Y471645D02*
X750405Y471645D01*
X750405Y473155D02*
X748995Y473155D01*
X748995Y474665D02*
X750405Y474665D01*
X753995Y475505D02*
X753995Y464095D01*
X753995Y475505D02*
X755405Y475505D01*
X755405Y464095D01*
X753995Y464095D01*
X753995Y465605D02*
X755405Y465605D01*
X755405Y467115D02*
X753995Y467115D01*
X753995Y468625D02*
X755405Y468625D01*
X755405Y470135D02*
X753995Y470135D01*
X753995Y471645D02*
X755405Y471645D01*
X755405Y473155D02*
X753995Y473155D01*
X753995Y474665D02*
X755405Y474665D01*
X758995Y475505D02*
X758995Y464095D01*
X758995Y475505D02*
X760405Y475505D01*
X760405Y464095D01*
X758995Y464095D01*
X758995Y465605D02*
X760405Y465605D01*
X760405Y467115D02*
X758995Y467115D01*
X758995Y468625D02*
X760405Y468625D01*
X760405Y470135D02*
X758995Y470135D01*
X758995Y471645D02*
X760405Y471645D01*
X760405Y473155D02*
X758995Y473155D01*
X758995Y474665D02*
X760405Y474665D01*
X763995Y475505D02*
X763995Y464095D01*
X763995Y475505D02*
X765405Y475505D01*
X765405Y464095D01*
X763995Y464095D01*
X763995Y465605D02*
X765405Y465605D01*
X765405Y467115D02*
X763995Y467115D01*
X763995Y468625D02*
X765405Y468625D01*
X765405Y470135D02*
X763995Y470135D01*
X763995Y471645D02*
X765405Y471645D01*
X765405Y473155D02*
X763995Y473155D01*
X763995Y474665D02*
X765405Y474665D01*
X768995Y475505D02*
X768995Y464095D01*
X768995Y475505D02*
X770405Y475505D01*
X770405Y464095D01*
X768995Y464095D01*
X768995Y465605D02*
X770405Y465605D01*
X770405Y467115D02*
X768995Y467115D01*
X768995Y468625D02*
X770405Y468625D01*
X770405Y470135D02*
X768995Y470135D01*
X768995Y471645D02*
X770405Y471645D01*
X770405Y473155D02*
X768995Y473155D01*
X768995Y474665D02*
X770405Y474665D01*
X773995Y475505D02*
X773995Y464095D01*
X773995Y475505D02*
X775405Y475505D01*
X775405Y464095D01*
X773995Y464095D01*
X773995Y465605D02*
X775405Y465605D01*
X775405Y467115D02*
X773995Y467115D01*
X773995Y468625D02*
X775405Y468625D01*
X775405Y470135D02*
X773995Y470135D01*
X773995Y471645D02*
X775405Y471645D01*
X775405Y473155D02*
X773995Y473155D01*
X773995Y474665D02*
X775405Y474665D01*
X778995Y475505D02*
X778995Y464095D01*
X778995Y475505D02*
X780405Y475505D01*
X780405Y464095D01*
X778995Y464095D01*
X778995Y465605D02*
X780405Y465605D01*
X780405Y467115D02*
X778995Y467115D01*
X778995Y468625D02*
X780405Y468625D01*
X780405Y470135D02*
X778995Y470135D01*
X778995Y471645D02*
X780405Y471645D01*
X780405Y473155D02*
X778995Y473155D01*
X778995Y474665D02*
X780405Y474665D01*
X783995Y475505D02*
X783995Y464095D01*
X783995Y475505D02*
X785405Y475505D01*
X785405Y464095D01*
X783995Y464095D01*
X783995Y465605D02*
X785405Y465605D01*
X785405Y467115D02*
X783995Y467115D01*
X783995Y468625D02*
X785405Y468625D01*
X785405Y470135D02*
X783995Y470135D01*
X783995Y471645D02*
X785405Y471645D01*
X785405Y473155D02*
X783995Y473155D01*
X783995Y474665D02*
X785405Y474665D01*
X788995Y475505D02*
X788995Y464095D01*
X788995Y475505D02*
X790405Y475505D01*
X790405Y464095D01*
X788995Y464095D01*
X788995Y465605D02*
X790405Y465605D01*
X790405Y467115D02*
X788995Y467115D01*
X788995Y468625D02*
X790405Y468625D01*
X790405Y470135D02*
X788995Y470135D01*
X788995Y471645D02*
X790405Y471645D01*
X790405Y473155D02*
X788995Y473155D01*
X788995Y474665D02*
X790405Y474665D01*
X793995Y475505D02*
X793995Y464095D01*
X793995Y475505D02*
X795405Y475505D01*
X795405Y464095D01*
X793995Y464095D01*
X793995Y465605D02*
X795405Y465605D01*
X795405Y467115D02*
X793995Y467115D01*
X793995Y468625D02*
X795405Y468625D01*
X795405Y470135D02*
X793995Y470135D01*
X793995Y471645D02*
X795405Y471645D01*
X795405Y473155D02*
X793995Y473155D01*
X793995Y474665D02*
X795405Y474665D01*
X798995Y475505D02*
X798995Y464095D01*
X798995Y475505D02*
X800405Y475505D01*
X800405Y464095D01*
X798995Y464095D01*
X798995Y465605D02*
X800405Y465605D01*
X800405Y467115D02*
X798995Y467115D01*
X798995Y468625D02*
X800405Y468625D01*
X800405Y470135D02*
X798995Y470135D01*
X798995Y471645D02*
X800405Y471645D01*
X800405Y473155D02*
X798995Y473155D01*
X798995Y474665D02*
X800405Y474665D01*
X803995Y475505D02*
X803995Y464095D01*
X803995Y475505D02*
X805405Y475505D01*
X805405Y464095D01*
X803995Y464095D01*
X803995Y465605D02*
X805405Y465605D01*
X805405Y467115D02*
X803995Y467115D01*
X803995Y468625D02*
X805405Y468625D01*
X805405Y470135D02*
X803995Y470135D01*
X803995Y471645D02*
X805405Y471645D01*
X805405Y473155D02*
X803995Y473155D01*
X803995Y474665D02*
X805405Y474665D01*
X808995Y475505D02*
X808995Y464095D01*
X808995Y475505D02*
X810405Y475505D01*
X810405Y464095D01*
X808995Y464095D01*
X808995Y465605D02*
X810405Y465605D01*
X810405Y467115D02*
X808995Y467115D01*
X808995Y468625D02*
X810405Y468625D01*
X810405Y470135D02*
X808995Y470135D01*
X808995Y471645D02*
X810405Y471645D01*
X810405Y473155D02*
X808995Y473155D01*
X808995Y474665D02*
X810405Y474665D01*
X813995Y475505D02*
X813995Y464095D01*
X813995Y475505D02*
X815405Y475505D01*
X815405Y464095D01*
X813995Y464095D01*
X813995Y465605D02*
X815405Y465605D01*
X815405Y467115D02*
X813995Y467115D01*
X813995Y468625D02*
X815405Y468625D01*
X815405Y470135D02*
X813995Y470135D01*
X813995Y471645D02*
X815405Y471645D01*
X815405Y473155D02*
X813995Y473155D01*
X813995Y474665D02*
X815405Y474665D01*
X818995Y475505D02*
X818995Y464095D01*
X818995Y475505D02*
X820405Y475505D01*
X820405Y464095D01*
X818995Y464095D01*
X818995Y465605D02*
X820405Y465605D01*
X820405Y467115D02*
X818995Y467115D01*
X818995Y468625D02*
X820405Y468625D01*
X820405Y470135D02*
X818995Y470135D01*
X818995Y471645D02*
X820405Y471645D01*
X820405Y473155D02*
X818995Y473155D01*
X818995Y474665D02*
X820405Y474665D01*
X823995Y475505D02*
X823995Y464095D01*
X823995Y475505D02*
X825405Y475505D01*
X825405Y464095D01*
X823995Y464095D01*
X823995Y465605D02*
X825405Y465605D01*
X825405Y467115D02*
X823995Y467115D01*
X823995Y468625D02*
X825405Y468625D01*
X825405Y470135D02*
X823995Y470135D01*
X823995Y471645D02*
X825405Y471645D01*
X825405Y473155D02*
X823995Y473155D01*
X823995Y474665D02*
X825405Y474665D01*
X828995Y475505D02*
X828995Y464095D01*
X828995Y475505D02*
X830405Y475505D01*
X830405Y464095D01*
X828995Y464095D01*
X828995Y465605D02*
X830405Y465605D01*
X830405Y467115D02*
X828995Y467115D01*
X828995Y468625D02*
X830405Y468625D01*
X830405Y470135D02*
X828995Y470135D01*
X828995Y471645D02*
X830405Y471645D01*
X830405Y473155D02*
X828995Y473155D01*
X828995Y474665D02*
X830405Y474665D01*
X833995Y475505D02*
X833995Y464095D01*
X833995Y475505D02*
X835405Y475505D01*
X835405Y464095D01*
X833995Y464095D01*
X833995Y465605D02*
X835405Y465605D01*
X835405Y467115D02*
X833995Y467115D01*
X833995Y468625D02*
X835405Y468625D01*
X835405Y470135D02*
X833995Y470135D01*
X833995Y471645D02*
X835405Y471645D01*
X835405Y473155D02*
X833995Y473155D01*
X833995Y474665D02*
X835405Y474665D01*
X845295Y485395D02*
X856705Y485395D01*
X845295Y485395D02*
X845295Y486805D01*
X856705Y486805D01*
X856705Y485395D01*
X856705Y490395D02*
X845295Y490395D01*
X845295Y491805D01*
X856705Y491805D01*
X856705Y490395D01*
X856705Y495395D02*
X845295Y495395D01*
X845295Y496805D01*
X856705Y496805D01*
X856705Y495395D01*
X856705Y500395D02*
X845295Y500395D01*
X845295Y501805D01*
X856705Y501805D01*
X856705Y500395D01*
X856705Y505395D02*
X845295Y505395D01*
X845295Y506805D01*
X856705Y506805D01*
X856705Y505395D01*
X856705Y510395D02*
X845295Y510395D01*
X845295Y511805D01*
X856705Y511805D01*
X856705Y510395D01*
X856705Y515395D02*
X845295Y515395D01*
X845295Y516805D01*
X856705Y516805D01*
X856705Y515395D01*
X856705Y520395D02*
X845295Y520395D01*
X845295Y521805D01*
X856705Y521805D01*
X856705Y520395D01*
X856705Y525395D02*
X845295Y525395D01*
X845295Y526805D01*
X856705Y526805D01*
X856705Y525395D01*
X856705Y530395D02*
X845295Y530395D01*
X845295Y531805D01*
X856705Y531805D01*
X856705Y530395D01*
X856705Y535395D02*
X845295Y535395D01*
X845295Y536805D01*
X856705Y536805D01*
X856705Y535395D01*
X856705Y540395D02*
X845295Y540395D01*
X845295Y541805D01*
X856705Y541805D01*
X856705Y540395D01*
X856705Y545395D02*
X845295Y545395D01*
X845295Y546805D01*
X856705Y546805D01*
X856705Y545395D01*
X856705Y550395D02*
X845295Y550395D01*
X845295Y551805D01*
X856705Y551805D01*
X856705Y550395D01*
X856705Y555395D02*
X845295Y555395D01*
X845295Y556805D01*
X856705Y556805D01*
X856705Y555395D01*
X856705Y560395D02*
X845295Y560395D01*
X845295Y561805D01*
X856705Y561805D01*
X856705Y560395D01*
X856705Y565395D02*
X845295Y565395D01*
X845295Y566805D01*
X856705Y566805D01*
X856705Y565395D01*
X856705Y570395D02*
X845295Y570395D01*
X845295Y571805D01*
X856705Y571805D01*
X856705Y570395D01*
X856705Y575395D02*
X845295Y575395D01*
X845295Y576805D01*
X856705Y576805D01*
X856705Y575395D01*
X856705Y580395D02*
X845295Y580395D01*
X845295Y581805D01*
X856705Y581805D01*
X856705Y580395D01*
X856705Y585395D02*
X845295Y585395D01*
X845295Y586805D01*
X856705Y586805D01*
X856705Y585395D01*
X856705Y590395D02*
X845295Y590395D01*
X845295Y591805D01*
X856705Y591805D01*
X856705Y590395D01*
X856705Y595395D02*
X845295Y595395D01*
X845295Y596805D01*
X856705Y596805D01*
X856705Y595395D01*
X856705Y600395D02*
X845295Y600395D01*
X845295Y601805D01*
X856705Y601805D01*
X856705Y600395D01*
X856705Y605395D02*
X845295Y605395D01*
X845295Y606805D01*
X856705Y606805D01*
X856705Y605395D01*
X835405Y616695D02*
X835405Y628105D01*
X835405Y616695D02*
X833995Y616695D01*
X833995Y628105D01*
X835405Y628105D01*
X835405Y618205D02*
X833995Y618205D01*
X833995Y619715D02*
X835405Y619715D01*
X835405Y621225D02*
X833995Y621225D01*
X833995Y622735D02*
X835405Y622735D01*
X835405Y624245D02*
X833995Y624245D01*
X833995Y625755D02*
X835405Y625755D01*
X835405Y627265D02*
X833995Y627265D01*
X830405Y628105D02*
X830405Y616695D01*
X828995Y616695D01*
X828995Y628105D01*
X830405Y628105D01*
X830405Y618205D02*
X828995Y618205D01*
X828995Y619715D02*
X830405Y619715D01*
X830405Y621225D02*
X828995Y621225D01*
X828995Y622735D02*
X830405Y622735D01*
X830405Y624245D02*
X828995Y624245D01*
X828995Y625755D02*
X830405Y625755D01*
X830405Y627265D02*
X828995Y627265D01*
X825405Y628105D02*
X825405Y616695D01*
X823995Y616695D01*
X823995Y628105D01*
X825405Y628105D01*
X825405Y618205D02*
X823995Y618205D01*
X823995Y619715D02*
X825405Y619715D01*
X825405Y621225D02*
X823995Y621225D01*
X823995Y622735D02*
X825405Y622735D01*
X825405Y624245D02*
X823995Y624245D01*
X823995Y625755D02*
X825405Y625755D01*
X825405Y627265D02*
X823995Y627265D01*
X820405Y628105D02*
X820405Y616695D01*
X818995Y616695D01*
X818995Y628105D01*
X820405Y628105D01*
X820405Y618205D02*
X818995Y618205D01*
X818995Y619715D02*
X820405Y619715D01*
X820405Y621225D02*
X818995Y621225D01*
X818995Y622735D02*
X820405Y622735D01*
X820405Y624245D02*
X818995Y624245D01*
X818995Y625755D02*
X820405Y625755D01*
X820405Y627265D02*
X818995Y627265D01*
X815405Y628105D02*
X815405Y616695D01*
X813995Y616695D01*
X813995Y628105D01*
X815405Y628105D01*
X815405Y618205D02*
X813995Y618205D01*
X813995Y619715D02*
X815405Y619715D01*
X815405Y621225D02*
X813995Y621225D01*
X813995Y622735D02*
X815405Y622735D01*
X815405Y624245D02*
X813995Y624245D01*
X813995Y625755D02*
X815405Y625755D01*
X815405Y627265D02*
X813995Y627265D01*
X810405Y628105D02*
X810405Y616695D01*
X808995Y616695D01*
X808995Y628105D01*
X810405Y628105D01*
X810405Y618205D02*
X808995Y618205D01*
X808995Y619715D02*
X810405Y619715D01*
X810405Y621225D02*
X808995Y621225D01*
X808995Y622735D02*
X810405Y622735D01*
X810405Y624245D02*
X808995Y624245D01*
X808995Y625755D02*
X810405Y625755D01*
X810405Y627265D02*
X808995Y627265D01*
X805405Y628105D02*
X805405Y616695D01*
X803995Y616695D01*
X803995Y628105D01*
X805405Y628105D01*
X805405Y618205D02*
X803995Y618205D01*
X803995Y619715D02*
X805405Y619715D01*
X805405Y621225D02*
X803995Y621225D01*
X803995Y622735D02*
X805405Y622735D01*
X805405Y624245D02*
X803995Y624245D01*
X803995Y625755D02*
X805405Y625755D01*
X805405Y627265D02*
X803995Y627265D01*
X800405Y628105D02*
X800405Y616695D01*
X798995Y616695D01*
X798995Y628105D01*
X800405Y628105D01*
X800405Y618205D02*
X798995Y618205D01*
X798995Y619715D02*
X800405Y619715D01*
X800405Y621225D02*
X798995Y621225D01*
X798995Y622735D02*
X800405Y622735D01*
X800405Y624245D02*
X798995Y624245D01*
X798995Y625755D02*
X800405Y625755D01*
X800405Y627265D02*
X798995Y627265D01*
X795405Y628105D02*
X795405Y616695D01*
X793995Y616695D01*
X793995Y628105D01*
X795405Y628105D01*
X795405Y618205D02*
X793995Y618205D01*
X793995Y619715D02*
X795405Y619715D01*
X795405Y621225D02*
X793995Y621225D01*
X793995Y622735D02*
X795405Y622735D01*
X795405Y624245D02*
X793995Y624245D01*
X793995Y625755D02*
X795405Y625755D01*
X795405Y627265D02*
X793995Y627265D01*
X790405Y628105D02*
X790405Y616695D01*
X788995Y616695D01*
X788995Y628105D01*
X790405Y628105D01*
X790405Y618205D02*
X788995Y618205D01*
X788995Y619715D02*
X790405Y619715D01*
X790405Y621225D02*
X788995Y621225D01*
X788995Y622735D02*
X790405Y622735D01*
X790405Y624245D02*
X788995Y624245D01*
X788995Y625755D02*
X790405Y625755D01*
X790405Y627265D02*
X788995Y627265D01*
X785405Y628105D02*
X785405Y616695D01*
X783995Y616695D01*
X783995Y628105D01*
X785405Y628105D01*
X785405Y618205D02*
X783995Y618205D01*
X783995Y619715D02*
X785405Y619715D01*
X785405Y621225D02*
X783995Y621225D01*
X783995Y622735D02*
X785405Y622735D01*
X785405Y624245D02*
X783995Y624245D01*
X783995Y625755D02*
X785405Y625755D01*
X785405Y627265D02*
X783995Y627265D01*
X780405Y628105D02*
X780405Y616695D01*
X778995Y616695D01*
X778995Y628105D01*
X780405Y628105D01*
X780405Y618205D02*
X778995Y618205D01*
X778995Y619715D02*
X780405Y619715D01*
X780405Y621225D02*
X778995Y621225D01*
X778995Y622735D02*
X780405Y622735D01*
X780405Y624245D02*
X778995Y624245D01*
X778995Y625755D02*
X780405Y625755D01*
X780405Y627265D02*
X778995Y627265D01*
X775405Y628105D02*
X775405Y616695D01*
X773995Y616695D01*
X773995Y628105D01*
X775405Y628105D01*
X775405Y618205D02*
X773995Y618205D01*
X773995Y619715D02*
X775405Y619715D01*
X775405Y621225D02*
X773995Y621225D01*
X773995Y622735D02*
X775405Y622735D01*
X775405Y624245D02*
X773995Y624245D01*
X773995Y625755D02*
X775405Y625755D01*
X775405Y627265D02*
X773995Y627265D01*
X770405Y628105D02*
X770405Y616695D01*
X768995Y616695D01*
X768995Y628105D01*
X770405Y628105D01*
X770405Y618205D02*
X768995Y618205D01*
X768995Y619715D02*
X770405Y619715D01*
X770405Y621225D02*
X768995Y621225D01*
X768995Y622735D02*
X770405Y622735D01*
X770405Y624245D02*
X768995Y624245D01*
X768995Y625755D02*
X770405Y625755D01*
X770405Y627265D02*
X768995Y627265D01*
X765405Y628105D02*
X765405Y616695D01*
X763995Y616695D01*
X763995Y628105D01*
X765405Y628105D01*
X765405Y618205D02*
X763995Y618205D01*
X763995Y619715D02*
X765405Y619715D01*
X765405Y621225D02*
X763995Y621225D01*
X763995Y622735D02*
X765405Y622735D01*
X765405Y624245D02*
X763995Y624245D01*
X763995Y625755D02*
X765405Y625755D01*
X765405Y627265D02*
X763995Y627265D01*
X760405Y628105D02*
X760405Y616695D01*
X758995Y616695D01*
X758995Y628105D01*
X760405Y628105D01*
X760405Y618205D02*
X758995Y618205D01*
X758995Y619715D02*
X760405Y619715D01*
X760405Y621225D02*
X758995Y621225D01*
X758995Y622735D02*
X760405Y622735D01*
X760405Y624245D02*
X758995Y624245D01*
X758995Y625755D02*
X760405Y625755D01*
X760405Y627265D02*
X758995Y627265D01*
X755405Y628105D02*
X755405Y616695D01*
X753995Y616695D01*
X753995Y628105D01*
X755405Y628105D01*
X755405Y618205D02*
X753995Y618205D01*
X753995Y619715D02*
X755405Y619715D01*
X755405Y621225D02*
X753995Y621225D01*
X753995Y622735D02*
X755405Y622735D01*
X755405Y624245D02*
X753995Y624245D01*
X753995Y625755D02*
X755405Y625755D01*
X755405Y627265D02*
X753995Y627265D01*
X750405Y628105D02*
X750405Y616695D01*
X748995Y616695D01*
X748995Y628105D01*
X750405Y628105D01*
X750405Y618205D02*
X748995Y618205D01*
X748995Y619715D02*
X750405Y619715D01*
X750405Y621225D02*
X748995Y621225D01*
X748995Y622735D02*
X750405Y622735D01*
X750405Y624245D02*
X748995Y624245D01*
X748995Y625755D02*
X750405Y625755D01*
X750405Y627265D02*
X748995Y627265D01*
X745405Y628105D02*
X745405Y616695D01*
X743995Y616695D01*
X743995Y628105D01*
X745405Y628105D01*
X745405Y618205D02*
X743995Y618205D01*
X743995Y619715D02*
X745405Y619715D01*
X745405Y621225D02*
X743995Y621225D01*
X743995Y622735D02*
X745405Y622735D01*
X745405Y624245D02*
X743995Y624245D01*
X743995Y625755D02*
X745405Y625755D01*
X745405Y627265D02*
X743995Y627265D01*
X740405Y628105D02*
X740405Y616695D01*
X738995Y616695D01*
X738995Y628105D01*
X740405Y628105D01*
X740405Y618205D02*
X738995Y618205D01*
X738995Y619715D02*
X740405Y619715D01*
X740405Y621225D02*
X738995Y621225D01*
X738995Y622735D02*
X740405Y622735D01*
X740405Y624245D02*
X738995Y624245D01*
X738995Y625755D02*
X740405Y625755D01*
X740405Y627265D02*
X738995Y627265D01*
X735405Y628105D02*
X735405Y616695D01*
X733995Y616695D01*
X733995Y628105D01*
X735405Y628105D01*
X735405Y618205D02*
X733995Y618205D01*
X733995Y619715D02*
X735405Y619715D01*
X735405Y621225D02*
X733995Y621225D01*
X733995Y622735D02*
X735405Y622735D01*
X735405Y624245D02*
X733995Y624245D01*
X733995Y625755D02*
X735405Y625755D01*
X735405Y627265D02*
X733995Y627265D01*
X730405Y628105D02*
X730405Y616695D01*
X728995Y616695D01*
X728995Y628105D01*
X730405Y628105D01*
X730405Y618205D02*
X728995Y618205D01*
X728995Y619715D02*
X730405Y619715D01*
X730405Y621225D02*
X728995Y621225D01*
X728995Y622735D02*
X730405Y622735D01*
X730405Y624245D02*
X728995Y624245D01*
X728995Y625755D02*
X730405Y625755D01*
X730405Y627265D02*
X728995Y627265D01*
X725405Y628105D02*
X725405Y616695D01*
X723995Y616695D01*
X723995Y628105D01*
X725405Y628105D01*
X725405Y618205D02*
X723995Y618205D01*
X723995Y619715D02*
X725405Y619715D01*
X725405Y621225D02*
X723995Y621225D01*
X723995Y622735D02*
X725405Y622735D01*
X725405Y624245D02*
X723995Y624245D01*
X723995Y625755D02*
X725405Y625755D01*
X725405Y627265D02*
X723995Y627265D01*
X720405Y628105D02*
X720405Y616695D01*
X718995Y616695D01*
X718995Y628105D01*
X720405Y628105D01*
X720405Y618205D02*
X718995Y618205D01*
X718995Y619715D02*
X720405Y619715D01*
X720405Y621225D02*
X718995Y621225D01*
X718995Y622735D02*
X720405Y622735D01*
X720405Y624245D02*
X718995Y624245D01*
X718995Y625755D02*
X720405Y625755D01*
X720405Y627265D02*
X718995Y627265D01*
X715405Y628105D02*
X715405Y616695D01*
X713995Y616695D01*
X713995Y628105D01*
X715405Y628105D01*
X715405Y618205D02*
X713995Y618205D01*
X713995Y619715D02*
X715405Y619715D01*
X715405Y621225D02*
X713995Y621225D01*
X713995Y622735D02*
X715405Y622735D01*
X715405Y624245D02*
X713995Y624245D01*
X713995Y625755D02*
X715405Y625755D01*
X715405Y627265D02*
X713995Y627265D01*
D59*
X1362678Y872450D03*
X1362678Y878950D03*
X1362678Y885450D03*
X1362678Y891950D03*
X1362678Y898450D03*
X1362678Y904950D03*
X1362678Y911450D03*
X1362678Y917950D03*
X1304322Y917950D03*
X1304322Y911450D03*
X1304322Y904950D03*
X1304322Y898450D03*
X1304322Y891950D03*
X1304322Y885450D03*
X1304322Y878950D03*
X1304322Y872450D03*
X1362678Y924450D03*
X1362678Y930950D03*
X1304322Y924450D03*
X1304322Y930950D03*
D25*
X736600Y177800D03*
X736600Y152400D03*
X736600Y127000D03*
X762000Y177800D03*
X762000Y152400D03*
X762000Y127000D03*
X177800Y361950D03*
X177800Y336550D03*
X177800Y311150D03*
X177800Y285750D03*
D60*
X923925Y149225D02*
X923925Y130175D01*
X962025Y130175D02*
X962025Y149225D01*
X1368425Y149225D02*
X1368425Y130175D01*
X1406525Y130175D02*
X1406525Y149225D01*
X571500Y1260475D02*
X571500Y1279525D01*
X533400Y1279525D02*
X533400Y1260475D01*
X495300Y1260475D02*
X495300Y1279525D01*
X457200Y1279525D02*
X457200Y1260475D01*
X419100Y1260475D02*
X419100Y1279525D01*
X355600Y1279525D02*
X355600Y1260475D01*
X317500Y1260475D02*
X317500Y1279525D01*
X279400Y1279525D02*
X279400Y1260475D01*
X241300Y1260475D02*
X241300Y1279525D01*
X203200Y1279525D02*
X203200Y1260475D01*
X165100Y1260475D02*
X165100Y1279525D01*
X127000Y1279525D02*
X127000Y1260475D01*
X1165225Y149225D02*
X1165225Y130175D01*
X1203325Y130175D02*
X1203325Y149225D01*
X1025525Y149225D02*
X1025525Y130175D01*
X1063625Y130175D02*
X1063625Y149225D01*
D25*
X787400Y177800D03*
X787400Y152400D03*
X787400Y127000D03*
X812800Y177800D03*
X812800Y152400D03*
X812800Y127000D03*
X177800Y571500D03*
X177800Y546100D03*
X177800Y520700D03*
X177800Y495300D03*
X838200Y177800D03*
X838200Y152400D03*
X838200Y127000D03*
X254000Y323850D03*
X254000Y349250D03*
X254000Y374650D03*
X254000Y400050D03*
X254000Y114300D03*
X254000Y139700D03*
X254000Y165100D03*
X254000Y190500D03*
X647700Y177800D03*
X647700Y152400D03*
X647700Y127000D03*
X673100Y177800D03*
X673100Y152400D03*
X673100Y127000D03*
D61*
X1122075Y361600D02*
X1122075Y370400D01*
X1122075Y361600D02*
X1119475Y361600D01*
X1119475Y370400D01*
X1122075Y370400D01*
X1122075Y364070D02*
X1119475Y364070D01*
X1119475Y366540D02*
X1122075Y366540D01*
X1122075Y369010D02*
X1119475Y369010D01*
X1119475Y349600D02*
X1119475Y340800D01*
X1119475Y349600D02*
X1122075Y349600D01*
X1122075Y340800D01*
X1119475Y340800D01*
X1119475Y343270D02*
X1122075Y343270D01*
X1122075Y345740D02*
X1119475Y345740D01*
X1119475Y348210D02*
X1122075Y348210D01*
X1325275Y361600D02*
X1325275Y370400D01*
X1325275Y361600D02*
X1322675Y361600D01*
X1322675Y370400D01*
X1325275Y370400D01*
X1325275Y364070D02*
X1322675Y364070D01*
X1322675Y366540D02*
X1325275Y366540D01*
X1325275Y369010D02*
X1322675Y369010D01*
X1322675Y349600D02*
X1322675Y340800D01*
X1322675Y349600D02*
X1325275Y349600D01*
X1325275Y340800D01*
X1322675Y340800D01*
X1322675Y343270D02*
X1325275Y343270D01*
X1325275Y345740D02*
X1322675Y345740D01*
X1322675Y348210D02*
X1325275Y348210D01*
D47*
X523300Y1115300D03*
X568900Y1115300D03*
D48*
X546100Y1176660D03*
D47*
X993200Y1153400D03*
X1038800Y1153400D03*
D48*
X1016000Y1214760D03*
D47*
X637600Y1115300D03*
X683200Y1115300D03*
D48*
X660400Y1176660D03*
D62*
X536575Y619125D03*
X536575Y644525D03*
X511175Y644525D03*
X511175Y619125D03*
X561975Y619125D03*
X561975Y644525D03*
D13*
X498500Y295275D03*
X517500Y295275D03*
D11*
X714375Y168300D03*
X714375Y187300D03*
D24*
X803275Y259080D02*
X803275Y274320D01*
X828675Y274320D02*
X828675Y259080D01*
X854075Y259080D02*
X854075Y274320D01*
X879475Y274320D02*
X879475Y259080D01*
X803275Y290830D02*
X803275Y306070D01*
X828675Y306070D02*
X828675Y290830D01*
X854075Y290830D02*
X854075Y306070D01*
X879475Y306070D02*
X879475Y290830D01*
X803275Y322580D02*
X803275Y337820D01*
X828675Y337820D02*
X828675Y322580D01*
X854075Y322580D02*
X854075Y337820D01*
X879475Y337820D02*
X879475Y322580D01*
D42*
X987425Y393700D03*
X987425Y419100D03*
X987425Y444500D03*
X987425Y469900D03*
X987425Y495300D03*
X987425Y520700D03*
X962025Y393700D03*
X962025Y419100D03*
X962025Y444500D03*
X962025Y469900D03*
X962025Y495300D03*
X962025Y520700D03*
X987425Y546100D03*
X987425Y571500D03*
X962025Y546100D03*
X962025Y571500D03*
X987425Y596900D03*
X962025Y596900D03*
X987425Y622300D03*
X962025Y622300D03*
D63*
X1432350Y1262000D02*
X1432350Y1278000D01*
X1374350Y1278000D02*
X1374350Y1262000D01*
X1428350Y1298500D02*
X1428350Y1314500D01*
X1378350Y1314500D02*
X1378350Y1298500D01*
D64*
X1394600Y1361500D02*
X1412100Y1361500D01*
D63*
X1325350Y1264500D02*
X1325350Y1248500D01*
X1481350Y1248500D02*
X1481350Y1264500D01*
D43*
X1089025Y1212850D03*
X1089025Y1187450D03*
X1089025Y1162050D03*
X1089025Y1136650D03*
X1089025Y1111250D03*
X1114425Y1212850D03*
X1114425Y1187450D03*
X1114425Y1162050D03*
X1114425Y1136650D03*
X1114425Y1111250D03*
D60*
X1012825Y1330325D02*
X1012825Y1349375D01*
X974725Y1349375D02*
X974725Y1330325D01*
X936625Y1330325D02*
X936625Y1349375D01*
X898525Y1349375D02*
X898525Y1330325D01*
X860425Y1330325D02*
X860425Y1349375D01*
X822325Y1349375D02*
X822325Y1330325D01*
D11*
X444500Y803250D03*
X444500Y784250D03*
D13*
X1431900Y565150D03*
X1412900Y565150D03*
D11*
X1479550Y428650D03*
X1479550Y447650D03*
D49*
X1466850Y488950D03*
X1466850Y514350D03*
X1466850Y539750D03*
D14*
X1403350Y484000D03*
X1403350Y532000D03*
D11*
X1358900Y504800D03*
X1358900Y485800D03*
X292100Y1012850D03*
X292100Y1031850D03*
X139700Y1012850D03*
X139700Y1031850D03*
X444500Y1012850D03*
X444500Y1031850D03*
D65*
X689450Y1273875D02*
X689450Y1288125D01*
X669450Y1288125D02*
X669450Y1273875D01*
X714450Y1273875D02*
X714450Y1288125D01*
X644450Y1288125D02*
X644450Y1273875D01*
D66*
X745150Y1308100D03*
X613750Y1308100D03*
D60*
X104775Y819150D02*
X85725Y819150D01*
X85725Y857250D02*
X104775Y857250D01*
D67*
X1285100Y489200D03*
X1308100Y489200D03*
X1331100Y489200D03*
D68*
X1308100Y552200D03*
D67*
X1100950Y489200D03*
X1123950Y489200D03*
X1146950Y489200D03*
D68*
X1123950Y552200D03*
D69*
X647700Y695325D03*
X673100Y695325D03*
X698500Y695325D03*
X723900Y695325D03*
X749300Y695325D03*
X774700Y695325D03*
X647700Y720725D03*
X673100Y720725D03*
X698500Y720725D03*
X723900Y720725D03*
X749300Y720725D03*
X774700Y720725D03*
D22*
X1382850Y1212850D03*
X1423850Y1212850D03*
D21*
X1079500Y805000D03*
X1079500Y846000D03*
D13*
X263500Y882650D03*
X244500Y882650D03*
D60*
X831850Y1171575D02*
X831850Y1190625D01*
X793750Y1190625D02*
X793750Y1171575D01*
X755650Y1171575D02*
X755650Y1190625D01*
X717550Y1190625D02*
X717550Y1171575D01*
D70*
X1333475Y382700D02*
X1333475Y336500D01*
X1325575Y328600D01*
X1327163Y327013D02*
X1323975Y323825D01*
X1397025Y353900D02*
X1397025Y381000D01*
X466725Y987400D02*
X466725Y1012850D01*
X374650Y1098550D02*
X374650Y1114550D01*
X371600Y1117600D01*
X374650Y1098550D02*
X374650Y1089025D01*
X365125Y1079500D01*
X365100Y1079500D01*
X314325Y1012850D02*
X314325Y987400D01*
D71*
X464566Y165100D02*
X464566Y152400D01*
X464566Y165100D02*
X464566Y177800D01*
X349250Y847750D02*
X352400Y850900D01*
X349250Y847750D02*
X349250Y828100D01*
X368300Y850900D02*
X419100Y850900D01*
X431800Y838200D01*
X431800Y803275D01*
X431800Y749300D01*
X415900Y749300D01*
X368300Y850900D02*
X352400Y850900D01*
D72*
X368300Y850900D03*
D71*
X279400Y752500D02*
X279400Y736600D01*
D72*
X279400Y736600D03*
D71*
X304200Y920750D02*
X356200Y920750D01*
X381000Y920750D01*
X416050Y920750D01*
X419100Y917700D01*
X381000Y920750D02*
X381000Y911200D01*
D73*
X368300Y673100D02*
X309240Y673100D01*
X368300Y673100D02*
X419100Y673100D01*
X419100Y657200D01*
D71*
X431800Y673100D02*
X431800Y749300D01*
X431800Y673100D02*
X419100Y673100D01*
D74*
X279400Y711200D02*
X279400Y736600D01*
D72*
X279400Y711200D03*
X368300Y673100D03*
D75*
X431800Y749300D03*
D76*
X850900Y863600D02*
X863600Y850900D01*
X863600Y787400D01*
X863600Y762000D01*
X863600Y723900D01*
X889000Y698500D01*
X914400Y698500D01*
X939800Y698500D01*
X971550Y698500D01*
X1003300Y698500D01*
X1054100Y698500D01*
X1079500Y698500D01*
X863600Y927100D02*
X863600Y939800D01*
X863600Y990600D01*
X863600Y977900D01*
D72*
X863600Y977900D03*
X863600Y990600D03*
X863600Y939800D03*
X863600Y927100D03*
X1054100Y698500D03*
X1003300Y698500D03*
X939800Y698500D03*
X863600Y787400D03*
X863600Y762000D03*
D71*
X914400Y784250D02*
X914400Y698500D01*
D77*
X905900Y939800D02*
X901700Y939800D01*
X889000Y927100D01*
X890400Y990600D02*
X863600Y990600D01*
D73*
X1309875Y1163825D02*
X1333500Y1163825D01*
X1309875Y1163825D02*
X1308100Y1162050D01*
D72*
X1308100Y1162050D03*
D73*
X1335275Y1162050D02*
X1358900Y1162050D01*
X1335275Y1162050D02*
X1333500Y1163825D01*
D72*
X1358900Y1162050D03*
D73*
X1358900Y773300D02*
X1333500Y773300D01*
D72*
X1358900Y773300D03*
D73*
X1358900Y1030100D02*
X1333500Y1030100D01*
D72*
X1358900Y1030100D03*
D70*
X1323975Y345200D02*
X1323975Y330200D01*
X1325575Y328600D01*
X1327163Y327013D01*
D74*
X165100Y901700D02*
X165100Y914400D01*
D73*
X127000Y1270000D02*
X127000Y1319660D01*
X140840Y1333500D01*
D70*
X1193825Y381000D02*
X1196975Y384150D01*
X1177925Y454000D02*
X1181125Y457200D01*
X1193825Y381000D02*
X1193825Y353900D01*
X1130275Y336500D02*
X1130275Y382700D01*
X1130275Y336500D02*
X1122375Y328600D01*
X1123963Y327013D02*
X1120775Y323825D01*
X1120775Y330200D02*
X1120775Y345200D01*
X1120775Y330200D02*
X1122375Y328600D01*
X1123963Y327013D01*
D74*
X304200Y920750D02*
X279400Y920750D01*
X171450Y920750D01*
X165100Y914400D01*
D73*
X101600Y458600D02*
X115700Y444500D01*
X152400Y444500D01*
X101600Y249050D02*
X115700Y234950D01*
X152400Y234950D01*
X101600Y39500D02*
X115700Y25400D01*
X152400Y25400D01*
X330200Y436750D02*
X316100Y450850D01*
X279400Y450850D01*
X316100Y241300D02*
X330200Y227200D01*
X316100Y241300D02*
X279400Y241300D01*
D72*
X279400Y920750D03*
D78*
X419100Y917700D02*
X441200Y917700D01*
X444500Y914400D01*
D72*
X444500Y914400D03*
D78*
X444500Y165100D02*
X464566Y165100D01*
D79*
X444500Y165100D03*
D80*
X809700Y609525D02*
X809700Y622400D01*
X809700Y609525D02*
X812800Y606425D01*
D79*
X812800Y606425D03*
D80*
X840025Y541100D02*
X851000Y541100D01*
X840025Y541100D02*
X838200Y542925D01*
D79*
X838200Y542925D03*
D80*
X710725Y556100D02*
X698400Y556100D01*
X710725Y556100D02*
X714375Y552450D01*
D79*
X714375Y552450D03*
D73*
X934212Y863600D02*
X965200Y863600D01*
D72*
X965200Y863600D03*
D70*
X161925Y987400D02*
X161925Y1012850D01*
X69850Y1089050D02*
X60300Y1079500D01*
X69850Y1089050D02*
X69850Y1095375D01*
X69850Y1114550D02*
X66800Y1117600D01*
X69850Y1114550D02*
X69850Y1095375D01*
X79975Y1095375D02*
X82550Y1092800D01*
X212700Y1079500D02*
X222250Y1089050D01*
X222250Y1095375D01*
X222250Y1114550D02*
X219200Y1117600D01*
X222250Y1114550D02*
X222250Y1095375D01*
X232375Y1095375D02*
X234950Y1092800D01*
D78*
X177800Y1146175D02*
X177800Y1166880D01*
X177800Y1146175D02*
X177800Y1136650D01*
X330200Y1146175D02*
X330200Y1166880D01*
X330200Y1146175D02*
X330200Y1136650D01*
X482600Y1149350D02*
X482600Y1166880D01*
D72*
X482600Y1136650D03*
D78*
X482600Y1149350D01*
D72*
X482600Y1149350D03*
X330200Y1136650D03*
X330200Y1146175D03*
X177800Y1136650D03*
X177800Y1146175D03*
D71*
X1333475Y382700D02*
X1349375Y382700D01*
D79*
X1349375Y382700D03*
D71*
X1144475Y382700D02*
X1130275Y382700D01*
X1144475Y382700D02*
X1146175Y381000D01*
D79*
X1146175Y381000D03*
D72*
X1095375Y276225D03*
D73*
X1095375Y266700D02*
X1108631Y266700D01*
X1095375Y266700D02*
X1095375Y276225D01*
D72*
X1095375Y266700D03*
D73*
X1292225Y266700D02*
X1311831Y266700D01*
X1312892Y279400D02*
X1292225Y279400D01*
X1292225Y266700D01*
D72*
X1292225Y279400D03*
X1292225Y266700D03*
D73*
X1021775Y269000D02*
X1018899Y279400D01*
X1021775Y269000D02*
X1021456Y266700D01*
X1000125Y266700D01*
X1000125Y279400D01*
X1011875Y279400D01*
X1018899Y279400D01*
X920054Y269621D02*
X913925Y275750D01*
X910275Y279400D01*
X898525Y279400D01*
X920175Y269000D02*
X919856Y266700D01*
X898525Y266700D01*
X898525Y279400D01*
D72*
X898525Y279400D03*
X898525Y266700D03*
X1000125Y279400D03*
X1000125Y266700D03*
D71*
X920775Y304800D02*
X913925Y297950D01*
X913925Y275750D01*
X1011875Y294300D02*
X1022375Y304800D01*
X1011875Y294300D02*
X1011875Y279400D01*
X920175Y269000D02*
X920054Y269621D01*
D73*
X993775Y27060D02*
X992115Y25400D01*
X968375Y25400D01*
D72*
X968375Y25400D03*
D73*
X993775Y27060D02*
X995435Y25400D01*
X1019175Y25400D01*
D72*
X1019175Y25400D03*
D71*
X628650Y272034D02*
X615950Y272034D01*
X628650Y272034D02*
X641350Y272034D01*
X628650Y272034D02*
X628650Y292100D01*
D79*
X628650Y292100D03*
D70*
X232375Y1095375D02*
X222250Y1095375D01*
X79975Y1095375D02*
X69850Y1095375D01*
X374650Y1098550D02*
X387350Y1098550D01*
X387350Y1111250D02*
X387350Y1117600D01*
X371600Y1117600D01*
D79*
X387350Y1111250D03*
D70*
X234950Y1111250D02*
X234950Y1117600D01*
X219200Y1117600D01*
D79*
X234950Y1111250D03*
D70*
X82550Y1117600D02*
X66800Y1117600D01*
X82550Y1117600D02*
X82550Y1111250D01*
D79*
X82550Y1111250D03*
D70*
X1320800Y831875D02*
X1333500Y831875D01*
X1346200Y831875D01*
D76*
X1358900Y1030100D02*
X1358900Y1162050D01*
D73*
X1054100Y1158875D02*
X1041400Y1158875D01*
X1054100Y1158875D02*
X1063625Y1158875D01*
X1063625Y1146175D01*
X1054100Y1146175D01*
D72*
X1063625Y1158875D03*
X1063625Y1146175D03*
D73*
X1054100Y1146175D02*
X1041400Y1146175D01*
D71*
X683200Y1115300D02*
X683244Y1108075D01*
D73*
X683200Y1115300D02*
X684952Y1120775D01*
X695325Y1120775D01*
X704850Y1120775D01*
X704850Y1108075D01*
X695325Y1108075D01*
D72*
X704850Y1120775D03*
X704850Y1108075D03*
D73*
X695325Y1108075D02*
X683244Y1108075D01*
X570652Y1120775D02*
X568900Y1115300D01*
X570652Y1120775D02*
X584200Y1120775D01*
X593725Y1120775D01*
X593725Y1108075D01*
X584200Y1108075D01*
D72*
X593725Y1120775D03*
X593725Y1108075D03*
D73*
X584200Y1108075D02*
X571500Y1108075D01*
D71*
X571475Y1086825D02*
X571475Y1082675D01*
D80*
X1294725Y930950D02*
X1304322Y930950D01*
X1294725Y930950D02*
X1292225Y933450D01*
X1292225Y942975D01*
D81*
X1292225Y942975D03*
D80*
X1333500Y831875D02*
X1333500Y831850D01*
D81*
X1333500Y831850D03*
D80*
X744700Y469800D02*
X744700Y452600D01*
X742950Y450850D01*
X742950Y444500D01*
X742950Y431800D01*
X742950Y406375D01*
D71*
X854075Y1231900D02*
X873000Y1231900D01*
D79*
X854075Y1231900D03*
D71*
X498500Y295275D02*
X479425Y295275D01*
D79*
X479425Y295275D03*
D71*
X828675Y298450D02*
X828675Y330200D01*
X828675Y298450D02*
X828675Y266700D01*
D76*
X863600Y876300D02*
X863600Y927100D01*
X863600Y876300D02*
X850900Y863600D01*
D80*
X719700Y622400D02*
X719700Y611180D01*
X721280Y609600D01*
D79*
X721280Y609600D03*
D73*
X844550Y882650D02*
X889000Y927100D01*
X844550Y882650D02*
X844550Y860425D01*
X847725Y860425D01*
X850900Y863600D01*
D74*
X419100Y682500D02*
X419100Y657200D01*
D71*
X387350Y1092800D02*
X387350Y1098550D01*
D70*
X314300Y987425D02*
X314325Y987400D01*
D73*
X593725Y1120775D02*
X593725Y1133475D01*
D72*
X593725Y1133475D03*
D73*
X593725Y1108075D02*
X593725Y1095375D01*
D72*
X593725Y1095375D03*
X584200Y1120775D03*
X584200Y1108075D03*
X695325Y1120775D03*
X695325Y1108075D03*
X1054100Y1158875D03*
X1054100Y1146175D03*
D70*
X1365825Y438150D02*
X1377950Y438150D01*
D75*
X1377950Y438150D03*
D70*
X1397025Y406375D02*
X1397025Y381000D01*
X1384325Y438150D02*
X1384325Y457200D01*
X1384325Y438150D02*
X1384325Y419075D01*
X1397025Y406375D01*
X1384325Y438150D02*
X1377950Y438150D01*
X1196975Y409575D02*
X1196975Y384150D01*
X1196975Y409575D02*
X1181100Y425450D01*
X1181100Y438150D01*
X1181100Y457175D01*
X1181125Y457200D01*
X1181100Y438150D02*
X1162625Y438150D01*
D75*
X1181100Y438150D03*
D80*
X444500Y803250D02*
X431825Y803250D01*
X431800Y803275D01*
D73*
X1244600Y1041400D02*
X1244600Y1079500D01*
X1244600Y1041400D02*
X1255900Y1030100D01*
X1263650Y1030100D01*
X1282700Y1030100D01*
X1333500Y1030100D01*
D71*
X1257300Y485800D02*
X1228700Y485800D01*
X1219200Y495300D01*
X1190600Y504800D02*
X1174750Y504800D01*
X1190600Y504800D02*
X1193800Y508000D01*
D82*
X1193800Y508000D03*
D73*
X1358900Y504800D02*
X1381100Y504800D01*
X1384300Y508000D01*
D82*
X1384300Y508000D03*
D73*
X1384300Y503050D02*
X1403350Y484000D01*
X1384300Y503050D02*
X1384300Y508000D01*
D71*
X1463650Y428650D02*
X1479550Y428650D01*
X1463650Y428650D02*
X1460500Y431800D01*
X1460500Y482600D01*
X1466850Y488950D01*
D73*
X1219200Y639950D02*
X1219200Y666750D01*
D82*
X1219200Y666750D03*
D70*
X466725Y987400D02*
X463525Y990600D01*
X450850Y990600D01*
D81*
X450850Y990600D03*
D70*
X314325Y987400D02*
X311125Y990600D01*
X298450Y990600D01*
D81*
X298450Y990600D03*
D70*
X161925Y987400D02*
X158775Y984250D01*
X146050Y984250D01*
D81*
X146050Y984250D03*
D76*
X1428350Y1270000D02*
X1428350Y1306500D01*
X1428350Y1270000D02*
X1428350Y1168000D01*
X1422400Y1162050D02*
X1358900Y1162050D01*
X1422400Y1162050D02*
X1428350Y1168000D01*
D73*
X94800Y857700D02*
X31750Y857700D01*
X94800Y857700D02*
X95250Y857250D01*
X95250Y876300D01*
D71*
X714375Y168300D02*
X714375Y152400D01*
D81*
X714375Y152400D03*
D71*
X965200Y848750D02*
X965200Y863600D01*
X965200Y848750D02*
X969400Y844550D01*
X943100Y1079500D02*
X943100Y1123950D01*
X943100Y1098550D02*
X943100Y1079500D01*
D81*
X943100Y1098550D03*
D71*
X720700Y1095400D02*
X720700Y1082675D01*
X708025Y1108075D02*
X704850Y1108075D01*
X708025Y1108075D02*
X720700Y1095400D01*
D73*
X166917Y899883D02*
X165100Y901700D01*
X166917Y899883D02*
X167700Y891300D01*
X164824Y901700D01*
X146050Y901700D01*
D72*
X146050Y901700D03*
D73*
X146050Y889000D01*
D72*
X146050Y889000D03*
D73*
X165100Y889000D01*
X146050Y901700D02*
X133350Y901700D01*
D72*
X133350Y901700D03*
D73*
X133350Y895350D01*
X133350Y889000D01*
X146050Y889000D01*
D72*
X133350Y889000D03*
D73*
X133350Y895350D02*
X114300Y895350D01*
X95250Y876300D01*
X1423850Y1212850D02*
X1428350Y1217350D01*
X1428350Y1270000D01*
D71*
X685800Y79400D02*
X647700Y79400D01*
X685800Y79400D02*
X749300Y79400D01*
X774700Y79400D01*
X800100Y79400D01*
X825500Y79400D01*
X850900Y79400D01*
X866800Y79400D01*
X869950Y82550D01*
D79*
X869950Y82550D03*
D71*
X381000Y187300D02*
X381000Y209550D01*
D79*
X381000Y209550D03*
D71*
X50800Y469900D02*
X50800Y498500D01*
D79*
X50800Y469900D03*
D71*
X50800Y288950D02*
X50800Y260350D01*
D79*
X50800Y260350D03*
D71*
X50800Y79400D02*
X50800Y50800D01*
D79*
X50800Y50800D03*
D71*
X381000Y396850D02*
X381000Y419100D01*
D79*
X381000Y419100D03*
D73*
X1244600Y825500D02*
X1250950Y825500D01*
X1261500Y814950D02*
X1298575Y814950D01*
X1261500Y814950D02*
X1250950Y825500D01*
X1333500Y800100D02*
X1333500Y773300D01*
X1333500Y800100D02*
X1318650Y814950D01*
X1298575Y814950D01*
X1110300Y276225D02*
X1095375Y276225D01*
X1110300Y276225D02*
X1110675Y269000D01*
X1110675Y268744D01*
X1108631Y266700D01*
D71*
X571475Y1082675D02*
X571475Y1112725D01*
X568900Y1115300D01*
X1041375Y1104900D02*
X1041375Y1150825D01*
X1038800Y1153400D01*
D74*
X279400Y711200D02*
X279400Y685800D01*
X292100Y673100D01*
X309240Y673100D01*
X1266825Y1033275D02*
X1266825Y1039250D01*
X1266825Y1033275D02*
X1263650Y1030100D01*
X1285875Y1033275D02*
X1285875Y1039250D01*
X1285875Y1033275D02*
X1282700Y1030100D01*
D70*
X927100Y431800D02*
X917550Y431800D01*
D83*
X927100Y431800D03*
D70*
X927100Y381000D02*
X917550Y381000D01*
D83*
X927100Y381000D03*
D70*
X742950Y444500D02*
X736600Y444500D01*
D83*
X736600Y444500D03*
D80*
X742925Y431800D02*
X739750Y428625D01*
X742925Y431800D02*
X742950Y431800D01*
D84*
X657225Y634975D02*
X647725Y634975D01*
X641350Y641350D01*
D83*
X641350Y641350D03*
D84*
X657225Y634975D02*
X676325Y634975D01*
X679475Y631825D01*
X850900Y647675D02*
X850900Y660400D01*
X854075Y663575D01*
D83*
X854075Y663575D03*
D79*
X609600Y520700D03*
D80*
X621350Y526100D02*
X698400Y526100D01*
X621350Y526100D02*
X615950Y520700D01*
X609600Y520700D01*
D71*
X54000Y203200D02*
X25400Y203200D01*
D79*
X609600Y533400D03*
D80*
X621425Y531100D02*
X698400Y531100D01*
X621425Y531100D02*
X619125Y533400D01*
X609600Y533400D01*
D79*
X609600Y508000D03*
D80*
X615950Y508000D02*
X629050Y521100D01*
X615950Y508000D02*
X609600Y508000D01*
X674525Y516100D02*
X698400Y516100D01*
X669525Y521100D02*
X629050Y521100D01*
X669525Y521100D02*
X674525Y516100D01*
D71*
X54000Y412750D02*
X25400Y412750D01*
D79*
X279400Y571500D03*
D80*
X619125Y558800D02*
X631825Y546100D01*
X698400Y546100D01*
X447675Y558800D02*
X434975Y571500D01*
X447675Y558800D02*
X619125Y558800D01*
D71*
X434975Y571500D02*
X279400Y571500D01*
D79*
X279400Y558800D03*
D80*
X627416Y541100D02*
X698400Y541100D01*
X627416Y541100D02*
X616066Y552450D01*
X441325Y552450D02*
X434975Y558800D01*
X441325Y552450D02*
X616066Y552450D01*
D71*
X434975Y558800D02*
X279400Y558800D01*
D79*
X279400Y546100D03*
D80*
X623410Y536100D02*
X698400Y536100D01*
X623410Y536100D02*
X613410Y546100D01*
X434975Y546100D01*
D71*
X279400Y546100D01*
X54000Y622300D02*
X25400Y622300D01*
D79*
X279400Y609600D03*
D80*
X628650Y577850D02*
X635400Y571100D01*
X698400Y571100D01*
X466725Y577850D02*
X434975Y609600D01*
X466725Y577850D02*
X628650Y577850D01*
D71*
X434975Y609600D02*
X279400Y609600D01*
D81*
X101600Y609600D03*
D71*
X101600Y628650D01*
X88900Y641350D01*
X57150Y641350D01*
X50800Y635000D01*
X50800Y625500D01*
X54000Y622300D01*
D79*
X279400Y596900D03*
D80*
X625475Y571500D02*
X630875Y566100D01*
X698400Y566100D01*
X460375Y571500D02*
X434975Y596900D01*
X460375Y571500D02*
X625475Y571500D01*
D71*
X434975Y596900D02*
X279400Y596900D01*
D79*
X279400Y584200D03*
D80*
X636466Y551100D02*
X698400Y551100D01*
X636466Y551100D02*
X624194Y563372D01*
X624078Y563372D01*
X622300Y565150D01*
X454025Y565150D02*
X434975Y584200D01*
X454025Y565150D02*
X622300Y565150D01*
D71*
X434975Y584200D02*
X279400Y584200D01*
D80*
X774700Y469800D02*
X774700Y375285D01*
D71*
X762000Y222250D02*
X762000Y177800D01*
X762000Y222250D02*
X749300Y234950D01*
X749300Y349250D01*
D80*
X749300Y349885D01*
X774700Y375285D01*
D70*
X774700Y165100D02*
X774700Y98400D01*
X774700Y165100D02*
X762000Y177800D01*
D71*
X812800Y177800D02*
X812800Y200025D01*
X768350Y244475D01*
X768350Y349250D01*
D80*
X784700Y365600D01*
X784700Y469800D01*
D70*
X825500Y165100D02*
X825500Y98400D01*
X825500Y165100D02*
X812800Y177800D01*
D71*
X685800Y247650D02*
X679450Y241300D01*
X685800Y247650D02*
X717550Y247650D01*
X723900Y254000D01*
X723900Y344805D01*
D80*
X764700Y385605D01*
X764700Y469800D01*
D71*
X679450Y241300D02*
X679450Y210566D01*
X739775Y180975D02*
X739775Y349250D01*
X739775Y180975D02*
X736600Y177800D01*
D80*
X739775Y349250D02*
X739775Y350520D01*
X769700Y380445D01*
X769700Y469800D01*
D70*
X749300Y165100D02*
X749300Y98400D01*
X749300Y165100D02*
X736600Y177800D01*
D71*
X787400Y177800D02*
X787400Y212725D01*
X758825Y241300D01*
X758825Y349250D01*
D80*
X779700Y370125D01*
X779700Y469800D01*
D70*
X800100Y165100D02*
X800100Y98400D01*
X800100Y165100D02*
X787400Y177800D01*
D71*
X838200Y177800D02*
X838200Y187325D01*
X777875Y247650D01*
X777875Y349250D01*
D80*
X789700Y361075D02*
X789700Y469800D01*
X789700Y361075D02*
X777875Y349250D01*
D70*
X850900Y165100D02*
X850900Y98400D01*
X850900Y165100D02*
X838200Y177800D01*
D71*
X928250Y1246650D02*
X928250Y1310100D01*
X928250Y1246650D02*
X930300Y1244600D01*
D72*
X904875Y1212850D03*
D71*
X904875Y1231775D01*
X905000Y1231900D01*
X917700Y1244600D02*
X930300Y1244600D01*
X917700Y1244600D02*
X905000Y1231900D01*
D80*
X794700Y668975D02*
X794700Y622400D01*
X794700Y668975D02*
X790575Y673100D01*
D79*
X790575Y673100D03*
X749935Y1073150D03*
D71*
X796925Y1073150D01*
D79*
X796925Y1073150D03*
D80*
X734700Y469800D02*
X734700Y458591D01*
X742950Y387375D02*
X720725Y387375D01*
X714400Y393700D01*
X699250Y393700D01*
X704850Y441325D02*
X717434Y441325D01*
X704850Y441325D02*
X699250Y435725D01*
X717434Y441325D02*
X734700Y458591D01*
D71*
X561975Y619125D02*
X574675Y631825D01*
X574675Y727075D01*
D80*
X699250Y435725D02*
X699250Y425725D01*
X699250Y393700D01*
X799700Y622400D02*
X799700Y672700D01*
X800100Y673100D01*
D79*
X800100Y673100D03*
D72*
X533400Y1231900D03*
D71*
X533400Y1270000D01*
X873150Y1158900D02*
X908050Y1158900D01*
X873150Y1158900D02*
X850900Y1136650D01*
X850900Y1082675D02*
X759460Y1082675D01*
D81*
X759460Y1082675D03*
D71*
X850900Y1082675D02*
X850900Y1136650D01*
X850900Y1082675D02*
X907925Y1082675D01*
X911100Y1079500D01*
D80*
X834700Y656900D02*
X834700Y622400D01*
X834700Y656900D02*
X847725Y669925D01*
D79*
X847725Y669925D03*
D72*
X1000125Y1120775D03*
D71*
X1000100Y1120750D01*
X1000100Y1104900D01*
X1022375Y1104900D01*
D72*
X552450Y1063625D03*
D71*
X552425Y1063650D02*
X523875Y1063650D01*
X552425Y1063650D02*
X552450Y1063625D01*
X552450Y1082650D01*
X552475Y1082675D01*
D80*
X829700Y664600D02*
X829700Y622400D01*
X829700Y664600D02*
X838200Y673100D01*
D79*
X838200Y673100D03*
X796925Y1063625D03*
D71*
X730250Y1063625D01*
D79*
X730250Y1063625D03*
D80*
X708425Y521100D02*
X698400Y521100D01*
X708425Y521100D02*
X714375Y527050D01*
D79*
X714375Y527050D03*
X698500Y1047750D03*
D71*
X698500Y1082675D02*
X660375Y1082675D01*
X698500Y1082675D02*
X701700Y1082675D01*
X698500Y1082675D02*
X698500Y1047750D01*
X854075Y298450D02*
X854075Y266700D01*
X854075Y298450D02*
X854075Y330200D01*
D80*
X804700Y376400D02*
X804700Y469800D01*
X804700Y376400D02*
X812800Y368300D01*
D70*
X825500Y355600D01*
X847725Y355600D02*
X854075Y349250D01*
X854075Y330200D01*
X847725Y355600D02*
X825500Y355600D01*
D71*
X854075Y266700D02*
X854075Y238100D01*
X879475Y266700D02*
X879475Y298450D01*
X879475Y330200D01*
D70*
X879475Y349250D02*
X860425Y368300D01*
X825500Y368300D02*
X812800Y381000D01*
D79*
X812800Y381000D03*
X798120Y381000D03*
D70*
X825500Y368300D02*
X860425Y368300D01*
D80*
X799700Y382580D02*
X799700Y469800D01*
X799700Y382580D02*
X798120Y381000D01*
D71*
X879475Y266700D02*
X879475Y238100D01*
D70*
X879475Y330200D02*
X879475Y349250D01*
D80*
X698400Y496100D02*
X597700Y496100D01*
X571500Y469900D01*
X571500Y444500D01*
D71*
X520700Y346075D02*
X571500Y295275D01*
X520700Y393700D02*
X571500Y444500D01*
X520700Y393700D02*
X520700Y346075D01*
X571500Y228600D02*
X558800Y215900D01*
X526034Y215900D01*
X571500Y228600D02*
X571500Y295275D01*
D80*
X605400Y491100D02*
X698400Y491100D01*
X605400Y491100D02*
X584200Y469900D01*
D71*
X533400Y390525D02*
X533400Y349250D01*
X533400Y390525D02*
X584200Y441325D01*
D80*
X584200Y469900D01*
D71*
X482600Y203200D02*
X464566Y203200D01*
X482600Y247650D02*
X488950Y254000D01*
X527050Y254000D01*
X527050Y266700D01*
X482600Y247650D02*
X482600Y203200D01*
D75*
X527050Y266700D03*
X533400Y349250D03*
D80*
X613100Y486100D02*
X698400Y486100D01*
X613100Y486100D02*
X596900Y469900D01*
D71*
X596900Y438150D02*
X546100Y387350D01*
X596900Y438150D02*
X596900Y444500D01*
D80*
X596900Y469900D01*
D71*
X546100Y336550D02*
X558800Y323850D01*
D75*
X558800Y323850D03*
X552450Y228600D03*
D71*
X526034Y228600D01*
X546100Y336550D02*
X546100Y387350D01*
D80*
X638725Y501100D02*
X698400Y501100D01*
X638725Y501100D02*
X631825Y508000D01*
D79*
X631825Y508000D03*
D71*
X511175Y619125D02*
X523875Y631825D01*
X523875Y727075D01*
D80*
X643250Y506100D02*
X698400Y506100D01*
X643250Y506100D02*
X638175Y511175D01*
D79*
X638175Y511175D03*
X638175Y609600D03*
D70*
X606425Y641350D01*
X606425Y666750D01*
D79*
X606425Y666750D03*
D80*
X804700Y668175D02*
X804700Y622400D01*
X804700Y668175D02*
X809625Y673100D01*
D79*
X809625Y673100D03*
D71*
X911100Y1123950D02*
X911100Y1127000D01*
X933450Y1149350D01*
X933450Y1158900D01*
X911100Y1123950D02*
X895350Y1123950D01*
X863600Y1092200D01*
D81*
X863600Y1092200D03*
X825500Y1092200D03*
D71*
X793750Y1092200D01*
D81*
X768350Y1092200D03*
D71*
X793750Y1092200D01*
X793750Y1181100D01*
D73*
X1244600Y800100D02*
X1244600Y774700D01*
X203200Y1331840D02*
X201540Y1333500D01*
X188840Y1333500D01*
D80*
X828200Y536100D02*
X851000Y536100D01*
X828200Y536100D02*
X825500Y533400D01*
D84*
X825500Y584200D01*
X730250Y584200D02*
X723900Y584200D01*
X730250Y584200D02*
X822325Y584200D01*
X825500Y584200D01*
X730250Y568325D02*
X730250Y508000D01*
X730250Y568325D02*
X730250Y584200D01*
X736600Y508000D02*
X825500Y508000D01*
X736600Y508000D02*
X730250Y508000D01*
X825500Y508000D02*
X825500Y533400D01*
D80*
X814700Y614050D02*
X814700Y622400D01*
X814700Y614050D02*
X819150Y609600D01*
X825500Y603250D01*
X825500Y584200D01*
X714700Y615950D02*
X714700Y622400D01*
X714700Y615950D02*
X714700Y593400D01*
X723900Y584200D01*
X723025Y561100D02*
X698400Y561100D01*
X723025Y561100D02*
X730250Y568325D01*
X739700Y504900D02*
X739700Y469800D01*
X739700Y504900D02*
X736600Y508000D01*
D74*
X76200Y152400D02*
X76200Y127000D01*
X76200Y152400D02*
X76200Y177800D01*
X76200Y200000D01*
D71*
X73000Y203200D01*
D74*
X76200Y336550D02*
X76200Y361950D01*
X76200Y387350D02*
X76200Y409550D01*
D71*
X73000Y412750D01*
D74*
X76200Y387350D02*
X76200Y361950D01*
X76200Y546100D02*
X76200Y571500D01*
X355600Y349250D02*
X355600Y323850D01*
X76200Y571500D02*
X76200Y596900D01*
X76200Y619100D01*
D71*
X73000Y622300D01*
D74*
X355600Y298450D02*
X355600Y276250D01*
X358800Y273050D01*
X355600Y139700D02*
X355600Y114300D01*
X355600Y298450D02*
X355600Y323850D01*
X355600Y114300D02*
X355600Y88900D01*
D71*
X949300Y1244600D02*
X949300Y1274500D01*
X942100Y1281700D01*
D70*
X1139825Y415950D02*
X1143025Y412750D01*
D71*
X1270000Y396875D02*
X1270000Y434975D01*
X1270000Y396875D02*
X1266825Y393700D01*
X1254125Y393700D01*
D70*
X1438300Y444500D02*
X1441450Y447650D01*
X1438300Y444500D02*
X1423035Y444500D01*
X1423035Y439360D01*
X1421825Y438150D01*
D74*
X76200Y482600D02*
X76200Y546100D01*
X76200Y482600D02*
X76200Y387350D01*
X76200Y336550D02*
X76200Y273050D01*
X76200Y177800D01*
X76200Y127000D02*
X76200Y63500D01*
X127000Y63500D01*
X139700Y50800D01*
X152400Y50800D01*
X127000Y273050D02*
X76200Y273050D01*
X127000Y273050D02*
X139700Y260350D01*
X152400Y260350D01*
X127000Y482600D02*
X76200Y482600D01*
X127000Y482600D02*
X139700Y469900D01*
X152400Y469900D01*
X355600Y203200D02*
X355600Y139700D01*
X355600Y203200D02*
X355600Y298450D01*
X355600Y203200D02*
X304800Y203200D01*
X292100Y215900D01*
X279400Y215900D01*
X355600Y349250D02*
X355600Y412750D01*
X304800Y412750D01*
X292100Y425450D01*
X279400Y425450D01*
D70*
X1304322Y878950D02*
X1314975Y878950D01*
X1320800Y873125D01*
X1320800Y850875D01*
D76*
X1244600Y774700D02*
X1244600Y749300D01*
X1244600Y723900D01*
X1422400Y654050D02*
X1422400Y628650D01*
D70*
X1421765Y445770D02*
X1423035Y444500D01*
X1421765Y445770D02*
X1421765Y452120D01*
D79*
X1421765Y452120D03*
D71*
X1323975Y434975D02*
X1270000Y434975D01*
D79*
X1323975Y434975D03*
D71*
X949300Y1225550D02*
X949300Y1244600D01*
X949300Y1225550D02*
X949300Y1206500D01*
D80*
X739700Y469800D02*
X739700Y457125D01*
X720725Y438150D01*
X720725Y406375D01*
D71*
X539750Y241300D02*
X526034Y241300D01*
X539750Y241300D02*
X542925Y244475D01*
X542925Y292100D01*
X541338Y293688D01*
X539750Y295275D01*
X517500Y295275D01*
X511150Y454025D02*
X514350Y457225D01*
X514350Y492125D01*
D72*
X203200Y1374775D03*
D73*
X203200Y1331840D01*
X203200Y1270000D01*
D72*
X949300Y1225550D03*
X822325Y584200D03*
X619125Y358775D03*
D73*
X558800Y358775D01*
X558800Y381000D01*
X619125Y358775D02*
X631825Y358775D01*
D72*
X631825Y358775D03*
X558800Y358775D03*
X279400Y476250D03*
D73*
X215900Y476250D01*
X215900Y469900D01*
X215900Y425450D01*
X215900Y260350D01*
X215900Y215900D01*
X215900Y107950D01*
X158750Y50800D01*
X152400Y50800D01*
X215900Y215900D02*
X279400Y215900D01*
X215900Y260350D02*
X152400Y260350D01*
X152400Y469900D02*
X215900Y469900D01*
X215900Y425450D02*
X279400Y425450D01*
X279400Y476250D02*
X295275Y476250D01*
D72*
X295275Y476250D03*
X558800Y381000D03*
D79*
X541338Y293688D03*
D71*
X854075Y219100D02*
X879475Y219100D01*
X854075Y219100D02*
X831825Y219100D01*
X803275Y247650D01*
X803275Y266700D01*
D70*
X1352550Y400050D02*
X1365825Y400050D01*
D75*
X1352550Y400050D03*
D71*
X1343000Y434975D02*
X1323975Y434975D01*
D70*
X1343000Y434975D02*
X1343025Y434950D01*
D71*
X1270000Y434975D02*
X1266825Y434975D01*
X1253515Y448285D02*
X1241425Y448285D01*
X1253515Y448285D02*
X1266825Y434975D01*
D70*
X1228760Y448285D02*
X1218625Y438150D01*
X1228760Y448285D02*
X1241425Y448285D01*
D75*
X1149350Y400050D03*
D70*
X1162625Y400050D01*
X1139825Y409575D02*
X1139825Y415950D01*
X1139825Y409575D02*
X1149350Y400050D01*
D71*
X1219200Y800100D02*
X1244600Y800100D01*
X1219200Y800100D02*
X1212850Y806450D01*
X1212850Y844550D01*
X1219200Y850900D01*
X1301750Y850900D01*
X1301775Y850875D02*
X1320800Y850875D01*
X1301775Y850875D02*
X1301750Y850900D01*
D76*
X1301750Y723900D02*
X1244600Y723900D01*
X1301750Y723900D02*
X1332100Y723900D01*
X1333500Y725300D01*
X1390650Y654050D02*
X1422400Y654050D01*
X1390650Y654050D02*
X1384300Y660400D01*
X1384300Y704850D02*
X1365250Y723900D01*
X1332100Y723900D01*
X1384300Y704850D02*
X1384300Y660400D01*
X955675Y663575D02*
X923925Y631825D01*
D82*
X920750Y631825D03*
D76*
X908050Y631825D01*
D82*
X908050Y631825D03*
D76*
X1101725Y663575D02*
X1162050Y723900D01*
X1244600Y723900D01*
X1028700Y663575D02*
X955675Y663575D01*
X1028700Y663575D02*
X1101725Y663575D01*
D73*
X1174750Y485800D02*
X1193775Y485800D01*
X1193800Y485775D01*
D82*
X1193800Y485775D03*
X1250950Y673100D03*
D73*
X1250950Y717550D01*
X1244600Y723900D01*
X1301750Y723900D02*
X1301750Y685800D01*
D81*
X698500Y127000D03*
D71*
X698500Y190500D01*
X704850Y196850D01*
X704850Y210566D01*
X714375Y187325D02*
X714375Y187300D01*
X714375Y187325D02*
X704850Y196850D01*
D73*
X1150350Y485800D02*
X1174750Y485800D01*
X1150350Y485800D02*
X1146950Y489200D01*
D71*
X933450Y1177900D02*
X908050Y1177900D01*
X355600Y66700D02*
X358800Y63500D01*
X355600Y66700D02*
X355600Y88900D01*
D73*
X1246750Y797950D02*
X1298575Y797950D01*
X1246750Y797950D02*
X1244600Y800100D01*
D80*
X923925Y631825D02*
X920750Y631825D01*
D71*
X933450Y1177900D02*
X946150Y1190600D01*
X946150Y1203350D02*
X949300Y1206500D01*
X946150Y1203350D02*
X946150Y1190600D01*
D82*
X1028700Y641350D03*
D73*
X1028700Y663575D01*
X1028700Y641350D02*
X1028700Y628650D01*
X1028700Y622300D01*
D82*
X1028700Y628650D03*
D80*
X714675Y615975D02*
X657225Y615975D01*
X714675Y615975D02*
X714700Y615950D01*
D84*
X850900Y625475D02*
X850900Y628675D01*
X850900Y625475D02*
X835025Y609600D01*
D83*
X835025Y609600D03*
D84*
X819150Y609600D01*
D80*
X724700Y622400D02*
X724700Y634200D01*
X723900Y635000D01*
X701650Y635000D01*
X698475Y631825D01*
X749700Y469800D02*
X749700Y446640D01*
X750570Y445770D01*
D81*
X750570Y445770D03*
D70*
X898550Y390550D02*
X898550Y381000D01*
X898550Y390550D02*
X901700Y393700D01*
X914400Y393700D01*
X917550Y396850D01*
X917550Y406400D01*
X898550Y381000D02*
X857250Y381000D01*
X1346200Y878950D02*
X1362678Y878950D01*
X1346200Y878950D02*
X1346200Y854075D01*
X1346200Y850875D01*
X1350050Y930950D02*
X1362678Y930950D01*
X1350050Y930950D02*
X1346200Y927100D01*
X1346200Y878950D01*
D81*
X1368425Y844550D03*
D80*
X1368425Y847725D01*
X1362075Y854075D01*
X1346200Y854075D01*
X1440001Y984250D02*
X1447800Y984250D01*
X1440001Y984250D02*
X1427555Y971804D01*
X1397254Y971804D02*
X1390650Y965200D01*
X1397254Y971804D02*
X1427555Y971804D01*
X1378325Y917950D02*
X1362678Y917950D01*
X1378325Y917950D02*
X1390650Y930275D01*
X1390650Y965200D01*
X1440001Y1009650D02*
X1447800Y1009650D01*
X1440001Y1009650D02*
X1427555Y997204D01*
X1387729Y997204D02*
X1381125Y990600D01*
X1387729Y997204D02*
X1427555Y997204D01*
X1372125Y924450D02*
X1362678Y924450D01*
X1372125Y924450D02*
X1381125Y933450D01*
X1381125Y990600D01*
X1435100Y920750D02*
X1447800Y908050D01*
X1394050Y911450D02*
X1362678Y911450D01*
X1394050Y911450D02*
X1403350Y920750D01*
X1435100Y920750D01*
X1435100Y895350D02*
X1447800Y882650D01*
X1435100Y895350D02*
X1403350Y895350D01*
X1393750Y904950D02*
X1362678Y904950D01*
X1393750Y904950D02*
X1403350Y895350D01*
X1435100Y869950D02*
X1447800Y857250D01*
X1400175Y869950D02*
X1393825Y876300D01*
X1400175Y869950D02*
X1435100Y869950D01*
X1393825Y892175D02*
X1387475Y898525D01*
X1362753Y898525D01*
X1362678Y898450D01*
X1393825Y892175D02*
X1393825Y876300D01*
X1435100Y717550D02*
X1447800Y704850D01*
X1435100Y717550D02*
X1403350Y717550D01*
X1387475Y733425D01*
X1387475Y885825D02*
X1381125Y892175D01*
X1362903Y892175D01*
X1362678Y891950D01*
X1387475Y885825D02*
X1387475Y733425D01*
X698400Y596100D02*
X686600Y596100D01*
X682625Y600075D01*
D79*
X682625Y600075D03*
D80*
X1247400Y917950D02*
X1304322Y917950D01*
X1247400Y917950D02*
X1244600Y920750D01*
D79*
X1244600Y920750D03*
D80*
X698400Y601100D02*
X691125Y601100D01*
X685800Y606425D01*
X673100Y606425D01*
D79*
X673100Y606425D03*
D80*
X1235075Y885825D02*
X1241200Y891950D01*
D79*
X1235075Y885825D03*
D80*
X1241200Y891950D02*
X1304322Y891950D01*
X698400Y511100D02*
X647775Y511100D01*
X644525Y514350D01*
D79*
X644525Y514350D03*
D71*
X536575Y619125D02*
X549275Y631825D01*
X549275Y727075D01*
X50800Y127000D02*
X25400Y127000D01*
D73*
X25400Y101600D02*
X25400Y76200D01*
D71*
X25400Y336550D02*
X50800Y336550D01*
D73*
X25400Y311150D02*
X25400Y285750D01*
D71*
X304200Y882650D02*
X356200Y882650D01*
X381000Y882650D01*
X416050Y882650D01*
X419100Y885700D01*
X381000Y882650D02*
X381000Y892200D01*
D73*
X88900Y692150D02*
X88900Y673100D01*
X101600Y660400D01*
X127000Y660400D01*
X139700Y660400D01*
X152400Y660400D01*
X190500Y660400D01*
D74*
X390300Y638200D02*
X419100Y638200D01*
X934212Y897636D02*
X942086Y897636D01*
X946150Y901700D01*
X946150Y914400D01*
X946150Y939800D01*
D73*
X922900Y939800D01*
X1333500Y1078100D02*
X1333500Y1115825D01*
X127000Y532000D02*
X101600Y506600D01*
X127000Y532000D02*
X127000Y609600D01*
X139700Y622300D01*
X152400Y622300D01*
X152400Y203200D02*
X139700Y203200D01*
X127000Y190500D01*
X127000Y112900D01*
X139700Y412750D02*
X152400Y412750D01*
X139700Y412750D02*
X127000Y400050D01*
X127000Y322450D01*
X101600Y297050D01*
X127000Y112900D02*
X101600Y87500D01*
X279400Y63500D02*
X292100Y63500D01*
X304800Y76200D01*
X304800Y153800D01*
X330200Y179200D01*
X292100Y273050D02*
X279400Y273050D01*
X292100Y273050D02*
X304800Y285750D01*
X304800Y363350D01*
X330200Y388750D01*
D74*
X165100Y658200D02*
X154600Y658200D01*
X152400Y660400D01*
D72*
X152400Y660400D03*
X139700Y660400D03*
X127000Y660400D03*
D74*
X190500Y658200D02*
X192700Y660400D01*
D73*
X228600Y660400D01*
X241300Y660400D01*
X254000Y660400D01*
X254000Y647700D01*
X241300Y647700D01*
X228600Y647700D01*
X152400Y647700D01*
X139700Y647700D01*
X127000Y647700D01*
X127000Y660400D01*
X152400Y660400D01*
X165100Y658200D02*
X190500Y658200D01*
D72*
X127000Y647700D03*
X139700Y647700D03*
X152400Y647700D03*
X228600Y660400D03*
X241300Y660400D03*
X254000Y660400D03*
X254000Y647700D03*
X241300Y647700D03*
X228600Y647700D03*
D78*
X419100Y885700D02*
X441200Y885700D01*
X444500Y889000D01*
D72*
X444500Y889000D03*
X390300Y638200D03*
D73*
X1020150Y1016000D02*
X1028700Y1024550D01*
X1020150Y1016000D02*
X1003300Y1016000D01*
X990600Y1016000D01*
X977900Y1016000D01*
X977900Y1028700D01*
X990600Y1028700D01*
X1003300Y1028700D01*
X1054100Y1028700D01*
X1066800Y1028700D01*
X1079500Y1028700D01*
X1079500Y1016000D01*
X1066800Y1016000D01*
X1054100Y1016000D01*
X1041400Y1016000D01*
X946150Y977900D02*
X946150Y939800D01*
X946150Y977900D02*
X946150Y990600D01*
X946150Y1003300D01*
X946150Y1019175D01*
X955675Y1028700D01*
X977900Y1028700D01*
D72*
X1003300Y1028700D03*
X1003300Y1016000D03*
X990600Y1028700D03*
X990600Y1016000D03*
X1054100Y1028700D03*
X1054100Y1016000D03*
X1066800Y1028700D03*
X1066800Y1016000D03*
X946150Y1003300D03*
X946150Y977900D03*
X946150Y914400D03*
D70*
X314325Y1031850D02*
X314325Y1047750D01*
D79*
X314325Y1047750D03*
D70*
X161925Y1047750D02*
X161925Y1050925D01*
D79*
X161925Y1050925D03*
D70*
X161925Y1047750D02*
X161925Y1031850D01*
D79*
X466725Y1047750D03*
D73*
X922475Y138250D02*
X922475Y101600D01*
X922475Y138250D02*
X923925Y139700D01*
X1024075Y138250D02*
X1024075Y101600D01*
X1024075Y138250D02*
X1025525Y139700D01*
X1448375Y168850D02*
X1448375Y188200D01*
X1448375Y168850D02*
X1444625Y165100D01*
D72*
X1444625Y165100D03*
D73*
X993775Y75060D02*
X934590Y75060D01*
X922475Y87175D01*
X922475Y101600D01*
X993775Y75060D02*
X994915Y76200D01*
X1019175Y76200D01*
X1024075Y81100D01*
X1024075Y101600D01*
D71*
X1450950Y304800D02*
X1463675Y292075D01*
X1463675Y203500D01*
X1448375Y188200D01*
X946150Y990600D02*
X938400Y990600D01*
D73*
X1358900Y485800D02*
X1358900Y463550D01*
D82*
X1358900Y463550D03*
D70*
X466725Y1047750D02*
X466725Y1066825D01*
X466725Y1047750D02*
X466725Y1031850D01*
X432400Y1047750D02*
X425450Y1040800D01*
X432400Y1047750D02*
X466725Y1047750D01*
X314325Y1047750D02*
X314325Y1066825D01*
X273050Y1041400D02*
X273050Y1040800D01*
X273050Y1041400D02*
X279400Y1047750D01*
X314325Y1047750D01*
X127600Y1047750D02*
X120650Y1040800D01*
X127600Y1047750D02*
X161925Y1047750D01*
X161925Y1050925D02*
X161925Y1066825D01*
D76*
X1378350Y1210375D02*
X1378350Y1306500D01*
X1378350Y1210375D02*
X1299275Y1210375D01*
X1270000Y1130300D02*
X1244600Y1130300D01*
X1270000Y1130300D02*
X1282700Y1143000D01*
X1282700Y1193800D01*
X1299275Y1210375D01*
D73*
X1334500Y485800D02*
X1358900Y485800D01*
X1334500Y485800D02*
X1331100Y489200D01*
X698500Y1238250D02*
X680900Y1238250D01*
D72*
X698500Y1238250D03*
D73*
X711200Y1238250D01*
D72*
X711200Y1238250D03*
D73*
X1374350Y1221350D02*
X1382850Y1212850D01*
X1374350Y1221350D02*
X1374350Y1270000D01*
D74*
X390300Y638200D02*
X378200Y650300D01*
X370600Y650300D01*
D71*
X50800Y571500D02*
X25400Y571500D01*
D73*
X25400Y520700D02*
X25400Y495300D01*
D71*
X25400Y177800D02*
X50800Y177800D01*
X63500Y165100D01*
X63500Y111100D01*
X50800Y98400D01*
X50800Y152400D02*
X25400Y152400D01*
X25400Y387350D02*
X50800Y387350D01*
X63500Y374650D01*
X63500Y320650D01*
X50800Y307950D01*
X50800Y361950D02*
X25400Y361950D01*
X25400Y546100D02*
X50800Y546100D01*
X50800Y596900D02*
X25400Y596900D01*
X50800Y596900D02*
X63500Y584200D01*
X63500Y530200D01*
X50800Y517500D01*
D73*
X190500Y190500D02*
X152400Y152400D01*
X152400Y127000D02*
X190500Y165100D01*
X190500Y139700D02*
X152400Y101600D01*
X152400Y76200D02*
X190500Y114300D01*
X177800Y361950D02*
X152400Y361950D01*
X152400Y336550D02*
X177800Y336550D01*
X177800Y311150D02*
X152400Y311150D01*
X152400Y285750D02*
X177800Y285750D01*
X177800Y571500D02*
X152400Y571500D01*
X152400Y546100D02*
X177800Y546100D01*
X177800Y520700D02*
X152400Y520700D01*
X152400Y495300D02*
X177800Y495300D01*
D71*
X381000Y323850D02*
X406400Y323850D01*
D73*
X406400Y374650D02*
X406400Y400050D01*
D71*
X406400Y349250D02*
X381000Y349250D01*
X381000Y298450D02*
X406400Y298450D01*
X381000Y298450D02*
X368300Y311150D01*
X368300Y365150D01*
X381000Y377850D01*
D73*
X279400Y323850D02*
X254000Y323850D01*
X254000Y349250D02*
X279400Y349250D01*
X279400Y374650D02*
X254000Y374650D01*
X254000Y400050D02*
X279400Y400050D01*
D71*
X381000Y114300D02*
X406400Y114300D01*
D73*
X406400Y165100D02*
X406400Y190500D01*
D71*
X406400Y139700D02*
X381000Y139700D01*
X381000Y88900D02*
X406400Y88900D01*
X381000Y88900D02*
X368300Y101600D01*
X368300Y155600D02*
X381000Y168300D01*
X368300Y155600D02*
X368300Y101600D01*
D73*
X279400Y114300D02*
X254000Y114300D01*
X254000Y139700D02*
X279400Y139700D01*
X279400Y165100D02*
X254000Y165100D01*
X254000Y190500D02*
X279400Y190500D01*
D71*
X406400Y63500D02*
X495300Y63500D01*
D75*
X495300Y63500D03*
X495300Y203200D03*
D71*
X526034Y203200D01*
X406400Y63500D02*
X377800Y63500D01*
X377800Y273050D02*
X406400Y273050D01*
X501650Y273050D02*
X508000Y266700D01*
X501650Y273050D02*
X406400Y273050D01*
D75*
X508000Y266700D03*
X508000Y190500D03*
D71*
X526034Y190500D01*
X431800Y400050D02*
X406400Y425450D01*
D75*
X431800Y400050D03*
X431800Y190500D03*
D71*
X464566Y190500D01*
X464566Y215900D02*
X406400Y215900D01*
X444500Y412750D02*
X406400Y450850D01*
X444500Y228600D02*
X464566Y228600D01*
D75*
X444500Y228600D03*
X444500Y412750D03*
D71*
X464566Y241300D02*
X406400Y241300D01*
X666750Y311150D02*
X666750Y438150D01*
D80*
X714700Y486100D01*
X714700Y488625D02*
X714375Y488950D01*
D79*
X714375Y488950D03*
X711200Y857250D03*
D71*
X711200Y866750D01*
X704825Y873125D01*
X612775Y311150D02*
X600075Y298450D01*
X612775Y311150D02*
X666750Y311150D01*
X600075Y298450D02*
X600075Y190500D01*
X600075Y180975D01*
X596900Y177800D01*
X526034Y177800D01*
X526034Y165100D02*
X526034Y152400D01*
X526034Y165100D02*
X526034Y177800D01*
X641350Y196850D02*
X641350Y210566D01*
X641350Y196850D02*
X635000Y190500D01*
X600075Y190500D01*
D80*
X714700Y486100D02*
X714700Y488625D01*
D79*
X762000Y482600D03*
D80*
X759700Y480300D02*
X759700Y469800D01*
X759700Y480300D02*
X762000Y482600D01*
D71*
X654050Y210566D02*
X654050Y184150D01*
X647700Y177800D01*
D70*
X647700Y101600D02*
X647700Y98400D01*
X647700Y101600D02*
X660400Y114300D01*
X660400Y165100D01*
X647700Y177800D01*
X685800Y165100D02*
X685800Y98400D01*
X685800Y165100D02*
X673100Y177800D01*
D71*
X666750Y184150D01*
X666750Y210566D01*
D73*
X1314675Y130400D02*
X1314675Y76200D01*
X1314675Y130400D02*
X1323975Y139700D01*
X1336675Y139700D01*
X1368425Y139700D01*
X1336675Y139700D02*
X1336675Y207640D01*
D74*
X1358675Y76200D02*
X1382850Y76200D01*
D73*
X1425575Y139700D02*
X1425575Y249560D01*
X1425575Y139700D02*
X1425575Y95250D01*
X1425575Y84000D01*
X1423850Y77650D02*
X1423850Y76200D01*
X1425575Y139700D02*
X1406525Y139700D01*
D74*
X1427025Y93800D02*
X1460500Y93800D01*
X1427025Y93800D02*
X1425575Y95250D01*
D70*
X1423850Y82275D02*
X1423850Y76200D01*
X1423850Y82275D02*
X1425575Y84000D01*
X1406525Y307950D02*
X1406525Y331900D01*
X1406525Y307950D02*
X1409675Y304800D01*
X1431950Y304800D01*
D71*
X1390675Y304800D02*
X1387475Y301600D01*
X1387475Y203500D01*
X1402775Y188200D01*
X1362075Y298450D02*
X1362075Y308000D01*
X1362075Y298450D02*
X1362075Y297500D01*
X1362075Y279200D01*
X1359475Y269000D01*
D80*
X1368425Y355600D02*
X1368425Y358800D01*
X1368425Y355600D02*
X1381125Y342900D01*
X1406525Y342900D01*
X1416025Y352400D01*
X1416025Y353900D01*
D71*
X1362075Y327000D02*
X1352525Y327000D01*
X1330350Y304825D02*
X1323975Y304825D01*
X1330350Y304825D02*
X1352525Y327000D01*
X1298575Y330225D02*
X1298575Y307975D01*
X1320833Y307975D01*
X1323975Y304825D01*
X1298575Y307975D02*
X1285875Y307975D01*
D79*
X1285875Y307975D03*
X1076325Y368300D03*
D71*
X771525Y949325D02*
X704825Y949325D01*
X771525Y949325D02*
X787400Y933450D01*
X787400Y768350D02*
X889000Y666750D01*
X787400Y768350D02*
X787400Y933450D01*
X889000Y666750D02*
X889000Y615950D01*
D79*
X889000Y615950D03*
D71*
X946150Y368300D02*
X1076325Y368300D01*
D75*
X911225Y454025D03*
D80*
X867325Y501100D02*
X851000Y501100D01*
X911225Y457200D02*
X911225Y454025D01*
X911225Y457200D02*
X867325Y501100D01*
D83*
X946150Y368300D03*
D70*
X1298575Y371500D02*
X1298575Y349225D01*
X1298575Y390500D02*
X1306675Y390500D01*
X1314475Y382700D01*
X1314475Y375500D01*
X1323975Y366000D01*
X1359475Y419100D02*
X1365825Y425450D01*
X1346175Y419100D02*
X1343025Y415950D01*
X1346175Y419100D02*
X1359475Y419100D01*
X1323975Y409575D02*
X1323975Y404700D01*
X1330350Y415950D02*
X1343025Y415950D01*
X1330350Y415950D02*
X1323975Y409575D01*
X1421825Y400050D02*
X1421825Y396300D01*
X1416025Y390500D01*
X1416025Y381000D01*
X1457325Y368300D02*
X1457325Y342900D01*
X1421825Y412750D02*
X1421825Y425450D01*
X1421825Y412750D02*
X1428750Y412750D01*
X1441450Y400050D01*
X1441450Y377825D01*
X1450975Y368300D01*
X1457325Y368300D01*
X1438250Y425450D02*
X1441450Y428650D01*
X1438250Y425450D02*
X1421825Y425450D01*
X1409700Y425450D01*
X1403325Y431825D02*
X1403325Y457200D01*
X1403325Y431825D02*
X1409700Y425450D01*
D80*
X1374775Y412750D02*
X1365825Y412750D01*
X1374775Y412750D02*
X1377950Y409575D01*
X1377950Y384175D01*
X1371575Y377800D01*
X1368425Y377800D01*
D73*
X1098775Y130400D02*
X1098775Y76200D01*
X1098775Y130400D02*
X1108075Y139700D01*
X1133475Y139700D01*
X1165225Y139700D01*
X1133475Y139700D02*
X1133475Y207640D01*
X1142775Y76200D02*
X1176475Y76200D01*
X1222375Y139700D02*
X1222375Y249560D01*
X1222375Y139700D02*
X1222375Y81100D01*
X1217475Y76200D01*
X1223353Y80122D02*
X1261453Y80122D01*
X1223353Y80122D02*
X1222375Y81100D01*
X1222375Y139700D02*
X1203325Y139700D01*
D70*
X1206475Y304800D02*
X1228750Y304800D01*
X1203325Y307950D02*
X1203325Y331900D01*
X1203325Y307950D02*
X1206475Y304800D01*
D71*
X1187475Y304800D02*
X1187475Y200300D01*
X1199575Y188200D01*
X1158875Y279200D02*
X1158875Y308000D01*
X1158875Y279200D02*
X1156275Y269000D01*
D70*
X1171575Y355600D02*
X1171575Y358800D01*
X1171575Y355600D02*
X1184275Y342900D01*
X1201825Y342900D02*
X1212825Y353900D01*
X1201825Y342900D02*
X1184275Y342900D01*
X1095375Y352400D02*
X1095375Y374675D01*
X1111275Y375500D02*
X1111275Y382700D01*
X1111275Y375500D02*
X1120775Y366000D01*
X1111275Y382700D02*
X1111275Y384125D01*
X1101725Y393675D01*
X1095375Y393675D01*
X1120775Y404700D02*
X1120775Y422275D01*
X1130300Y431800D01*
X1136675Y431800D01*
X1155700Y425450D02*
X1162625Y425450D01*
X1155700Y425450D02*
X1149350Y431800D01*
X1142975Y431800D02*
X1139825Y434950D01*
X1142975Y431800D02*
X1149350Y431800D01*
X1139825Y434950D02*
X1136675Y431800D01*
X1212825Y393675D02*
X1212825Y381000D01*
X1212825Y393675D02*
X1218625Y399475D01*
X1218625Y400050D01*
X1254125Y368300D02*
X1254125Y342900D01*
X1218625Y412750D02*
X1218625Y425450D01*
X1237590Y425450D01*
X1241425Y429285D01*
X1228725Y412750D02*
X1218625Y412750D01*
X1228725Y412750D02*
X1238250Y403225D01*
X1238250Y381000D01*
X1250950Y368300D01*
X1254125Y368300D01*
X1218625Y425450D02*
X1206500Y425450D01*
X1200125Y431825D02*
X1200125Y457200D01*
X1200125Y431825D02*
X1206500Y425450D01*
X1168400Y412750D02*
X1162625Y412750D01*
X1168400Y412750D02*
X1174721Y406429D01*
X1174721Y380946D01*
X1171575Y377800D01*
D76*
X1079500Y749300D02*
X1082675Y752475D01*
X1079500Y749300D02*
X971550Y749300D01*
D71*
X939800Y762000D02*
X939800Y784250D01*
X939800Y762000D02*
X952500Y749300D01*
X971550Y749300D01*
D73*
X1245175Y188200D02*
X1258175Y188200D01*
X1266825Y196850D01*
X1266825Y304800D01*
D72*
X1266825Y323850D03*
X1266825Y314325D03*
X1266825Y304800D03*
D71*
X1247750Y304800D01*
D73*
X1130300Y749300D02*
X1079500Y749300D01*
X1130300Y1095375D02*
X1114425Y1111250D01*
X1130300Y1095375D02*
X1130300Y749300D01*
D82*
X1206500Y749300D03*
D73*
X1130300Y749300D01*
X1079500Y749300D02*
X1079500Y805000D01*
D71*
X1054075Y342900D02*
X1069975Y327000D01*
X758825Y898525D02*
X704825Y898525D01*
X758825Y898525D02*
X768350Y889000D01*
X768350Y762000D02*
X863600Y666750D01*
X768350Y762000D02*
X768350Y889000D01*
X863600Y666750D02*
X863600Y615950D01*
D79*
X863600Y615950D03*
D71*
X939800Y342900D02*
X1054075Y342900D01*
D75*
X885825Y460375D03*
D80*
X858275Y491100D02*
X851000Y491100D01*
X885825Y463550D02*
X885825Y460375D01*
X885825Y463550D02*
X858275Y491100D01*
D83*
X939800Y342900D03*
D71*
X1041375Y304800D02*
X1044575Y308000D01*
X1069975Y308000D01*
X1069975Y271600D02*
X1067375Y269000D01*
X1069975Y271600D02*
X1069975Y308000D01*
D73*
X1063625Y209550D02*
X1063625Y139700D01*
X1063625Y209550D02*
X1044575Y207640D01*
X1065075Y138250D02*
X1065075Y101600D01*
X1065075Y138250D02*
X1063625Y139700D01*
X1261453Y138722D02*
X1261453Y121122D01*
X1261453Y138722D02*
X1260475Y139700D01*
D72*
X1260475Y139700D03*
X1273175Y139700D03*
X1285875Y139700D03*
D73*
X1273175Y139700D01*
X1262430Y139700D01*
X1261453Y138722D01*
X1219200Y591950D02*
X1124400Y591950D01*
D82*
X1298575Y654050D03*
D73*
X1244600Y654050D01*
X1238250Y647700D01*
X1238250Y596900D02*
X1231900Y590550D01*
X1220600Y590550D01*
X1219200Y591950D01*
X1238250Y596900D02*
X1238250Y647700D01*
D82*
X1066800Y527050D03*
X1066800Y514350D03*
X1066800Y501650D03*
X1066800Y488950D03*
X1066800Y476250D03*
X1066800Y539750D03*
X1155700Y565150D03*
X1092200Y565150D03*
X1104900Y565150D03*
X1117600Y565150D03*
X1130300Y565150D03*
X1143000Y565150D03*
D73*
X1120750Y460350D02*
X1120750Y457200D01*
X1120750Y460350D02*
X1123950Y463550D01*
X1123950Y533400D01*
D71*
X1247800Y504800D02*
X1257300Y504800D01*
X1247800Y504800D02*
X1238250Y514350D01*
X1238250Y539750D02*
X1231900Y546100D01*
X1219200Y546100D01*
X1238250Y539750D02*
X1238250Y514350D01*
X1101750Y457200D02*
X1101750Y441300D01*
X1104900Y438150D01*
D75*
X1104900Y438150D03*
D73*
X1101750Y457200D02*
X1101750Y488400D01*
X1100950Y489200D01*
D71*
X685825Y898525D02*
X628650Y898525D01*
D70*
X247650Y1019150D02*
X247650Y1040800D01*
X247650Y1019150D02*
X244500Y1016000D01*
X244500Y981100D01*
X241300Y977900D01*
X215900Y977900D01*
X311125Y965200D02*
X314325Y968400D01*
X254000Y965200D02*
X241300Y977900D01*
X254000Y965200D02*
X311125Y965200D01*
X260350Y1019150D02*
X260350Y1040800D01*
X260350Y1019150D02*
X263500Y1016000D01*
X260350Y1040800D02*
X260350Y1057275D01*
X266700Y1063625D01*
X288900Y1063625D02*
X292100Y1066825D01*
X288900Y1063625D02*
X266700Y1063625D01*
X263500Y1016000D02*
X273050Y1016000D01*
X288900Y1031850D02*
X292100Y1031850D01*
X288900Y1031850D02*
X273050Y1016000D01*
X259794Y1108656D02*
X250850Y1117600D01*
X259794Y1108656D02*
X259794Y1108627D01*
X260350Y1108071D01*
X260350Y1092800D01*
X260350Y1079500D01*
X266700Y1073150D01*
X288900Y1085825D02*
X292100Y1085825D01*
X288900Y1085825D02*
X276225Y1073150D01*
X266700Y1073150D01*
X292100Y1085825D02*
X314325Y1085825D01*
X273050Y1092800D02*
X273050Y1114400D01*
X269850Y1117600D01*
D71*
X295300Y1117600D01*
D70*
X193700Y1111100D02*
X187200Y1117600D01*
X193700Y1111100D02*
X193700Y1079500D01*
X247650Y1073150D02*
X247650Y1092800D01*
X247650Y1073150D02*
X238125Y1063625D01*
X196850Y1063625D01*
X193675Y1066800D01*
X193675Y1079475D01*
X193700Y1079500D01*
X193675Y1066800D02*
X193675Y1044550D01*
D71*
X294400Y1203900D02*
X321620Y1203900D01*
X330200Y1195320D01*
X234950Y1040800D02*
X222850Y1040800D01*
X222250Y1041400D01*
D79*
X222250Y1041400D03*
X330200Y1181100D03*
D71*
X330200Y1195320D01*
X314300Y1138400D02*
X314300Y1117600D01*
X314300Y1138400D02*
X294400Y1158300D01*
D73*
X233040Y1181100D02*
X233040Y1198240D01*
X266700Y1231900D01*
X304800Y1231900D01*
X317500Y1244600D01*
X317500Y1270000D01*
D71*
X517525Y822325D02*
X533425Y822325D01*
D79*
X517525Y822325D03*
D72*
X215900Y1139825D03*
X228600Y1139825D03*
X241300Y1139825D03*
X254000Y1139825D03*
X266700Y1139825D03*
D70*
X92100Y1016000D02*
X92100Y981100D01*
X88900Y977900D01*
X63500Y977900D01*
D71*
X95250Y1019150D02*
X95250Y1040800D01*
X95250Y1019150D02*
X92100Y1016000D01*
D70*
X158725Y965200D02*
X161925Y968400D01*
X101600Y965200D02*
X88900Y977900D01*
X101600Y965200D02*
X158725Y965200D01*
D71*
X107950Y1019150D02*
X107950Y1040800D01*
X107950Y1019150D02*
X111100Y1016000D01*
D70*
X107950Y1040800D02*
X107950Y1060450D01*
X111125Y1063625D01*
X136500Y1063625D02*
X139700Y1066825D01*
X136500Y1063625D02*
X111125Y1063625D01*
X111100Y1016000D02*
X120650Y1016000D01*
X136500Y1031850D02*
X139700Y1031850D01*
X136500Y1031850D02*
X120650Y1016000D01*
X107950Y1092800D02*
X107950Y1108071D01*
X107394Y1108627D01*
X107394Y1108656D01*
X98450Y1117600D01*
X107950Y1092800D02*
X107950Y1079500D01*
X114300Y1073150D01*
X123825Y1073150D01*
X136500Y1085825D02*
X139700Y1085825D01*
X136500Y1085825D02*
X123825Y1073150D01*
X139700Y1085825D02*
X161925Y1085825D01*
X120650Y1092800D02*
X120650Y1114400D01*
X117450Y1117600D01*
D71*
X142900Y1117600D01*
D70*
X95250Y1092800D02*
X95250Y1069975D01*
X88900Y1063625D01*
X44450Y1063625D01*
X41275Y1066800D01*
X41275Y1079475D01*
X41300Y1079500D01*
X41300Y1114400D01*
X38100Y1117600D01*
X41275Y1066800D02*
X41275Y1044550D01*
D71*
X38100Y1117600D02*
X34800Y1117600D01*
X142000Y1203900D02*
X169220Y1203900D01*
X177800Y1195320D01*
X82550Y1040800D02*
X70450Y1040800D01*
X69850Y1041400D01*
D79*
X69850Y1041400D03*
X177800Y1181100D03*
D71*
X177800Y1195320D01*
X161900Y1138400D02*
X161900Y1117600D01*
X161900Y1138400D02*
X142000Y1158300D01*
D73*
X80640Y1181100D02*
X80640Y1198240D01*
X114300Y1231900D01*
X228600Y1231900D01*
X241300Y1244600D01*
X241300Y1270000D01*
D71*
X517525Y796925D02*
X533425Y796925D01*
D79*
X517525Y796925D03*
D72*
X44450Y1139825D03*
X57150Y1139825D03*
X69850Y1139825D03*
X82550Y1139825D03*
X95250Y1139825D03*
X107950Y1139825D03*
D70*
X400050Y1040800D02*
X400050Y1019150D01*
X396900Y1016000D01*
X396900Y981100D01*
X393700Y977900D01*
X368300Y977900D01*
X463525Y965200D02*
X466725Y968400D01*
X406400Y965200D02*
X393700Y977900D01*
X406400Y965200D02*
X463525Y965200D01*
X412750Y1019150D02*
X412750Y1040800D01*
X412750Y1019150D02*
X415900Y1016000D01*
X412750Y1040800D02*
X412750Y1057275D01*
X419100Y1063625D01*
X441300Y1063625D02*
X444500Y1066825D01*
X441300Y1063625D02*
X419100Y1063625D01*
X415900Y1016000D02*
X425450Y1016000D01*
X441300Y1031850D02*
X444500Y1031850D01*
X441300Y1031850D02*
X425450Y1016000D01*
X412750Y1092800D02*
X412750Y1104900D01*
X403250Y1114400D01*
X403250Y1117600D01*
X412750Y1092800D02*
X412750Y1079500D01*
X419100Y1073150D01*
X428625Y1073150D01*
X441300Y1085825D02*
X444500Y1085825D01*
X441300Y1085825D02*
X428625Y1073150D01*
X444500Y1085825D02*
X466725Y1085825D01*
X425450Y1092800D02*
X425450Y1114400D01*
X422250Y1117600D01*
D71*
X447700Y1117600D01*
D70*
X346100Y1111100D02*
X339600Y1117600D01*
X346100Y1111100D02*
X346100Y1079500D01*
X400050Y1069975D02*
X400050Y1092800D01*
X400050Y1069975D02*
X396875Y1066800D01*
X349250Y1066800D01*
X346075Y1069975D01*
X346075Y1079475D01*
X346100Y1079500D01*
X346075Y1069975D02*
X346075Y1044550D01*
D71*
X446800Y1203900D02*
X474020Y1203900D01*
X482600Y1195320D01*
X387350Y1040800D02*
X375250Y1040800D01*
X374650Y1041400D01*
D79*
X374650Y1041400D03*
X482600Y1181100D03*
D71*
X482600Y1195320D01*
X466700Y1138400D02*
X466700Y1117600D01*
X466700Y1138400D02*
X446800Y1158300D01*
D73*
X385440Y1181100D02*
X385440Y1198240D01*
X419100Y1231900D01*
X444500Y1231900D01*
X457200Y1244600D01*
X457200Y1270000D01*
D71*
X517525Y847725D02*
X533425Y847725D01*
D79*
X517525Y847725D03*
D72*
X355600Y1139825D03*
X368300Y1139825D03*
X381000Y1139825D03*
X393700Y1139825D03*
X406400Y1139825D03*
X419100Y1139825D03*
D80*
X447675Y942975D02*
X466725Y923925D01*
X209550Y942975D02*
X193675Y958850D01*
X193675Y1025550D01*
X209550Y942975D02*
X447675Y942975D01*
X638175Y596900D02*
X648975Y586100D01*
X698400Y586100D01*
X482484Y596900D02*
X466725Y612659D01*
X466725Y923925D01*
X482484Y596900D02*
X638175Y596900D01*
X460375Y920750D02*
X444500Y936625D01*
X57150Y936625D02*
X41275Y952500D01*
X41275Y1025550D01*
X57150Y936625D02*
X444500Y936625D01*
X635000Y590550D02*
X644450Y581100D01*
X698400Y581100D01*
X476250Y590550D02*
X460375Y606425D01*
X460375Y920750D01*
X476250Y590550D02*
X635000Y590550D01*
D79*
X222250Y1346200D03*
D71*
X241325Y1346200D01*
D79*
X819150Y673100D03*
X777875Y1235075D03*
X688975Y1330325D03*
D71*
X279400Y1346200D02*
X260325Y1346200D01*
X279400Y1346200D02*
X285750Y1339850D01*
D79*
X285750Y1339850D03*
D80*
X729700Y610150D02*
X730250Y609600D01*
X729700Y610150D02*
X729700Y622400D01*
D79*
X730250Y609600D03*
X815975Y635000D03*
D80*
X815975Y669925D01*
X819150Y673100D01*
X777875Y1235075D02*
X755650Y1257300D01*
X708025Y1257300D02*
X701675Y1263650D01*
X701675Y1317625D02*
X688975Y1330325D01*
X708025Y1257300D02*
X755650Y1257300D01*
X701675Y1263650D02*
X701675Y1317625D01*
X851000Y486100D02*
X853750Y486100D01*
D71*
X876300Y371475D02*
X920775Y327000D01*
D83*
X876300Y371475D03*
X876300Y457200D03*
D71*
X920775Y327000D02*
X968375Y327000D01*
D80*
X876300Y457200D02*
X876300Y463550D01*
X853750Y486100D01*
D71*
X942975Y308000D02*
X939775Y304800D01*
X942975Y308000D02*
X968375Y308000D01*
X968375Y271600D02*
X965775Y269000D01*
X968375Y271600D02*
X968375Y308000D01*
D73*
X963475Y138250D02*
X963475Y101600D01*
X963475Y138250D02*
X962025Y139700D01*
X962025Y209550D01*
X942975Y207640D01*
D71*
X603250Y847725D02*
X552425Y847725D01*
X552425Y822325D02*
X603250Y822325D01*
X628650Y847725D02*
X647700Y847725D01*
X654050Y841375D01*
X654050Y803275D01*
X647700Y796925D01*
X552425Y796925D01*
D76*
X571500Y1181100D02*
X571500Y1270000D01*
X571500Y1181100D02*
X546100Y1176660D01*
D71*
X533425Y923925D02*
X520700Y923925D01*
X517525Y927100D01*
X517525Y996950D01*
X565150Y1044575D01*
X593725Y1044575D02*
X612775Y1063625D01*
X612775Y1143000D01*
X596900Y1158875D02*
X558800Y1158875D01*
X546100Y1171575D01*
X546100Y1176660D01*
X565150Y1044575D02*
X593725Y1044575D01*
X612775Y1143000D02*
X596900Y1158875D01*
X523875Y1114725D02*
X523875Y1082650D01*
X523875Y1114725D02*
X523300Y1115300D01*
X533425Y993800D02*
X533425Y949325D01*
X533425Y993800D02*
X571500Y1031875D01*
X600075Y1031875D02*
X622300Y1054100D01*
X622300Y1079500D01*
D79*
X622300Y1079500D03*
X615950Y1174750D03*
D71*
X600075Y1031875D02*
X571500Y1031875D01*
D78*
X635000Y1238250D02*
X639900Y1238250D01*
D73*
X635000Y1202060D02*
X660400Y1176660D01*
X635000Y1202060D02*
X635000Y1238250D01*
X749300Y1212850D02*
X755650Y1206500D01*
X692150Y1212850D02*
X660400Y1181100D01*
X660400Y1176660D01*
X660400Y1168400D01*
X755650Y1181100D02*
X755650Y1206500D01*
X749300Y1212850D02*
X692150Y1212850D01*
X955950Y1295550D02*
X955950Y1310100D01*
X955950Y1295550D02*
X969800Y1281700D01*
X1000125Y1251375D01*
D79*
X815975Y974725D03*
D71*
X704825Y974725D01*
D73*
X1012825Y1320800D02*
X1012825Y1339850D01*
X1012825Y1320800D02*
X1000125Y1308100D01*
X1000125Y1251375D01*
X1000125Y1216025D01*
X1003300Y1212850D01*
X1014090Y1212850D01*
X1016000Y1214760D01*
D71*
X958850Y1157610D01*
X958850Y1108075D01*
D81*
X958850Y1108075D03*
D71*
X641375Y1111525D02*
X641375Y1082675D01*
X641375Y1111525D02*
X637600Y1115300D01*
X981100Y1104900D02*
X981100Y1141300D01*
X993200Y1153400D01*
X488950Y457225D02*
X492150Y454025D01*
X488950Y457225D02*
X488950Y492125D01*
D79*
X688975Y450620D03*
D80*
X689205Y450850D02*
X711200Y450850D01*
X689205Y450850D02*
X688975Y450620D01*
D79*
X711200Y450850D03*
X793750Y482600D03*
D80*
X794700Y481650D02*
X794700Y469800D01*
X794700Y481650D02*
X793750Y482600D01*
X824700Y622400D02*
X824700Y669760D01*
X828040Y673100D02*
X828675Y673100D01*
X828040Y673100D02*
X824700Y669760D01*
D79*
X828675Y673100D03*
D71*
X930300Y1206500D02*
X930275Y1206525D01*
X930275Y1225550D01*
D72*
X930275Y1225550D03*
D81*
X889000Y1193800D03*
D71*
X917550Y1193800D02*
X930275Y1206525D01*
X917550Y1193800D02*
X889000Y1193800D01*
X336550Y772100D02*
X336550Y749300D01*
X349275Y749300D01*
X327000Y749300D01*
X336550Y812800D02*
X336550Y828100D01*
X336550Y812800D02*
X336550Y803275D01*
X323850Y790575D01*
X323850Y772100D01*
X336550Y828100D02*
X336550Y847750D01*
X333400Y850900D01*
D70*
X316944Y758273D02*
X316944Y758244D01*
X308000Y749300D01*
X323850Y765179D02*
X323850Y772100D01*
X323850Y765179D02*
X316944Y758273D01*
D71*
X368300Y812800D02*
X406400Y812800D01*
X368300Y812800D02*
X336550Y812800D01*
X368300Y812800D02*
X368300Y796900D01*
X406400Y812800D02*
X406400Y838200D01*
X311150Y772100D02*
X280000Y772100D01*
X279400Y771500D01*
X330200Y895350D02*
X356200Y895350D01*
D75*
X330200Y895350D03*
X323850Y812800D03*
D71*
X323850Y828100D01*
X393700Y774700D02*
X406400Y774700D01*
X406400Y787400D01*
X393700Y752500D02*
X396900Y749300D01*
X393700Y752500D02*
X393700Y774700D01*
D74*
X396900Y749300D02*
X393700Y746100D01*
X393700Y711200D01*
X393700Y698500D01*
X391100Y695900D01*
X370600Y695900D01*
X397000Y714500D02*
X419100Y714500D01*
X397000Y714500D02*
X393700Y711200D01*
D71*
X368275Y749300D02*
X368275Y777875D01*
X368300Y777900D01*
X355050Y777900D02*
X349250Y772100D01*
X355050Y777900D02*
X368300Y777900D01*
X390500Y777900D02*
X393700Y774700D01*
X390500Y777900D02*
X368300Y777900D01*
X304200Y908050D02*
X269850Y908050D01*
X263500Y901700D01*
D78*
X263500Y882650D01*
D71*
X244500Y901700D02*
X216176Y901700D01*
X213300Y891300D01*
D78*
X244500Y882650D02*
X244500Y901700D01*
D73*
X108400Y768350D02*
X112550Y764200D01*
X190500Y764200D01*
D76*
X190500Y829940D01*
D73*
X69400Y818700D02*
X69400Y768350D01*
X69400Y818700D02*
X69850Y819150D01*
X95250Y819150D01*
X69400Y818700D02*
X31750Y818700D01*
D71*
X311150Y812800D02*
X311150Y828100D01*
D79*
X311150Y812800D03*
D71*
X514350Y873125D02*
X533425Y873125D01*
X514350Y873125D02*
X508000Y866775D01*
X508000Y768350D01*
D79*
X508000Y768350D03*
D80*
X454025Y758825D02*
X444500Y768350D01*
X441325Y768350D01*
D79*
X441325Y768350D03*
D80*
X631825Y584200D02*
X639925Y576100D01*
X698400Y576100D01*
X473075Y584200D02*
X454025Y603250D01*
X454025Y758825D01*
X473075Y584200D02*
X631825Y584200D01*
X444500Y768350D02*
X444500Y784250D01*
D71*
X628650Y974725D02*
X685825Y974725D01*
X603250Y949325D02*
X552425Y949325D01*
D77*
X934212Y880618D02*
X1028700Y880618D01*
X1080432Y880618D01*
X1028700Y880618D02*
X1028700Y918550D01*
D73*
X1080432Y846932D02*
X1079500Y846000D01*
D77*
X1080432Y846932D02*
X1080432Y880618D01*
D71*
X948436Y829564D02*
X934212Y829564D01*
X958850Y819150D02*
X968400Y819150D01*
X958850Y819150D02*
X948436Y829564D01*
X987400Y819150D02*
X987400Y843550D01*
X986400Y844550D01*
X916432Y846582D02*
X914400Y844550D01*
X914400Y803250D01*
X916432Y846582D02*
X934212Y846582D01*
X939800Y803250D02*
X914400Y803250D01*
X1149325Y327000D02*
X1158875Y327000D01*
X1149325Y327000D02*
X1127150Y304825D01*
X1120775Y304825D01*
X1095375Y307975D02*
X1095375Y333400D01*
X1095375Y307975D02*
X1117633Y307975D01*
X1120775Y304825D01*
X1095375Y333400D02*
X1092175Y333400D01*
X1069975Y355600D01*
X768350Y923925D02*
X704825Y923925D01*
X768350Y923925D02*
X777875Y914400D01*
X777875Y765175D02*
X876300Y666750D01*
X777875Y765175D02*
X777875Y914400D01*
X876300Y666750D02*
X876300Y615950D01*
D79*
X876300Y615950D03*
D71*
X939800Y355600D02*
X1069975Y355600D01*
D75*
X898525Y457200D03*
D80*
X862800Y496100D02*
X851000Y496100D01*
X898525Y460375D02*
X898525Y457200D01*
X898525Y460375D02*
X862800Y496100D01*
D83*
X939800Y355600D03*
D80*
X358775Y949325D02*
X346075Y962025D01*
X346075Y1025550D01*
X450850Y949325D02*
X472567Y927608D01*
X450850Y949325D02*
X358775Y949325D01*
X472567Y616458D02*
X485775Y603250D01*
X472567Y616458D02*
X472567Y927608D01*
X641472Y603250D02*
X650875Y593847D01*
X641472Y603250D02*
X485775Y603250D01*
X657103Y593847D02*
X657225Y593725D01*
X657103Y593847D02*
X650875Y593847D01*
D79*
X657225Y593725D03*
X708025Y469900D03*
D80*
X714600Y469900D01*
X714700Y469800D01*
D71*
X511175Y739775D02*
X498475Y752475D01*
X600075Y739775D02*
X603250Y736600D01*
X612775Y736600D01*
D79*
X612775Y736600D03*
D71*
X600075Y739775D02*
X511175Y739775D01*
D79*
X685800Y996950D03*
D71*
X835025Y996950D01*
D79*
X835025Y996950D03*
D80*
X1235000Y898450D02*
X1304322Y898450D01*
X1235000Y898450D02*
X1228725Y892175D01*
X1222375Y892175D01*
D79*
X1222375Y892175D03*
X660400Y1035050D03*
D71*
X825500Y1035050D01*
D79*
X825500Y1035050D03*
D80*
X1256775Y924450D02*
X1304322Y924450D01*
X1256775Y924450D02*
X1250950Y930275D01*
X1238250Y930275D01*
X1228725Y920750D01*
X1222375Y920750D01*
D79*
X1222375Y920750D03*
X647700Y1022350D03*
D71*
X828675Y1022350D01*
D79*
X828675Y1022350D03*
D80*
X1222600Y911450D02*
X1304322Y911450D01*
X1222600Y911450D02*
X1222375Y911225D01*
D79*
X1222375Y911225D03*
X673100Y1009650D03*
D71*
X831850Y1009650D01*
D79*
X831850Y1009650D03*
D80*
X1304247Y904875D02*
X1304322Y904950D01*
X1304247Y904875D02*
X1231900Y904875D01*
X1228725Y901700D01*
X1222375Y901700D01*
D79*
X1222375Y901700D03*
D71*
X603250Y873125D02*
X552425Y873125D01*
X552425Y923925D02*
X603250Y923925D01*
X628650Y949325D02*
X685825Y949325D01*
X685825Y923925D02*
X628650Y923925D01*
X628650Y873125D02*
X685825Y873125D01*
D80*
X734700Y638801D02*
X734700Y622400D01*
X734700Y638801D02*
X728976Y644525D01*
X669925Y644525D01*
X635000Y679450D01*
X635000Y708025D01*
X647700Y720725D01*
X739700Y640267D02*
X739700Y622400D01*
X739700Y640267D02*
X729092Y650875D01*
X676275Y650875D02*
X647700Y679450D01*
X676275Y650875D02*
X729092Y650875D01*
X647700Y679450D02*
X647700Y695325D01*
X744700Y641733D02*
X744700Y622400D01*
X744700Y641733D02*
X729208Y657225D01*
X682625Y657225D02*
X660400Y679450D01*
X660400Y708025D01*
X682625Y657225D02*
X729208Y657225D01*
X673100Y720725D02*
X660400Y708025D01*
X749700Y643199D02*
X749700Y622400D01*
X749700Y643199D02*
X729324Y663575D01*
X692150Y663575D02*
X673100Y682625D01*
X692150Y663575D02*
X729324Y663575D01*
X673100Y682625D02*
X673100Y695325D01*
X754700Y644664D02*
X754700Y622400D01*
X754700Y644664D02*
X729439Y669925D01*
X704850Y669925D01*
X685800Y688975D01*
X685800Y708025D01*
X698500Y720725D01*
X759700Y646130D02*
X759700Y622400D01*
X729555Y676275D02*
X714375Y676275D01*
X698500Y692150D01*
X729555Y676275D02*
X759700Y646130D01*
X698500Y692150D02*
X698500Y695325D01*
X764700Y647596D02*
X764700Y622400D01*
X717550Y682625D02*
X711200Y688975D01*
X711200Y708025D01*
X729671Y682625D02*
X764700Y647596D01*
X729671Y682625D02*
X717550Y682625D01*
X711200Y708025D02*
X723900Y720725D01*
X769700Y649062D02*
X769700Y622400D01*
X769700Y649062D02*
X723900Y694862D01*
X723900Y695325D01*
X774700Y650528D02*
X774700Y622400D01*
X774700Y650528D02*
X736600Y688628D01*
X736600Y708025D01*
X749300Y720725D01*
X779700Y651993D02*
X779700Y622400D01*
X779700Y651993D02*
X749300Y682393D01*
X749300Y695325D01*
X784700Y653459D02*
X784700Y622400D01*
X784700Y653459D02*
X762000Y676159D01*
X762000Y704850D01*
X762000Y708025D01*
X774700Y720725D01*
X789700Y654925D02*
X789700Y622400D01*
X789700Y654925D02*
X774700Y669925D01*
X774700Y695325D01*
X851000Y606100D02*
X926775Y606100D01*
X955675Y635000D01*
X974725Y635000D01*
X987425Y622300D01*
X940825Y601100D02*
X851000Y601100D01*
X940825Y601100D02*
X962025Y622300D01*
X945350Y596100D02*
X851000Y596100D01*
X945350Y596100D02*
X958850Y609600D01*
X974725Y609600D01*
X987425Y596900D01*
X956225Y591100D02*
X851000Y591100D01*
X956225Y591100D02*
X962025Y596900D01*
X972825Y586100D02*
X851000Y586100D01*
X972825Y586100D02*
X987425Y571500D01*
X900825Y531100D02*
X851000Y531100D01*
X900825Y531100D02*
X962025Y469900D01*
X889950Y526100D02*
X851000Y526100D01*
X889950Y526100D02*
X958850Y457200D01*
X974725Y457200D02*
X987425Y444500D01*
X974725Y457200D02*
X958850Y457200D01*
X885425Y521100D02*
X851000Y521100D01*
X885425Y521100D02*
X962025Y444500D01*
X880900Y516100D02*
X851000Y516100D01*
X880900Y516100D02*
X946150Y450850D01*
X946150Y438150D01*
X952500Y431800D01*
X974725Y431800D02*
X987425Y419100D01*
X974725Y431800D02*
X952500Y431800D01*
X876375Y511100D02*
X851000Y511100D01*
X939800Y428625D02*
X949325Y419100D01*
X962025Y419100D01*
X896938Y490538D02*
X876375Y511100D01*
X896938Y490538D02*
X939800Y447675D01*
X939800Y428625D01*
X933450Y444500D02*
X933450Y412750D01*
X939800Y406400D01*
X974725Y406400D01*
X987425Y393700D01*
X871850Y506100D02*
X851000Y506100D01*
X871850Y506100D02*
X879475Y498475D01*
X933450Y444500D01*
X955600Y581100D02*
X851000Y581100D01*
X962025Y574675D02*
X962025Y571500D01*
X962025Y574675D02*
X955600Y581100D01*
X941550Y576100D02*
X851000Y576100D01*
X941550Y576100D02*
X958850Y558800D01*
X974725Y558800D02*
X987425Y546100D01*
X974725Y558800D02*
X958850Y558800D01*
X937025Y571100D02*
X851000Y571100D01*
X937025Y571100D02*
X962025Y546100D01*
X926150Y566100D02*
X851000Y566100D01*
X926150Y566100D02*
X958850Y533400D01*
X974725Y533400D02*
X987425Y520700D01*
X974725Y533400D02*
X958850Y533400D01*
X921625Y561100D02*
X851000Y561100D01*
X921625Y561100D02*
X962025Y520700D01*
X910750Y556100D02*
X851000Y556100D01*
X910750Y556100D02*
X958850Y508000D01*
X974725Y508000D01*
X987425Y495300D01*
X906225Y551100D02*
X851000Y551100D01*
X906225Y551100D02*
X962025Y495300D01*
X895350Y546100D02*
X851000Y546100D01*
X895350Y546100D02*
X958850Y482600D01*
X974725Y482600D01*
X987425Y469900D01*
D73*
X1403350Y565150D02*
X1412900Y565150D01*
X1403350Y539750D02*
X1371600Y539750D01*
X1403350Y539750D02*
X1403350Y532000D01*
X1403350Y539750D02*
X1403350Y565150D01*
X1460500Y152400D02*
X1460500Y134800D01*
D82*
X1460500Y152400D03*
X1422400Y539750D03*
D73*
X1403350Y539750D01*
D82*
X1371600Y539750D03*
X1320800Y565150D03*
X1333500Y565150D03*
X1346200Y565150D03*
X1358900Y565150D03*
X1358900Y552450D03*
X1358900Y539750D03*
X1346200Y552450D03*
X1371600Y565150D03*
X1371600Y552450D03*
D73*
X1308100Y552200D02*
X1308100Y482600D01*
D75*
X1320800Y463550D03*
D71*
X1479550Y447650D02*
X1485900Y454000D01*
X1485900Y533400D02*
X1479550Y539750D01*
X1466850Y539750D01*
X1485900Y533400D02*
X1485900Y454000D01*
X1460500Y565150D02*
X1431900Y565150D01*
X1460500Y565150D02*
X1466850Y558800D01*
X1466850Y539750D01*
D75*
X1422400Y482600D03*
D71*
X1441450Y501650D01*
X1441450Y527050D02*
X1454150Y539750D01*
X1466850Y539750D01*
X1441450Y527050D02*
X1441450Y501650D01*
X1320800Y463550D02*
X1295400Y463550D01*
X1285100Y473850D02*
X1285100Y489200D01*
X1285100Y473850D02*
X1295400Y463550D01*
D70*
X266700Y977900D02*
X266700Y990600D01*
X288950Y1012850D01*
X292100Y1012850D01*
X114300Y990600D02*
X114300Y977900D01*
X114300Y990600D02*
X136550Y1012850D01*
X139700Y1012850D01*
X419100Y987450D02*
X444500Y1012850D01*
X419100Y987450D02*
X419100Y977900D01*
D80*
X754700Y469800D02*
X754700Y456880D01*
X756920Y454660D01*
D81*
X756920Y454660D03*
D70*
X898550Y431800D02*
X898550Y406400D01*
X898550Y431800D02*
X857250Y431800D01*
M02*
