G04 EAGLE Gerber RS-274X export*
G75*
%MOMM*%
%FSLAX34Y34*%
%LPD*%
%INBottom Copper*%
%IPPOS*%
%AMOC8*
5,1,8,0,0,1.08239X$1,22.5*%
G01*
%ADD10C,2.540000*%
%ADD11P,2.749271X8X202.500000*%
%ADD12P,2.749271X8X292.500000*%
%ADD13C,1.524000*%
%ADD14C,1.778000*%
%ADD15C,1.371600*%
%ADD16C,1.665000*%
%ADD17C,4.216000*%
%ADD18C,1.635000*%
%ADD19C,2.550000*%
%ADD20C,3.420000*%
%ADD21C,3.360000*%
%ADD22C,1.879600*%
%ADD23P,1.649562X8X112.500000*%
%ADD24P,1.649562X8X292.500000*%
%ADD25P,1.484606X8X22.500000*%
%ADD26C,0.914400*%
%ADD27C,1.422400*%
%ADD28P,1.484606X8X112.500000*%
%ADD29C,1.485000*%
%ADD30R,1.485000X1.485000*%
%ADD31C,1.350000*%
%ADD32C,1.905000*%
%ADD33C,1.625600*%
%ADD34C,1.600000*%
%ADD35C,1.750000*%
%ADD36C,1.425000*%
%ADD37C,3.316000*%
%ADD38P,1.649562X8X22.500000*%
%ADD39C,0.900000*%
%ADD40C,0.750000*%
%ADD41C,0.609600*%
%ADD42C,0.503200*%
%ADD43C,0.553200*%
%ADD44C,1.200000*%
%ADD45C,1.270000*%
%ADD46C,2.540000*%
%ADD47C,0.603200*%
%ADD48C,0.406400*%
%ADD49C,1.016000*%
%ADD50C,0.304800*%

G36*
X1380839Y492264D02*
X1380839Y492264D01*
X1380982Y492266D01*
X1381085Y492284D01*
X1381189Y492293D01*
X1381327Y492327D01*
X1381468Y492352D01*
X1381566Y492386D01*
X1381668Y492411D01*
X1381799Y492468D01*
X1381933Y492515D01*
X1382025Y492565D01*
X1382121Y492606D01*
X1382241Y492682D01*
X1382367Y492751D01*
X1382449Y492815D01*
X1382537Y492871D01*
X1382643Y492966D01*
X1382756Y493053D01*
X1382827Y493130D01*
X1382905Y493200D01*
X1382995Y493311D01*
X1383092Y493415D01*
X1383150Y493502D01*
X1383215Y493584D01*
X1383285Y493707D01*
X1383364Y493826D01*
X1383407Y493922D01*
X1383459Y494012D01*
X1383509Y494146D01*
X1383567Y494276D01*
X1383594Y494377D01*
X1383631Y494475D01*
X1383658Y494614D01*
X1383695Y494752D01*
X1383705Y494857D01*
X1383725Y494959D01*
X1383730Y495101D01*
X1383744Y495243D01*
X1383737Y495348D01*
X1383741Y495452D01*
X1383722Y495593D01*
X1383713Y495736D01*
X1383690Y495838D01*
X1383676Y495941D01*
X1383635Y496078D01*
X1383603Y496217D01*
X1383564Y496313D01*
X1383534Y496414D01*
X1383471Y496542D01*
X1383417Y496674D01*
X1383363Y496763D01*
X1383317Y496857D01*
X1383234Y496973D01*
X1383160Y497094D01*
X1383092Y497174D01*
X1383031Y497259D01*
X1382931Y497360D01*
X1382838Y497468D01*
X1382758Y497536D01*
X1382685Y497610D01*
X1382570Y497694D01*
X1382460Y497785D01*
X1382392Y497823D01*
X1382286Y497900D01*
X1381899Y498096D01*
X1381863Y498115D01*
X1378599Y499468D01*
X1375768Y502299D01*
X1374235Y505998D01*
X1374235Y510002D01*
X1375768Y513701D01*
X1378599Y516532D01*
X1382298Y518065D01*
X1386302Y518065D01*
X1390001Y516532D01*
X1392832Y513701D01*
X1394365Y510002D01*
X1394365Y505998D01*
X1392832Y502299D01*
X1390001Y499468D01*
X1386737Y498115D01*
X1386610Y498050D01*
X1386479Y497994D01*
X1386391Y497938D01*
X1386298Y497890D01*
X1386183Y497805D01*
X1386063Y497729D01*
X1385985Y497659D01*
X1385901Y497597D01*
X1385801Y497495D01*
X1385695Y497400D01*
X1385629Y497319D01*
X1385556Y497244D01*
X1385474Y497127D01*
X1385385Y497016D01*
X1385333Y496926D01*
X1385273Y496840D01*
X1385211Y496712D01*
X1385141Y496588D01*
X1385104Y496490D01*
X1385059Y496396D01*
X1385019Y496259D01*
X1384969Y496125D01*
X1384949Y496023D01*
X1384920Y495922D01*
X1384902Y495781D01*
X1384875Y495641D01*
X1384871Y495537D01*
X1384858Y495433D01*
X1384864Y495290D01*
X1384859Y495148D01*
X1384873Y495044D01*
X1384877Y494940D01*
X1384905Y494800D01*
X1384924Y494659D01*
X1384954Y494559D01*
X1384975Y494456D01*
X1385025Y494323D01*
X1385066Y494187D01*
X1385112Y494093D01*
X1385149Y493995D01*
X1385220Y493871D01*
X1385283Y493743D01*
X1385343Y493658D01*
X1385396Y493568D01*
X1385486Y493457D01*
X1385569Y493341D01*
X1385642Y493267D01*
X1385708Y493186D01*
X1385815Y493091D01*
X1385915Y492990D01*
X1386000Y492929D01*
X1386078Y492859D01*
X1386199Y492783D01*
X1386314Y492700D01*
X1386407Y492653D01*
X1386496Y492597D01*
X1386627Y492542D01*
X1386754Y492477D01*
X1386854Y492446D01*
X1386950Y492405D01*
X1387089Y492372D01*
X1387225Y492329D01*
X1387303Y492320D01*
X1387430Y492290D01*
X1387863Y492257D01*
X1387903Y492253D01*
X1454084Y492253D01*
X1454302Y492270D01*
X1454520Y492284D01*
X1454548Y492290D01*
X1454576Y492293D01*
X1454788Y492345D01*
X1455001Y492394D01*
X1455027Y492405D01*
X1455055Y492411D01*
X1455255Y492497D01*
X1455458Y492580D01*
X1455482Y492595D01*
X1455508Y492606D01*
X1455692Y492723D01*
X1455879Y492837D01*
X1455900Y492856D01*
X1455924Y492871D01*
X1456087Y493016D01*
X1456253Y493159D01*
X1456271Y493181D01*
X1456292Y493200D01*
X1456430Y493370D01*
X1456570Y493537D01*
X1456581Y493557D01*
X1456602Y493584D01*
X1456846Y494012D01*
X1456874Y494088D01*
X1456900Y494134D01*
X1457375Y495281D01*
X1460519Y498425D01*
X1461508Y498835D01*
X1461542Y498852D01*
X1461578Y498865D01*
X1461761Y498964D01*
X1461947Y499060D01*
X1461977Y499082D01*
X1462011Y499101D01*
X1462175Y499228D01*
X1462344Y499353D01*
X1462370Y499380D01*
X1462400Y499403D01*
X1462542Y499556D01*
X1462688Y499706D01*
X1462710Y499737D01*
X1462736Y499765D01*
X1462851Y499939D01*
X1462971Y500110D01*
X1462988Y500144D01*
X1463009Y500176D01*
X1463095Y500367D01*
X1463185Y500554D01*
X1463196Y500591D01*
X1463211Y500626D01*
X1463265Y500827D01*
X1463325Y501028D01*
X1463329Y501066D01*
X1463339Y501102D01*
X1463360Y501310D01*
X1463386Y501517D01*
X1463384Y501555D01*
X1463388Y501593D01*
X1463375Y501801D01*
X1463367Y502010D01*
X1463360Y502048D01*
X1463357Y502086D01*
X1463311Y502288D01*
X1463270Y502494D01*
X1463256Y502529D01*
X1463248Y502567D01*
X1463169Y502760D01*
X1463095Y502955D01*
X1463076Y502988D01*
X1463062Y503024D01*
X1462953Y503202D01*
X1462848Y503382D01*
X1462824Y503412D01*
X1462804Y503444D01*
X1462669Y503602D01*
X1462536Y503764D01*
X1462507Y503789D01*
X1462483Y503818D01*
X1462323Y503952D01*
X1462166Y504091D01*
X1462134Y504111D01*
X1462105Y504135D01*
X1462023Y504180D01*
X1461748Y504353D01*
X1461590Y504420D01*
X1461508Y504465D01*
X1460519Y504875D01*
X1457375Y508019D01*
X1455673Y512127D01*
X1455673Y516573D01*
X1457375Y520681D01*
X1460519Y523825D01*
X1461508Y524235D01*
X1461542Y524252D01*
X1461578Y524265D01*
X1461761Y524364D01*
X1461947Y524460D01*
X1461977Y524482D01*
X1462011Y524501D01*
X1462175Y524628D01*
X1462344Y524753D01*
X1462370Y524780D01*
X1462400Y524803D01*
X1462542Y524956D01*
X1462688Y525106D01*
X1462710Y525137D01*
X1462736Y525165D01*
X1462851Y525339D01*
X1462971Y525510D01*
X1462988Y525544D01*
X1463009Y525576D01*
X1463095Y525767D01*
X1463185Y525954D01*
X1463196Y525991D01*
X1463211Y526026D01*
X1463265Y526227D01*
X1463325Y526428D01*
X1463329Y526466D01*
X1463339Y526502D01*
X1463360Y526710D01*
X1463386Y526917D01*
X1463384Y526955D01*
X1463388Y526993D01*
X1463375Y527201D01*
X1463367Y527410D01*
X1463360Y527448D01*
X1463357Y527486D01*
X1463311Y527688D01*
X1463270Y527894D01*
X1463256Y527929D01*
X1463248Y527967D01*
X1463169Y528160D01*
X1463095Y528355D01*
X1463076Y528388D01*
X1463062Y528424D01*
X1462953Y528602D01*
X1462848Y528782D01*
X1462824Y528812D01*
X1462804Y528844D01*
X1462669Y529002D01*
X1462536Y529164D01*
X1462507Y529189D01*
X1462483Y529218D01*
X1462323Y529352D01*
X1462166Y529491D01*
X1462134Y529511D01*
X1462105Y529535D01*
X1462023Y529580D01*
X1461748Y529753D01*
X1461590Y529820D01*
X1461508Y529865D01*
X1460519Y530275D01*
X1457375Y533419D01*
X1455673Y537527D01*
X1455673Y541973D01*
X1457375Y546081D01*
X1460519Y549225D01*
X1464627Y550927D01*
X1469073Y550927D01*
X1473181Y549225D01*
X1476325Y546081D01*
X1478027Y541973D01*
X1478027Y537527D01*
X1476325Y533419D01*
X1473181Y530275D01*
X1472192Y529865D01*
X1472159Y529848D01*
X1472122Y529835D01*
X1471939Y529735D01*
X1471753Y529640D01*
X1471723Y529618D01*
X1471689Y529599D01*
X1471524Y529471D01*
X1471356Y529347D01*
X1471330Y529320D01*
X1471300Y529297D01*
X1471158Y529143D01*
X1471012Y528994D01*
X1470990Y528963D01*
X1470964Y528935D01*
X1470849Y528761D01*
X1470729Y528590D01*
X1470712Y528555D01*
X1470691Y528524D01*
X1470606Y528334D01*
X1470515Y528145D01*
X1470504Y528109D01*
X1470489Y528074D01*
X1470434Y527872D01*
X1470375Y527672D01*
X1470371Y527635D01*
X1470361Y527598D01*
X1470340Y527389D01*
X1470314Y527183D01*
X1470316Y527145D01*
X1470312Y527107D01*
X1470325Y526898D01*
X1470333Y526690D01*
X1470340Y526652D01*
X1470343Y526614D01*
X1470389Y526410D01*
X1470430Y526206D01*
X1470444Y526171D01*
X1470452Y526133D01*
X1470531Y525940D01*
X1470605Y525745D01*
X1470624Y525712D01*
X1470638Y525676D01*
X1470747Y525498D01*
X1470852Y525318D01*
X1470876Y525288D01*
X1470896Y525255D01*
X1471032Y525097D01*
X1471164Y524936D01*
X1471193Y524911D01*
X1471218Y524882D01*
X1471378Y524747D01*
X1471534Y524609D01*
X1471566Y524589D01*
X1471595Y524565D01*
X1471677Y524520D01*
X1471952Y524347D01*
X1472110Y524280D01*
X1472192Y524235D01*
X1473181Y523825D01*
X1476325Y520681D01*
X1478027Y516573D01*
X1478027Y512127D01*
X1476325Y508019D01*
X1473181Y504875D01*
X1472192Y504465D01*
X1472159Y504448D01*
X1472122Y504435D01*
X1471939Y504335D01*
X1471753Y504240D01*
X1471723Y504218D01*
X1471689Y504199D01*
X1471524Y504071D01*
X1471356Y503947D01*
X1471330Y503920D01*
X1471300Y503897D01*
X1471158Y503743D01*
X1471012Y503594D01*
X1470990Y503563D01*
X1470964Y503535D01*
X1470849Y503361D01*
X1470729Y503190D01*
X1470712Y503155D01*
X1470691Y503124D01*
X1470606Y502934D01*
X1470515Y502745D01*
X1470504Y502709D01*
X1470489Y502674D01*
X1470434Y502472D01*
X1470375Y502272D01*
X1470371Y502235D01*
X1470361Y502198D01*
X1470340Y501989D01*
X1470314Y501783D01*
X1470316Y501745D01*
X1470312Y501707D01*
X1470325Y501498D01*
X1470333Y501290D01*
X1470340Y501252D01*
X1470343Y501214D01*
X1470389Y501010D01*
X1470430Y500806D01*
X1470444Y500771D01*
X1470452Y500733D01*
X1470531Y500540D01*
X1470605Y500345D01*
X1470624Y500312D01*
X1470638Y500276D01*
X1470747Y500098D01*
X1470852Y499918D01*
X1470876Y499888D01*
X1470896Y499855D01*
X1471032Y499697D01*
X1471164Y499536D01*
X1471193Y499511D01*
X1471218Y499482D01*
X1471378Y499347D01*
X1471534Y499209D01*
X1471566Y499189D01*
X1471595Y499165D01*
X1471677Y499120D01*
X1471952Y498947D01*
X1472110Y498880D01*
X1472192Y498835D01*
X1473181Y498425D01*
X1476325Y495281D01*
X1476800Y494134D01*
X1476900Y493940D01*
X1476996Y493743D01*
X1477012Y493720D01*
X1477025Y493695D01*
X1477155Y493519D01*
X1477282Y493341D01*
X1477301Y493321D01*
X1477318Y493298D01*
X1477475Y493145D01*
X1477628Y492990D01*
X1477651Y492973D01*
X1477672Y492953D01*
X1477851Y492828D01*
X1478027Y492700D01*
X1478052Y492687D01*
X1478076Y492671D01*
X1478273Y492575D01*
X1478467Y492477D01*
X1478494Y492469D01*
X1478520Y492456D01*
X1478730Y492395D01*
X1478938Y492329D01*
X1478961Y492326D01*
X1478993Y492317D01*
X1479483Y492256D01*
X1479563Y492259D01*
X1479616Y492253D01*
X1491618Y492253D01*
X1491694Y492259D01*
X1491770Y492257D01*
X1491939Y492279D01*
X1492110Y492293D01*
X1492184Y492311D01*
X1492259Y492321D01*
X1492423Y492370D01*
X1492589Y492411D01*
X1492658Y492441D01*
X1492732Y492463D01*
X1492885Y492539D01*
X1493042Y492606D01*
X1493106Y492647D01*
X1493175Y492680D01*
X1493314Y492779D01*
X1493458Y492871D01*
X1493515Y492922D01*
X1493577Y492966D01*
X1493698Y493086D01*
X1493826Y493200D01*
X1493874Y493259D01*
X1493928Y493313D01*
X1494029Y493451D01*
X1494136Y493584D01*
X1494173Y493650D01*
X1494218Y493711D01*
X1494295Y493864D01*
X1494380Y494012D01*
X1494406Y494084D01*
X1494441Y494152D01*
X1494492Y494315D01*
X1494551Y494475D01*
X1494566Y494550D01*
X1494589Y494622D01*
X1494601Y494727D01*
X1494646Y494959D01*
X1494653Y495195D01*
X1494665Y495300D01*
X1494665Y793750D01*
X1494659Y793826D01*
X1494661Y793902D01*
X1494639Y794071D01*
X1494625Y794242D01*
X1494607Y794316D01*
X1494597Y794391D01*
X1494548Y794555D01*
X1494507Y794721D01*
X1494477Y794790D01*
X1494455Y794864D01*
X1494379Y795017D01*
X1494312Y795174D01*
X1494271Y795238D01*
X1494238Y795307D01*
X1494139Y795446D01*
X1494047Y795590D01*
X1493996Y795647D01*
X1493952Y795709D01*
X1493832Y795830D01*
X1493718Y795958D01*
X1493659Y796006D01*
X1493605Y796060D01*
X1493467Y796161D01*
X1493334Y796268D01*
X1493268Y796305D01*
X1493207Y796350D01*
X1493054Y796427D01*
X1492906Y796512D01*
X1492834Y796538D01*
X1492766Y796573D01*
X1492603Y796624D01*
X1492443Y796683D01*
X1492368Y796698D01*
X1492296Y796721D01*
X1492191Y796733D01*
X1491959Y796778D01*
X1491723Y796785D01*
X1491618Y796797D01*
X1480185Y796797D01*
X1480109Y796791D01*
X1480033Y796793D01*
X1479864Y796771D01*
X1479693Y796757D01*
X1479619Y796739D01*
X1479544Y796729D01*
X1479380Y796680D01*
X1479214Y796639D01*
X1479145Y796609D01*
X1479071Y796587D01*
X1478918Y796511D01*
X1478761Y796444D01*
X1478697Y796403D01*
X1478628Y796370D01*
X1478489Y796271D01*
X1478345Y796179D01*
X1478288Y796128D01*
X1478226Y796084D01*
X1478105Y795964D01*
X1477977Y795850D01*
X1477929Y795791D01*
X1477875Y795737D01*
X1477774Y795599D01*
X1477667Y795466D01*
X1477630Y795400D01*
X1477585Y795339D01*
X1477508Y795186D01*
X1477423Y795038D01*
X1477397Y794966D01*
X1477362Y794898D01*
X1477311Y794735D01*
X1477252Y794575D01*
X1477237Y794500D01*
X1477214Y794428D01*
X1477202Y794323D01*
X1477157Y794091D01*
X1477150Y793855D01*
X1477138Y793750D01*
X1477138Y636760D01*
X1476055Y634146D01*
X1464529Y622620D01*
X1461915Y621537D01*
X1460989Y621537D01*
X1460875Y621528D01*
X1460761Y621529D01*
X1460629Y621508D01*
X1460497Y621497D01*
X1460386Y621470D01*
X1460273Y621452D01*
X1460147Y621411D01*
X1460018Y621379D01*
X1459913Y621334D01*
X1459805Y621298D01*
X1459687Y621236D01*
X1459565Y621184D01*
X1459469Y621123D01*
X1459367Y621070D01*
X1459294Y621011D01*
X1459149Y620919D01*
X1458906Y620703D01*
X1458834Y620645D01*
X1455426Y617237D01*
X1450478Y615187D01*
X1445122Y615187D01*
X1440174Y617237D01*
X1437255Y620156D01*
X1437197Y620205D01*
X1437145Y620261D01*
X1437009Y620365D01*
X1436879Y620476D01*
X1436813Y620515D01*
X1436753Y620561D01*
X1436603Y620642D01*
X1436456Y620730D01*
X1436386Y620758D01*
X1436318Y620794D01*
X1436157Y620850D01*
X1435998Y620913D01*
X1435924Y620930D01*
X1435852Y620954D01*
X1435683Y620983D01*
X1435517Y621020D01*
X1435440Y621024D01*
X1435365Y621037D01*
X1435194Y621038D01*
X1435024Y621048D01*
X1434948Y621040D01*
X1434872Y621040D01*
X1434703Y621014D01*
X1434533Y620995D01*
X1434460Y620975D01*
X1434385Y620963D01*
X1434222Y620910D01*
X1434058Y620865D01*
X1433988Y620833D01*
X1433916Y620809D01*
X1433764Y620730D01*
X1433609Y620659D01*
X1433546Y620617D01*
X1433478Y620581D01*
X1433396Y620516D01*
X1433200Y620384D01*
X1433028Y620222D01*
X1432945Y620156D01*
X1430026Y617237D01*
X1425078Y615187D01*
X1419722Y615187D01*
X1414774Y617237D01*
X1410987Y621024D01*
X1408937Y625972D01*
X1408937Y631328D01*
X1410987Y636276D01*
X1413906Y639195D01*
X1413955Y639253D01*
X1414011Y639305D01*
X1414115Y639441D01*
X1414226Y639571D01*
X1414265Y639637D01*
X1414311Y639697D01*
X1414392Y639847D01*
X1414480Y639994D01*
X1414508Y640064D01*
X1414544Y640132D01*
X1414600Y640293D01*
X1414663Y640452D01*
X1414680Y640526D01*
X1414704Y640598D01*
X1414733Y640767D01*
X1414770Y640933D01*
X1414774Y641010D01*
X1414787Y641085D01*
X1414788Y641256D01*
X1414798Y641426D01*
X1414790Y641502D01*
X1414790Y641578D01*
X1414764Y641747D01*
X1414745Y641917D01*
X1414725Y641990D01*
X1414713Y642065D01*
X1414660Y642228D01*
X1414615Y642392D01*
X1414583Y642462D01*
X1414559Y642534D01*
X1414480Y642686D01*
X1414409Y642841D01*
X1414367Y642904D01*
X1414331Y642972D01*
X1414266Y643054D01*
X1414134Y643250D01*
X1413972Y643422D01*
X1413906Y643505D01*
X1410987Y646424D01*
X1408937Y651372D01*
X1408937Y656728D01*
X1410987Y661676D01*
X1413906Y664595D01*
X1413955Y664653D01*
X1414011Y664705D01*
X1414115Y664841D01*
X1414226Y664971D01*
X1414265Y665037D01*
X1414311Y665097D01*
X1414392Y665247D01*
X1414480Y665394D01*
X1414508Y665464D01*
X1414544Y665532D01*
X1414600Y665693D01*
X1414663Y665852D01*
X1414680Y665926D01*
X1414704Y665998D01*
X1414733Y666167D01*
X1414770Y666333D01*
X1414774Y666410D01*
X1414787Y666485D01*
X1414788Y666656D01*
X1414798Y666826D01*
X1414790Y666902D01*
X1414790Y666978D01*
X1414764Y667147D01*
X1414745Y667317D01*
X1414725Y667390D01*
X1414713Y667465D01*
X1414660Y667628D01*
X1414615Y667792D01*
X1414583Y667862D01*
X1414559Y667934D01*
X1414480Y668086D01*
X1414409Y668241D01*
X1414367Y668304D01*
X1414331Y668372D01*
X1414266Y668454D01*
X1414134Y668650D01*
X1413972Y668822D01*
X1413906Y668905D01*
X1410987Y671824D01*
X1408937Y676772D01*
X1408937Y682128D01*
X1410987Y687076D01*
X1413906Y689995D01*
X1413955Y690053D01*
X1414011Y690105D01*
X1414115Y690241D01*
X1414226Y690371D01*
X1414265Y690437D01*
X1414311Y690497D01*
X1414392Y690647D01*
X1414480Y690794D01*
X1414508Y690864D01*
X1414544Y690932D01*
X1414600Y691093D01*
X1414663Y691252D01*
X1414680Y691326D01*
X1414704Y691398D01*
X1414733Y691567D01*
X1414770Y691733D01*
X1414774Y691810D01*
X1414787Y691885D01*
X1414788Y692056D01*
X1414798Y692226D01*
X1414790Y692302D01*
X1414790Y692378D01*
X1414764Y692547D01*
X1414745Y692717D01*
X1414725Y692790D01*
X1414713Y692865D01*
X1414660Y693028D01*
X1414615Y693192D01*
X1414583Y693262D01*
X1414559Y693334D01*
X1414480Y693486D01*
X1414409Y693641D01*
X1414367Y693704D01*
X1414331Y693772D01*
X1414266Y693854D01*
X1414134Y694050D01*
X1413972Y694222D01*
X1413906Y694305D01*
X1410987Y697224D01*
X1408937Y702172D01*
X1408937Y707528D01*
X1410987Y712476D01*
X1413906Y715395D01*
X1413955Y715453D01*
X1414011Y715505D01*
X1414115Y715641D01*
X1414226Y715771D01*
X1414265Y715837D01*
X1414311Y715897D01*
X1414392Y716047D01*
X1414480Y716194D01*
X1414508Y716264D01*
X1414544Y716332D01*
X1414600Y716493D01*
X1414663Y716652D01*
X1414680Y716726D01*
X1414704Y716798D01*
X1414733Y716967D01*
X1414770Y717133D01*
X1414774Y717210D01*
X1414787Y717285D01*
X1414788Y717456D01*
X1414798Y717626D01*
X1414790Y717702D01*
X1414790Y717778D01*
X1414764Y717947D01*
X1414745Y718117D01*
X1414725Y718190D01*
X1414713Y718265D01*
X1414660Y718428D01*
X1414615Y718592D01*
X1414583Y718662D01*
X1414559Y718734D01*
X1414480Y718886D01*
X1414409Y719041D01*
X1414367Y719104D01*
X1414331Y719172D01*
X1414266Y719254D01*
X1414134Y719450D01*
X1413972Y719622D01*
X1413906Y719705D01*
X1410987Y722624D01*
X1408937Y727572D01*
X1408937Y732928D01*
X1410987Y737876D01*
X1413906Y740795D01*
X1413955Y740853D01*
X1414011Y740905D01*
X1414115Y741041D01*
X1414226Y741171D01*
X1414265Y741237D01*
X1414311Y741297D01*
X1414392Y741447D01*
X1414480Y741594D01*
X1414508Y741664D01*
X1414544Y741732D01*
X1414600Y741893D01*
X1414663Y742052D01*
X1414680Y742126D01*
X1414704Y742198D01*
X1414733Y742367D01*
X1414770Y742533D01*
X1414774Y742610D01*
X1414787Y742685D01*
X1414788Y742856D01*
X1414798Y743026D01*
X1414790Y743102D01*
X1414790Y743178D01*
X1414764Y743347D01*
X1414745Y743517D01*
X1414725Y743590D01*
X1414713Y743665D01*
X1414660Y743828D01*
X1414615Y743992D01*
X1414583Y744062D01*
X1414559Y744134D01*
X1414480Y744286D01*
X1414409Y744441D01*
X1414367Y744504D01*
X1414331Y744572D01*
X1414266Y744654D01*
X1414134Y744850D01*
X1413972Y745022D01*
X1413906Y745105D01*
X1410987Y748024D01*
X1408937Y752972D01*
X1408937Y758328D01*
X1410987Y763276D01*
X1413906Y766195D01*
X1413955Y766253D01*
X1414011Y766305D01*
X1414115Y766441D01*
X1414226Y766571D01*
X1414265Y766637D01*
X1414311Y766697D01*
X1414392Y766847D01*
X1414480Y766994D01*
X1414508Y767064D01*
X1414544Y767132D01*
X1414600Y767293D01*
X1414663Y767452D01*
X1414680Y767526D01*
X1414704Y767598D01*
X1414733Y767767D01*
X1414770Y767933D01*
X1414774Y768010D01*
X1414787Y768085D01*
X1414788Y768256D01*
X1414798Y768426D01*
X1414790Y768502D01*
X1414790Y768578D01*
X1414764Y768747D01*
X1414745Y768917D01*
X1414725Y768990D01*
X1414713Y769065D01*
X1414660Y769228D01*
X1414615Y769392D01*
X1414583Y769462D01*
X1414559Y769534D01*
X1414480Y769686D01*
X1414409Y769841D01*
X1414367Y769904D01*
X1414331Y769972D01*
X1414266Y770054D01*
X1414134Y770250D01*
X1413972Y770422D01*
X1413906Y770505D01*
X1410987Y773424D01*
X1408937Y778372D01*
X1408937Y783728D01*
X1410987Y788676D01*
X1413906Y791595D01*
X1413931Y791624D01*
X1413959Y791650D01*
X1414007Y791709D01*
X1414061Y791763D01*
X1414139Y791870D01*
X1414226Y791971D01*
X1414245Y792004D01*
X1414269Y792034D01*
X1414307Y792100D01*
X1414352Y792161D01*
X1414412Y792280D01*
X1414480Y792394D01*
X1414494Y792429D01*
X1414513Y792462D01*
X1414540Y792534D01*
X1414574Y792602D01*
X1414614Y792729D01*
X1414663Y792852D01*
X1414671Y792889D01*
X1414685Y792925D01*
X1414699Y792999D01*
X1414722Y793072D01*
X1414733Y793166D01*
X1414770Y793333D01*
X1414772Y793372D01*
X1414779Y793409D01*
X1414786Y793617D01*
X1414788Y793658D01*
X1414799Y793750D01*
X1414796Y793788D01*
X1414798Y793826D01*
X1414794Y793864D01*
X1414795Y793902D01*
X1414773Y794071D01*
X1414759Y794242D01*
X1414749Y794279D01*
X1414745Y794317D01*
X1414735Y794353D01*
X1414730Y794391D01*
X1414681Y794555D01*
X1414640Y794721D01*
X1414625Y794756D01*
X1414615Y794792D01*
X1414599Y794827D01*
X1414588Y794864D01*
X1414513Y795017D01*
X1414445Y795174D01*
X1414425Y795206D01*
X1414409Y795241D01*
X1414388Y795272D01*
X1414371Y795307D01*
X1414272Y795446D01*
X1414180Y795590D01*
X1414155Y795618D01*
X1414134Y795650D01*
X1414108Y795678D01*
X1414086Y795709D01*
X1413965Y795830D01*
X1413852Y795958D01*
X1413822Y795982D01*
X1413796Y796010D01*
X1413766Y796033D01*
X1413739Y796060D01*
X1413601Y796161D01*
X1413468Y796268D01*
X1413435Y796287D01*
X1413404Y796310D01*
X1413371Y796328D01*
X1413340Y796350D01*
X1413188Y796427D01*
X1413039Y796512D01*
X1413003Y796525D01*
X1412970Y796543D01*
X1412934Y796555D01*
X1412900Y796573D01*
X1412737Y796624D01*
X1412577Y796683D01*
X1412539Y796691D01*
X1412503Y796703D01*
X1412466Y796709D01*
X1412429Y796721D01*
X1412336Y796731D01*
X1412298Y796738D01*
X1412092Y796778D01*
X1412054Y796779D01*
X1412017Y796786D01*
X1411845Y796787D01*
X1411751Y796797D01*
X1314450Y796797D01*
X1314374Y796791D01*
X1314298Y796793D01*
X1314129Y796771D01*
X1313958Y796757D01*
X1313884Y796739D01*
X1313809Y796729D01*
X1313645Y796680D01*
X1313479Y796639D01*
X1313410Y796609D01*
X1313337Y796587D01*
X1313183Y796511D01*
X1313026Y796444D01*
X1312962Y796403D01*
X1312893Y796370D01*
X1312754Y796271D01*
X1312610Y796179D01*
X1312553Y796128D01*
X1312491Y796084D01*
X1312370Y795964D01*
X1312242Y795850D01*
X1312194Y795791D01*
X1312140Y795737D01*
X1312039Y795599D01*
X1311932Y795466D01*
X1311895Y795400D01*
X1311850Y795339D01*
X1311773Y795186D01*
X1311688Y795038D01*
X1311662Y794966D01*
X1311627Y794898D01*
X1311576Y794735D01*
X1311517Y794575D01*
X1311502Y794500D01*
X1311479Y794428D01*
X1311467Y794323D01*
X1311422Y794091D01*
X1311415Y793855D01*
X1311403Y793750D01*
X1311403Y698503D01*
X1311414Y698361D01*
X1311416Y698218D01*
X1311434Y698115D01*
X1311443Y698011D01*
X1311477Y697873D01*
X1311502Y697732D01*
X1311536Y697634D01*
X1311561Y697532D01*
X1311618Y697401D01*
X1311665Y697267D01*
X1311715Y697175D01*
X1311756Y697079D01*
X1311832Y696959D01*
X1311901Y696833D01*
X1311965Y696751D01*
X1312021Y696663D01*
X1312116Y696557D01*
X1312203Y696444D01*
X1312280Y696373D01*
X1312350Y696295D01*
X1312461Y696205D01*
X1312565Y696108D01*
X1312652Y696051D01*
X1312734Y695985D01*
X1312857Y695915D01*
X1312976Y695836D01*
X1313072Y695793D01*
X1313162Y695741D01*
X1313296Y695691D01*
X1313426Y695633D01*
X1313527Y695606D01*
X1313625Y695569D01*
X1313765Y695542D01*
X1313902Y695505D01*
X1314007Y695495D01*
X1314109Y695475D01*
X1314251Y695470D01*
X1314393Y695456D01*
X1314498Y695463D01*
X1314602Y695459D01*
X1314743Y695478D01*
X1314886Y695487D01*
X1314988Y695510D01*
X1315091Y695524D01*
X1315228Y695565D01*
X1315367Y695597D01*
X1315463Y695636D01*
X1315564Y695666D01*
X1315692Y695729D01*
X1315824Y695783D01*
X1315913Y695837D01*
X1316007Y695883D01*
X1316123Y695966D01*
X1316244Y696040D01*
X1316324Y696108D01*
X1316409Y696169D01*
X1316510Y696269D01*
X1316618Y696362D01*
X1316686Y696442D01*
X1316760Y696515D01*
X1316844Y696631D01*
X1316935Y696740D01*
X1316973Y696808D01*
X1317050Y696914D01*
X1317246Y697301D01*
X1317265Y697337D01*
X1317890Y698845D01*
X1320963Y701918D01*
X1324977Y703581D01*
X1329323Y703581D01*
X1333337Y701918D01*
X1336410Y698845D01*
X1338073Y694831D01*
X1338073Y676769D01*
X1336410Y672755D01*
X1333337Y669682D01*
X1329323Y668019D01*
X1324977Y668019D01*
X1320963Y669682D01*
X1317890Y672755D01*
X1317265Y674263D01*
X1317200Y674390D01*
X1317144Y674521D01*
X1317088Y674609D01*
X1317040Y674702D01*
X1316956Y674817D01*
X1316879Y674937D01*
X1316809Y675015D01*
X1316747Y675099D01*
X1316645Y675199D01*
X1316550Y675305D01*
X1316469Y675371D01*
X1316394Y675444D01*
X1316277Y675526D01*
X1316166Y675615D01*
X1316076Y675667D01*
X1315990Y675727D01*
X1315862Y675789D01*
X1315738Y675859D01*
X1315640Y675895D01*
X1315546Y675941D01*
X1315409Y675981D01*
X1315275Y676031D01*
X1315173Y676051D01*
X1315072Y676080D01*
X1314931Y676098D01*
X1314791Y676125D01*
X1314687Y676129D01*
X1314583Y676142D01*
X1314440Y676136D01*
X1314298Y676141D01*
X1314194Y676127D01*
X1314090Y676123D01*
X1313950Y676095D01*
X1313809Y676076D01*
X1313709Y676046D01*
X1313606Y676025D01*
X1313473Y675975D01*
X1313337Y675934D01*
X1313243Y675888D01*
X1313145Y675851D01*
X1313021Y675780D01*
X1312893Y675717D01*
X1312808Y675656D01*
X1312718Y675604D01*
X1312607Y675514D01*
X1312491Y675431D01*
X1312417Y675358D01*
X1312336Y675292D01*
X1312241Y675185D01*
X1312140Y675085D01*
X1312079Y675000D01*
X1312009Y674922D01*
X1311933Y674801D01*
X1311850Y674686D01*
X1311803Y674593D01*
X1311747Y674504D01*
X1311692Y674373D01*
X1311627Y674245D01*
X1311596Y674146D01*
X1311555Y674049D01*
X1311522Y673911D01*
X1311479Y673775D01*
X1311470Y673697D01*
X1311440Y673570D01*
X1311407Y673137D01*
X1311403Y673097D01*
X1311403Y495300D01*
X1311409Y495224D01*
X1311407Y495148D01*
X1311429Y494979D01*
X1311443Y494808D01*
X1311461Y494734D01*
X1311471Y494659D01*
X1311520Y494495D01*
X1311561Y494329D01*
X1311591Y494260D01*
X1311613Y494187D01*
X1311689Y494033D01*
X1311756Y493876D01*
X1311797Y493812D01*
X1311830Y493743D01*
X1311929Y493604D01*
X1312021Y493460D01*
X1312072Y493403D01*
X1312116Y493341D01*
X1312236Y493220D01*
X1312350Y493092D01*
X1312409Y493044D01*
X1312463Y492990D01*
X1312601Y492889D01*
X1312734Y492782D01*
X1312800Y492745D01*
X1312861Y492700D01*
X1313014Y492623D01*
X1313162Y492538D01*
X1313234Y492512D01*
X1313302Y492477D01*
X1313465Y492426D01*
X1313625Y492367D01*
X1313700Y492352D01*
X1313772Y492329D01*
X1313877Y492317D01*
X1314109Y492272D01*
X1314345Y492265D01*
X1314450Y492253D01*
X1380697Y492253D01*
X1380839Y492264D01*
G37*
G36*
X133377Y1048896D02*
X133377Y1048896D01*
X133403Y1048894D01*
X133577Y1048916D01*
X133751Y1048934D01*
X133776Y1048942D01*
X133803Y1048945D01*
X133968Y1049001D01*
X134136Y1049052D01*
X134159Y1049065D01*
X134184Y1049073D01*
X134336Y1049160D01*
X134490Y1049244D01*
X134510Y1049261D01*
X134533Y1049274D01*
X134786Y1049489D01*
X169711Y1084414D01*
X169728Y1084434D01*
X169749Y1084452D01*
X169856Y1084590D01*
X169966Y1084725D01*
X169979Y1084749D01*
X169995Y1084770D01*
X170073Y1084927D01*
X170155Y1085081D01*
X170163Y1085106D01*
X170175Y1085131D01*
X170220Y1085300D01*
X170270Y1085467D01*
X170272Y1085493D01*
X170279Y1085519D01*
X170306Y1085850D01*
X170306Y1111250D01*
X170304Y1111277D01*
X170306Y1111303D01*
X170284Y1111477D01*
X170266Y1111651D01*
X170259Y1111676D01*
X170255Y1111703D01*
X170200Y1111868D01*
X170148Y1112036D01*
X170135Y1112059D01*
X170127Y1112084D01*
X170040Y1112236D01*
X169956Y1112390D01*
X169939Y1112410D01*
X169926Y1112433D01*
X169711Y1112686D01*
X157606Y1124791D01*
X157606Y1173909D01*
X179236Y1195539D01*
X179253Y1195559D01*
X179274Y1195577D01*
X179381Y1195715D01*
X179491Y1195850D01*
X179504Y1195874D01*
X179520Y1195895D01*
X179598Y1196052D01*
X179680Y1196206D01*
X179688Y1196231D01*
X179700Y1196256D01*
X179745Y1196425D01*
X179795Y1196592D01*
X179797Y1196618D01*
X179804Y1196644D01*
X179831Y1196975D01*
X179831Y1241425D01*
X179829Y1241443D01*
X179831Y1241461D01*
X179810Y1241643D01*
X179791Y1241826D01*
X179786Y1241843D01*
X179784Y1241860D01*
X179727Y1242035D01*
X179673Y1242211D01*
X179665Y1242226D01*
X179659Y1242243D01*
X179569Y1242403D01*
X179481Y1242565D01*
X179470Y1242578D01*
X179461Y1242594D01*
X179341Y1242733D01*
X179224Y1242874D01*
X179210Y1242885D01*
X179198Y1242899D01*
X179053Y1243011D01*
X178910Y1243126D01*
X178894Y1243134D01*
X178880Y1243145D01*
X178715Y1243227D01*
X178553Y1243312D01*
X178536Y1243317D01*
X178520Y1243325D01*
X178341Y1243372D01*
X178166Y1243423D01*
X178148Y1243425D01*
X178131Y1243429D01*
X177800Y1243456D01*
X9525Y1243456D01*
X9507Y1243454D01*
X9489Y1243456D01*
X9307Y1243435D01*
X9124Y1243416D01*
X9107Y1243411D01*
X9090Y1243409D01*
X8915Y1243352D01*
X8739Y1243298D01*
X8724Y1243290D01*
X8707Y1243284D01*
X8547Y1243194D01*
X8385Y1243106D01*
X8372Y1243095D01*
X8356Y1243086D01*
X8217Y1242966D01*
X8076Y1242849D01*
X8065Y1242835D01*
X8052Y1242823D01*
X7939Y1242678D01*
X7824Y1242535D01*
X7816Y1242519D01*
X7805Y1242505D01*
X7723Y1242340D01*
X7638Y1242178D01*
X7633Y1242161D01*
X7625Y1242145D01*
X7578Y1241966D01*
X7527Y1241791D01*
X7525Y1241773D01*
X7521Y1241756D01*
X7494Y1241425D01*
X7494Y1050925D01*
X7496Y1050907D01*
X7494Y1050889D01*
X7515Y1050707D01*
X7534Y1050524D01*
X7539Y1050507D01*
X7541Y1050490D01*
X7598Y1050315D01*
X7652Y1050139D01*
X7660Y1050124D01*
X7666Y1050107D01*
X7756Y1049947D01*
X7844Y1049785D01*
X7855Y1049772D01*
X7864Y1049756D01*
X7984Y1049617D01*
X8101Y1049476D01*
X8115Y1049465D01*
X8127Y1049452D01*
X8272Y1049339D01*
X8415Y1049224D01*
X8431Y1049216D01*
X8445Y1049205D01*
X8610Y1049123D01*
X8772Y1049038D01*
X8789Y1049033D01*
X8806Y1049025D01*
X8984Y1048978D01*
X9159Y1048927D01*
X9177Y1048925D01*
X9194Y1048921D01*
X9525Y1048894D01*
X133350Y1048894D01*
X133377Y1048896D01*
G37*
G36*
X1079526Y385830D02*
X1079526Y385830D01*
X1079552Y385828D01*
X1079699Y385850D01*
X1079846Y385867D01*
X1079871Y385875D01*
X1079897Y385879D01*
X1080035Y385934D01*
X1080174Y385984D01*
X1080196Y385998D01*
X1080221Y386008D01*
X1080342Y386093D01*
X1080467Y386173D01*
X1080485Y386192D01*
X1080507Y386207D01*
X1080606Y386317D01*
X1080709Y386424D01*
X1080723Y386446D01*
X1080740Y386466D01*
X1080812Y386596D01*
X1080888Y386723D01*
X1080896Y386748D01*
X1080909Y386771D01*
X1080949Y386914D01*
X1080994Y387055D01*
X1080996Y387081D01*
X1081004Y387106D01*
X1081023Y387350D01*
X1081023Y519177D01*
X1162812Y519177D01*
X1162838Y519180D01*
X1162864Y519178D01*
X1163011Y519200D01*
X1163158Y519217D01*
X1163183Y519225D01*
X1163209Y519229D01*
X1163347Y519284D01*
X1163486Y519334D01*
X1163508Y519348D01*
X1163533Y519358D01*
X1163654Y519443D01*
X1163779Y519523D01*
X1163797Y519542D01*
X1163819Y519557D01*
X1163918Y519667D01*
X1164021Y519774D01*
X1164035Y519796D01*
X1164052Y519816D01*
X1164124Y519946D01*
X1164200Y520073D01*
X1164208Y520098D01*
X1164221Y520121D01*
X1164261Y520264D01*
X1164306Y520405D01*
X1164308Y520431D01*
X1164316Y520456D01*
X1164335Y520700D01*
X1164335Y554522D01*
X1165921Y558350D01*
X1169065Y561493D01*
X1178407Y570835D01*
X1181550Y573979D01*
X1185378Y575565D01*
X1206500Y575565D01*
X1206526Y575568D01*
X1206552Y575566D01*
X1206699Y575588D01*
X1206846Y575605D01*
X1206871Y575613D01*
X1206897Y575617D01*
X1207035Y575672D01*
X1207174Y575722D01*
X1207196Y575736D01*
X1207221Y575746D01*
X1207342Y575831D01*
X1207467Y575911D01*
X1207485Y575930D01*
X1207507Y575945D01*
X1207606Y576055D01*
X1207709Y576162D01*
X1207723Y576184D01*
X1207740Y576204D01*
X1207812Y576334D01*
X1207888Y576461D01*
X1207896Y576486D01*
X1207909Y576509D01*
X1207949Y576652D01*
X1207994Y576793D01*
X1207996Y576819D01*
X1208004Y576844D01*
X1208023Y577088D01*
X1208023Y687967D01*
X1208009Y688093D01*
X1208002Y688219D01*
X1207989Y688265D01*
X1207983Y688313D01*
X1207941Y688432D01*
X1207906Y688554D01*
X1207882Y688596D01*
X1207866Y688641D01*
X1207797Y688748D01*
X1207736Y688858D01*
X1207696Y688904D01*
X1207677Y688934D01*
X1207642Y688968D01*
X1207577Y689044D01*
X1200815Y695807D01*
X1197671Y698950D01*
X1196085Y702778D01*
X1196085Y704850D01*
X1196082Y704876D01*
X1196084Y704902D01*
X1196062Y705049D01*
X1196045Y705196D01*
X1196037Y705221D01*
X1196033Y705247D01*
X1195978Y705385D01*
X1195928Y705524D01*
X1195914Y705546D01*
X1195904Y705571D01*
X1195819Y705692D01*
X1195739Y705817D01*
X1195720Y705835D01*
X1195705Y705857D01*
X1195595Y705956D01*
X1195488Y706059D01*
X1195466Y706073D01*
X1195446Y706090D01*
X1195316Y706162D01*
X1195189Y706238D01*
X1195164Y706246D01*
X1195141Y706259D01*
X1194998Y706299D01*
X1194857Y706344D01*
X1194831Y706346D01*
X1194806Y706354D01*
X1194562Y706373D01*
X1171088Y706373D01*
X1170963Y706359D01*
X1170836Y706352D01*
X1170790Y706339D01*
X1170742Y706333D01*
X1170623Y706291D01*
X1170501Y706256D01*
X1170459Y706232D01*
X1170414Y706216D01*
X1170308Y706147D01*
X1170197Y706086D01*
X1170151Y706046D01*
X1170121Y706027D01*
X1170087Y705992D01*
X1170011Y705927D01*
X1117494Y653410D01*
X1115279Y651195D01*
X1112665Y650112D01*
X1041400Y650112D01*
X1041374Y650109D01*
X1041348Y650111D01*
X1041201Y650089D01*
X1041054Y650072D01*
X1041029Y650064D01*
X1041003Y650060D01*
X1040865Y650005D01*
X1040726Y649955D01*
X1040704Y649941D01*
X1040679Y649931D01*
X1040558Y649846D01*
X1040433Y649766D01*
X1040415Y649747D01*
X1040393Y649732D01*
X1040294Y649622D01*
X1040191Y649515D01*
X1040177Y649493D01*
X1040160Y649473D01*
X1040088Y649343D01*
X1040012Y649216D01*
X1040004Y649191D01*
X1039991Y649168D01*
X1039951Y649025D01*
X1039906Y648884D01*
X1039904Y648858D01*
X1039896Y648833D01*
X1039877Y648589D01*
X1039877Y387350D01*
X1039880Y387324D01*
X1039878Y387298D01*
X1039900Y387151D01*
X1039917Y387004D01*
X1039925Y386979D01*
X1039929Y386953D01*
X1039984Y386815D01*
X1040034Y386676D01*
X1040048Y386654D01*
X1040058Y386629D01*
X1040143Y386508D01*
X1040223Y386383D01*
X1040242Y386365D01*
X1040257Y386343D01*
X1040367Y386244D01*
X1040474Y386141D01*
X1040496Y386127D01*
X1040516Y386110D01*
X1040646Y386038D01*
X1040773Y385962D01*
X1040798Y385954D01*
X1040821Y385941D01*
X1040964Y385901D01*
X1041105Y385856D01*
X1041131Y385854D01*
X1041156Y385846D01*
X1041400Y385827D01*
X1079500Y385827D01*
X1079526Y385830D01*
G37*
G36*
X438177Y1048896D02*
X438177Y1048896D01*
X438203Y1048894D01*
X438377Y1048916D01*
X438551Y1048934D01*
X438576Y1048942D01*
X438603Y1048945D01*
X438768Y1049001D01*
X438936Y1049052D01*
X438959Y1049065D01*
X438984Y1049073D01*
X439136Y1049160D01*
X439290Y1049244D01*
X439310Y1049261D01*
X439333Y1049274D01*
X439586Y1049489D01*
X474511Y1084414D01*
X474528Y1084434D01*
X474549Y1084452D01*
X474656Y1084590D01*
X474766Y1084725D01*
X474779Y1084749D01*
X474795Y1084770D01*
X474873Y1084927D01*
X474955Y1085081D01*
X474963Y1085106D01*
X474975Y1085131D01*
X475020Y1085300D01*
X475070Y1085467D01*
X475072Y1085493D01*
X475079Y1085519D01*
X475106Y1085850D01*
X475106Y1114425D01*
X475104Y1114452D01*
X475106Y1114478D01*
X475084Y1114652D01*
X475066Y1114826D01*
X475059Y1114851D01*
X475055Y1114878D01*
X475000Y1115043D01*
X474948Y1115211D01*
X474935Y1115234D01*
X474927Y1115259D01*
X474840Y1115411D01*
X474756Y1115565D01*
X474739Y1115585D01*
X474726Y1115608D01*
X474511Y1115861D01*
X462406Y1127966D01*
X462406Y1170734D01*
X484036Y1192364D01*
X484053Y1192384D01*
X484074Y1192402D01*
X484181Y1192540D01*
X484291Y1192675D01*
X484304Y1192699D01*
X484320Y1192720D01*
X484398Y1192877D01*
X484480Y1193031D01*
X484488Y1193056D01*
X484500Y1193081D01*
X484545Y1193250D01*
X484595Y1193417D01*
X484597Y1193443D01*
X484604Y1193469D01*
X484631Y1193800D01*
X484631Y1206500D01*
X484629Y1206527D01*
X484631Y1206553D01*
X484609Y1206727D01*
X484591Y1206901D01*
X484584Y1206926D01*
X484580Y1206953D01*
X484525Y1207118D01*
X484473Y1207286D01*
X484460Y1207309D01*
X484452Y1207334D01*
X484365Y1207486D01*
X484281Y1207640D01*
X484264Y1207660D01*
X484251Y1207683D01*
X484036Y1207936D01*
X452286Y1239686D01*
X452266Y1239703D01*
X452248Y1239724D01*
X452110Y1239831D01*
X451975Y1239941D01*
X451951Y1239954D01*
X451930Y1239970D01*
X451773Y1240048D01*
X451619Y1240130D01*
X451594Y1240138D01*
X451570Y1240150D01*
X451400Y1240195D01*
X451233Y1240245D01*
X451207Y1240247D01*
X451181Y1240254D01*
X450850Y1240281D01*
X339725Y1240281D01*
X339707Y1240279D01*
X339689Y1240281D01*
X339507Y1240260D01*
X339324Y1240241D01*
X339307Y1240236D01*
X339290Y1240234D01*
X339115Y1240177D01*
X338939Y1240123D01*
X338924Y1240115D01*
X338907Y1240109D01*
X338747Y1240019D01*
X338585Y1239931D01*
X338572Y1239920D01*
X338556Y1239911D01*
X338417Y1239791D01*
X338276Y1239674D01*
X338265Y1239660D01*
X338252Y1239648D01*
X338139Y1239503D01*
X338024Y1239360D01*
X338016Y1239344D01*
X338005Y1239330D01*
X337923Y1239165D01*
X337838Y1239003D01*
X337833Y1238986D01*
X337825Y1238970D01*
X337778Y1238791D01*
X337727Y1238616D01*
X337725Y1238598D01*
X337721Y1238581D01*
X337694Y1238250D01*
X337694Y1178766D01*
X325589Y1166661D01*
X325572Y1166641D01*
X325552Y1166623D01*
X325444Y1166485D01*
X325334Y1166350D01*
X325321Y1166326D01*
X325305Y1166305D01*
X325227Y1166148D01*
X325145Y1165994D01*
X325137Y1165969D01*
X325125Y1165945D01*
X325080Y1165775D01*
X325030Y1165608D01*
X325028Y1165582D01*
X325021Y1165556D01*
X324994Y1165225D01*
X324994Y1153299D01*
X324995Y1153286D01*
X324994Y1153273D01*
X325015Y1153086D01*
X325034Y1152899D01*
X325038Y1152886D01*
X325039Y1152872D01*
X325097Y1152693D01*
X325152Y1152514D01*
X325158Y1152502D01*
X325162Y1152489D01*
X325254Y1152324D01*
X325344Y1152160D01*
X325352Y1152149D01*
X325359Y1152138D01*
X325481Y1151994D01*
X325601Y1151850D01*
X325612Y1151842D01*
X325620Y1151832D01*
X325769Y1151715D01*
X325915Y1151598D01*
X325927Y1151592D01*
X325937Y1151584D01*
X326106Y1151499D01*
X326272Y1151413D01*
X326285Y1151409D01*
X326297Y1151403D01*
X326478Y1151353D01*
X326659Y1151301D01*
X326673Y1151300D01*
X326686Y1151296D01*
X326874Y1151284D01*
X327061Y1151268D01*
X327074Y1151270D01*
X327087Y1151269D01*
X327275Y1151293D01*
X327460Y1151315D01*
X327473Y1151319D01*
X327486Y1151321D01*
X327802Y1151423D01*
X329053Y1151941D01*
X331347Y1151941D01*
X333466Y1151063D01*
X335088Y1149441D01*
X335966Y1147322D01*
X335966Y1145028D01*
X335088Y1142909D01*
X335028Y1142849D01*
X335016Y1142835D01*
X335003Y1142823D01*
X334889Y1142679D01*
X334773Y1142537D01*
X334764Y1142522D01*
X334753Y1142507D01*
X334669Y1142343D01*
X334584Y1142182D01*
X334579Y1142165D01*
X334571Y1142148D01*
X334521Y1141972D01*
X334469Y1141796D01*
X334468Y1141778D01*
X334463Y1141761D01*
X334449Y1141578D01*
X334433Y1141395D01*
X334435Y1141377D01*
X334433Y1141359D01*
X334456Y1141177D01*
X334476Y1140994D01*
X334482Y1140977D01*
X334484Y1140960D01*
X334542Y1140786D01*
X334598Y1140611D01*
X334606Y1140595D01*
X334612Y1140578D01*
X334704Y1140419D01*
X334793Y1140258D01*
X334804Y1140245D01*
X334813Y1140229D01*
X335028Y1139976D01*
X335088Y1139916D01*
X335966Y1137797D01*
X335966Y1135503D01*
X335088Y1133384D01*
X333466Y1131762D01*
X331347Y1130884D01*
X329028Y1130884D01*
X328928Y1130914D01*
X328739Y1130971D01*
X328734Y1130972D01*
X328730Y1130973D01*
X328530Y1130991D01*
X328338Y1131010D01*
X328333Y1131009D01*
X328329Y1131010D01*
X328129Y1130988D01*
X327937Y1130968D01*
X327933Y1130967D01*
X327929Y1130966D01*
X327741Y1130907D01*
X327553Y1130848D01*
X327549Y1130846D01*
X327545Y1130845D01*
X327375Y1130751D01*
X327200Y1130655D01*
X327196Y1130652D01*
X327192Y1130650D01*
X327043Y1130523D01*
X326892Y1130396D01*
X326889Y1130392D01*
X326885Y1130389D01*
X326763Y1130235D01*
X326641Y1130081D01*
X326639Y1130077D01*
X326636Y1130073D01*
X326546Y1129897D01*
X326457Y1129723D01*
X326455Y1129719D01*
X326453Y1129715D01*
X326400Y1129523D01*
X326347Y1129335D01*
X326347Y1129331D01*
X326345Y1129327D01*
X326331Y1129127D01*
X326316Y1128934D01*
X326316Y1128930D01*
X326316Y1128925D01*
X326341Y1128725D01*
X326364Y1128534D01*
X326366Y1128530D01*
X326366Y1128526D01*
X326429Y1128340D01*
X326491Y1128152D01*
X326493Y1128148D01*
X326495Y1128144D01*
X326593Y1127973D01*
X326690Y1127802D01*
X326693Y1127799D01*
X326696Y1127795D01*
X326910Y1127542D01*
X337694Y1116759D01*
X337694Y1050925D01*
X337696Y1050907D01*
X337694Y1050889D01*
X337715Y1050707D01*
X337734Y1050524D01*
X337739Y1050507D01*
X337741Y1050490D01*
X337798Y1050315D01*
X337852Y1050139D01*
X337860Y1050124D01*
X337866Y1050107D01*
X337956Y1049947D01*
X338044Y1049785D01*
X338055Y1049772D01*
X338064Y1049756D01*
X338184Y1049617D01*
X338301Y1049476D01*
X338315Y1049465D01*
X338327Y1049452D01*
X338472Y1049339D01*
X338615Y1049224D01*
X338631Y1049216D01*
X338645Y1049205D01*
X338810Y1049123D01*
X338972Y1049038D01*
X338989Y1049033D01*
X339006Y1049025D01*
X339184Y1048978D01*
X339359Y1048927D01*
X339377Y1048925D01*
X339394Y1048921D01*
X339725Y1048894D01*
X438150Y1048894D01*
X438177Y1048896D01*
G37*
G36*
X285777Y1048896D02*
X285777Y1048896D01*
X285803Y1048894D01*
X285977Y1048916D01*
X286151Y1048934D01*
X286176Y1048942D01*
X286203Y1048945D01*
X286368Y1049001D01*
X286536Y1049052D01*
X286559Y1049065D01*
X286584Y1049073D01*
X286736Y1049160D01*
X286890Y1049244D01*
X286910Y1049261D01*
X286933Y1049274D01*
X287186Y1049489D01*
X322111Y1084414D01*
X322128Y1084434D01*
X322149Y1084452D01*
X322256Y1084590D01*
X322366Y1084725D01*
X322379Y1084749D01*
X322395Y1084770D01*
X322473Y1084927D01*
X322555Y1085081D01*
X322563Y1085106D01*
X322575Y1085131D01*
X322620Y1085300D01*
X322670Y1085467D01*
X322672Y1085493D01*
X322679Y1085519D01*
X322706Y1085850D01*
X322706Y1108075D01*
X322704Y1108102D01*
X322706Y1108128D01*
X322684Y1108302D01*
X322666Y1108476D01*
X322659Y1108501D01*
X322655Y1108528D01*
X322600Y1108693D01*
X322548Y1108861D01*
X322535Y1108884D01*
X322527Y1108909D01*
X322440Y1109061D01*
X322356Y1109215D01*
X322339Y1109235D01*
X322326Y1109258D01*
X322111Y1109511D01*
X310006Y1121616D01*
X310006Y1170734D01*
X331636Y1192364D01*
X331653Y1192384D01*
X331674Y1192402D01*
X331781Y1192540D01*
X331891Y1192675D01*
X331904Y1192699D01*
X331920Y1192720D01*
X331998Y1192877D01*
X332080Y1193031D01*
X332088Y1193056D01*
X332100Y1193081D01*
X332145Y1193250D01*
X332195Y1193417D01*
X332197Y1193443D01*
X332204Y1193469D01*
X332231Y1193800D01*
X332231Y1231900D01*
X332229Y1231918D01*
X332231Y1231936D01*
X332210Y1232118D01*
X332191Y1232301D01*
X332186Y1232318D01*
X332184Y1232335D01*
X332127Y1232510D01*
X332073Y1232686D01*
X332065Y1232701D01*
X332059Y1232718D01*
X331969Y1232878D01*
X331881Y1233040D01*
X331870Y1233053D01*
X331861Y1233069D01*
X331741Y1233208D01*
X331624Y1233349D01*
X331610Y1233360D01*
X331598Y1233374D01*
X331453Y1233486D01*
X331310Y1233601D01*
X331294Y1233609D01*
X331280Y1233620D01*
X331115Y1233702D01*
X330953Y1233787D01*
X330936Y1233792D01*
X330920Y1233800D01*
X330741Y1233847D01*
X330566Y1233898D01*
X330548Y1233900D01*
X330531Y1233904D01*
X330200Y1233931D01*
X260350Y1233931D01*
X260323Y1233929D01*
X260297Y1233931D01*
X260123Y1233909D01*
X259949Y1233891D01*
X259924Y1233884D01*
X259897Y1233880D01*
X259732Y1233825D01*
X259564Y1233773D01*
X259541Y1233760D01*
X259516Y1233752D01*
X259364Y1233665D01*
X259210Y1233581D01*
X259190Y1233564D01*
X259167Y1233551D01*
X258914Y1233336D01*
X240459Y1214881D01*
X209550Y1214881D01*
X209532Y1214879D01*
X209514Y1214881D01*
X209332Y1214860D01*
X209149Y1214841D01*
X209132Y1214836D01*
X209115Y1214834D01*
X208940Y1214777D01*
X208764Y1214723D01*
X208749Y1214715D01*
X208732Y1214709D01*
X208572Y1214619D01*
X208410Y1214531D01*
X208397Y1214520D01*
X208381Y1214511D01*
X208242Y1214391D01*
X208101Y1214274D01*
X208090Y1214260D01*
X208077Y1214248D01*
X207964Y1214103D01*
X207849Y1213960D01*
X207841Y1213944D01*
X207830Y1213930D01*
X207748Y1213765D01*
X207663Y1213603D01*
X207658Y1213586D01*
X207650Y1213570D01*
X207603Y1213391D01*
X207552Y1213216D01*
X207550Y1213198D01*
X207546Y1213181D01*
X207519Y1212850D01*
X207519Y1050925D01*
X207521Y1050907D01*
X207519Y1050889D01*
X207540Y1050707D01*
X207559Y1050524D01*
X207564Y1050507D01*
X207566Y1050490D01*
X207623Y1050315D01*
X207677Y1050139D01*
X207685Y1050124D01*
X207691Y1050107D01*
X207781Y1049947D01*
X207869Y1049785D01*
X207880Y1049772D01*
X207889Y1049756D01*
X208009Y1049617D01*
X208126Y1049476D01*
X208140Y1049465D01*
X208152Y1049452D01*
X208297Y1049339D01*
X208440Y1049224D01*
X208456Y1049216D01*
X208470Y1049205D01*
X208635Y1049123D01*
X208797Y1049038D01*
X208814Y1049033D01*
X208831Y1049025D01*
X209009Y1048978D01*
X209184Y1048927D01*
X209202Y1048925D01*
X209219Y1048921D01*
X209550Y1048894D01*
X285750Y1048894D01*
X285777Y1048896D01*
G37*
%LPC*%
G36*
X1357196Y764735D02*
X1357196Y764735D01*
X1354048Y766039D01*
X1351639Y768448D01*
X1350335Y771596D01*
X1350335Y775004D01*
X1351639Y778152D01*
X1354048Y780561D01*
X1357196Y781865D01*
X1360604Y781865D01*
X1363752Y780561D01*
X1366161Y778152D01*
X1367465Y775004D01*
X1367465Y771596D01*
X1366161Y768448D01*
X1363752Y766039D01*
X1360604Y764735D01*
X1357196Y764735D01*
G37*
%LPD*%
%LPC*%
G36*
X233384Y1107468D02*
X233384Y1107468D01*
X231168Y1109684D01*
X231168Y1112816D01*
X233384Y1115032D01*
X236516Y1115032D01*
X238732Y1112816D01*
X238732Y1109684D01*
X236516Y1107468D01*
X233384Y1107468D01*
G37*
%LPD*%
%LPC*%
G36*
X385784Y1107468D02*
X385784Y1107468D01*
X383568Y1109684D01*
X383568Y1112816D01*
X385784Y1115032D01*
X388916Y1115032D01*
X391132Y1112816D01*
X391132Y1109684D01*
X388916Y1107468D01*
X385784Y1107468D01*
G37*
%LPD*%
%LPC*%
G36*
X80984Y1107468D02*
X80984Y1107468D01*
X78768Y1109684D01*
X78768Y1112816D01*
X80984Y1115032D01*
X84116Y1115032D01*
X86332Y1112816D01*
X86332Y1109684D01*
X84116Y1107468D01*
X80984Y1107468D01*
G37*
%LPD*%
D10*
X88900Y692150D03*
D11*
X38100Y692150D03*
D10*
X1079500Y749300D03*
D12*
X1079500Y698500D03*
D10*
X971550Y749300D03*
D12*
X971550Y698500D03*
D13*
X514350Y499745D02*
X514350Y484505D01*
X488950Y484505D02*
X488950Y499745D01*
X463550Y499745D02*
X463550Y484505D01*
X438150Y484505D02*
X438150Y499745D01*
D14*
X190500Y190500D03*
X190500Y165100D03*
X190500Y139700D03*
X190500Y114300D03*
D15*
X1301750Y678942D02*
X1301750Y692658D01*
X1327150Y692658D02*
X1327150Y678942D01*
D16*
X1244600Y723900D03*
X1244600Y749300D03*
X1244600Y774700D03*
X1244600Y800100D03*
X1244600Y825500D03*
X1244600Y1079500D03*
X1244600Y1104900D03*
X1244600Y1130300D03*
X1244600Y1155700D03*
X1244600Y1181100D03*
X1244600Y1206500D03*
D17*
X1039400Y1295900D03*
X789400Y1295900D03*
D18*
X914400Y1281700D03*
X942100Y1281700D03*
X969800Y1281700D03*
X886700Y1281700D03*
X859000Y1281700D03*
X872850Y1310100D03*
X900550Y1310100D03*
X928250Y1310100D03*
X955950Y1310100D03*
D19*
X1155700Y1270000D03*
D20*
X1155700Y1330000D03*
D21*
X1203200Y1288000D03*
X1203200Y1335000D03*
X1108200Y1288000D03*
X1108200Y1335000D03*
D22*
X1447800Y628650D03*
X1422400Y628650D03*
X1447800Y654050D03*
X1422400Y654050D03*
X1447800Y679450D03*
X1422400Y679450D03*
X1447800Y704850D03*
X1422400Y704850D03*
X1447800Y730250D03*
X1422400Y730250D03*
X1447800Y755650D03*
X1422400Y755650D03*
X1447800Y781050D03*
X1422400Y781050D03*
X1447800Y806450D03*
X1422400Y806450D03*
X1447800Y831850D03*
X1422400Y831850D03*
X1447800Y857250D03*
X1422400Y857250D03*
X1447800Y882650D03*
X1422400Y882650D03*
X1447800Y908050D03*
X1422400Y908050D03*
X1447800Y933450D03*
X1422400Y933450D03*
X1447800Y958850D03*
X1422400Y958850D03*
X1447800Y984250D03*
X1422400Y984250D03*
X1447800Y1009650D03*
X1422400Y1009650D03*
X1447800Y1035050D03*
X1422400Y1035050D03*
X1447800Y1060450D03*
X1422400Y1060450D03*
X1447800Y1085850D03*
X1422400Y1085850D03*
X1447800Y1111250D03*
X1422400Y1111250D03*
D23*
X381000Y88900D03*
X355600Y88900D03*
X381000Y114300D03*
X355600Y114300D03*
X381000Y139700D03*
X355600Y139700D03*
D24*
X50800Y177800D03*
X76200Y177800D03*
X50800Y152400D03*
X76200Y152400D03*
X50800Y127000D03*
X76200Y127000D03*
D25*
X498475Y727075D03*
X498475Y752475D03*
X523875Y727075D03*
X523875Y752475D03*
X549275Y727075D03*
X549275Y752475D03*
X574675Y752475D03*
X574675Y727075D03*
D24*
X50800Y387350D03*
X76200Y387350D03*
X50800Y361950D03*
X76200Y361950D03*
X50800Y336550D03*
X76200Y336550D03*
X50800Y596900D03*
X76200Y596900D03*
X50800Y571500D03*
X76200Y571500D03*
X50800Y546100D03*
X76200Y546100D03*
D23*
X381000Y298450D03*
X355600Y298450D03*
X381000Y323850D03*
X355600Y323850D03*
X381000Y349250D03*
X355600Y349250D03*
D26*
X852678Y381000D02*
X861822Y381000D01*
X861822Y431800D02*
X852678Y431800D01*
D27*
X1457325Y342900D03*
X1457325Y368300D03*
X1457325Y393700D03*
X63500Y977900D03*
X88900Y977900D03*
X114300Y977900D03*
X1254125Y342900D03*
X1254125Y368300D03*
X1254125Y393700D03*
X215900Y977900D03*
X241300Y977900D03*
X266700Y977900D03*
X368300Y977900D03*
X393700Y977900D03*
X419100Y977900D03*
X1219200Y495300D03*
X1219200Y520700D03*
X1219200Y546100D03*
X406400Y838200D03*
X406400Y812800D03*
X406400Y787400D03*
D28*
X628650Y822325D03*
X603250Y822325D03*
X628650Y847725D03*
X603250Y847725D03*
X628650Y873125D03*
X603250Y873125D03*
X628650Y898525D03*
X603250Y898525D03*
X628650Y923925D03*
X603250Y923925D03*
X628650Y949325D03*
X603250Y949325D03*
X628650Y974725D03*
X603250Y974725D03*
D29*
X699250Y425725D03*
X699250Y380725D03*
X634250Y425725D03*
D30*
X634250Y380725D03*
D31*
X406400Y63500D03*
X406400Y88900D03*
X406400Y114300D03*
X406400Y139700D03*
X406400Y165100D03*
X406400Y190500D03*
X406400Y215900D03*
X406400Y241300D03*
X279400Y241300D03*
X279400Y215900D03*
X279400Y190500D03*
X279400Y165100D03*
X279400Y139700D03*
X279400Y114300D03*
X279400Y88900D03*
X279400Y63500D03*
X25400Y203200D03*
X25400Y177800D03*
X25400Y152400D03*
X25400Y127000D03*
X25400Y101600D03*
X25400Y76200D03*
X25400Y50800D03*
X25400Y25400D03*
X152400Y25400D03*
X152400Y50800D03*
X152400Y76200D03*
X152400Y101600D03*
X152400Y127000D03*
X152400Y152400D03*
X152400Y177800D03*
X152400Y203200D03*
X25400Y412750D03*
X25400Y387350D03*
X25400Y361950D03*
X25400Y336550D03*
X25400Y311150D03*
X25400Y285750D03*
X25400Y260350D03*
X25400Y234950D03*
X152400Y234950D03*
X152400Y260350D03*
X152400Y285750D03*
X152400Y311150D03*
X152400Y336550D03*
X152400Y361950D03*
X152400Y387350D03*
X152400Y412750D03*
X25400Y622300D03*
X25400Y596900D03*
X25400Y571500D03*
X25400Y546100D03*
X25400Y520700D03*
X25400Y495300D03*
X25400Y469900D03*
X25400Y444500D03*
X152400Y444500D03*
X152400Y469900D03*
X152400Y495300D03*
X152400Y520700D03*
X152400Y546100D03*
X152400Y571500D03*
X152400Y596900D03*
X152400Y622300D03*
X406400Y273050D03*
X406400Y298450D03*
X406400Y323850D03*
X406400Y349250D03*
X406400Y374650D03*
X406400Y400050D03*
X406400Y425450D03*
X406400Y450850D03*
X279400Y450850D03*
X279400Y425450D03*
X279400Y400050D03*
X279400Y374650D03*
X279400Y349250D03*
X279400Y323850D03*
X279400Y298450D03*
X279400Y273050D03*
D14*
X736600Y177800D03*
X736600Y152400D03*
X736600Y127000D03*
X762000Y177800D03*
X762000Y152400D03*
X762000Y127000D03*
X177800Y361950D03*
X177800Y336550D03*
X177800Y311150D03*
X177800Y285750D03*
D32*
X923925Y149225D02*
X923925Y130175D01*
X962025Y130175D02*
X962025Y149225D01*
X1368425Y149225D02*
X1368425Y130175D01*
X1406525Y130175D02*
X1406525Y149225D01*
X571500Y1260475D02*
X571500Y1279525D01*
X533400Y1279525D02*
X533400Y1260475D01*
X495300Y1260475D02*
X495300Y1279525D01*
X457200Y1279525D02*
X457200Y1260475D01*
X419100Y1260475D02*
X419100Y1279525D01*
X355600Y1279525D02*
X355600Y1260475D01*
X317500Y1260475D02*
X317500Y1279525D01*
X279400Y1279525D02*
X279400Y1260475D01*
X241300Y1260475D02*
X241300Y1279525D01*
X203200Y1279525D02*
X203200Y1260475D01*
X165100Y1260475D02*
X165100Y1279525D01*
X127000Y1279525D02*
X127000Y1260475D01*
X1165225Y149225D02*
X1165225Y130175D01*
X1203325Y130175D02*
X1203325Y149225D01*
X1025525Y149225D02*
X1025525Y130175D01*
X1063625Y130175D02*
X1063625Y149225D01*
D14*
X787400Y177800D03*
X787400Y152400D03*
X787400Y127000D03*
X812800Y177800D03*
X812800Y152400D03*
X812800Y127000D03*
X177800Y571500D03*
X177800Y546100D03*
X177800Y520700D03*
X177800Y495300D03*
X838200Y177800D03*
X838200Y152400D03*
X838200Y127000D03*
X254000Y323850D03*
X254000Y349250D03*
X254000Y374650D03*
X254000Y400050D03*
X254000Y114300D03*
X254000Y139700D03*
X254000Y165100D03*
X254000Y190500D03*
X647700Y177800D03*
X647700Y152400D03*
X647700Y127000D03*
X673100Y177800D03*
X673100Y152400D03*
X673100Y127000D03*
D33*
X536575Y619125D03*
X536575Y644525D03*
X511175Y644525D03*
X511175Y619125D03*
X561975Y619125D03*
X561975Y644525D03*
D13*
X803275Y274320D02*
X803275Y259080D01*
X828675Y259080D02*
X828675Y274320D01*
X854075Y274320D02*
X854075Y259080D01*
X879475Y259080D02*
X879475Y274320D01*
X803275Y290830D02*
X803275Y306070D01*
X828675Y306070D02*
X828675Y290830D01*
X854075Y290830D02*
X854075Y306070D01*
X879475Y306070D02*
X879475Y290830D01*
X803275Y322580D02*
X803275Y337820D01*
X828675Y337820D02*
X828675Y322580D01*
X854075Y322580D02*
X854075Y337820D01*
X879475Y337820D02*
X879475Y322580D01*
D23*
X987425Y393700D03*
X987425Y419100D03*
X987425Y444500D03*
X987425Y469900D03*
X987425Y495300D03*
X987425Y520700D03*
X962025Y393700D03*
X962025Y419100D03*
X962025Y444500D03*
X962025Y469900D03*
X962025Y495300D03*
X962025Y520700D03*
X987425Y546100D03*
X987425Y571500D03*
X962025Y546100D03*
X962025Y571500D03*
X987425Y596900D03*
X962025Y596900D03*
X987425Y622300D03*
X962025Y622300D03*
D34*
X1432350Y1262000D02*
X1432350Y1278000D01*
X1374350Y1278000D02*
X1374350Y1262000D01*
X1428350Y1298500D02*
X1428350Y1314500D01*
X1378350Y1314500D02*
X1378350Y1298500D01*
D35*
X1394600Y1361500D02*
X1412100Y1361500D01*
D34*
X1325350Y1264500D02*
X1325350Y1248500D01*
X1481350Y1248500D02*
X1481350Y1264500D01*
D24*
X1089025Y1212850D03*
X1089025Y1187450D03*
X1089025Y1162050D03*
X1089025Y1136650D03*
X1089025Y1111250D03*
X1114425Y1212850D03*
X1114425Y1187450D03*
X1114425Y1162050D03*
X1114425Y1136650D03*
X1114425Y1111250D03*
D32*
X1012825Y1330325D02*
X1012825Y1349375D01*
X974725Y1349375D02*
X974725Y1330325D01*
X936625Y1330325D02*
X936625Y1349375D01*
X898525Y1349375D02*
X898525Y1330325D01*
X860425Y1330325D02*
X860425Y1349375D01*
X822325Y1349375D02*
X822325Y1330325D01*
D27*
X1466850Y488950D03*
X1466850Y514350D03*
X1466850Y539750D03*
D36*
X689450Y1273875D02*
X689450Y1288125D01*
X669450Y1288125D02*
X669450Y1273875D01*
X714450Y1273875D02*
X714450Y1288125D01*
X644450Y1288125D02*
X644450Y1273875D01*
D37*
X745150Y1308100D03*
X613750Y1308100D03*
D32*
X104775Y819150D02*
X85725Y819150D01*
X85725Y857250D02*
X104775Y857250D01*
D38*
X647700Y695325D03*
X673100Y695325D03*
X698500Y695325D03*
X723900Y695325D03*
X749300Y695325D03*
X774700Y695325D03*
X647700Y720725D03*
X673100Y720725D03*
X698500Y720725D03*
X723900Y720725D03*
X749300Y720725D03*
X774700Y720725D03*
D32*
X831850Y1171575D02*
X831850Y1190625D01*
X793750Y1190625D02*
X793750Y1171575D01*
X755650Y1171575D02*
X755650Y1190625D01*
X717550Y1190625D02*
X717550Y1171575D01*
D39*
X368300Y850900D03*
X279400Y736600D03*
X279400Y711200D03*
X368300Y673100D03*
D40*
X431800Y749300D03*
D39*
X863600Y977900D03*
X863600Y990600D03*
X863600Y939800D03*
X863600Y927100D03*
X1054100Y698500D03*
X1003300Y698500D03*
X939800Y698500D03*
X863600Y787400D03*
X863600Y762000D03*
X1308100Y1162050D03*
X1358900Y1162050D03*
X1358900Y773300D03*
X1358900Y1030100D03*
D41*
X762000Y152400D02*
X736600Y152400D01*
X762000Y152400D02*
X787400Y152400D01*
X812800Y152400D01*
X838200Y152400D01*
D39*
X279400Y920750D03*
X444500Y914400D03*
D42*
X444500Y165100D03*
X812800Y606425D03*
X838200Y542925D03*
X714375Y552450D03*
D39*
X965200Y863600D03*
X482600Y1136650D03*
X482600Y1149350D03*
X330200Y1136650D03*
X330200Y1146175D03*
X177800Y1136650D03*
X177800Y1146175D03*
D42*
X1349375Y382700D03*
X1146175Y381000D03*
D39*
X1095375Y276225D03*
X1095375Y266700D03*
X1292225Y279400D03*
X1292225Y266700D03*
X898525Y279400D03*
X898525Y266700D03*
X1000125Y279400D03*
X1000125Y266700D03*
X968375Y25400D03*
X1019175Y25400D03*
D42*
X628650Y292100D03*
X387350Y1111250D03*
X234950Y1111250D03*
X82550Y1111250D03*
D39*
X1063625Y1158875D03*
X1063625Y1146175D03*
X704850Y1120775D03*
X704850Y1108075D03*
X593725Y1120775D03*
X593725Y1108075D03*
D43*
X1292225Y942975D03*
X1333500Y831850D03*
D42*
X854075Y1231900D03*
X479425Y295275D03*
X721280Y609600D03*
D39*
X593725Y1133475D03*
X593725Y1095375D03*
X584200Y1120775D03*
X584200Y1108075D03*
X695325Y1120775D03*
X695325Y1108075D03*
X1054100Y1158875D03*
X1054100Y1146175D03*
D41*
X699250Y380725D02*
X634250Y380725D01*
D40*
X1377950Y438150D03*
X1181100Y438150D03*
D44*
X1193800Y508000D03*
X1384300Y508000D03*
X1219200Y666750D03*
D43*
X450850Y990600D03*
X298450Y990600D03*
X146050Y984250D03*
D45*
X1244600Y1060450D02*
X1244600Y1079500D01*
D46*
X1244600Y1060450D02*
X1250950Y1054100D01*
X1371600Y1149350D02*
X1428750Y1206500D01*
X1428750Y1306100D01*
X1428350Y1306500D01*
X1346200Y1054100D02*
X1250950Y1054100D01*
X1346200Y1054100D02*
X1371600Y1079500D01*
X1371600Y1149350D01*
X1447800Y1111250D02*
X1447800Y1187450D01*
X1428750Y1206500D01*
D41*
X714375Y152400D02*
X673100Y152400D01*
X714375Y152400D02*
X736600Y152400D01*
X673100Y152400D02*
X647700Y152400D01*
D43*
X714375Y152400D03*
X943100Y1098550D03*
D39*
X146050Y901700D03*
X146050Y889000D03*
X133350Y901700D03*
X133350Y889000D03*
D42*
X869950Y82550D03*
X381000Y209550D03*
X50800Y469900D03*
X50800Y260350D03*
X50800Y50800D03*
X381000Y419100D03*
D47*
X927100Y431800D03*
X927100Y381000D03*
X736600Y444500D03*
X641350Y641350D03*
X854075Y663575D03*
D42*
X609600Y520700D03*
D41*
X596900Y520700D01*
X584200Y508000D01*
X584200Y50800D01*
X565150Y31750D01*
X38100Y63500D02*
X25400Y50800D01*
X254000Y50800D02*
X273050Y31750D01*
X254000Y50800D02*
X254000Y69850D01*
X273050Y31750D02*
X565150Y31750D01*
X193675Y88900D02*
X168275Y63500D01*
X193675Y88900D02*
X234950Y88900D01*
X254000Y69850D01*
X168275Y63500D02*
X38100Y63500D01*
D42*
X609600Y533400D03*
D41*
X584200Y533400D01*
X571500Y520700D01*
X571500Y63500D01*
X552450Y44450D01*
X215900Y107950D02*
X215900Y209550D01*
X209550Y215900D01*
X38100Y215900D01*
X25400Y203200D01*
X263525Y57150D02*
X276225Y44450D01*
X263525Y57150D02*
X263525Y82550D01*
X276225Y44450D02*
X552450Y44450D01*
X222250Y101600D02*
X215900Y107950D01*
X244475Y101600D02*
X263525Y82550D01*
X244475Y101600D02*
X222250Y101600D01*
D42*
X609600Y508000D03*
D41*
X596900Y495300D01*
X596900Y38100D01*
X577850Y19050D01*
X38100Y38100D02*
X25400Y25400D01*
X38100Y38100D02*
X161925Y38100D01*
X269875Y19050D02*
X577850Y19050D01*
X269875Y19050D02*
X243951Y44974D01*
X243951Y56626D01*
X230727Y69850D01*
X193675Y69850D02*
X161925Y38100D01*
X193675Y69850D02*
X230727Y69850D01*
D42*
X279400Y571500D03*
D41*
X254000Y571500D01*
X234950Y552450D01*
X234950Y438150D01*
X222250Y425450D01*
X38100Y425450D01*
X25400Y412750D01*
D42*
X279400Y558800D03*
D41*
X266700Y558800D01*
X247650Y539750D01*
X247650Y431800D01*
X38100Y273050D02*
X25400Y260350D01*
X215900Y285750D02*
X215900Y400050D01*
X247650Y431800D01*
X196850Y266700D02*
X171450Y266700D01*
X165100Y273050D01*
X38100Y273050D01*
X196850Y266700D02*
X215900Y285750D01*
D42*
X279400Y546100D03*
D41*
X260350Y527050D01*
X260350Y431800D01*
X38100Y247650D02*
X25400Y234950D01*
X38100Y247650D02*
X222250Y247650D01*
X228600Y254000D01*
X228600Y400050D01*
X260350Y431800D01*
D42*
X279400Y609600D03*
D43*
X101600Y609600D03*
D41*
X279400Y609600D01*
D42*
X279400Y596900D03*
D41*
X222250Y596900D01*
X203200Y577850D01*
X203200Y495300D01*
X38100Y482600D02*
X25400Y469900D01*
X165100Y482600D02*
X171450Y476250D01*
X165100Y482600D02*
X38100Y482600D01*
X184150Y476250D02*
X203200Y495300D01*
X184150Y476250D02*
X171450Y476250D01*
D42*
X279400Y584200D03*
D41*
X241300Y584200D01*
X215900Y558800D01*
X215900Y463550D01*
X209550Y457200D01*
X38100Y457200D01*
X25400Y444500D01*
D39*
X904875Y1212850D03*
D42*
X790575Y673100D03*
D41*
X790575Y742950D01*
X749935Y783590D01*
X749935Y1073150D01*
D42*
X749935Y1073150D03*
X796925Y1073150D03*
D41*
X928250Y1310100D02*
X928250Y1331475D01*
X936625Y1339850D01*
X812800Y1136650D02*
X796925Y1120775D01*
X812800Y1136650D02*
X895350Y1136650D01*
X904875Y1146175D01*
X904875Y1212850D01*
X796925Y1120775D02*
X796925Y1073150D01*
X650875Y504825D02*
X699250Y456450D01*
D48*
X612775Y619125D02*
X561975Y619125D01*
X612775Y619125D02*
X625475Y631825D01*
X641350Y631825D01*
X650875Y622300D01*
X650875Y504825D01*
D41*
X634250Y425725D02*
X699250Y425725D01*
X699250Y456450D01*
D42*
X800100Y673100D03*
D41*
X800100Y744855D01*
X759460Y785495D01*
X759460Y1082675D02*
X759460Y1094740D01*
X759460Y1082675D02*
X759460Y785495D01*
X622300Y1231900D02*
X533400Y1231900D01*
D39*
X533400Y1231900D03*
D41*
X622300Y1231900D02*
X759460Y1094740D01*
D43*
X759460Y1082675D03*
D42*
X847725Y669925D03*
D41*
X847725Y762000D01*
X806450Y803275D01*
X806450Y1111250D01*
X815975Y1120775D01*
X1000125Y1120775D01*
D39*
X1000125Y1120775D03*
D41*
X730250Y1063625D02*
X552450Y1063625D01*
D39*
X552450Y1063625D03*
D42*
X838200Y673100D03*
D41*
X838200Y758825D01*
X796925Y800100D01*
D42*
X796925Y1063625D03*
X730250Y1063625D03*
D41*
X796925Y1063625D02*
X796925Y800100D01*
D42*
X714375Y527050D03*
D41*
X698500Y746125D02*
X698500Y1047750D01*
D42*
X698500Y1047750D03*
D41*
X685800Y682625D02*
X676275Y673100D01*
X685800Y733425D02*
X698500Y746125D01*
X685800Y733425D02*
X685800Y682625D01*
D48*
X685800Y527050D02*
X714375Y527050D01*
X685800Y527050D02*
X663575Y549275D01*
X663575Y596900D02*
X657225Y603250D01*
X663575Y596900D02*
X663575Y549275D01*
X657225Y654050D02*
X676275Y673100D01*
X657225Y654050D02*
X657225Y603250D01*
D42*
X812800Y381000D03*
D48*
X798120Y381000D01*
D42*
X798120Y381000D03*
D40*
X527050Y266700D03*
D41*
X527050Y342900D01*
X533400Y349250D01*
D40*
X533400Y349250D03*
X558800Y323850D03*
D41*
X558800Y234950D01*
X552450Y228600D01*
D40*
X552450Y228600D03*
D42*
X631825Y508000D03*
D48*
X631825Y587375D01*
X628650Y590550D01*
X520700Y590550D02*
X511175Y600075D01*
X511175Y619125D01*
X520700Y590550D02*
X628650Y590550D01*
D42*
X638175Y511175D03*
X638175Y609600D03*
D48*
X638175Y511175D01*
D41*
X536575Y666750D02*
X498475Y704850D01*
X498475Y727075D01*
X536575Y666750D02*
X536575Y644525D01*
D42*
X606425Y666750D03*
D48*
X536575Y666750D01*
D42*
X809625Y673100D03*
D41*
X809625Y748030D01*
X768350Y789305D01*
X768350Y1092200D01*
D43*
X863600Y1092200D03*
D41*
X825500Y1092200D01*
D43*
X825500Y1092200D03*
X768350Y1092200D03*
D41*
X698500Y127000D02*
X673100Y127000D01*
X647700Y127000D01*
D42*
X1421765Y452120D03*
D48*
X1401445Y452120D02*
X1400175Y450850D01*
D42*
X1323975Y434975D03*
D41*
X1401445Y452120D02*
X1421765Y452120D01*
X1400175Y450850D02*
X1352550Y450850D01*
X1333500Y450850D01*
X1323975Y441325D01*
X1323975Y434975D01*
D45*
X1263650Y942975D02*
X1231900Y974725D01*
X1193800Y974725D02*
X1177925Y990600D01*
X1193800Y974725D02*
X1231900Y974725D01*
X213815Y1385390D02*
X203200Y1374775D01*
D39*
X203200Y1374775D03*
D45*
X213815Y1385390D02*
X717550Y1385390D01*
X945060Y1385390D01*
D39*
X949300Y1225550D03*
D45*
X835025Y609600D02*
X822325Y596900D01*
X835025Y609600D02*
X857250Y631825D01*
X822325Y596900D02*
X822325Y584200D01*
D39*
X822325Y584200D03*
D45*
X803275Y358775D02*
X885825Y358775D01*
X803275Y358775D02*
X803275Y330200D01*
D39*
X619125Y358775D03*
D45*
X631825Y358775D02*
X803275Y358775D01*
X631825Y358775D02*
X619125Y358775D01*
D39*
X631825Y358775D03*
X558800Y358775D03*
D45*
X558800Y390525D02*
X539750Y409575D01*
X514350Y409575D01*
X476250Y409575D01*
X409575Y476250D01*
X295275Y476250D01*
D39*
X279400Y476250D03*
D45*
X295275Y476250D01*
X558800Y381000D02*
X558800Y358775D01*
X558800Y381000D02*
X558800Y390525D01*
D39*
X295275Y476250D03*
X558800Y381000D03*
D49*
X514350Y409575D02*
X514350Y492125D01*
X558800Y358775D02*
X542925Y342900D01*
X542925Y295275D01*
X541338Y293688D01*
D42*
X541338Y293688D03*
D49*
X511175Y644525D02*
X488950Y644525D01*
X409575Y565150D02*
X409575Y476250D01*
X409575Y565150D02*
X488950Y644525D01*
D41*
X1400175Y393700D02*
X1457325Y393700D01*
D45*
X1177925Y1225550D02*
X1165225Y1238250D01*
X1177925Y1225550D02*
X1177925Y990600D01*
X1003300Y1238250D02*
X993775Y1247775D01*
X1114425Y1238250D02*
X1165225Y1238250D01*
X1114425Y1238250D02*
X1003300Y1238250D01*
D41*
X971525Y1247775D02*
X949300Y1225550D01*
X971525Y1247775D02*
X993775Y1247775D01*
D45*
X1114425Y1212850D02*
X1114425Y1187450D01*
X1114425Y1212850D02*
X1114425Y1238250D01*
X974725Y1355725D02*
X945060Y1385390D01*
X974725Y1355725D02*
X974725Y1339850D01*
X993775Y1301750D02*
X993775Y1247775D01*
X993775Y1301750D02*
X974725Y1320800D01*
X974725Y1339850D01*
D40*
X1352550Y400050D03*
D48*
X1393825Y400050D01*
X1400175Y393700D01*
X1254125Y393700D02*
X1155700Y393700D01*
X1149350Y400050D01*
D40*
X1149350Y400050D03*
D45*
X1244600Y850900D02*
X1263650Y869950D01*
X1219200Y850900D02*
X1212850Y844550D01*
X1212850Y806450D01*
X1219200Y800100D01*
X1244600Y800100D01*
X1263650Y869950D02*
X1263650Y942975D01*
X1244600Y850900D02*
X1219200Y850900D01*
D41*
X1352550Y450850D02*
X1352550Y400050D01*
D44*
X920750Y631825D03*
D45*
X908050Y631825D02*
X857250Y631825D01*
D44*
X908050Y631825D03*
D41*
X1254125Y393700D02*
X1263650Y403225D01*
D44*
X1193800Y485775D03*
D45*
X1184275Y485775D01*
X1174750Y495300D01*
X1174750Y552450D02*
X1187450Y565150D01*
X1174750Y552450D02*
X1174750Y495300D01*
X1257300Y666750D02*
X1250950Y673100D01*
D44*
X1250950Y673100D03*
D45*
X1257300Y565150D02*
X1187450Y565150D01*
X1257300Y565150D02*
X1257300Y666750D01*
D41*
X1263650Y558800D02*
X1263650Y403225D01*
X1263650Y558800D02*
X1257300Y565150D01*
D43*
X698500Y127000D03*
D45*
X714450Y1281000D02*
X714450Y1382290D01*
X717550Y1385390D01*
D41*
X698500Y127000D02*
X736600Y127000D01*
X762000Y127000D01*
X787400Y127000D01*
X812800Y127000D01*
X838200Y127000D01*
D49*
X857250Y127000D02*
X863600Y133350D01*
X803275Y257175D02*
X803275Y266700D01*
X838200Y127000D02*
X857250Y127000D01*
X863600Y133350D02*
X863600Y196850D01*
X803275Y257175D01*
X803275Y266700D02*
X803275Y298450D01*
X803275Y330200D01*
D45*
X914400Y330200D02*
X1016000Y330200D01*
X1028700Y342900D01*
D44*
X1028700Y641350D03*
D45*
X885825Y358775D02*
X914400Y330200D01*
X1028700Y342900D02*
X1028700Y628650D01*
X1028700Y641350D01*
D44*
X1028700Y628650D03*
D45*
X920750Y631825D02*
X908050Y631825D01*
D47*
X835025Y609600D03*
D43*
X750570Y445770D03*
D48*
X850900Y393700D02*
X857250Y387350D01*
X857250Y381000D01*
X850900Y393700D02*
X802640Y393700D01*
X750570Y445770D01*
D50*
X1435100Y844550D02*
X1447800Y831850D01*
X1435100Y844550D02*
X1368425Y844550D01*
D43*
X1368425Y844550D03*
D41*
X1447800Y628650D02*
X1460500Y628650D01*
X1470025Y638175D01*
X1470025Y819150D01*
X1457325Y831850D01*
X1447800Y831850D01*
D42*
X682625Y600075D03*
X1244600Y920750D03*
D41*
X1244600Y879475D01*
X682625Y628650D02*
X682625Y600075D01*
X682625Y628650D02*
X698500Y644525D01*
X876300Y644525D02*
X889000Y657225D01*
X876300Y644525D02*
X698500Y644525D01*
X1111250Y657225D02*
X1181100Y727075D01*
X1111250Y657225D02*
X889000Y657225D01*
X1181100Y854075D02*
X1190625Y863600D01*
X1181100Y854075D02*
X1181100Y727075D01*
X1228725Y863600D02*
X1244600Y879475D01*
X1228725Y863600D02*
X1190625Y863600D01*
D42*
X673100Y606425D03*
D41*
X673100Y635000D01*
X692150Y654050D01*
X863600Y654050D02*
X879475Y669925D01*
X863600Y654050D02*
X692150Y654050D01*
X1108075Y669925D02*
X1168400Y730250D01*
X1108075Y669925D02*
X879475Y669925D01*
X1168400Y730250D02*
X1168400Y857250D01*
X1187450Y876300D01*
D42*
X1235075Y885825D03*
D41*
X1225550Y876300D01*
X1187450Y876300D01*
D42*
X644525Y514350D03*
D48*
X536575Y606425D02*
X536575Y619125D01*
X536575Y606425D02*
X542925Y600075D01*
X641350Y622300D02*
X644525Y619125D01*
X641350Y622300D02*
X635000Y622300D01*
X628650Y606425D02*
X622300Y600075D01*
X542925Y600075D01*
X644525Y619125D02*
X644525Y514350D01*
X628650Y615950D02*
X635000Y622300D01*
X628650Y615950D02*
X628650Y606425D01*
D39*
X152400Y660400D03*
X139700Y660400D03*
X127000Y660400D03*
X127000Y647700D03*
X139700Y647700D03*
X152400Y647700D03*
X228600Y660400D03*
X241300Y660400D03*
X254000Y660400D03*
X254000Y647700D03*
X241300Y647700D03*
X228600Y647700D03*
X444500Y889000D03*
X390300Y638200D03*
X1003300Y1028700D03*
X1003300Y1016000D03*
X990600Y1028700D03*
X990600Y1016000D03*
X1054100Y1028700D03*
X1054100Y1016000D03*
X1066800Y1028700D03*
X1066800Y1016000D03*
X946150Y1003300D03*
X946150Y977900D03*
X946150Y914400D03*
D42*
X314325Y1047750D03*
X161925Y1050925D03*
X466725Y1047750D03*
D39*
X1444625Y165100D03*
D44*
X1358900Y463550D03*
D45*
X1244600Y1104900D02*
X1244600Y1130300D01*
D46*
X1314450Y1130300D02*
X1333500Y1149350D01*
X1314450Y1130300D02*
X1244600Y1130300D01*
X1378350Y1232300D02*
X1378350Y1306500D01*
X1333500Y1187450D02*
X1333500Y1149350D01*
X1333500Y1187450D02*
X1378350Y1232300D01*
D39*
X698500Y1238250D03*
X711200Y1238250D03*
D45*
X190500Y190500D02*
X152400Y152400D01*
X152400Y127000D02*
X190500Y165100D01*
X190500Y139700D02*
X152400Y101600D01*
X152400Y76200D02*
X190500Y114300D01*
X177800Y361950D02*
X152400Y361950D01*
X152400Y336550D02*
X177800Y336550D01*
X177800Y311150D02*
X152400Y311150D01*
X152400Y285750D02*
X177800Y285750D01*
X177800Y571500D02*
X152400Y571500D01*
X152400Y546100D02*
X177800Y546100D01*
X177800Y520700D02*
X152400Y520700D01*
X152400Y495300D02*
X177800Y495300D01*
X254000Y323850D02*
X279400Y323850D01*
X279400Y349250D02*
X254000Y349250D01*
X254000Y374650D02*
X279400Y374650D01*
X279400Y400050D02*
X254000Y400050D01*
X254000Y114300D02*
X279400Y114300D01*
X279400Y139700D02*
X254000Y139700D01*
X254000Y165100D02*
X279400Y165100D01*
X279400Y190500D02*
X254000Y190500D01*
D40*
X495300Y63500D03*
D41*
X495300Y203200D01*
D40*
X495300Y203200D03*
X508000Y266700D03*
D41*
X508000Y190500D01*
D40*
X508000Y190500D03*
X431800Y400050D03*
D41*
X431800Y190500D01*
D40*
X431800Y190500D03*
X444500Y228600D03*
D41*
X444500Y412750D01*
D40*
X444500Y412750D03*
D42*
X714375Y488950D03*
D50*
X714375Y514350D01*
X723900Y523875D01*
D41*
X682625Y660400D02*
X711200Y688975D01*
D42*
X711200Y857250D03*
D41*
X711200Y688975D01*
D50*
X714375Y488950D02*
X720725Y482600D01*
D42*
X762000Y482600D03*
D50*
X720725Y482600D01*
D48*
X723900Y523875D02*
X723900Y530225D01*
X717550Y536575D01*
X685800Y536575D01*
X669925Y552450D01*
X669925Y600075D02*
X663575Y606425D01*
X669925Y600075D02*
X669925Y552450D01*
X663575Y641350D02*
X682625Y660400D01*
X663575Y641350D02*
X663575Y606425D01*
D42*
X1285875Y307975D03*
D41*
X1155700Y288925D02*
X1076325Y368300D01*
D42*
X1076325Y368300D03*
D41*
X1285875Y307975D02*
X1285875Y295275D01*
X1279525Y288925D01*
X1155700Y288925D01*
D42*
X889000Y615950D03*
D41*
X889000Y501650D01*
X911225Y479425D01*
X911225Y454025D01*
D40*
X911225Y454025D03*
D41*
X911225Y422275D01*
X939800Y374650D02*
X946150Y368300D01*
D47*
X946150Y368300D03*
D41*
X939800Y393700D02*
X911225Y422275D01*
X939800Y393700D02*
X939800Y374650D01*
D39*
X1266825Y323850D03*
X1266825Y314325D03*
X1266825Y304800D03*
D45*
X1266825Y314325D01*
X1266825Y323850D01*
X1279525Y336550D01*
X1279525Y669925D01*
X1257300Y692150D01*
X1219200Y692150D01*
X1206500Y704850D01*
X1206500Y749300D01*
D44*
X1206500Y749300D03*
D42*
X863600Y615950D03*
D41*
X863600Y482600D02*
X885825Y460375D01*
D40*
X885825Y460375D03*
D41*
X863600Y482600D02*
X863600Y615950D01*
X885825Y460375D02*
X885825Y384175D01*
X927100Y342900D02*
X939800Y342900D01*
D47*
X939800Y342900D03*
D41*
X927100Y342900D02*
X885825Y384175D01*
D39*
X1260475Y139700D03*
D45*
X1311275Y441325D02*
X1298575Y454025D01*
X1311275Y441325D02*
X1311275Y161925D01*
X1289050Y139700D01*
X1285875Y139700D01*
D39*
X1273175Y139700D03*
X1285875Y139700D03*
D45*
X1260475Y139700D01*
D44*
X1298575Y654050D03*
D45*
X1298575Y454025D01*
D44*
X1066800Y527050D03*
X1066800Y514350D03*
X1066800Y501650D03*
X1066800Y488950D03*
X1066800Y476250D03*
X1066800Y539750D03*
X1155700Y565150D03*
X1092200Y565150D03*
X1104900Y565150D03*
X1117600Y565150D03*
X1130300Y565150D03*
X1143000Y565150D03*
D40*
X1104900Y438150D03*
D41*
X1155700Y438150D01*
X1181100Y463550D02*
X1225550Y463550D01*
X1238250Y476250D01*
X1238250Y539750D01*
X1231900Y546100D01*
X1219200Y546100D01*
X1181100Y463550D02*
X1155700Y438150D01*
D42*
X222250Y1041400D03*
D41*
X288925Y1041400D01*
X330200Y1082675D01*
X330200Y1111250D01*
X317500Y1123950D01*
X317500Y1168400D01*
X330200Y1181100D01*
D42*
X330200Y1181100D03*
X517525Y822325D03*
D41*
X473075Y822325D01*
X457200Y838200D01*
X457200Y923925D02*
X434975Y946150D01*
X206375Y946150D02*
X200025Y952500D01*
X200025Y1222375D01*
X234950Y1222375D02*
X254000Y1241425D01*
X304800Y1241425D01*
X317500Y1254125D01*
X317500Y1270000D01*
X457200Y923925D02*
X457200Y838200D01*
X434975Y946150D02*
X206375Y946150D01*
X200025Y1222375D02*
X234950Y1222375D01*
D39*
X215900Y1139825D03*
X228600Y1139825D03*
X241300Y1139825D03*
X254000Y1139825D03*
X266700Y1139825D03*
D42*
X69850Y1041400D03*
D41*
X136525Y1041400D02*
X177800Y1082675D01*
X177800Y1117600D01*
X165100Y1130300D01*
X165100Y1168400D01*
X177800Y1181100D01*
D42*
X177800Y1181100D03*
D41*
X136525Y1041400D02*
X69850Y1041400D01*
D42*
X517525Y796925D03*
D41*
X476250Y796925D01*
X431800Y841375D01*
X431800Y920750D02*
X419100Y933450D01*
X203200Y933450D02*
X190500Y946150D01*
X190500Y1228725D02*
X193675Y1231900D01*
X228600Y1231900D02*
X241300Y1244600D01*
X241300Y1270000D01*
X431800Y920750D02*
X431800Y841375D01*
X419100Y933450D02*
X203200Y933450D01*
X190500Y946150D02*
X190500Y1228725D01*
X193675Y1231900D02*
X228600Y1231900D01*
D39*
X44450Y1139825D03*
X57150Y1139825D03*
X69850Y1139825D03*
X82550Y1139825D03*
X95250Y1139825D03*
X107950Y1139825D03*
D42*
X374650Y1041400D03*
D41*
X441325Y1041400D02*
X482600Y1082675D01*
X482600Y1117600D01*
X469900Y1130300D01*
X469900Y1168400D01*
X482600Y1181100D01*
D42*
X482600Y1181100D03*
D41*
X441325Y1041400D02*
X374650Y1041400D01*
D42*
X517525Y847725D03*
D41*
X476250Y847725D01*
X469900Y854075D01*
X469900Y923925D02*
X492125Y946150D01*
X492125Y1127125D02*
X498475Y1133475D01*
X498475Y1203325D01*
X457200Y1244600D01*
X457200Y1270000D01*
X469900Y923925D02*
X469900Y854075D01*
X492125Y946150D02*
X492125Y1127125D01*
D39*
X355600Y1139825D03*
X368300Y1139825D03*
X381000Y1139825D03*
X393700Y1139825D03*
X406400Y1139825D03*
X419100Y1139825D03*
D41*
X184150Y1346200D02*
X165100Y1327150D01*
X165100Y1270000D01*
X184150Y1346200D02*
X222250Y1346200D01*
D42*
X222250Y1346200D03*
X819150Y673100D03*
D41*
X819150Y752475D01*
X777875Y793750D01*
X777875Y1235075D01*
D42*
X777875Y1235075D03*
X688975Y1330325D03*
X285750Y1339850D03*
D41*
X285750Y1333500D01*
X288925Y1330325D02*
X688975Y1330325D01*
X288925Y1330325D02*
X285750Y1333500D01*
D42*
X730250Y609600D03*
D50*
X790575Y609600D02*
X815975Y635000D01*
X790575Y609600D02*
X730250Y609600D01*
D42*
X815975Y635000D03*
D47*
X876300Y371475D03*
D41*
X876300Y457200D01*
D47*
X876300Y457200D03*
D42*
X622300Y1079500D03*
D41*
X622300Y1168400D01*
X615950Y1174750D01*
D42*
X615950Y1174750D03*
X815975Y974725D03*
D41*
X815975Y1101725D01*
X822325Y1108075D01*
X958850Y1108075D01*
D43*
X958850Y1108075D03*
D50*
X619125Y542925D02*
X622300Y539750D01*
X619125Y542925D02*
X498475Y542925D01*
X488950Y533400D01*
X488950Y492125D01*
X622300Y498475D02*
X622300Y539750D01*
X670155Y450620D02*
X688975Y450620D01*
X670155Y450620D02*
X622300Y498475D01*
D42*
X688975Y450620D03*
X711200Y450850D03*
D50*
X711200Y463550D01*
X717550Y469900D01*
X787400Y469900D01*
X793750Y476250D01*
X793750Y482600D01*
D42*
X793750Y482600D03*
X828675Y673100D03*
D41*
X828675Y755650D01*
X787400Y796925D01*
X914400Y1241425D02*
X914400Y1281700D01*
D39*
X930275Y1225550D03*
D41*
X914400Y1241425D01*
X914400Y1281700D02*
X914400Y1323975D01*
X898525Y1339850D01*
X806450Y1149350D02*
X787400Y1130300D01*
X882650Y1149350D02*
X889000Y1155700D01*
X889000Y1193800D01*
D43*
X889000Y1193800D03*
D41*
X787400Y1130300D02*
X787400Y796925D01*
X806450Y1149350D02*
X882650Y1149350D01*
D40*
X330200Y895350D03*
D41*
X330200Y819150D01*
X323850Y812800D01*
D40*
X323850Y812800D03*
D42*
X311150Y812800D03*
D41*
X311150Y774700D02*
X317500Y768350D01*
X311150Y774700D02*
X311150Y812800D01*
X441325Y768350D02*
X508000Y768350D01*
X441325Y768350D02*
X317500Y768350D01*
D42*
X508000Y768350D03*
X441325Y768350D03*
X876300Y615950D03*
D41*
X876300Y492125D02*
X898525Y469900D01*
X898525Y457200D01*
D40*
X898525Y457200D03*
D41*
X876300Y492125D02*
X876300Y615950D01*
X898525Y457200D02*
X898525Y396875D01*
X939800Y355600D01*
D47*
X939800Y355600D03*
D42*
X657225Y593725D03*
D50*
X657225Y520700D02*
X708025Y469900D01*
D42*
X708025Y469900D03*
D50*
X657225Y520700D02*
X657225Y593725D01*
D42*
X612775Y736600D03*
D41*
X669925Y736600D01*
X685800Y752475D01*
X685800Y996950D01*
D42*
X685800Y996950D03*
X835025Y996950D03*
D41*
X889000Y1050925D01*
X1098550Y1050925D01*
X1120775Y1028700D01*
X1120775Y942975D02*
X1171575Y892175D01*
X1222375Y892175D01*
X1120775Y942975D02*
X1120775Y1028700D01*
D42*
X1222375Y892175D03*
D41*
X584200Y762000D02*
X574675Y752475D01*
X647700Y762000D02*
X660400Y774700D01*
X647700Y762000D02*
X584200Y762000D01*
X660400Y774700D02*
X660400Y1035050D01*
D42*
X660400Y1035050D03*
X825500Y1035050D03*
D41*
X879475Y1089025D01*
X1108075Y1089025D01*
X1158875Y1038225D01*
X1158875Y955675D02*
X1193800Y920750D01*
X1222375Y920750D01*
X1158875Y955675D02*
X1158875Y1038225D01*
D42*
X1222375Y920750D03*
D41*
X549275Y765175D02*
X549275Y752475D01*
X549275Y765175D02*
X558800Y774700D01*
X638175Y774700D02*
X647700Y784225D01*
X638175Y774700D02*
X558800Y774700D01*
X647700Y784225D02*
X647700Y1022350D01*
D42*
X647700Y1022350D03*
X828675Y1022350D03*
D41*
X882650Y1076325D01*
X1104900Y1076325D01*
X1146175Y1035050D01*
X1146175Y949325D02*
X1184275Y911225D01*
X1222375Y911225D01*
X1146175Y949325D02*
X1146175Y1035050D01*
D42*
X1222375Y911225D03*
D41*
X536575Y739775D02*
X523875Y752475D01*
X600075Y739775D02*
X609600Y749300D01*
X600075Y739775D02*
X536575Y739775D01*
X660400Y749300D02*
X673100Y762000D01*
X660400Y749300D02*
X609600Y749300D01*
X673100Y762000D02*
X673100Y1009650D01*
D42*
X673100Y1009650D03*
X831850Y1009650D03*
D41*
X885825Y1063625D01*
X1101725Y1063625D01*
X1133475Y1031875D01*
X1133475Y946150D02*
X1177925Y901700D01*
X1222375Y901700D01*
X1133475Y946150D02*
X1133475Y1031875D01*
D42*
X1222375Y901700D03*
D44*
X1460500Y152400D03*
D45*
X1460500Y311150D01*
X1479550Y330200D01*
X1479550Y419100D02*
X1441450Y457200D01*
X1441450Y539750D01*
X1422400Y539750D01*
D44*
X1422400Y539750D03*
D45*
X1479550Y419100D02*
X1479550Y330200D01*
D44*
X1371600Y539750D03*
X1320800Y565150D03*
X1333500Y565150D03*
X1346200Y565150D03*
X1358900Y565150D03*
X1358900Y552450D03*
X1358900Y539750D03*
X1346200Y552450D03*
X1371600Y565150D03*
X1371600Y552450D03*
D40*
X1320800Y463550D03*
D41*
X1339850Y482600D01*
X1422400Y482600D01*
D40*
X1422400Y482600D03*
D43*
X756920Y454660D03*
D48*
X756920Y449580D01*
X787400Y419100D01*
X850900Y419100D01*
X857250Y425450D01*
X857250Y431800D01*
M02*
