G04 EAGLE Gerber RS-274X export*
G75*
%MOMM*%
%FSLAX34Y34*%
%LPD*%
%INSilkscreen Bottom*%
%IPPOS*%
%AMOC8*
5,1,8,0,0,1.08239X$1,22.5*%
G01*
%ADD10C,0.152400*%
%ADD11C,0.127000*%
%ADD12C,0.203200*%
%ADD13R,0.508000X0.508000*%
%ADD14C,0.177800*%


D10*
X520700Y504825D02*
X508000Y504825D01*
X501650Y498475D01*
X501650Y485775D02*
X508000Y479425D01*
X501650Y498475D02*
X495300Y504825D01*
X482600Y504825D01*
X476250Y498475D01*
X476250Y485775D02*
X482600Y479425D01*
X495300Y479425D01*
X501650Y485775D01*
X527050Y485775D02*
X527050Y498475D01*
X520700Y504825D01*
X527050Y485775D02*
X520700Y479425D01*
X508000Y479425D01*
X476250Y498475D02*
X469900Y504825D01*
X457200Y504825D01*
X450850Y498475D01*
X450850Y485775D02*
X457200Y479425D01*
X469900Y479425D01*
X476250Y485775D01*
X444500Y504825D02*
X431800Y504825D01*
X425450Y498475D01*
X425450Y485775D01*
X431800Y479425D01*
X450850Y498475D02*
X444500Y504825D01*
X450850Y485775D02*
X444500Y479425D01*
X431800Y479425D01*
D11*
X534670Y497840D02*
X537845Y495300D01*
X534670Y497840D02*
X534670Y486410D01*
X537845Y486410D02*
X531495Y486410D01*
X422275Y488950D02*
X419735Y497840D01*
X422275Y488950D02*
X415925Y488950D01*
X417830Y491490D02*
X417830Y486410D01*
X526415Y509270D02*
X526415Y520700D01*
X523240Y520700D01*
X523129Y520698D01*
X523019Y520692D01*
X522908Y520683D01*
X522798Y520669D01*
X522689Y520652D01*
X522580Y520631D01*
X522472Y520606D01*
X522365Y520577D01*
X522259Y520545D01*
X522154Y520509D01*
X522051Y520469D01*
X521949Y520426D01*
X521848Y520379D01*
X521749Y520328D01*
X521653Y520275D01*
X521558Y520218D01*
X521465Y520157D01*
X521374Y520094D01*
X521285Y520027D01*
X521199Y519957D01*
X521116Y519884D01*
X521034Y519809D01*
X520956Y519731D01*
X520881Y519649D01*
X520808Y519566D01*
X520738Y519480D01*
X520671Y519391D01*
X520608Y519300D01*
X520547Y519207D01*
X520490Y519113D01*
X520437Y519016D01*
X520386Y518917D01*
X520339Y518816D01*
X520296Y518714D01*
X520256Y518611D01*
X520220Y518506D01*
X520188Y518400D01*
X520159Y518293D01*
X520134Y518185D01*
X520113Y518076D01*
X520096Y517967D01*
X520082Y517857D01*
X520073Y517746D01*
X520067Y517636D01*
X520065Y517525D01*
X520065Y512445D01*
X520067Y512334D01*
X520073Y512224D01*
X520082Y512113D01*
X520096Y512003D01*
X520113Y511894D01*
X520134Y511785D01*
X520159Y511677D01*
X520188Y511570D01*
X520220Y511464D01*
X520256Y511359D01*
X520296Y511256D01*
X520339Y511154D01*
X520386Y511053D01*
X520437Y510954D01*
X520490Y510858D01*
X520547Y510763D01*
X520608Y510670D01*
X520671Y510579D01*
X520738Y510490D01*
X520808Y510404D01*
X520881Y510321D01*
X520956Y510239D01*
X521034Y510161D01*
X521116Y510086D01*
X521199Y510013D01*
X521285Y509943D01*
X521374Y509876D01*
X521465Y509813D01*
X521558Y509752D01*
X521653Y509695D01*
X521749Y509642D01*
X521848Y509591D01*
X521949Y509544D01*
X522051Y509501D01*
X522154Y509461D01*
X522259Y509425D01*
X522365Y509393D01*
X522472Y509364D01*
X522580Y509339D01*
X522689Y509318D01*
X522798Y509301D01*
X522908Y509287D01*
X523019Y509278D01*
X523129Y509272D01*
X523240Y509270D01*
X526415Y509270D01*
X514223Y509270D02*
X514223Y520700D01*
X514223Y515620D02*
X507873Y515620D01*
X507873Y520700D02*
X507873Y509270D01*
X499999Y509270D02*
X499999Y520700D01*
X503174Y520700D02*
X496824Y520700D01*
X492506Y518160D02*
X489331Y520700D01*
X489331Y509270D01*
X492506Y509270D02*
X486156Y509270D01*
D10*
X177800Y196850D02*
X177800Y184150D01*
X184150Y177800D01*
X196850Y177800D02*
X203200Y184150D01*
X184150Y177800D02*
X177800Y171450D01*
X177800Y158750D01*
X184150Y152400D01*
X196850Y152400D02*
X203200Y158750D01*
X203200Y171450D01*
X196850Y177800D01*
X196850Y203200D02*
X184150Y203200D01*
X177800Y196850D01*
X196850Y203200D02*
X203200Y196850D01*
X203200Y184150D01*
X184150Y152400D02*
X177800Y146050D01*
X177800Y133350D01*
X184150Y127000D01*
X196850Y127000D02*
X203200Y133350D01*
X203200Y146050D01*
X196850Y152400D01*
X177800Y120650D02*
X177800Y107950D01*
X184150Y101600D01*
X196850Y101600D01*
X203200Y107950D01*
X184150Y127000D02*
X177800Y120650D01*
X196850Y127000D02*
X203200Y120650D01*
X203200Y107950D01*
D11*
X193675Y207645D02*
X196215Y210820D01*
X184785Y210820D01*
X184785Y207645D02*
X184785Y213995D01*
X196215Y94615D02*
X187325Y92075D01*
X187325Y98425D01*
X189865Y96520D02*
X184785Y96520D01*
X212725Y125247D02*
X212725Y130327D01*
X212725Y125247D02*
X224155Y125247D01*
X224155Y130327D01*
X219075Y129057D02*
X219075Y125247D01*
X218440Y134747D02*
X218665Y134750D01*
X218890Y134758D01*
X219114Y134771D01*
X219338Y134790D01*
X219562Y134814D01*
X219785Y134843D01*
X220007Y134878D01*
X220228Y134918D01*
X220448Y134964D01*
X220667Y135014D01*
X220885Y135070D01*
X221102Y135131D01*
X221317Y135197D01*
X221530Y135268D01*
X221741Y135345D01*
X221951Y135426D01*
X222159Y135512D01*
X222364Y135603D01*
X222567Y135699D01*
X222568Y135699D02*
X222656Y135731D01*
X222743Y135767D01*
X222829Y135806D01*
X222913Y135849D01*
X222995Y135895D01*
X223075Y135944D01*
X223153Y135996D01*
X223229Y136052D01*
X223303Y136110D01*
X223374Y136172D01*
X223443Y136236D01*
X223509Y136303D01*
X223572Y136372D01*
X223633Y136444D01*
X223691Y136518D01*
X223745Y136595D01*
X223797Y136673D01*
X223845Y136754D01*
X223890Y136836D01*
X223932Y136921D01*
X223970Y137007D01*
X224005Y137094D01*
X224037Y137182D01*
X224064Y137272D01*
X224089Y137363D01*
X224109Y137455D01*
X224126Y137547D01*
X224139Y137641D01*
X224148Y137734D01*
X224154Y137828D01*
X224156Y137922D01*
X224154Y138016D01*
X224148Y138110D01*
X224139Y138203D01*
X224126Y138297D01*
X224109Y138389D01*
X224089Y138481D01*
X224064Y138572D01*
X224037Y138662D01*
X224005Y138750D01*
X223970Y138837D01*
X223932Y138923D01*
X223890Y139008D01*
X223845Y139090D01*
X223797Y139171D01*
X223745Y139249D01*
X223691Y139326D01*
X223633Y139400D01*
X223572Y139472D01*
X223509Y139541D01*
X223443Y139608D01*
X223374Y139672D01*
X223303Y139734D01*
X223229Y139792D01*
X223153Y139848D01*
X223075Y139900D01*
X222995Y139949D01*
X222913Y139995D01*
X222829Y140038D01*
X222743Y140077D01*
X222656Y140113D01*
X222568Y140145D01*
X222567Y140145D02*
X222364Y140241D01*
X222159Y140332D01*
X221951Y140418D01*
X221741Y140499D01*
X221530Y140576D01*
X221317Y140647D01*
X221102Y140713D01*
X220885Y140774D01*
X220667Y140830D01*
X220448Y140880D01*
X220228Y140926D01*
X220007Y140966D01*
X219785Y141001D01*
X219562Y141030D01*
X219338Y141054D01*
X219114Y141073D01*
X218890Y141086D01*
X218665Y141094D01*
X218440Y141097D01*
X218440Y134747D02*
X218215Y134750D01*
X217990Y134758D01*
X217766Y134771D01*
X217542Y134790D01*
X217318Y134814D01*
X217095Y134843D01*
X216873Y134878D01*
X216652Y134918D01*
X216432Y134964D01*
X216213Y135014D01*
X215995Y135070D01*
X215778Y135131D01*
X215563Y135197D01*
X215350Y135268D01*
X215139Y135345D01*
X214929Y135426D01*
X214721Y135512D01*
X214516Y135603D01*
X214313Y135699D01*
X214225Y135731D01*
X214138Y135767D01*
X214052Y135806D01*
X213968Y135849D01*
X213886Y135895D01*
X213806Y135944D01*
X213728Y135996D01*
X213652Y136052D01*
X213578Y136110D01*
X213507Y136172D01*
X213438Y136236D01*
X213372Y136303D01*
X213309Y136372D01*
X213248Y136444D01*
X213190Y136518D01*
X213136Y136595D01*
X213084Y136673D01*
X213036Y136754D01*
X212991Y136836D01*
X212949Y136921D01*
X212911Y137007D01*
X212876Y137094D01*
X212844Y137182D01*
X212817Y137272D01*
X212792Y137363D01*
X212772Y137455D01*
X212755Y137547D01*
X212742Y137641D01*
X212733Y137734D01*
X212727Y137828D01*
X212725Y137922D01*
X214313Y140145D02*
X214516Y140241D01*
X214721Y140332D01*
X214929Y140418D01*
X215139Y140499D01*
X215350Y140576D01*
X215563Y140647D01*
X215778Y140713D01*
X215995Y140774D01*
X216213Y140830D01*
X216432Y140880D01*
X216652Y140926D01*
X216873Y140966D01*
X217095Y141001D01*
X217318Y141030D01*
X217542Y141054D01*
X217766Y141073D01*
X217990Y141086D01*
X218215Y141094D01*
X218440Y141097D01*
X214313Y140145D02*
X214225Y140113D01*
X214138Y140077D01*
X214052Y140038D01*
X213968Y139995D01*
X213886Y139949D01*
X213806Y139900D01*
X213728Y139848D01*
X213652Y139792D01*
X213578Y139734D01*
X213507Y139672D01*
X213438Y139608D01*
X213372Y139541D01*
X213309Y139472D01*
X213248Y139400D01*
X213190Y139326D01*
X213136Y139249D01*
X213084Y139171D01*
X213036Y139090D01*
X212991Y139008D01*
X212949Y138923D01*
X212911Y138837D01*
X212876Y138750D01*
X212844Y138662D01*
X212817Y138572D01*
X212792Y138481D01*
X212772Y138389D01*
X212755Y138297D01*
X212742Y138203D01*
X212733Y138110D01*
X212727Y138016D01*
X212725Y137922D01*
X215265Y135382D02*
X221615Y140462D01*
X217170Y146304D02*
X217170Y153924D01*
X212725Y159639D02*
X224155Y159639D01*
X217805Y163449D01*
X224155Y167259D01*
X212725Y167259D01*
X215900Y172847D02*
X220980Y172847D01*
X221091Y172849D01*
X221201Y172855D01*
X221312Y172864D01*
X221422Y172878D01*
X221531Y172895D01*
X221640Y172916D01*
X221748Y172941D01*
X221855Y172970D01*
X221961Y173002D01*
X222066Y173038D01*
X222169Y173078D01*
X222271Y173121D01*
X222372Y173168D01*
X222471Y173219D01*
X222567Y173272D01*
X222662Y173329D01*
X222755Y173390D01*
X222846Y173453D01*
X222935Y173520D01*
X223021Y173590D01*
X223104Y173663D01*
X223186Y173738D01*
X223264Y173816D01*
X223339Y173898D01*
X223412Y173981D01*
X223482Y174067D01*
X223549Y174156D01*
X223612Y174247D01*
X223673Y174340D01*
X223730Y174434D01*
X223783Y174531D01*
X223834Y174630D01*
X223881Y174731D01*
X223924Y174833D01*
X223964Y174936D01*
X224000Y175041D01*
X224032Y175147D01*
X224061Y175254D01*
X224086Y175362D01*
X224107Y175471D01*
X224124Y175580D01*
X224138Y175690D01*
X224147Y175801D01*
X224153Y175911D01*
X224155Y176022D01*
X224153Y176133D01*
X224147Y176243D01*
X224138Y176354D01*
X224124Y176464D01*
X224107Y176573D01*
X224086Y176682D01*
X224061Y176790D01*
X224032Y176897D01*
X224000Y177003D01*
X223964Y177108D01*
X223924Y177211D01*
X223881Y177313D01*
X223834Y177414D01*
X223783Y177513D01*
X223730Y177609D01*
X223673Y177704D01*
X223612Y177797D01*
X223549Y177888D01*
X223482Y177977D01*
X223412Y178063D01*
X223339Y178146D01*
X223264Y178228D01*
X223186Y178306D01*
X223104Y178381D01*
X223021Y178454D01*
X222935Y178524D01*
X222846Y178591D01*
X222755Y178654D01*
X222662Y178715D01*
X222568Y178772D01*
X222471Y178825D01*
X222372Y178876D01*
X222271Y178923D01*
X222169Y178966D01*
X222066Y179006D01*
X221961Y179042D01*
X221855Y179074D01*
X221748Y179103D01*
X221640Y179128D01*
X221531Y179149D01*
X221422Y179166D01*
X221312Y179180D01*
X221201Y179189D01*
X221091Y179195D01*
X220980Y179197D01*
X215900Y179197D01*
X215789Y179195D01*
X215679Y179189D01*
X215568Y179180D01*
X215458Y179166D01*
X215349Y179149D01*
X215240Y179128D01*
X215132Y179103D01*
X215025Y179074D01*
X214919Y179042D01*
X214814Y179006D01*
X214711Y178966D01*
X214609Y178923D01*
X214508Y178876D01*
X214409Y178825D01*
X214313Y178772D01*
X214218Y178715D01*
X214125Y178654D01*
X214034Y178591D01*
X213945Y178524D01*
X213859Y178454D01*
X213776Y178381D01*
X213694Y178306D01*
X213616Y178228D01*
X213541Y178146D01*
X213468Y178063D01*
X213398Y177977D01*
X213331Y177888D01*
X213268Y177797D01*
X213207Y177704D01*
X213150Y177610D01*
X213097Y177513D01*
X213046Y177414D01*
X212999Y177313D01*
X212956Y177211D01*
X212916Y177108D01*
X212880Y177003D01*
X212848Y176897D01*
X212819Y176790D01*
X212794Y176682D01*
X212773Y176573D01*
X212756Y176464D01*
X212742Y176354D01*
X212733Y176243D01*
X212727Y176133D01*
X212725Y176022D01*
X212727Y175911D01*
X212733Y175801D01*
X212742Y175690D01*
X212756Y175580D01*
X212773Y175471D01*
X212794Y175362D01*
X212819Y175254D01*
X212848Y175147D01*
X212880Y175041D01*
X212916Y174936D01*
X212956Y174833D01*
X212999Y174731D01*
X213046Y174630D01*
X213097Y174531D01*
X213150Y174435D01*
X213207Y174340D01*
X213268Y174247D01*
X213331Y174156D01*
X213398Y174067D01*
X213468Y173981D01*
X213541Y173898D01*
X213616Y173816D01*
X213694Y173738D01*
X213776Y173663D01*
X213859Y173590D01*
X213945Y173520D01*
X214034Y173453D01*
X214125Y173390D01*
X214218Y173329D01*
X214313Y173272D01*
X214409Y173219D01*
X214508Y173168D01*
X214609Y173121D01*
X214711Y173078D01*
X214814Y173038D01*
X214919Y173002D01*
X215025Y172970D01*
X215132Y172941D01*
X215240Y172916D01*
X215349Y172895D01*
X215458Y172878D01*
X215568Y172864D01*
X215679Y172855D01*
X215789Y172849D01*
X215900Y172847D01*
X212725Y186690D02*
X224155Y186690D01*
X224155Y183515D02*
X224155Y189865D01*
D12*
X1463230Y622300D02*
X1463230Y635000D01*
D10*
X723900Y184150D02*
X723900Y171450D01*
X730250Y165100D01*
X742950Y165100D02*
X749300Y171450D01*
X730250Y165100D02*
X723900Y158750D01*
X723900Y146050D01*
X730250Y139700D01*
X742950Y139700D02*
X749300Y146050D01*
X749300Y158750D01*
X742950Y165100D01*
X742950Y190500D02*
X730250Y190500D01*
X723900Y184150D01*
X742950Y190500D02*
X749300Y184150D01*
X749300Y171450D01*
X730250Y139700D02*
X723900Y133350D01*
X723900Y120650D01*
X730250Y114300D01*
X742950Y114300D02*
X749300Y120650D01*
X749300Y133350D01*
X742950Y139700D01*
X742950Y114300D02*
X730250Y114300D01*
D11*
X739775Y196215D02*
X742315Y199390D01*
X730885Y199390D01*
X730885Y196215D02*
X730885Y202565D01*
D13*
X736600Y177800D03*
D11*
X741680Y91948D02*
X730250Y84328D01*
X730250Y91948D02*
X741680Y84328D01*
X734695Y96520D02*
X734695Y104140D01*
X730885Y100330D02*
X738505Y100330D01*
D10*
X749300Y171450D02*
X749300Y184150D01*
X749300Y171450D02*
X755650Y165100D01*
X768350Y165100D02*
X774700Y171450D01*
X755650Y165100D02*
X749300Y158750D01*
X749300Y146050D01*
X755650Y139700D01*
X768350Y139700D02*
X774700Y146050D01*
X774700Y158750D01*
X768350Y165100D01*
X768350Y190500D02*
X755650Y190500D01*
X749300Y184150D01*
X768350Y190500D02*
X774700Y184150D01*
X774700Y171450D01*
X755650Y139700D02*
X749300Y133350D01*
X749300Y120650D01*
X755650Y114300D01*
X768350Y114300D02*
X774700Y120650D01*
X774700Y133350D01*
X768350Y139700D01*
X768350Y114300D02*
X755650Y114300D01*
D11*
X765175Y196215D02*
X767715Y199390D01*
X756285Y199390D01*
X756285Y196215D02*
X756285Y202565D01*
D13*
X762000Y177800D03*
D11*
X767080Y91948D02*
X755650Y84328D01*
X755650Y91948D02*
X767080Y84328D01*
X760095Y96520D02*
X760095Y104140D01*
D10*
X165100Y355600D02*
X165100Y368300D01*
X165100Y355600D02*
X171450Y349250D01*
X184150Y349250D02*
X190500Y355600D01*
X171450Y349250D02*
X165100Y342900D01*
X165100Y330200D01*
X171450Y323850D01*
X184150Y323850D02*
X190500Y330200D01*
X190500Y342900D01*
X184150Y349250D01*
X184150Y374650D02*
X171450Y374650D01*
X165100Y368300D01*
X184150Y374650D02*
X190500Y368300D01*
X190500Y355600D01*
X171450Y323850D02*
X165100Y317500D01*
X165100Y304800D01*
X171450Y298450D01*
X184150Y298450D02*
X190500Y304800D01*
X190500Y317500D01*
X184150Y323850D01*
X165100Y292100D02*
X165100Y279400D01*
X171450Y273050D01*
X184150Y273050D01*
X190500Y279400D01*
X171450Y298450D02*
X165100Y292100D01*
X184150Y298450D02*
X190500Y292100D01*
X190500Y279400D01*
D11*
X180975Y379095D02*
X183515Y382270D01*
X172085Y382270D01*
X172085Y379095D02*
X172085Y385445D01*
X183515Y266065D02*
X174625Y263525D01*
X174625Y269875D01*
X177165Y267970D02*
X172085Y267970D01*
X193675Y299212D02*
X205105Y306832D01*
X205105Y299212D02*
X193675Y306832D01*
X198120Y311404D02*
X198120Y319024D01*
X193675Y324739D02*
X205105Y324739D01*
X198755Y328549D01*
X205105Y332359D01*
X193675Y332359D01*
X196850Y337947D02*
X201930Y337947D01*
X202041Y337949D01*
X202151Y337955D01*
X202262Y337964D01*
X202372Y337978D01*
X202481Y337995D01*
X202590Y338016D01*
X202698Y338041D01*
X202805Y338070D01*
X202911Y338102D01*
X203016Y338138D01*
X203119Y338178D01*
X203221Y338221D01*
X203322Y338268D01*
X203421Y338319D01*
X203517Y338372D01*
X203612Y338429D01*
X203705Y338490D01*
X203796Y338553D01*
X203885Y338620D01*
X203971Y338690D01*
X204054Y338763D01*
X204136Y338838D01*
X204214Y338916D01*
X204289Y338998D01*
X204362Y339081D01*
X204432Y339167D01*
X204499Y339256D01*
X204562Y339347D01*
X204623Y339440D01*
X204680Y339534D01*
X204733Y339631D01*
X204784Y339730D01*
X204831Y339831D01*
X204874Y339933D01*
X204914Y340036D01*
X204950Y340141D01*
X204982Y340247D01*
X205011Y340354D01*
X205036Y340462D01*
X205057Y340571D01*
X205074Y340680D01*
X205088Y340790D01*
X205097Y340901D01*
X205103Y341011D01*
X205105Y341122D01*
X205103Y341233D01*
X205097Y341343D01*
X205088Y341454D01*
X205074Y341564D01*
X205057Y341673D01*
X205036Y341782D01*
X205011Y341890D01*
X204982Y341997D01*
X204950Y342103D01*
X204914Y342208D01*
X204874Y342311D01*
X204831Y342413D01*
X204784Y342514D01*
X204733Y342613D01*
X204680Y342709D01*
X204623Y342804D01*
X204562Y342897D01*
X204499Y342988D01*
X204432Y343077D01*
X204362Y343163D01*
X204289Y343246D01*
X204214Y343328D01*
X204136Y343406D01*
X204054Y343481D01*
X203971Y343554D01*
X203885Y343624D01*
X203796Y343691D01*
X203705Y343754D01*
X203612Y343815D01*
X203518Y343872D01*
X203421Y343925D01*
X203322Y343976D01*
X203221Y344023D01*
X203119Y344066D01*
X203016Y344106D01*
X202911Y344142D01*
X202805Y344174D01*
X202698Y344203D01*
X202590Y344228D01*
X202481Y344249D01*
X202372Y344266D01*
X202262Y344280D01*
X202151Y344289D01*
X202041Y344295D01*
X201930Y344297D01*
X196850Y344297D01*
X196739Y344295D01*
X196629Y344289D01*
X196518Y344280D01*
X196408Y344266D01*
X196299Y344249D01*
X196190Y344228D01*
X196082Y344203D01*
X195975Y344174D01*
X195869Y344142D01*
X195764Y344106D01*
X195661Y344066D01*
X195559Y344023D01*
X195458Y343976D01*
X195359Y343925D01*
X195263Y343872D01*
X195168Y343815D01*
X195075Y343754D01*
X194984Y343691D01*
X194895Y343624D01*
X194809Y343554D01*
X194726Y343481D01*
X194644Y343406D01*
X194566Y343328D01*
X194491Y343246D01*
X194418Y343163D01*
X194348Y343077D01*
X194281Y342988D01*
X194218Y342897D01*
X194157Y342804D01*
X194100Y342710D01*
X194047Y342613D01*
X193996Y342514D01*
X193949Y342413D01*
X193906Y342311D01*
X193866Y342208D01*
X193830Y342103D01*
X193798Y341997D01*
X193769Y341890D01*
X193744Y341782D01*
X193723Y341673D01*
X193706Y341564D01*
X193692Y341454D01*
X193683Y341343D01*
X193677Y341233D01*
X193675Y341122D01*
X193677Y341011D01*
X193683Y340901D01*
X193692Y340790D01*
X193706Y340680D01*
X193723Y340571D01*
X193744Y340462D01*
X193769Y340354D01*
X193798Y340247D01*
X193830Y340141D01*
X193866Y340036D01*
X193906Y339933D01*
X193949Y339831D01*
X193996Y339730D01*
X194047Y339631D01*
X194100Y339535D01*
X194157Y339440D01*
X194218Y339347D01*
X194281Y339256D01*
X194348Y339167D01*
X194418Y339081D01*
X194491Y338998D01*
X194566Y338916D01*
X194644Y338838D01*
X194726Y338763D01*
X194809Y338690D01*
X194895Y338620D01*
X194984Y338553D01*
X195075Y338490D01*
X195168Y338429D01*
X195263Y338372D01*
X195359Y338319D01*
X195458Y338268D01*
X195559Y338221D01*
X195661Y338178D01*
X195764Y338138D01*
X195869Y338102D01*
X195975Y338070D01*
X196082Y338041D01*
X196190Y338016D01*
X196299Y337995D01*
X196408Y337978D01*
X196518Y337964D01*
X196629Y337955D01*
X196739Y337949D01*
X196850Y337947D01*
X193675Y351790D02*
X205105Y351790D01*
X205105Y348615D02*
X205105Y354965D01*
X898525Y107950D02*
X987425Y107950D01*
X987425Y179070D01*
X898525Y179070D02*
X898525Y107950D01*
X904875Y113030D02*
X904875Y165735D01*
X929005Y165735D02*
X941705Y165735D01*
X918845Y165735D02*
X904875Y165735D01*
X909955Y168275D02*
X909955Y173990D01*
X909955Y168275D02*
X918845Y168275D01*
X918845Y165735D01*
X937895Y168275D02*
X937895Y173990D01*
X937895Y168275D02*
X929005Y168275D01*
X929005Y165735D01*
X937895Y173990D02*
X909955Y173990D01*
X898525Y179070D02*
X987425Y179070D01*
X941705Y165735D02*
X941705Y113030D01*
X934720Y113030D02*
X934493Y113290D01*
X934259Y113545D01*
X934019Y113793D01*
X933773Y114036D01*
X933522Y114273D01*
X933264Y114504D01*
X933001Y114728D01*
X932733Y114946D01*
X932460Y115157D01*
X932181Y115361D01*
X931898Y115559D01*
X931609Y115750D01*
X931317Y115933D01*
X931020Y116110D01*
X930718Y116279D01*
X930413Y116441D01*
X930104Y116595D01*
X929791Y116742D01*
X929474Y116881D01*
X929155Y117012D01*
X928832Y117135D01*
X928506Y117251D01*
X928178Y117359D01*
X927847Y117458D01*
X927514Y117550D01*
X927179Y117633D01*
X926841Y117708D01*
X926502Y117775D01*
X926162Y117834D01*
X925820Y117884D01*
X925477Y117926D01*
X925133Y117959D01*
X924788Y117985D01*
X924443Y118002D01*
X924098Y118010D01*
X923752Y118010D01*
X923407Y118002D01*
X923062Y117985D01*
X922717Y117959D01*
X922373Y117926D01*
X922030Y117884D01*
X921688Y117834D01*
X921348Y117775D01*
X921009Y117708D01*
X920671Y117633D01*
X920336Y117550D01*
X920003Y117458D01*
X919672Y117359D01*
X919344Y117251D01*
X919018Y117135D01*
X918695Y117012D01*
X918376Y116881D01*
X918059Y116742D01*
X917746Y116595D01*
X917437Y116441D01*
X917132Y116279D01*
X916830Y116110D01*
X916533Y115933D01*
X916241Y115750D01*
X915952Y115559D01*
X915669Y115361D01*
X915390Y115157D01*
X915117Y114946D01*
X914849Y114728D01*
X914586Y114504D01*
X914328Y114273D01*
X914077Y114036D01*
X913831Y113793D01*
X913591Y113545D01*
X913357Y113290D01*
X913130Y113030D01*
X934720Y113030D02*
X941705Y113030D01*
X913130Y113030D02*
X904875Y113030D01*
D14*
X971306Y94361D02*
X981974Y78359D01*
X971306Y78359D02*
X981974Y94361D01*
X965454Y90805D02*
X961009Y94361D01*
X961009Y78359D01*
X965454Y78359D02*
X956564Y78359D01*
D11*
X1343025Y107950D02*
X1431925Y107950D01*
X1431925Y179070D01*
X1343025Y179070D02*
X1343025Y107950D01*
X1349375Y113030D02*
X1349375Y165735D01*
X1373505Y165735D02*
X1386205Y165735D01*
X1363345Y165735D02*
X1349375Y165735D01*
X1354455Y168275D02*
X1354455Y173990D01*
X1354455Y168275D02*
X1363345Y168275D01*
X1363345Y165735D01*
X1382395Y168275D02*
X1382395Y173990D01*
X1382395Y168275D02*
X1373505Y168275D01*
X1373505Y165735D01*
X1382395Y173990D02*
X1354455Y173990D01*
X1343025Y179070D02*
X1431925Y179070D01*
X1386205Y165735D02*
X1386205Y113030D01*
X1379220Y113030D02*
X1378993Y113290D01*
X1378759Y113545D01*
X1378519Y113793D01*
X1378273Y114036D01*
X1378022Y114273D01*
X1377764Y114504D01*
X1377501Y114728D01*
X1377233Y114946D01*
X1376960Y115157D01*
X1376681Y115361D01*
X1376398Y115559D01*
X1376109Y115750D01*
X1375817Y115933D01*
X1375520Y116110D01*
X1375218Y116279D01*
X1374913Y116441D01*
X1374604Y116595D01*
X1374291Y116742D01*
X1373974Y116881D01*
X1373655Y117012D01*
X1373332Y117135D01*
X1373006Y117251D01*
X1372678Y117359D01*
X1372347Y117458D01*
X1372014Y117550D01*
X1371679Y117633D01*
X1371341Y117708D01*
X1371002Y117775D01*
X1370662Y117834D01*
X1370320Y117884D01*
X1369977Y117926D01*
X1369633Y117959D01*
X1369288Y117985D01*
X1368943Y118002D01*
X1368598Y118010D01*
X1368252Y118010D01*
X1367907Y118002D01*
X1367562Y117985D01*
X1367217Y117959D01*
X1366873Y117926D01*
X1366530Y117884D01*
X1366188Y117834D01*
X1365848Y117775D01*
X1365509Y117708D01*
X1365171Y117633D01*
X1364836Y117550D01*
X1364503Y117458D01*
X1364172Y117359D01*
X1363844Y117251D01*
X1363518Y117135D01*
X1363195Y117012D01*
X1362876Y116881D01*
X1362559Y116742D01*
X1362246Y116595D01*
X1361937Y116441D01*
X1361632Y116279D01*
X1361330Y116110D01*
X1361033Y115933D01*
X1360741Y115750D01*
X1360452Y115559D01*
X1360169Y115361D01*
X1359890Y115157D01*
X1359617Y114946D01*
X1359349Y114728D01*
X1359086Y114504D01*
X1358828Y114273D01*
X1358577Y114036D01*
X1358331Y113793D01*
X1358091Y113545D01*
X1357857Y113290D01*
X1357630Y113030D01*
X1379220Y113030D02*
X1386205Y113030D01*
X1357630Y113030D02*
X1349375Y113030D01*
D14*
X1418981Y97536D02*
X1429649Y81534D01*
X1418981Y81534D02*
X1429649Y97536D01*
X1408240Y97537D02*
X1408114Y97535D01*
X1407989Y97529D01*
X1407863Y97519D01*
X1407739Y97505D01*
X1407614Y97488D01*
X1407490Y97466D01*
X1407367Y97441D01*
X1407245Y97411D01*
X1407124Y97378D01*
X1407004Y97341D01*
X1406885Y97300D01*
X1406767Y97256D01*
X1406651Y97208D01*
X1406536Y97156D01*
X1406424Y97101D01*
X1406313Y97042D01*
X1406203Y96980D01*
X1406096Y96914D01*
X1405991Y96845D01*
X1405888Y96773D01*
X1405788Y96697D01*
X1405690Y96619D01*
X1405594Y96537D01*
X1405501Y96453D01*
X1405411Y96365D01*
X1405323Y96275D01*
X1405239Y96182D01*
X1405157Y96086D01*
X1405079Y95988D01*
X1405003Y95888D01*
X1404931Y95785D01*
X1404862Y95680D01*
X1404796Y95573D01*
X1404734Y95463D01*
X1404675Y95352D01*
X1404620Y95240D01*
X1404568Y95125D01*
X1404520Y95009D01*
X1404476Y94891D01*
X1404435Y94772D01*
X1404398Y94652D01*
X1404365Y94531D01*
X1404335Y94409D01*
X1404310Y94286D01*
X1404288Y94162D01*
X1404271Y94037D01*
X1404257Y93913D01*
X1404247Y93787D01*
X1404241Y93662D01*
X1404239Y93536D01*
X1408240Y97536D02*
X1408381Y97534D01*
X1408521Y97528D01*
X1408661Y97519D01*
X1408801Y97505D01*
X1408940Y97488D01*
X1409079Y97467D01*
X1409218Y97442D01*
X1409355Y97414D01*
X1409492Y97381D01*
X1409628Y97345D01*
X1409763Y97305D01*
X1409896Y97262D01*
X1410029Y97215D01*
X1410160Y97164D01*
X1410289Y97110D01*
X1410417Y97052D01*
X1410544Y96991D01*
X1410669Y96926D01*
X1410791Y96858D01*
X1410912Y96787D01*
X1411032Y96712D01*
X1411148Y96634D01*
X1411263Y96553D01*
X1411376Y96469D01*
X1411486Y96381D01*
X1411594Y96291D01*
X1411699Y96198D01*
X1411801Y96102D01*
X1411901Y96003D01*
X1411999Y95902D01*
X1412093Y95798D01*
X1412185Y95691D01*
X1412273Y95582D01*
X1412359Y95471D01*
X1412441Y95357D01*
X1412521Y95241D01*
X1412597Y95123D01*
X1412670Y95003D01*
X1412739Y94881D01*
X1412806Y94757D01*
X1412869Y94631D01*
X1412928Y94504D01*
X1412984Y94375D01*
X1413036Y94245D01*
X1413085Y94113D01*
X1413130Y93980D01*
X1405573Y90424D02*
X1405481Y90515D01*
X1405391Y90608D01*
X1405305Y90703D01*
X1405221Y90801D01*
X1405141Y90902D01*
X1405063Y91005D01*
X1404989Y91110D01*
X1404918Y91218D01*
X1404850Y91327D01*
X1404786Y91439D01*
X1404724Y91552D01*
X1404667Y91667D01*
X1404612Y91784D01*
X1404561Y91903D01*
X1404514Y92023D01*
X1404471Y92144D01*
X1404431Y92266D01*
X1404395Y92390D01*
X1404362Y92515D01*
X1404333Y92640D01*
X1404308Y92767D01*
X1404287Y92894D01*
X1404270Y93022D01*
X1404256Y93150D01*
X1404247Y93278D01*
X1404241Y93407D01*
X1404239Y93536D01*
X1405573Y90424D02*
X1413129Y81534D01*
X1404239Y81534D01*
D11*
X596900Y1301750D02*
X393700Y1301750D01*
X393700Y1230630D01*
X596900Y1230630D02*
X596900Y1301750D01*
X590550Y1296670D02*
X590550Y1243965D01*
X566420Y1243965D02*
X553720Y1243965D01*
X576580Y1243965D02*
X590550Y1243965D01*
X585470Y1241425D02*
X585470Y1235710D01*
X585470Y1241425D02*
X576580Y1241425D01*
X576580Y1243965D01*
X557530Y1241425D02*
X557530Y1235710D01*
X557530Y1241425D02*
X566420Y1241425D01*
X566420Y1243965D01*
X557530Y1235710D02*
X585470Y1235710D01*
X596900Y1230630D02*
X393700Y1230630D01*
X553720Y1243965D02*
X553720Y1296670D01*
X560705Y1296670D02*
X560932Y1296410D01*
X561166Y1296155D01*
X561406Y1295907D01*
X561652Y1295664D01*
X561903Y1295427D01*
X562161Y1295196D01*
X562424Y1294972D01*
X562692Y1294754D01*
X562965Y1294543D01*
X563244Y1294339D01*
X563527Y1294141D01*
X563816Y1293950D01*
X564108Y1293767D01*
X564405Y1293590D01*
X564707Y1293421D01*
X565012Y1293259D01*
X565321Y1293105D01*
X565634Y1292958D01*
X565951Y1292819D01*
X566270Y1292688D01*
X566593Y1292565D01*
X566919Y1292449D01*
X567247Y1292341D01*
X567578Y1292242D01*
X567911Y1292150D01*
X568246Y1292067D01*
X568584Y1291992D01*
X568923Y1291925D01*
X569263Y1291866D01*
X569605Y1291816D01*
X569948Y1291774D01*
X570292Y1291741D01*
X570637Y1291715D01*
X570982Y1291698D01*
X571327Y1291690D01*
X571673Y1291690D01*
X572018Y1291698D01*
X572363Y1291715D01*
X572708Y1291741D01*
X573052Y1291774D01*
X573395Y1291816D01*
X573737Y1291866D01*
X574077Y1291925D01*
X574416Y1291992D01*
X574754Y1292067D01*
X575089Y1292150D01*
X575422Y1292242D01*
X575753Y1292341D01*
X576081Y1292449D01*
X576407Y1292565D01*
X576730Y1292688D01*
X577049Y1292819D01*
X577366Y1292958D01*
X577679Y1293105D01*
X577988Y1293259D01*
X578293Y1293421D01*
X578595Y1293590D01*
X578892Y1293767D01*
X579184Y1293950D01*
X579473Y1294141D01*
X579756Y1294339D01*
X580035Y1294543D01*
X580308Y1294754D01*
X580576Y1294972D01*
X580839Y1295196D01*
X581097Y1295427D01*
X581348Y1295664D01*
X581594Y1295907D01*
X581834Y1296155D01*
X582068Y1296410D01*
X582295Y1296670D01*
X560705Y1296670D02*
X553720Y1296670D01*
X582295Y1296670D02*
X590550Y1296670D01*
D14*
X596011Y1308989D02*
X585343Y1324991D01*
X596011Y1324991D02*
X585343Y1308989D01*
X579491Y1312545D02*
X575935Y1324991D01*
X579491Y1312545D02*
X570601Y1312545D01*
X573268Y1316101D02*
X573268Y1308989D01*
D11*
X381000Y1301750D02*
X101600Y1301750D01*
X101600Y1230630D01*
X381000Y1230630D02*
X381000Y1301750D01*
X374650Y1296670D02*
X374650Y1243965D01*
X350520Y1243965D02*
X337820Y1243965D01*
X360680Y1243965D02*
X374650Y1243965D01*
X369570Y1241425D02*
X369570Y1235710D01*
X369570Y1241425D02*
X360680Y1241425D01*
X360680Y1243965D01*
X341630Y1241425D02*
X341630Y1235710D01*
X341630Y1241425D02*
X350520Y1241425D01*
X350520Y1243965D01*
X341630Y1235710D02*
X369570Y1235710D01*
X381000Y1230630D02*
X101600Y1230630D01*
X337820Y1243965D02*
X337820Y1296670D01*
X344805Y1296670D02*
X345032Y1296410D01*
X345266Y1296155D01*
X345506Y1295907D01*
X345752Y1295664D01*
X346003Y1295427D01*
X346261Y1295196D01*
X346524Y1294972D01*
X346792Y1294754D01*
X347065Y1294543D01*
X347344Y1294339D01*
X347627Y1294141D01*
X347916Y1293950D01*
X348208Y1293767D01*
X348505Y1293590D01*
X348807Y1293421D01*
X349112Y1293259D01*
X349421Y1293105D01*
X349734Y1292958D01*
X350051Y1292819D01*
X350370Y1292688D01*
X350693Y1292565D01*
X351019Y1292449D01*
X351347Y1292341D01*
X351678Y1292242D01*
X352011Y1292150D01*
X352346Y1292067D01*
X352684Y1291992D01*
X353023Y1291925D01*
X353363Y1291866D01*
X353705Y1291816D01*
X354048Y1291774D01*
X354392Y1291741D01*
X354737Y1291715D01*
X355082Y1291698D01*
X355427Y1291690D01*
X355773Y1291690D01*
X356118Y1291698D01*
X356463Y1291715D01*
X356808Y1291741D01*
X357152Y1291774D01*
X357495Y1291816D01*
X357837Y1291866D01*
X358177Y1291925D01*
X358516Y1291992D01*
X358854Y1292067D01*
X359189Y1292150D01*
X359522Y1292242D01*
X359853Y1292341D01*
X360181Y1292449D01*
X360507Y1292565D01*
X360830Y1292688D01*
X361149Y1292819D01*
X361466Y1292958D01*
X361779Y1293105D01*
X362088Y1293259D01*
X362393Y1293421D01*
X362695Y1293590D01*
X362992Y1293767D01*
X363284Y1293950D01*
X363573Y1294141D01*
X363856Y1294339D01*
X364135Y1294543D01*
X364408Y1294754D01*
X364676Y1294972D01*
X364939Y1295196D01*
X365197Y1295427D01*
X365448Y1295664D01*
X365694Y1295907D01*
X365934Y1296155D01*
X366168Y1296410D01*
X366395Y1296670D01*
X344805Y1296670D02*
X337820Y1296670D01*
X366395Y1296670D02*
X374650Y1296670D01*
D14*
X380111Y1308989D02*
X369443Y1324991D01*
X380111Y1324991D02*
X369443Y1308989D01*
X363591Y1308989D02*
X358257Y1308989D01*
X358141Y1308991D01*
X358024Y1308997D01*
X357908Y1309006D01*
X357793Y1309019D01*
X357678Y1309036D01*
X357563Y1309057D01*
X357450Y1309082D01*
X357337Y1309110D01*
X357225Y1309142D01*
X357114Y1309178D01*
X357004Y1309217D01*
X356896Y1309260D01*
X356789Y1309306D01*
X356684Y1309356D01*
X356581Y1309409D01*
X356479Y1309465D01*
X356379Y1309525D01*
X356281Y1309588D01*
X356186Y1309655D01*
X356092Y1309724D01*
X356001Y1309796D01*
X355912Y1309871D01*
X355826Y1309950D01*
X355743Y1310031D01*
X355662Y1310114D01*
X355583Y1310200D01*
X355508Y1310289D01*
X355436Y1310380D01*
X355367Y1310474D01*
X355300Y1310569D01*
X355237Y1310667D01*
X355177Y1310767D01*
X355121Y1310869D01*
X355068Y1310972D01*
X355018Y1311077D01*
X354972Y1311184D01*
X354929Y1311292D01*
X354890Y1311402D01*
X354854Y1311513D01*
X354822Y1311625D01*
X354794Y1311738D01*
X354769Y1311851D01*
X354748Y1311966D01*
X354731Y1312081D01*
X354718Y1312196D01*
X354709Y1312312D01*
X354703Y1312429D01*
X354701Y1312545D01*
X354701Y1314323D01*
X354703Y1314439D01*
X354709Y1314556D01*
X354718Y1314672D01*
X354731Y1314787D01*
X354748Y1314902D01*
X354769Y1315017D01*
X354794Y1315130D01*
X354822Y1315243D01*
X354854Y1315355D01*
X354890Y1315466D01*
X354929Y1315576D01*
X354972Y1315684D01*
X355018Y1315791D01*
X355068Y1315896D01*
X355121Y1315999D01*
X355177Y1316101D01*
X355237Y1316201D01*
X355300Y1316299D01*
X355367Y1316394D01*
X355436Y1316488D01*
X355508Y1316579D01*
X355583Y1316668D01*
X355662Y1316754D01*
X355743Y1316837D01*
X355826Y1316918D01*
X355912Y1316997D01*
X356001Y1317072D01*
X356092Y1317144D01*
X356186Y1317213D01*
X356281Y1317280D01*
X356379Y1317343D01*
X356479Y1317403D01*
X356581Y1317459D01*
X356684Y1317512D01*
X356789Y1317562D01*
X356896Y1317608D01*
X357004Y1317651D01*
X357114Y1317690D01*
X357225Y1317726D01*
X357337Y1317758D01*
X357450Y1317786D01*
X357563Y1317811D01*
X357678Y1317832D01*
X357793Y1317849D01*
X357908Y1317862D01*
X358024Y1317871D01*
X358141Y1317877D01*
X358257Y1317879D01*
X363591Y1317879D01*
X363591Y1324991D01*
X354701Y1324991D01*
D11*
X1139825Y107950D02*
X1228725Y107950D01*
X1228725Y179070D01*
X1139825Y179070D02*
X1139825Y107950D01*
X1146175Y113030D02*
X1146175Y165735D01*
X1170305Y165735D02*
X1183005Y165735D01*
X1160145Y165735D02*
X1146175Y165735D01*
X1151255Y168275D02*
X1151255Y173990D01*
X1151255Y168275D02*
X1160145Y168275D01*
X1160145Y165735D01*
X1179195Y168275D02*
X1179195Y173990D01*
X1179195Y168275D02*
X1170305Y168275D01*
X1170305Y165735D01*
X1179195Y173990D02*
X1151255Y173990D01*
X1139825Y179070D02*
X1228725Y179070D01*
X1183005Y165735D02*
X1183005Y113030D01*
X1176020Y113030D02*
X1175793Y113290D01*
X1175559Y113545D01*
X1175319Y113793D01*
X1175073Y114036D01*
X1174822Y114273D01*
X1174564Y114504D01*
X1174301Y114728D01*
X1174033Y114946D01*
X1173760Y115157D01*
X1173481Y115361D01*
X1173198Y115559D01*
X1172909Y115750D01*
X1172617Y115933D01*
X1172320Y116110D01*
X1172018Y116279D01*
X1171713Y116441D01*
X1171404Y116595D01*
X1171091Y116742D01*
X1170774Y116881D01*
X1170455Y117012D01*
X1170132Y117135D01*
X1169806Y117251D01*
X1169478Y117359D01*
X1169147Y117458D01*
X1168814Y117550D01*
X1168479Y117633D01*
X1168141Y117708D01*
X1167802Y117775D01*
X1167462Y117834D01*
X1167120Y117884D01*
X1166777Y117926D01*
X1166433Y117959D01*
X1166088Y117985D01*
X1165743Y118002D01*
X1165398Y118010D01*
X1165052Y118010D01*
X1164707Y118002D01*
X1164362Y117985D01*
X1164017Y117959D01*
X1163673Y117926D01*
X1163330Y117884D01*
X1162988Y117834D01*
X1162648Y117775D01*
X1162309Y117708D01*
X1161971Y117633D01*
X1161636Y117550D01*
X1161303Y117458D01*
X1160972Y117359D01*
X1160644Y117251D01*
X1160318Y117135D01*
X1159995Y117012D01*
X1159676Y116881D01*
X1159359Y116742D01*
X1159046Y116595D01*
X1158737Y116441D01*
X1158432Y116279D01*
X1158130Y116110D01*
X1157833Y115933D01*
X1157541Y115750D01*
X1157252Y115559D01*
X1156969Y115361D01*
X1156690Y115157D01*
X1156417Y114946D01*
X1156149Y114728D01*
X1155886Y114504D01*
X1155628Y114273D01*
X1155377Y114036D01*
X1155131Y113793D01*
X1154891Y113545D01*
X1154657Y113290D01*
X1154430Y113030D01*
X1176020Y113030D02*
X1183005Y113030D01*
X1154430Y113030D02*
X1146175Y113030D01*
D14*
X1212606Y94361D02*
X1223274Y78359D01*
X1212606Y78359D02*
X1223274Y94361D01*
X1206754Y87249D02*
X1201420Y87249D01*
X1201304Y87247D01*
X1201187Y87241D01*
X1201071Y87232D01*
X1200956Y87219D01*
X1200841Y87202D01*
X1200726Y87181D01*
X1200613Y87156D01*
X1200500Y87128D01*
X1200388Y87096D01*
X1200277Y87060D01*
X1200167Y87021D01*
X1200059Y86978D01*
X1199952Y86932D01*
X1199847Y86882D01*
X1199744Y86829D01*
X1199642Y86773D01*
X1199542Y86713D01*
X1199444Y86650D01*
X1199349Y86583D01*
X1199255Y86514D01*
X1199164Y86442D01*
X1199075Y86367D01*
X1198989Y86288D01*
X1198906Y86207D01*
X1198825Y86124D01*
X1198746Y86038D01*
X1198671Y85949D01*
X1198599Y85858D01*
X1198530Y85764D01*
X1198463Y85669D01*
X1198400Y85571D01*
X1198340Y85471D01*
X1198284Y85369D01*
X1198231Y85266D01*
X1198181Y85161D01*
X1198135Y85054D01*
X1198092Y84946D01*
X1198053Y84836D01*
X1198017Y84725D01*
X1197985Y84613D01*
X1197957Y84500D01*
X1197932Y84387D01*
X1197911Y84272D01*
X1197894Y84157D01*
X1197881Y84042D01*
X1197872Y83926D01*
X1197866Y83809D01*
X1197864Y83693D01*
X1197864Y82804D01*
X1197866Y82672D01*
X1197872Y82541D01*
X1197882Y82409D01*
X1197895Y82278D01*
X1197913Y82148D01*
X1197934Y82018D01*
X1197959Y81888D01*
X1197988Y81760D01*
X1198021Y81632D01*
X1198058Y81506D01*
X1198098Y81380D01*
X1198142Y81256D01*
X1198190Y81133D01*
X1198241Y81012D01*
X1198296Y80892D01*
X1198354Y80774D01*
X1198416Y80658D01*
X1198482Y80544D01*
X1198550Y80431D01*
X1198622Y80321D01*
X1198697Y80213D01*
X1198776Y80107D01*
X1198857Y80003D01*
X1198942Y79902D01*
X1199029Y79804D01*
X1199120Y79708D01*
X1199213Y79615D01*
X1199309Y79524D01*
X1199407Y79437D01*
X1199508Y79352D01*
X1199612Y79271D01*
X1199718Y79192D01*
X1199826Y79117D01*
X1199936Y79045D01*
X1200049Y78977D01*
X1200163Y78911D01*
X1200279Y78849D01*
X1200397Y78791D01*
X1200517Y78736D01*
X1200638Y78685D01*
X1200761Y78637D01*
X1200885Y78593D01*
X1201011Y78553D01*
X1201137Y78516D01*
X1201265Y78483D01*
X1201393Y78454D01*
X1201523Y78429D01*
X1201653Y78408D01*
X1201783Y78390D01*
X1201914Y78377D01*
X1202046Y78367D01*
X1202177Y78361D01*
X1202309Y78359D01*
X1202441Y78361D01*
X1202572Y78367D01*
X1202704Y78377D01*
X1202835Y78390D01*
X1202965Y78408D01*
X1203095Y78429D01*
X1203225Y78454D01*
X1203353Y78483D01*
X1203481Y78516D01*
X1203607Y78553D01*
X1203733Y78593D01*
X1203857Y78637D01*
X1203980Y78685D01*
X1204101Y78736D01*
X1204221Y78791D01*
X1204339Y78849D01*
X1204455Y78911D01*
X1204569Y78977D01*
X1204682Y79045D01*
X1204792Y79117D01*
X1204900Y79192D01*
X1205006Y79271D01*
X1205110Y79352D01*
X1205211Y79437D01*
X1205309Y79524D01*
X1205405Y79615D01*
X1205498Y79708D01*
X1205589Y79804D01*
X1205676Y79902D01*
X1205761Y80003D01*
X1205842Y80107D01*
X1205921Y80213D01*
X1205996Y80321D01*
X1206068Y80431D01*
X1206136Y80544D01*
X1206202Y80658D01*
X1206264Y80774D01*
X1206322Y80892D01*
X1206377Y81012D01*
X1206428Y81133D01*
X1206476Y81256D01*
X1206520Y81380D01*
X1206560Y81506D01*
X1206597Y81632D01*
X1206630Y81760D01*
X1206659Y81888D01*
X1206684Y82018D01*
X1206705Y82148D01*
X1206723Y82278D01*
X1206736Y82409D01*
X1206746Y82541D01*
X1206752Y82672D01*
X1206754Y82804D01*
X1206754Y87249D01*
X1206752Y87421D01*
X1206746Y87593D01*
X1206735Y87764D01*
X1206721Y87935D01*
X1206702Y88106D01*
X1206679Y88277D01*
X1206652Y88446D01*
X1206622Y88615D01*
X1206586Y88784D01*
X1206547Y88951D01*
X1206504Y89117D01*
X1206457Y89283D01*
X1206406Y89447D01*
X1206351Y89610D01*
X1206292Y89771D01*
X1206229Y89931D01*
X1206162Y90089D01*
X1206092Y90246D01*
X1206017Y90401D01*
X1205939Y90554D01*
X1205858Y90705D01*
X1205772Y90854D01*
X1205683Y91002D01*
X1205591Y91146D01*
X1205495Y91289D01*
X1205396Y91429D01*
X1205293Y91567D01*
X1205187Y91702D01*
X1205078Y91835D01*
X1204965Y91965D01*
X1204850Y92092D01*
X1204731Y92217D01*
X1204610Y92338D01*
X1204485Y92457D01*
X1204358Y92572D01*
X1204228Y92685D01*
X1204095Y92794D01*
X1203960Y92900D01*
X1203822Y93003D01*
X1203682Y93102D01*
X1203539Y93198D01*
X1203395Y93290D01*
X1203247Y93379D01*
X1203098Y93465D01*
X1202947Y93546D01*
X1202794Y93624D01*
X1202639Y93699D01*
X1202482Y93769D01*
X1202324Y93836D01*
X1202164Y93899D01*
X1202003Y93958D01*
X1201840Y94013D01*
X1201676Y94064D01*
X1201510Y94111D01*
X1201344Y94154D01*
X1201177Y94193D01*
X1201008Y94229D01*
X1200839Y94259D01*
X1200670Y94286D01*
X1200499Y94309D01*
X1200328Y94328D01*
X1200157Y94342D01*
X1199986Y94353D01*
X1199814Y94359D01*
X1199642Y94361D01*
D11*
X1089025Y107950D02*
X1000125Y107950D01*
X1089025Y107950D02*
X1089025Y179070D01*
X1000125Y179070D02*
X1000125Y107950D01*
X1006475Y113030D02*
X1006475Y165735D01*
X1030605Y165735D02*
X1043305Y165735D01*
X1020445Y165735D02*
X1006475Y165735D01*
X1011555Y168275D02*
X1011555Y173990D01*
X1011555Y168275D02*
X1020445Y168275D01*
X1020445Y165735D01*
X1039495Y168275D02*
X1039495Y173990D01*
X1039495Y168275D02*
X1030605Y168275D01*
X1030605Y165735D01*
X1039495Y173990D02*
X1011555Y173990D01*
X1000125Y179070D02*
X1089025Y179070D01*
X1043305Y165735D02*
X1043305Y113030D01*
X1036320Y113030D02*
X1036093Y113290D01*
X1035859Y113545D01*
X1035619Y113793D01*
X1035373Y114036D01*
X1035122Y114273D01*
X1034864Y114504D01*
X1034601Y114728D01*
X1034333Y114946D01*
X1034060Y115157D01*
X1033781Y115361D01*
X1033498Y115559D01*
X1033209Y115750D01*
X1032917Y115933D01*
X1032620Y116110D01*
X1032318Y116279D01*
X1032013Y116441D01*
X1031704Y116595D01*
X1031391Y116742D01*
X1031074Y116881D01*
X1030755Y117012D01*
X1030432Y117135D01*
X1030106Y117251D01*
X1029778Y117359D01*
X1029447Y117458D01*
X1029114Y117550D01*
X1028779Y117633D01*
X1028441Y117708D01*
X1028102Y117775D01*
X1027762Y117834D01*
X1027420Y117884D01*
X1027077Y117926D01*
X1026733Y117959D01*
X1026388Y117985D01*
X1026043Y118002D01*
X1025698Y118010D01*
X1025352Y118010D01*
X1025007Y118002D01*
X1024662Y117985D01*
X1024317Y117959D01*
X1023973Y117926D01*
X1023630Y117884D01*
X1023288Y117834D01*
X1022948Y117775D01*
X1022609Y117708D01*
X1022271Y117633D01*
X1021936Y117550D01*
X1021603Y117458D01*
X1021272Y117359D01*
X1020944Y117251D01*
X1020618Y117135D01*
X1020295Y117012D01*
X1019976Y116881D01*
X1019659Y116742D01*
X1019346Y116595D01*
X1019037Y116441D01*
X1018732Y116279D01*
X1018430Y116110D01*
X1018133Y115933D01*
X1017841Y115750D01*
X1017552Y115559D01*
X1017269Y115361D01*
X1016990Y115157D01*
X1016717Y114946D01*
X1016449Y114728D01*
X1016186Y114504D01*
X1015928Y114273D01*
X1015677Y114036D01*
X1015431Y113793D01*
X1015191Y113545D01*
X1014957Y113290D01*
X1014730Y113030D01*
X1036320Y113030D02*
X1043305Y113030D01*
X1014730Y113030D02*
X1006475Y113030D01*
D14*
X1072906Y94361D02*
X1083574Y78359D01*
X1072906Y78359D02*
X1083574Y94361D01*
X1067054Y94361D02*
X1067054Y92583D01*
X1067054Y94361D02*
X1058164Y94361D01*
X1062609Y78359D01*
D10*
X774700Y171450D02*
X774700Y184150D01*
X774700Y171450D02*
X781050Y165100D01*
X793750Y165100D02*
X800100Y171450D01*
X781050Y165100D02*
X774700Y158750D01*
X774700Y146050D01*
X781050Y139700D01*
X793750Y139700D02*
X800100Y146050D01*
X800100Y158750D01*
X793750Y165100D01*
X793750Y190500D02*
X781050Y190500D01*
X774700Y184150D01*
X793750Y190500D02*
X800100Y184150D01*
X800100Y171450D01*
X781050Y139700D02*
X774700Y133350D01*
X774700Y120650D01*
X781050Y114300D01*
X793750Y114300D02*
X800100Y120650D01*
X800100Y133350D01*
X793750Y139700D01*
X793750Y114300D02*
X781050Y114300D01*
D11*
X790575Y196215D02*
X793115Y199390D01*
X781685Y199390D01*
X781685Y196215D02*
X781685Y202565D01*
D13*
X787400Y177800D03*
D11*
X787083Y88138D02*
X792480Y84328D01*
X787083Y88138D02*
X792480Y91948D01*
X787083Y88138D02*
X781050Y88138D01*
X785495Y96520D02*
X785495Y104140D01*
X781685Y100330D02*
X789305Y100330D01*
D10*
X800100Y171450D02*
X800100Y184150D01*
X800100Y171450D02*
X806450Y165100D01*
X819150Y165100D02*
X825500Y171450D01*
X806450Y165100D02*
X800100Y158750D01*
X800100Y146050D01*
X806450Y139700D01*
X819150Y139700D02*
X825500Y146050D01*
X825500Y158750D01*
X819150Y165100D01*
X819150Y190500D02*
X806450Y190500D01*
X800100Y184150D01*
X819150Y190500D02*
X825500Y184150D01*
X825500Y171450D01*
X806450Y139700D02*
X800100Y133350D01*
X800100Y120650D01*
X806450Y114300D01*
X819150Y114300D02*
X825500Y120650D01*
X825500Y133350D01*
X819150Y139700D01*
X819150Y114300D02*
X806450Y114300D01*
D11*
X815975Y196215D02*
X818515Y199390D01*
X807085Y199390D01*
X807085Y196215D02*
X807085Y202565D01*
D13*
X812800Y177800D03*
D11*
X812483Y88138D02*
X817880Y84328D01*
X812483Y88138D02*
X817880Y91948D01*
X812483Y88138D02*
X806450Y88138D01*
X810895Y96520D02*
X810895Y104140D01*
D10*
X165100Y565150D02*
X165100Y577850D01*
X165100Y565150D02*
X171450Y558800D01*
X184150Y558800D02*
X190500Y565150D01*
X171450Y558800D02*
X165100Y552450D01*
X165100Y539750D01*
X171450Y533400D01*
X184150Y533400D02*
X190500Y539750D01*
X190500Y552450D01*
X184150Y558800D01*
X184150Y584200D02*
X171450Y584200D01*
X165100Y577850D01*
X184150Y584200D02*
X190500Y577850D01*
X190500Y565150D01*
X171450Y533400D02*
X165100Y527050D01*
X165100Y514350D01*
X171450Y508000D01*
X184150Y508000D02*
X190500Y514350D01*
X190500Y527050D01*
X184150Y533400D01*
X165100Y501650D02*
X165100Y488950D01*
X171450Y482600D01*
X184150Y482600D01*
X190500Y488950D01*
X171450Y508000D02*
X165100Y501650D01*
X184150Y508000D02*
X190500Y501650D01*
X190500Y488950D01*
D11*
X180975Y588645D02*
X183515Y591820D01*
X172085Y591820D01*
X172085Y588645D02*
X172085Y594995D01*
X183515Y475615D02*
X174625Y473075D01*
X174625Y479425D01*
X177165Y477520D02*
X172085Y477520D01*
X206058Y506222D02*
X211455Y502412D01*
X206058Y506222D02*
X211455Y510032D01*
X206058Y506222D02*
X200025Y506222D01*
X204470Y514604D02*
X204470Y522224D01*
X200025Y527939D02*
X211455Y527939D01*
X205105Y531749D01*
X211455Y535559D01*
X200025Y535559D01*
X203200Y541147D02*
X208280Y541147D01*
X208391Y541149D01*
X208501Y541155D01*
X208612Y541164D01*
X208722Y541178D01*
X208831Y541195D01*
X208940Y541216D01*
X209048Y541241D01*
X209155Y541270D01*
X209261Y541302D01*
X209366Y541338D01*
X209469Y541378D01*
X209571Y541421D01*
X209672Y541468D01*
X209771Y541519D01*
X209867Y541572D01*
X209962Y541629D01*
X210055Y541690D01*
X210146Y541753D01*
X210235Y541820D01*
X210321Y541890D01*
X210404Y541963D01*
X210486Y542038D01*
X210564Y542116D01*
X210639Y542198D01*
X210712Y542281D01*
X210782Y542367D01*
X210849Y542456D01*
X210912Y542547D01*
X210973Y542640D01*
X211030Y542735D01*
X211083Y542831D01*
X211134Y542930D01*
X211181Y543031D01*
X211224Y543133D01*
X211264Y543236D01*
X211300Y543341D01*
X211332Y543447D01*
X211361Y543554D01*
X211386Y543662D01*
X211407Y543771D01*
X211424Y543880D01*
X211438Y543990D01*
X211447Y544101D01*
X211453Y544211D01*
X211455Y544322D01*
X211453Y544433D01*
X211447Y544543D01*
X211438Y544654D01*
X211424Y544764D01*
X211407Y544873D01*
X211386Y544982D01*
X211361Y545090D01*
X211332Y545197D01*
X211300Y545303D01*
X211264Y545408D01*
X211224Y545511D01*
X211181Y545613D01*
X211134Y545714D01*
X211083Y545813D01*
X211030Y545909D01*
X210973Y546004D01*
X210912Y546097D01*
X210849Y546188D01*
X210782Y546277D01*
X210712Y546363D01*
X210639Y546446D01*
X210564Y546528D01*
X210486Y546606D01*
X210404Y546681D01*
X210321Y546754D01*
X210235Y546824D01*
X210146Y546891D01*
X210055Y546954D01*
X209962Y547015D01*
X209868Y547072D01*
X209771Y547125D01*
X209672Y547176D01*
X209571Y547223D01*
X209469Y547266D01*
X209366Y547306D01*
X209261Y547342D01*
X209155Y547374D01*
X209048Y547403D01*
X208940Y547428D01*
X208831Y547449D01*
X208722Y547466D01*
X208612Y547480D01*
X208501Y547489D01*
X208391Y547495D01*
X208280Y547497D01*
X203200Y547497D01*
X203089Y547495D01*
X202979Y547489D01*
X202868Y547480D01*
X202758Y547466D01*
X202649Y547449D01*
X202540Y547428D01*
X202432Y547403D01*
X202325Y547374D01*
X202219Y547342D01*
X202114Y547306D01*
X202011Y547266D01*
X201909Y547223D01*
X201808Y547176D01*
X201709Y547125D01*
X201613Y547072D01*
X201518Y547015D01*
X201425Y546954D01*
X201334Y546891D01*
X201245Y546824D01*
X201159Y546754D01*
X201076Y546681D01*
X200994Y546606D01*
X200916Y546528D01*
X200841Y546446D01*
X200768Y546363D01*
X200698Y546277D01*
X200631Y546188D01*
X200568Y546097D01*
X200507Y546004D01*
X200450Y545910D01*
X200397Y545813D01*
X200346Y545714D01*
X200299Y545613D01*
X200256Y545511D01*
X200216Y545408D01*
X200180Y545303D01*
X200148Y545197D01*
X200119Y545090D01*
X200094Y544982D01*
X200073Y544873D01*
X200056Y544764D01*
X200042Y544654D01*
X200033Y544543D01*
X200027Y544433D01*
X200025Y544322D01*
X200027Y544211D01*
X200033Y544101D01*
X200042Y543990D01*
X200056Y543880D01*
X200073Y543771D01*
X200094Y543662D01*
X200119Y543554D01*
X200148Y543447D01*
X200180Y543341D01*
X200216Y543236D01*
X200256Y543133D01*
X200299Y543031D01*
X200346Y542930D01*
X200397Y542831D01*
X200450Y542735D01*
X200507Y542640D01*
X200568Y542547D01*
X200631Y542456D01*
X200698Y542367D01*
X200768Y542281D01*
X200841Y542198D01*
X200916Y542116D01*
X200994Y542038D01*
X201076Y541963D01*
X201159Y541890D01*
X201245Y541820D01*
X201334Y541753D01*
X201425Y541690D01*
X201518Y541629D01*
X201613Y541572D01*
X201709Y541519D01*
X201808Y541468D01*
X201909Y541421D01*
X202011Y541378D01*
X202114Y541338D01*
X202219Y541302D01*
X202325Y541270D01*
X202432Y541241D01*
X202540Y541216D01*
X202649Y541195D01*
X202758Y541178D01*
X202868Y541164D01*
X202979Y541155D01*
X203089Y541149D01*
X203200Y541147D01*
X200025Y554990D02*
X211455Y554990D01*
X211455Y551815D02*
X211455Y558165D01*
D10*
X825500Y184150D02*
X825500Y171450D01*
X831850Y165100D01*
X844550Y165100D02*
X850900Y171450D01*
X831850Y165100D02*
X825500Y158750D01*
X825500Y146050D01*
X831850Y139700D01*
X844550Y139700D02*
X850900Y146050D01*
X850900Y158750D01*
X844550Y165100D01*
X844550Y190500D02*
X831850Y190500D01*
X825500Y184150D01*
X844550Y190500D02*
X850900Y184150D01*
X850900Y171450D01*
X831850Y139700D02*
X825500Y133350D01*
X825500Y120650D01*
X831850Y114300D01*
X844550Y114300D02*
X850900Y120650D01*
X850900Y133350D01*
X844550Y139700D01*
X844550Y114300D02*
X831850Y114300D01*
D11*
X841375Y196215D02*
X843915Y199390D01*
X832485Y199390D01*
X832485Y196215D02*
X832485Y202565D01*
D13*
X838200Y177800D03*
D11*
X843280Y91694D02*
X843280Y85344D01*
X843280Y91694D02*
X831850Y85344D01*
X831850Y91694D01*
X836295Y96520D02*
X836295Y104140D01*
X832485Y100330D02*
X840105Y100330D01*
D10*
X266700Y317500D02*
X266700Y330200D01*
X260350Y336550D01*
X247650Y336550D02*
X241300Y330200D01*
X260350Y336550D02*
X266700Y342900D01*
X266700Y355600D01*
X260350Y361950D01*
X247650Y361950D02*
X241300Y355600D01*
X241300Y342900D01*
X247650Y336550D01*
X247650Y311150D02*
X260350Y311150D01*
X266700Y317500D01*
X247650Y311150D02*
X241300Y317500D01*
X241300Y330200D01*
X260350Y361950D02*
X266700Y368300D01*
X266700Y381000D01*
X260350Y387350D01*
X247650Y387350D02*
X241300Y381000D01*
X241300Y368300D01*
X247650Y361950D01*
X266700Y393700D02*
X266700Y406400D01*
X260350Y412750D01*
X247650Y412750D01*
X241300Y406400D01*
X260350Y387350D02*
X266700Y393700D01*
X247650Y387350D02*
X241300Y393700D01*
X241300Y406400D01*
D11*
X259715Y303530D02*
X257175Y300355D01*
X259715Y303530D02*
X248285Y303530D01*
X248285Y300355D02*
X248285Y306705D01*
X250825Y415925D02*
X259715Y418465D01*
X250825Y415925D02*
X250825Y422275D01*
X253365Y420370D02*
X248285Y420370D01*
X238125Y330835D02*
X238125Y324485D01*
X238125Y330835D02*
X226695Y324485D01*
X226695Y330835D01*
X231140Y335661D02*
X231140Y343281D01*
X226695Y348996D02*
X238125Y348996D01*
X231775Y352806D01*
X238125Y356616D01*
X226695Y356616D01*
X229870Y362204D02*
X234950Y362204D01*
X235061Y362206D01*
X235171Y362212D01*
X235282Y362221D01*
X235392Y362235D01*
X235501Y362252D01*
X235610Y362273D01*
X235718Y362298D01*
X235825Y362327D01*
X235931Y362359D01*
X236036Y362395D01*
X236139Y362435D01*
X236241Y362478D01*
X236342Y362525D01*
X236441Y362576D01*
X236537Y362629D01*
X236632Y362686D01*
X236725Y362747D01*
X236816Y362810D01*
X236905Y362877D01*
X236991Y362947D01*
X237074Y363020D01*
X237156Y363095D01*
X237234Y363173D01*
X237309Y363255D01*
X237382Y363338D01*
X237452Y363424D01*
X237519Y363513D01*
X237582Y363604D01*
X237643Y363697D01*
X237700Y363791D01*
X237753Y363888D01*
X237804Y363987D01*
X237851Y364088D01*
X237894Y364190D01*
X237934Y364293D01*
X237970Y364398D01*
X238002Y364504D01*
X238031Y364611D01*
X238056Y364719D01*
X238077Y364828D01*
X238094Y364937D01*
X238108Y365047D01*
X238117Y365158D01*
X238123Y365268D01*
X238125Y365379D01*
X238123Y365490D01*
X238117Y365600D01*
X238108Y365711D01*
X238094Y365821D01*
X238077Y365930D01*
X238056Y366039D01*
X238031Y366147D01*
X238002Y366254D01*
X237970Y366360D01*
X237934Y366465D01*
X237894Y366568D01*
X237851Y366670D01*
X237804Y366771D01*
X237753Y366870D01*
X237700Y366966D01*
X237643Y367061D01*
X237582Y367154D01*
X237519Y367245D01*
X237452Y367334D01*
X237382Y367420D01*
X237309Y367503D01*
X237234Y367585D01*
X237156Y367663D01*
X237074Y367738D01*
X236991Y367811D01*
X236905Y367881D01*
X236816Y367948D01*
X236725Y368011D01*
X236632Y368072D01*
X236538Y368129D01*
X236441Y368182D01*
X236342Y368233D01*
X236241Y368280D01*
X236139Y368323D01*
X236036Y368363D01*
X235931Y368399D01*
X235825Y368431D01*
X235718Y368460D01*
X235610Y368485D01*
X235501Y368506D01*
X235392Y368523D01*
X235282Y368537D01*
X235171Y368546D01*
X235061Y368552D01*
X234950Y368554D01*
X229870Y368554D01*
X229759Y368552D01*
X229649Y368546D01*
X229538Y368537D01*
X229428Y368523D01*
X229319Y368506D01*
X229210Y368485D01*
X229102Y368460D01*
X228995Y368431D01*
X228889Y368399D01*
X228784Y368363D01*
X228681Y368323D01*
X228579Y368280D01*
X228478Y368233D01*
X228379Y368182D01*
X228283Y368129D01*
X228188Y368072D01*
X228095Y368011D01*
X228004Y367948D01*
X227915Y367881D01*
X227829Y367811D01*
X227746Y367738D01*
X227664Y367663D01*
X227586Y367585D01*
X227511Y367503D01*
X227438Y367420D01*
X227368Y367334D01*
X227301Y367245D01*
X227238Y367154D01*
X227177Y367061D01*
X227120Y366967D01*
X227067Y366870D01*
X227016Y366771D01*
X226969Y366670D01*
X226926Y366568D01*
X226886Y366465D01*
X226850Y366360D01*
X226818Y366254D01*
X226789Y366147D01*
X226764Y366039D01*
X226743Y365930D01*
X226726Y365821D01*
X226712Y365711D01*
X226703Y365600D01*
X226697Y365490D01*
X226695Y365379D01*
X226697Y365268D01*
X226703Y365158D01*
X226712Y365047D01*
X226726Y364937D01*
X226743Y364828D01*
X226764Y364719D01*
X226789Y364611D01*
X226818Y364504D01*
X226850Y364398D01*
X226886Y364293D01*
X226926Y364190D01*
X226969Y364088D01*
X227016Y363987D01*
X227067Y363888D01*
X227120Y363792D01*
X227177Y363697D01*
X227238Y363604D01*
X227301Y363513D01*
X227368Y363424D01*
X227438Y363338D01*
X227511Y363255D01*
X227586Y363173D01*
X227664Y363095D01*
X227746Y363020D01*
X227829Y362947D01*
X227915Y362877D01*
X228004Y362810D01*
X228095Y362747D01*
X228188Y362686D01*
X228283Y362629D01*
X228379Y362576D01*
X228478Y362525D01*
X228579Y362478D01*
X228681Y362435D01*
X228784Y362395D01*
X228889Y362359D01*
X228995Y362327D01*
X229102Y362298D01*
X229210Y362273D01*
X229319Y362252D01*
X229428Y362235D01*
X229538Y362221D01*
X229649Y362212D01*
X229759Y362206D01*
X229870Y362204D01*
X226695Y376047D02*
X238125Y376047D01*
X238125Y372872D02*
X238125Y379222D01*
X235585Y383540D02*
X238125Y386715D01*
X226695Y386715D01*
X226695Y383540D02*
X226695Y389890D01*
D10*
X635000Y184150D02*
X635000Y171450D01*
X641350Y165100D01*
X654050Y165100D02*
X660400Y171450D01*
X641350Y165100D02*
X635000Y158750D01*
X635000Y146050D01*
X641350Y139700D01*
X654050Y139700D02*
X660400Y146050D01*
X660400Y158750D01*
X654050Y165100D01*
X654050Y190500D02*
X641350Y190500D01*
X635000Y184150D01*
X654050Y190500D02*
X660400Y184150D01*
X660400Y171450D01*
X641350Y139700D02*
X635000Y133350D01*
X635000Y120650D01*
X641350Y114300D01*
X654050Y114300D02*
X660400Y120650D01*
X660400Y133350D01*
X654050Y139700D01*
X654050Y114300D02*
X641350Y114300D01*
D11*
X650875Y196215D02*
X653415Y199390D01*
X641985Y199390D01*
X641985Y196215D02*
X641985Y202565D01*
D13*
X647700Y177800D03*
D11*
X652780Y39878D02*
X652780Y33528D01*
X652780Y39878D02*
X641350Y33528D01*
X641350Y39878D01*
X645795Y44704D02*
X645795Y52324D01*
X641350Y60960D02*
X641352Y61060D01*
X641358Y61159D01*
X641368Y61259D01*
X641381Y61357D01*
X641399Y61456D01*
X641420Y61553D01*
X641445Y61649D01*
X641474Y61745D01*
X641507Y61839D01*
X641543Y61932D01*
X641583Y62023D01*
X641627Y62113D01*
X641674Y62201D01*
X641724Y62287D01*
X641778Y62371D01*
X641835Y62453D01*
X641895Y62532D01*
X641959Y62610D01*
X642025Y62684D01*
X642094Y62756D01*
X642166Y62825D01*
X642240Y62891D01*
X642318Y62955D01*
X642397Y63015D01*
X642479Y63072D01*
X642563Y63126D01*
X642649Y63176D01*
X642737Y63223D01*
X642827Y63267D01*
X642918Y63307D01*
X643011Y63343D01*
X643105Y63376D01*
X643201Y63405D01*
X643297Y63430D01*
X643394Y63451D01*
X643493Y63469D01*
X643591Y63482D01*
X643691Y63492D01*
X643790Y63498D01*
X643890Y63500D01*
X641350Y60960D02*
X641352Y60819D01*
X641357Y60678D01*
X641367Y60537D01*
X641380Y60396D01*
X641396Y60256D01*
X641417Y60116D01*
X641441Y59977D01*
X641469Y59838D01*
X641500Y59701D01*
X641535Y59564D01*
X641573Y59428D01*
X641615Y59293D01*
X641661Y59160D01*
X641710Y59027D01*
X641763Y58896D01*
X641819Y58767D01*
X641878Y58638D01*
X641941Y58512D01*
X642007Y58387D01*
X642076Y58264D01*
X642149Y58143D01*
X642225Y58024D01*
X642304Y57906D01*
X642385Y57791D01*
X642470Y57679D01*
X642558Y57568D01*
X642649Y57460D01*
X642742Y57354D01*
X642839Y57251D01*
X642938Y57150D01*
X650240Y57468D02*
X650340Y57470D01*
X650439Y57476D01*
X650539Y57486D01*
X650637Y57499D01*
X650736Y57517D01*
X650833Y57538D01*
X650929Y57563D01*
X651025Y57592D01*
X651119Y57625D01*
X651212Y57661D01*
X651303Y57701D01*
X651393Y57745D01*
X651481Y57792D01*
X651567Y57842D01*
X651651Y57896D01*
X651733Y57953D01*
X651812Y58013D01*
X651890Y58077D01*
X651964Y58143D01*
X652036Y58212D01*
X652105Y58284D01*
X652171Y58358D01*
X652235Y58436D01*
X652295Y58515D01*
X652352Y58597D01*
X652406Y58681D01*
X652456Y58767D01*
X652503Y58855D01*
X652547Y58945D01*
X652587Y59036D01*
X652623Y59129D01*
X652656Y59223D01*
X652685Y59319D01*
X652710Y59415D01*
X652731Y59512D01*
X652749Y59611D01*
X652762Y59709D01*
X652772Y59809D01*
X652778Y59908D01*
X652780Y60008D01*
X652781Y60008D02*
X652779Y60141D01*
X652774Y60274D01*
X652764Y60407D01*
X652751Y60540D01*
X652734Y60672D01*
X652714Y60804D01*
X652690Y60935D01*
X652662Y61065D01*
X652631Y61195D01*
X652596Y61323D01*
X652557Y61451D01*
X652515Y61577D01*
X652469Y61702D01*
X652420Y61826D01*
X652368Y61949D01*
X652312Y62070D01*
X652252Y62189D01*
X652190Y62307D01*
X652124Y62422D01*
X652055Y62536D01*
X651982Y62648D01*
X651907Y62758D01*
X651828Y62866D01*
X648017Y58737D02*
X648069Y58653D01*
X648124Y58570D01*
X648183Y58490D01*
X648244Y58412D01*
X648308Y58337D01*
X648376Y58264D01*
X648446Y58193D01*
X648518Y58126D01*
X648593Y58061D01*
X648671Y57999D01*
X648751Y57940D01*
X648833Y57884D01*
X648917Y57832D01*
X649003Y57783D01*
X649091Y57737D01*
X649181Y57694D01*
X649272Y57655D01*
X649365Y57620D01*
X649459Y57588D01*
X649554Y57560D01*
X649650Y57535D01*
X649747Y57515D01*
X649845Y57497D01*
X649943Y57484D01*
X650042Y57475D01*
X650141Y57469D01*
X650240Y57467D01*
X646113Y62230D02*
X646061Y62314D01*
X646006Y62397D01*
X645947Y62477D01*
X645886Y62555D01*
X645822Y62630D01*
X645754Y62703D01*
X645684Y62774D01*
X645612Y62841D01*
X645537Y62906D01*
X645459Y62968D01*
X645379Y63027D01*
X645297Y63083D01*
X645213Y63135D01*
X645127Y63184D01*
X645039Y63230D01*
X644949Y63273D01*
X644858Y63312D01*
X644765Y63347D01*
X644671Y63379D01*
X644576Y63407D01*
X644480Y63432D01*
X644383Y63452D01*
X644285Y63470D01*
X644187Y63483D01*
X644088Y63492D01*
X643989Y63498D01*
X643890Y63500D01*
X646113Y62230D02*
X648018Y58738D01*
X652780Y70612D02*
X641350Y70612D01*
X652780Y67437D02*
X652780Y73787D01*
X649605Y78105D02*
X644525Y78105D01*
X649605Y78105D02*
X649716Y78107D01*
X649826Y78113D01*
X649937Y78122D01*
X650047Y78136D01*
X650156Y78153D01*
X650265Y78174D01*
X650373Y78199D01*
X650480Y78228D01*
X650586Y78260D01*
X650691Y78296D01*
X650794Y78336D01*
X650896Y78379D01*
X650997Y78426D01*
X651096Y78477D01*
X651193Y78530D01*
X651287Y78587D01*
X651380Y78648D01*
X651471Y78711D01*
X651560Y78778D01*
X651646Y78848D01*
X651729Y78921D01*
X651811Y78996D01*
X651889Y79074D01*
X651964Y79156D01*
X652037Y79239D01*
X652107Y79325D01*
X652174Y79414D01*
X652237Y79505D01*
X652298Y79598D01*
X652355Y79692D01*
X652408Y79789D01*
X652459Y79888D01*
X652506Y79989D01*
X652549Y80091D01*
X652589Y80194D01*
X652625Y80299D01*
X652657Y80405D01*
X652686Y80512D01*
X652711Y80620D01*
X652732Y80729D01*
X652749Y80838D01*
X652763Y80948D01*
X652772Y81059D01*
X652778Y81169D01*
X652780Y81280D01*
X652778Y81391D01*
X652772Y81501D01*
X652763Y81612D01*
X652749Y81722D01*
X652732Y81831D01*
X652711Y81940D01*
X652686Y82048D01*
X652657Y82155D01*
X652625Y82261D01*
X652589Y82366D01*
X652549Y82469D01*
X652506Y82571D01*
X652459Y82672D01*
X652408Y82771D01*
X652355Y82867D01*
X652298Y82962D01*
X652237Y83055D01*
X652174Y83146D01*
X652107Y83235D01*
X652037Y83321D01*
X651964Y83404D01*
X651889Y83486D01*
X651811Y83564D01*
X651729Y83639D01*
X651646Y83712D01*
X651560Y83782D01*
X651471Y83849D01*
X651380Y83912D01*
X651287Y83973D01*
X651193Y84030D01*
X651096Y84083D01*
X650997Y84134D01*
X650896Y84181D01*
X650794Y84224D01*
X650691Y84264D01*
X650586Y84300D01*
X650480Y84332D01*
X650373Y84361D01*
X650265Y84386D01*
X650156Y84407D01*
X650047Y84424D01*
X649937Y84438D01*
X649826Y84447D01*
X649716Y84453D01*
X649605Y84455D01*
X644525Y84455D01*
X644414Y84453D01*
X644304Y84447D01*
X644193Y84438D01*
X644083Y84424D01*
X643974Y84407D01*
X643865Y84386D01*
X643757Y84361D01*
X643650Y84332D01*
X643544Y84300D01*
X643439Y84264D01*
X643336Y84224D01*
X643234Y84181D01*
X643133Y84134D01*
X643034Y84083D01*
X642938Y84030D01*
X642843Y83973D01*
X642750Y83912D01*
X642659Y83849D01*
X642570Y83782D01*
X642484Y83712D01*
X642401Y83639D01*
X642319Y83564D01*
X642241Y83486D01*
X642166Y83404D01*
X642093Y83321D01*
X642023Y83235D01*
X641956Y83146D01*
X641893Y83055D01*
X641832Y82962D01*
X641775Y82868D01*
X641722Y82771D01*
X641671Y82672D01*
X641624Y82571D01*
X641581Y82469D01*
X641541Y82366D01*
X641505Y82261D01*
X641473Y82155D01*
X641444Y82048D01*
X641419Y81940D01*
X641398Y81831D01*
X641381Y81722D01*
X641367Y81612D01*
X641358Y81501D01*
X641352Y81391D01*
X641350Y81280D01*
X641352Y81169D01*
X641358Y81059D01*
X641367Y80948D01*
X641381Y80838D01*
X641398Y80729D01*
X641419Y80620D01*
X641444Y80512D01*
X641473Y80405D01*
X641505Y80299D01*
X641541Y80194D01*
X641581Y80091D01*
X641624Y79989D01*
X641671Y79888D01*
X641722Y79789D01*
X641775Y79692D01*
X641832Y79598D01*
X641893Y79505D01*
X641956Y79414D01*
X642023Y79325D01*
X642093Y79239D01*
X642166Y79156D01*
X642241Y79074D01*
X642319Y78996D01*
X642401Y78921D01*
X642484Y78848D01*
X642570Y78778D01*
X642659Y78711D01*
X642750Y78648D01*
X642843Y78587D01*
X642938Y78530D01*
X643034Y78477D01*
X643133Y78426D01*
X643234Y78379D01*
X643336Y78336D01*
X643439Y78296D01*
X643544Y78260D01*
X643650Y78228D01*
X643757Y78199D01*
X643865Y78174D01*
X643974Y78153D01*
X644083Y78136D01*
X644193Y78122D01*
X644304Y78113D01*
X644414Y78107D01*
X644525Y78105D01*
X641350Y90107D02*
X652780Y90107D01*
X652780Y93282D01*
X652778Y93393D01*
X652772Y93503D01*
X652763Y93614D01*
X652749Y93724D01*
X652732Y93833D01*
X652711Y93942D01*
X652686Y94050D01*
X652657Y94157D01*
X652625Y94263D01*
X652589Y94368D01*
X652549Y94471D01*
X652506Y94573D01*
X652459Y94674D01*
X652408Y94773D01*
X652355Y94870D01*
X652298Y94964D01*
X652237Y95057D01*
X652174Y95148D01*
X652107Y95237D01*
X652037Y95323D01*
X651964Y95406D01*
X651889Y95488D01*
X651811Y95566D01*
X651729Y95641D01*
X651646Y95714D01*
X651560Y95784D01*
X651471Y95851D01*
X651380Y95914D01*
X651287Y95975D01*
X651193Y96032D01*
X651096Y96085D01*
X650997Y96136D01*
X650896Y96183D01*
X650794Y96226D01*
X650691Y96266D01*
X650586Y96302D01*
X650480Y96334D01*
X650373Y96363D01*
X650265Y96388D01*
X650156Y96409D01*
X650047Y96426D01*
X649937Y96440D01*
X649826Y96449D01*
X649716Y96455D01*
X649605Y96457D01*
X649494Y96455D01*
X649384Y96449D01*
X649273Y96440D01*
X649163Y96426D01*
X649054Y96409D01*
X648945Y96388D01*
X648837Y96363D01*
X648730Y96334D01*
X648624Y96302D01*
X648519Y96266D01*
X648416Y96226D01*
X648314Y96183D01*
X648213Y96136D01*
X648114Y96085D01*
X648018Y96032D01*
X647923Y95975D01*
X647830Y95914D01*
X647739Y95851D01*
X647650Y95784D01*
X647564Y95714D01*
X647481Y95641D01*
X647399Y95566D01*
X647321Y95488D01*
X647246Y95406D01*
X647173Y95323D01*
X647103Y95237D01*
X647036Y95148D01*
X646973Y95057D01*
X646912Y94964D01*
X646855Y94869D01*
X646802Y94773D01*
X646751Y94674D01*
X646704Y94573D01*
X646661Y94471D01*
X646621Y94368D01*
X646585Y94263D01*
X646553Y94157D01*
X646524Y94050D01*
X646499Y93942D01*
X646478Y93833D01*
X646461Y93724D01*
X646447Y93614D01*
X646438Y93503D01*
X646432Y93393D01*
X646430Y93282D01*
X646430Y90107D01*
X650240Y100965D02*
X652780Y104140D01*
X641350Y104140D01*
X641350Y100965D02*
X641350Y107315D01*
X692150Y1212850D02*
X857250Y1212850D01*
X692150Y1212850D02*
X692150Y1141730D01*
X857250Y1141730D02*
X857250Y1212850D01*
X850900Y1207770D02*
X850900Y1155065D01*
X826770Y1155065D02*
X814070Y1155065D01*
X836930Y1155065D02*
X850900Y1155065D01*
X845820Y1152525D02*
X845820Y1146810D01*
X845820Y1152525D02*
X836930Y1152525D01*
X836930Y1155065D01*
X817880Y1152525D02*
X817880Y1146810D01*
X817880Y1152525D02*
X826770Y1152525D01*
X826770Y1155065D01*
X817880Y1146810D02*
X845820Y1146810D01*
X857250Y1141730D02*
X692150Y1141730D01*
X814070Y1155065D02*
X814070Y1207770D01*
X821055Y1207770D02*
X821282Y1207510D01*
X821516Y1207255D01*
X821756Y1207007D01*
X822002Y1206764D01*
X822253Y1206527D01*
X822511Y1206296D01*
X822774Y1206072D01*
X823042Y1205854D01*
X823315Y1205643D01*
X823594Y1205439D01*
X823877Y1205241D01*
X824166Y1205050D01*
X824458Y1204867D01*
X824755Y1204690D01*
X825057Y1204521D01*
X825362Y1204359D01*
X825671Y1204205D01*
X825984Y1204058D01*
X826301Y1203919D01*
X826620Y1203788D01*
X826943Y1203665D01*
X827269Y1203549D01*
X827597Y1203441D01*
X827928Y1203342D01*
X828261Y1203250D01*
X828596Y1203167D01*
X828934Y1203092D01*
X829273Y1203025D01*
X829613Y1202966D01*
X829955Y1202916D01*
X830298Y1202874D01*
X830642Y1202841D01*
X830987Y1202815D01*
X831332Y1202798D01*
X831677Y1202790D01*
X832023Y1202790D01*
X832368Y1202798D01*
X832713Y1202815D01*
X833058Y1202841D01*
X833402Y1202874D01*
X833745Y1202916D01*
X834087Y1202966D01*
X834427Y1203025D01*
X834766Y1203092D01*
X835104Y1203167D01*
X835439Y1203250D01*
X835772Y1203342D01*
X836103Y1203441D01*
X836431Y1203549D01*
X836757Y1203665D01*
X837080Y1203788D01*
X837399Y1203919D01*
X837716Y1204058D01*
X838029Y1204205D01*
X838338Y1204359D01*
X838643Y1204521D01*
X838945Y1204690D01*
X839242Y1204867D01*
X839534Y1205050D01*
X839823Y1205241D01*
X840106Y1205439D01*
X840385Y1205643D01*
X840658Y1205854D01*
X840926Y1206072D01*
X841189Y1206296D01*
X841447Y1206527D01*
X841698Y1206764D01*
X841944Y1207007D01*
X842184Y1207255D01*
X842418Y1207510D01*
X842645Y1207770D01*
X821055Y1207770D02*
X814070Y1207770D01*
X842645Y1207770D02*
X850900Y1207770D01*
D14*
X856361Y1220089D02*
X845693Y1236091D01*
X856361Y1236091D02*
X845693Y1220089D01*
X839841Y1232535D02*
X835396Y1236091D01*
X835396Y1220089D01*
X839841Y1220089D02*
X830951Y1220089D01*
X824210Y1228090D02*
X824206Y1228405D01*
X824195Y1228719D01*
X824176Y1229034D01*
X824150Y1229347D01*
X824116Y1229660D01*
X824075Y1229972D01*
X824026Y1230283D01*
X823970Y1230593D01*
X823907Y1230902D01*
X823836Y1231208D01*
X823758Y1231513D01*
X823673Y1231816D01*
X823580Y1232117D01*
X823480Y1232416D01*
X823373Y1232712D01*
X823260Y1233006D01*
X823139Y1233296D01*
X823011Y1233584D01*
X822876Y1233869D01*
X822838Y1233975D01*
X822795Y1234080D01*
X822750Y1234184D01*
X822700Y1234286D01*
X822647Y1234386D01*
X822591Y1234485D01*
X822531Y1234581D01*
X822468Y1234675D01*
X822402Y1234767D01*
X822333Y1234857D01*
X822261Y1234944D01*
X822185Y1235029D01*
X822107Y1235111D01*
X822026Y1235190D01*
X821943Y1235267D01*
X821856Y1235340D01*
X821768Y1235411D01*
X821677Y1235478D01*
X821583Y1235543D01*
X821488Y1235604D01*
X821390Y1235661D01*
X821291Y1235716D01*
X821190Y1235766D01*
X821087Y1235814D01*
X820982Y1235858D01*
X820876Y1235898D01*
X820769Y1235934D01*
X820660Y1235967D01*
X820551Y1235996D01*
X820440Y1236021D01*
X820329Y1236042D01*
X820217Y1236060D01*
X820104Y1236073D01*
X819991Y1236083D01*
X819878Y1236089D01*
X819765Y1236091D01*
X819652Y1236089D01*
X819539Y1236083D01*
X819426Y1236073D01*
X819313Y1236060D01*
X819201Y1236042D01*
X819090Y1236021D01*
X818979Y1235996D01*
X818870Y1235967D01*
X818761Y1235934D01*
X818654Y1235898D01*
X818548Y1235858D01*
X818443Y1235814D01*
X818340Y1235766D01*
X818239Y1235716D01*
X818140Y1235661D01*
X818042Y1235604D01*
X817947Y1235543D01*
X817853Y1235478D01*
X817762Y1235411D01*
X817674Y1235340D01*
X817587Y1235267D01*
X817504Y1235190D01*
X817423Y1235111D01*
X817345Y1235029D01*
X817269Y1234944D01*
X817197Y1234857D01*
X817128Y1234767D01*
X817062Y1234675D01*
X816999Y1234581D01*
X816939Y1234485D01*
X816883Y1234386D01*
X816830Y1234286D01*
X816780Y1234184D01*
X816735Y1234080D01*
X816692Y1233975D01*
X816654Y1233869D01*
X816653Y1233869D02*
X816518Y1233584D01*
X816390Y1233296D01*
X816269Y1233006D01*
X816156Y1232712D01*
X816049Y1232416D01*
X815949Y1232117D01*
X815856Y1231816D01*
X815771Y1231513D01*
X815693Y1231208D01*
X815622Y1230902D01*
X815559Y1230593D01*
X815503Y1230283D01*
X815454Y1229972D01*
X815413Y1229660D01*
X815379Y1229347D01*
X815353Y1229034D01*
X815334Y1228719D01*
X815323Y1228405D01*
X815319Y1228090D01*
X824210Y1228090D02*
X824206Y1227775D01*
X824195Y1227461D01*
X824176Y1227146D01*
X824150Y1226833D01*
X824116Y1226520D01*
X824075Y1226208D01*
X824026Y1225897D01*
X823970Y1225587D01*
X823907Y1225278D01*
X823836Y1224972D01*
X823758Y1224667D01*
X823673Y1224364D01*
X823580Y1224063D01*
X823480Y1223764D01*
X823373Y1223468D01*
X823260Y1223174D01*
X823139Y1222884D01*
X823011Y1222596D01*
X822876Y1222311D01*
X822838Y1222205D01*
X822795Y1222100D01*
X822750Y1221996D01*
X822700Y1221894D01*
X822647Y1221794D01*
X822591Y1221695D01*
X822531Y1221599D01*
X822468Y1221505D01*
X822402Y1221413D01*
X822333Y1221323D01*
X822261Y1221236D01*
X822185Y1221151D01*
X822107Y1221069D01*
X822026Y1220990D01*
X821943Y1220913D01*
X821856Y1220840D01*
X821768Y1220769D01*
X821677Y1220702D01*
X821583Y1220637D01*
X821488Y1220576D01*
X821390Y1220519D01*
X821291Y1220464D01*
X821190Y1220414D01*
X821087Y1220366D01*
X820982Y1220322D01*
X820876Y1220282D01*
X820769Y1220246D01*
X820660Y1220213D01*
X820551Y1220184D01*
X820440Y1220159D01*
X820329Y1220138D01*
X820217Y1220120D01*
X820104Y1220107D01*
X819991Y1220097D01*
X819878Y1220091D01*
X819765Y1220089D01*
X816653Y1222311D02*
X816518Y1222596D01*
X816390Y1222884D01*
X816269Y1223174D01*
X816156Y1223468D01*
X816049Y1223764D01*
X815949Y1224063D01*
X815856Y1224364D01*
X815771Y1224667D01*
X815693Y1224972D01*
X815622Y1225278D01*
X815559Y1225587D01*
X815503Y1225897D01*
X815454Y1226208D01*
X815413Y1226520D01*
X815379Y1226833D01*
X815353Y1227146D01*
X815334Y1227461D01*
X815323Y1227775D01*
X815319Y1228090D01*
X816654Y1222311D02*
X816692Y1222205D01*
X816735Y1222100D01*
X816780Y1221996D01*
X816830Y1221894D01*
X816883Y1221794D01*
X816939Y1221695D01*
X816999Y1221599D01*
X817062Y1221505D01*
X817128Y1221413D01*
X817197Y1221323D01*
X817269Y1221236D01*
X817345Y1221151D01*
X817423Y1221069D01*
X817504Y1220990D01*
X817587Y1220913D01*
X817674Y1220840D01*
X817762Y1220769D01*
X817853Y1220702D01*
X817947Y1220637D01*
X818042Y1220576D01*
X818140Y1220519D01*
X818239Y1220464D01*
X818340Y1220414D01*
X818443Y1220366D01*
X818548Y1220322D01*
X818654Y1220282D01*
X818761Y1220246D01*
X818870Y1220213D01*
X818979Y1220184D01*
X819090Y1220159D01*
X819201Y1220138D01*
X819313Y1220120D01*
X819426Y1220107D01*
X819539Y1220097D01*
X819652Y1220091D01*
X819765Y1220089D01*
X823321Y1223645D02*
X816209Y1232535D01*
M02*
