G04 EAGLE Gerber RS-274X export*
G75*
%MOMM*%
%FSLAX34Y34*%
%LPD*%
%INSoldermask Bottom*%
%IPPOS*%
%AMOC8*
5,1,8,0,0,1.08239X$1,22.5*%
G01*
%ADD10C,2.692400*%
%ADD11P,2.914227X8X202.500000*%
%ADD12P,2.914227X8X292.500000*%
%ADD13C,1.676400*%
%ADD14C,1.930400*%
%ADD15C,1.524000*%
%ADD16C,1.817400*%
%ADD17C,4.368400*%
%ADD18C,1.787400*%
%ADD19C,2.702400*%
%ADD20C,3.572400*%
%ADD21C,3.512400*%
%ADD22C,1.752400*%
%ADD23C,2.032000*%
%ADD24P,1.814519X8X112.500000*%
%ADD25P,1.814519X8X292.500000*%
%ADD26P,1.649562X8X22.500000*%
%ADD27C,1.066800*%
%ADD28C,1.574800*%
%ADD29P,1.649562X8X112.500000*%
%ADD30C,1.637400*%
%ADD31R,1.637400X1.637400*%
%ADD32C,1.502400*%
%ADD33C,2.057400*%
%ADD34C,1.778000*%
%ADD35C,1.752400*%
%ADD36C,1.852400*%
%ADD37C,1.902400*%
%ADD38C,2.352400*%
%ADD39C,1.577400*%
%ADD40C,3.468400*%
%ADD41P,1.814519X8X22.500000*%


D10*
X88900Y692150D03*
D11*
X38100Y692150D03*
D10*
X1079500Y749300D03*
D12*
X1079500Y698500D03*
D10*
X971550Y749300D03*
D12*
X971550Y698500D03*
D13*
X514350Y499745D02*
X514350Y484505D01*
X488950Y484505D02*
X488950Y499745D01*
X463550Y499745D02*
X463550Y484505D01*
X438150Y484505D02*
X438150Y499745D01*
D14*
X190500Y190500D03*
X190500Y165100D03*
X190500Y139700D03*
X190500Y114300D03*
D15*
X1301750Y678942D02*
X1301750Y692658D01*
X1327150Y692658D02*
X1327150Y678942D01*
D16*
X1244600Y723900D03*
X1244600Y749300D03*
X1244600Y774700D03*
X1244600Y800100D03*
X1244600Y825500D03*
X1244600Y1079500D03*
X1244600Y1104900D03*
X1244600Y1130300D03*
X1244600Y1155700D03*
X1244600Y1181100D03*
X1244600Y1206500D03*
D17*
X1039400Y1295900D03*
X789400Y1295900D03*
D18*
X914400Y1281700D03*
X942100Y1281700D03*
X969800Y1281700D03*
X886700Y1281700D03*
X859000Y1281700D03*
X872850Y1310100D03*
X900550Y1310100D03*
X928250Y1310100D03*
X955950Y1310100D03*
D19*
X1155700Y1270000D03*
D20*
X1155700Y1330000D03*
D21*
X1203200Y1288000D03*
X1203200Y1335000D03*
X1108200Y1288000D03*
X1108200Y1335000D03*
D22*
X1155700Y1362500D03*
D23*
X1447800Y628650D03*
X1422400Y628650D03*
X1447800Y654050D03*
X1422400Y654050D03*
X1447800Y679450D03*
X1422400Y679450D03*
X1447800Y704850D03*
X1422400Y704850D03*
X1447800Y730250D03*
X1422400Y730250D03*
X1447800Y755650D03*
X1422400Y755650D03*
X1447800Y781050D03*
X1422400Y781050D03*
X1447800Y806450D03*
X1422400Y806450D03*
X1447800Y831850D03*
X1422400Y831850D03*
X1447800Y857250D03*
X1422400Y857250D03*
X1447800Y882650D03*
X1422400Y882650D03*
X1447800Y908050D03*
X1422400Y908050D03*
X1447800Y933450D03*
X1422400Y933450D03*
X1447800Y958850D03*
X1422400Y958850D03*
X1447800Y984250D03*
X1422400Y984250D03*
X1447800Y1009650D03*
X1422400Y1009650D03*
X1447800Y1035050D03*
X1422400Y1035050D03*
X1447800Y1060450D03*
X1422400Y1060450D03*
X1447800Y1085850D03*
X1422400Y1085850D03*
X1447800Y1111250D03*
X1422400Y1111250D03*
D24*
X381000Y88900D03*
X355600Y88900D03*
X381000Y114300D03*
X355600Y114300D03*
X381000Y139700D03*
X355600Y139700D03*
D25*
X50800Y177800D03*
X76200Y177800D03*
X50800Y152400D03*
X76200Y152400D03*
X50800Y127000D03*
X76200Y127000D03*
D26*
X498475Y727075D03*
X498475Y752475D03*
X523875Y727075D03*
X523875Y752475D03*
X549275Y727075D03*
X549275Y752475D03*
X574675Y752475D03*
X574675Y727075D03*
D25*
X50800Y387350D03*
X76200Y387350D03*
X50800Y361950D03*
X76200Y361950D03*
X50800Y336550D03*
X76200Y336550D03*
X50800Y596900D03*
X76200Y596900D03*
X50800Y571500D03*
X76200Y571500D03*
X50800Y546100D03*
X76200Y546100D03*
D24*
X381000Y298450D03*
X355600Y298450D03*
X381000Y323850D03*
X355600Y323850D03*
X381000Y349250D03*
X355600Y349250D03*
D27*
X852678Y381000D02*
X861822Y381000D01*
X861822Y431800D02*
X852678Y431800D01*
D28*
X1457325Y342900D03*
X1457325Y368300D03*
X1457325Y393700D03*
X63500Y977900D03*
X88900Y977900D03*
X114300Y977900D03*
X1254125Y342900D03*
X1254125Y368300D03*
X1254125Y393700D03*
X215900Y977900D03*
X241300Y977900D03*
X266700Y977900D03*
X368300Y977900D03*
X393700Y977900D03*
X419100Y977900D03*
X1219200Y495300D03*
X1219200Y520700D03*
X1219200Y546100D03*
X406400Y838200D03*
X406400Y812800D03*
X406400Y787400D03*
D29*
X628650Y822325D03*
X603250Y822325D03*
X628650Y847725D03*
X603250Y847725D03*
X628650Y873125D03*
X603250Y873125D03*
X628650Y898525D03*
X603250Y898525D03*
X628650Y923925D03*
X603250Y923925D03*
X628650Y949325D03*
X603250Y949325D03*
X628650Y974725D03*
X603250Y974725D03*
D30*
X699250Y425725D03*
X699250Y380725D03*
X634250Y425725D03*
D31*
X634250Y380725D03*
D32*
X406400Y63500D03*
X406400Y88900D03*
X406400Y114300D03*
X406400Y139700D03*
X406400Y165100D03*
X406400Y190500D03*
X406400Y215900D03*
X406400Y241300D03*
X279400Y241300D03*
X279400Y215900D03*
X279400Y190500D03*
X279400Y165100D03*
X279400Y139700D03*
X279400Y114300D03*
X279400Y88900D03*
X279400Y63500D03*
X25400Y203200D03*
X25400Y177800D03*
X25400Y152400D03*
X25400Y127000D03*
X25400Y101600D03*
X25400Y76200D03*
X25400Y50800D03*
X25400Y25400D03*
X152400Y25400D03*
X152400Y50800D03*
X152400Y76200D03*
X152400Y101600D03*
X152400Y127000D03*
X152400Y152400D03*
X152400Y177800D03*
X152400Y203200D03*
X25400Y412750D03*
X25400Y387350D03*
X25400Y361950D03*
X25400Y336550D03*
X25400Y311150D03*
X25400Y285750D03*
X25400Y260350D03*
X25400Y234950D03*
X152400Y234950D03*
X152400Y260350D03*
X152400Y285750D03*
X152400Y311150D03*
X152400Y336550D03*
X152400Y361950D03*
X152400Y387350D03*
X152400Y412750D03*
X25400Y622300D03*
X25400Y596900D03*
X25400Y571500D03*
X25400Y546100D03*
X25400Y520700D03*
X25400Y495300D03*
X25400Y469900D03*
X25400Y444500D03*
X152400Y444500D03*
X152400Y469900D03*
X152400Y495300D03*
X152400Y520700D03*
X152400Y546100D03*
X152400Y571500D03*
X152400Y596900D03*
X152400Y622300D03*
X406400Y273050D03*
X406400Y298450D03*
X406400Y323850D03*
X406400Y349250D03*
X406400Y374650D03*
X406400Y400050D03*
X406400Y425450D03*
X406400Y450850D03*
X279400Y450850D03*
X279400Y425450D03*
X279400Y400050D03*
X279400Y374650D03*
X279400Y349250D03*
X279400Y323850D03*
X279400Y298450D03*
X279400Y273050D03*
D14*
X736600Y177800D03*
X736600Y152400D03*
X736600Y127000D03*
X762000Y177800D03*
X762000Y152400D03*
X762000Y127000D03*
X177800Y361950D03*
X177800Y336550D03*
X177800Y311150D03*
X177800Y285750D03*
D33*
X923925Y149225D02*
X923925Y130175D01*
X962025Y130175D02*
X962025Y149225D01*
X1368425Y149225D02*
X1368425Y130175D01*
X1406525Y130175D02*
X1406525Y149225D01*
X571500Y1260475D02*
X571500Y1279525D01*
X533400Y1279525D02*
X533400Y1260475D01*
X495300Y1260475D02*
X495300Y1279525D01*
X457200Y1279525D02*
X457200Y1260475D01*
X419100Y1260475D02*
X419100Y1279525D01*
X355600Y1279525D02*
X355600Y1260475D01*
X317500Y1260475D02*
X317500Y1279525D01*
X279400Y1279525D02*
X279400Y1260475D01*
X241300Y1260475D02*
X241300Y1279525D01*
X203200Y1279525D02*
X203200Y1260475D01*
X165100Y1260475D02*
X165100Y1279525D01*
X127000Y1279525D02*
X127000Y1260475D01*
X1165225Y149225D02*
X1165225Y130175D01*
X1203325Y130175D02*
X1203325Y149225D01*
X1025525Y149225D02*
X1025525Y130175D01*
X1063625Y130175D02*
X1063625Y149225D01*
D14*
X787400Y177800D03*
X787400Y152400D03*
X787400Y127000D03*
X812800Y177800D03*
X812800Y152400D03*
X812800Y127000D03*
X177800Y571500D03*
X177800Y546100D03*
X177800Y520700D03*
X177800Y495300D03*
X838200Y177800D03*
X838200Y152400D03*
X838200Y127000D03*
X254000Y323850D03*
X254000Y349250D03*
X254000Y374650D03*
X254000Y400050D03*
X254000Y114300D03*
X254000Y139700D03*
X254000Y165100D03*
X254000Y190500D03*
X647700Y177800D03*
X647700Y152400D03*
X647700Y127000D03*
X673100Y177800D03*
X673100Y152400D03*
X673100Y127000D03*
D34*
X536575Y619125D03*
X536575Y644525D03*
X511175Y644525D03*
X511175Y619125D03*
X561975Y619125D03*
X561975Y644525D03*
D13*
X803275Y274320D02*
X803275Y259080D01*
X828675Y259080D02*
X828675Y274320D01*
X854075Y274320D02*
X854075Y259080D01*
X879475Y259080D02*
X879475Y274320D01*
X803275Y290830D02*
X803275Y306070D01*
X828675Y306070D02*
X828675Y290830D01*
X854075Y290830D02*
X854075Y306070D01*
X879475Y306070D02*
X879475Y290830D01*
X803275Y322580D02*
X803275Y337820D01*
X828675Y337820D02*
X828675Y322580D01*
X854075Y322580D02*
X854075Y337820D01*
X879475Y337820D02*
X879475Y322580D01*
D24*
X987425Y393700D03*
X987425Y419100D03*
X987425Y444500D03*
X987425Y469900D03*
X987425Y495300D03*
X987425Y520700D03*
X962025Y393700D03*
X962025Y419100D03*
X962025Y444500D03*
X962025Y469900D03*
X962025Y495300D03*
X962025Y520700D03*
X987425Y546100D03*
X987425Y571500D03*
X962025Y546100D03*
X962025Y571500D03*
X987425Y596900D03*
X962025Y596900D03*
X987425Y622300D03*
X962025Y622300D03*
D35*
X1432350Y1262000D02*
X1432350Y1278000D01*
X1374350Y1278000D02*
X1374350Y1262000D01*
X1428350Y1298500D02*
X1428350Y1314500D01*
X1378350Y1314500D02*
X1378350Y1298500D01*
D36*
X1428350Y1341500D03*
X1378350Y1341500D03*
D37*
X1394600Y1361500D02*
X1412100Y1361500D01*
D35*
X1325350Y1264500D02*
X1325350Y1248500D01*
X1481350Y1248500D02*
X1481350Y1264500D01*
D38*
X1481350Y1341500D03*
X1325350Y1341500D03*
D25*
X1089025Y1212850D03*
X1089025Y1187450D03*
X1089025Y1162050D03*
X1089025Y1136650D03*
X1089025Y1111250D03*
X1114425Y1212850D03*
X1114425Y1187450D03*
X1114425Y1162050D03*
X1114425Y1136650D03*
X1114425Y1111250D03*
D33*
X1012825Y1330325D02*
X1012825Y1349375D01*
X974725Y1349375D02*
X974725Y1330325D01*
X936625Y1330325D02*
X936625Y1349375D01*
X898525Y1349375D02*
X898525Y1330325D01*
X860425Y1330325D02*
X860425Y1349375D01*
X822325Y1349375D02*
X822325Y1330325D01*
D28*
X1466850Y488950D03*
X1466850Y514350D03*
X1466850Y539750D03*
D39*
X689450Y1273875D02*
X689450Y1288125D01*
X669450Y1288125D02*
X669450Y1273875D01*
X714450Y1273875D02*
X714450Y1288125D01*
X644450Y1288125D02*
X644450Y1273875D01*
D40*
X745150Y1308100D03*
X613750Y1308100D03*
D33*
X104775Y819150D02*
X85725Y819150D01*
X85725Y857250D02*
X104775Y857250D01*
D41*
X647700Y695325D03*
X673100Y695325D03*
X698500Y695325D03*
X723900Y695325D03*
X749300Y695325D03*
X774700Y695325D03*
X647700Y720725D03*
X673100Y720725D03*
X698500Y720725D03*
X723900Y720725D03*
X749300Y720725D03*
X774700Y720725D03*
D33*
X831850Y1171575D02*
X831850Y1190625D01*
X793750Y1190625D02*
X793750Y1171575D01*
X755650Y1171575D02*
X755650Y1190625D01*
X717550Y1190625D02*
X717550Y1171575D01*
M02*
