G04 EAGLE Gerber RS-274X export*
G75*
%MOMM*%
%FSLAX34Y34*%
%LPD*%
%INSoldermask Top*%
%IPPOS*%
%AMOC8*
5,1,8,0,0,1.08239X$1,22.5*%
G01*
%ADD10R,2.352400X1.552400*%
%ADD11R,1.652400X1.452400*%
%ADD12R,3.152400X1.552400*%
%ADD13R,1.452400X1.652400*%
%ADD14R,1.552400X3.152400*%
%ADD15C,2.692400*%
%ADD16P,2.914227X8X202.500000*%
%ADD17R,3.552400X2.052400*%
%ADD18R,1.552400X2.352400*%
%ADD19R,2.052400X3.552400*%
%ADD20P,2.914227X8X292.500000*%
%ADD21R,1.852400X1.952400*%
%ADD22R,1.952400X1.852400*%
%ADD23R,2.552400X2.552400*%
%ADD24C,1.676400*%
%ADD25C,1.930400*%
%ADD26C,1.524000*%
%ADD27R,1.352400X0.752400*%
%ADD28R,2.352400X0.752400*%
%ADD29R,2.184400X0.812800*%
%ADD30R,0.752400X2.352400*%
%ADD31R,0.812800X2.184400*%
%ADD32R,0.752400X1.352400*%
%ADD33R,3.152400X1.752400*%
%ADD34R,4.343400X4.978400*%
%ADD35C,1.817400*%
%ADD36C,4.368400*%
%ADD37C,1.787400*%
%ADD38C,2.702400*%
%ADD39C,3.572400*%
%ADD40C,3.512400*%
%ADD41C,1.752400*%
%ADD42C,2.032000*%
%ADD43P,1.814519X8X112.500000*%
%ADD44P,1.814519X8X292.500000*%
%ADD45P,1.649562X8X22.500000*%
%ADD46R,3.752400X3.102400*%
%ADD47C,1.066800*%
%ADD48R,1.752400X3.152400*%
%ADD49R,4.978400X4.343400*%
%ADD50C,1.574800*%
%ADD51R,1.955400X1.752400*%
%ADD52P,1.649562X8X112.500000*%
%ADD53C,1.637400*%
%ADD54R,1.637400X1.637400*%
%ADD55R,1.152400X1.552400*%
%ADD56C,1.502400*%
%ADD57R,10.562400X10.952400*%
%ADD58R,2.311400X1.219200*%
%ADD59C,0.312153*%
%ADD60R,1.143000X0.457200*%
%ADD61C,2.057400*%
%ADD62C,1.778000*%
%ADD63C,1.752400*%
%ADD64C,1.852400*%
%ADD65C,1.902400*%
%ADD66C,2.352400*%
%ADD67C,1.577400*%
%ADD68C,3.468400*%
%ADD69R,1.652400X2.152400*%
%ADD70R,3.952400X2.152400*%
%ADD71P,1.814519X8X22.500000*%

G36*
X1325478Y360267D02*
X1325478Y360267D01*
X1325485Y360272D01*
X1325490Y360268D01*
X1325689Y360316D01*
X1325692Y360321D01*
X1325696Y360319D01*
X1325884Y360397D01*
X1325887Y360401D01*
X1325891Y360400D01*
X1326065Y360506D01*
X1326067Y360512D01*
X1326071Y360511D01*
X1326226Y360644D01*
X1326227Y360649D01*
X1326231Y360649D01*
X1326364Y360804D01*
X1326365Y360810D01*
X1326369Y360810D01*
X1326475Y360984D01*
X1326474Y360990D01*
X1326479Y360991D01*
X1326557Y361179D01*
X1326555Y361185D01*
X1326559Y361186D01*
X1326607Y361385D01*
X1326605Y361391D01*
X1326608Y361393D01*
X1326624Y361596D01*
X1326622Y361599D01*
X1326624Y361600D01*
X1326624Y370400D01*
X1326622Y370402D01*
X1326624Y370404D01*
X1326608Y370607D01*
X1326604Y370611D01*
X1326607Y370615D01*
X1326559Y370814D01*
X1326554Y370817D01*
X1326557Y370821D01*
X1326479Y371009D01*
X1326474Y371012D01*
X1326475Y371016D01*
X1326369Y371190D01*
X1326364Y371192D01*
X1326364Y371196D01*
X1326231Y371351D01*
X1326226Y371352D01*
X1326226Y371356D01*
X1326071Y371489D01*
X1326065Y371490D01*
X1326065Y371494D01*
X1325891Y371600D01*
X1325885Y371599D01*
X1325884Y371604D01*
X1325696Y371682D01*
X1325690Y371680D01*
X1325689Y371684D01*
X1325490Y371732D01*
X1325484Y371730D01*
X1325482Y371733D01*
X1325279Y371749D01*
X1325276Y371747D01*
X1325275Y371749D01*
X1322472Y371733D01*
X1322465Y371728D01*
X1322460Y371732D01*
X1322261Y371684D01*
X1322258Y371679D01*
X1322254Y371682D01*
X1322066Y371604D01*
X1322063Y371599D01*
X1322059Y371600D01*
X1321885Y371494D01*
X1321883Y371489D01*
X1321879Y371489D01*
X1321724Y371356D01*
X1321723Y371351D01*
X1321719Y371351D01*
X1321586Y371196D01*
X1321585Y371190D01*
X1321581Y371190D01*
X1321475Y371016D01*
X1321476Y371010D01*
X1321472Y371009D01*
X1321394Y370821D01*
X1321395Y370815D01*
X1321391Y370814D01*
X1321343Y370615D01*
X1321345Y370609D01*
X1321342Y370607D01*
X1321326Y370404D01*
X1321328Y370401D01*
X1321326Y370400D01*
X1321326Y361600D01*
X1321328Y361598D01*
X1321326Y361596D01*
X1321342Y361393D01*
X1321346Y361389D01*
X1321343Y361385D01*
X1321391Y361186D01*
X1321396Y361183D01*
X1321394Y361179D01*
X1321472Y360991D01*
X1321476Y360988D01*
X1321475Y360984D01*
X1321581Y360810D01*
X1321587Y360808D01*
X1321586Y360804D01*
X1321719Y360649D01*
X1321724Y360648D01*
X1321724Y360644D01*
X1321879Y360511D01*
X1321885Y360510D01*
X1321885Y360506D01*
X1322059Y360400D01*
X1322065Y360401D01*
X1322066Y360397D01*
X1322254Y360319D01*
X1322260Y360320D01*
X1322261Y360316D01*
X1322460Y360268D01*
X1322466Y360270D01*
X1322468Y360267D01*
X1322671Y360251D01*
X1322674Y360253D01*
X1322675Y360251D01*
X1325478Y360267D01*
G37*
G36*
X1122278Y360267D02*
X1122278Y360267D01*
X1122285Y360272D01*
X1122290Y360268D01*
X1122489Y360316D01*
X1122492Y360321D01*
X1122496Y360319D01*
X1122684Y360397D01*
X1122687Y360401D01*
X1122691Y360400D01*
X1122865Y360506D01*
X1122867Y360512D01*
X1122871Y360511D01*
X1123026Y360644D01*
X1123027Y360649D01*
X1123031Y360649D01*
X1123164Y360804D01*
X1123165Y360810D01*
X1123169Y360810D01*
X1123275Y360984D01*
X1123274Y360990D01*
X1123279Y360991D01*
X1123357Y361179D01*
X1123355Y361185D01*
X1123359Y361186D01*
X1123407Y361385D01*
X1123405Y361391D01*
X1123408Y361393D01*
X1123424Y361596D01*
X1123422Y361599D01*
X1123424Y361600D01*
X1123424Y370400D01*
X1123422Y370402D01*
X1123424Y370404D01*
X1123408Y370607D01*
X1123404Y370611D01*
X1123407Y370615D01*
X1123359Y370814D01*
X1123354Y370817D01*
X1123357Y370821D01*
X1123279Y371009D01*
X1123274Y371012D01*
X1123275Y371016D01*
X1123169Y371190D01*
X1123164Y371192D01*
X1123164Y371196D01*
X1123031Y371351D01*
X1123026Y371352D01*
X1123026Y371356D01*
X1122871Y371489D01*
X1122865Y371490D01*
X1122865Y371494D01*
X1122691Y371600D01*
X1122685Y371599D01*
X1122684Y371604D01*
X1122496Y371682D01*
X1122490Y371680D01*
X1122489Y371684D01*
X1122290Y371732D01*
X1122284Y371730D01*
X1122282Y371733D01*
X1122079Y371749D01*
X1122076Y371747D01*
X1122075Y371749D01*
X1119272Y371733D01*
X1119265Y371728D01*
X1119260Y371732D01*
X1119061Y371684D01*
X1119058Y371679D01*
X1119054Y371682D01*
X1118866Y371604D01*
X1118863Y371599D01*
X1118859Y371600D01*
X1118685Y371494D01*
X1118683Y371489D01*
X1118679Y371489D01*
X1118524Y371356D01*
X1118523Y371351D01*
X1118519Y371351D01*
X1118386Y371196D01*
X1118385Y371190D01*
X1118381Y371190D01*
X1118275Y371016D01*
X1118276Y371010D01*
X1118272Y371009D01*
X1118194Y370821D01*
X1118195Y370815D01*
X1118191Y370814D01*
X1118143Y370615D01*
X1118145Y370609D01*
X1118142Y370607D01*
X1118126Y370404D01*
X1118128Y370401D01*
X1118126Y370400D01*
X1118126Y361600D01*
X1118128Y361598D01*
X1118126Y361596D01*
X1118142Y361393D01*
X1118146Y361389D01*
X1118143Y361385D01*
X1118191Y361186D01*
X1118196Y361183D01*
X1118194Y361179D01*
X1118272Y360991D01*
X1118276Y360988D01*
X1118275Y360984D01*
X1118381Y360810D01*
X1118387Y360808D01*
X1118386Y360804D01*
X1118519Y360649D01*
X1118524Y360648D01*
X1118524Y360644D01*
X1118679Y360511D01*
X1118685Y360510D01*
X1118685Y360506D01*
X1118859Y360400D01*
X1118865Y360401D01*
X1118866Y360397D01*
X1119054Y360319D01*
X1119060Y360320D01*
X1119061Y360316D01*
X1119260Y360268D01*
X1119266Y360270D01*
X1119268Y360267D01*
X1119471Y360251D01*
X1119474Y360253D01*
X1119475Y360251D01*
X1122278Y360267D01*
G37*
G36*
X1122278Y339467D02*
X1122278Y339467D01*
X1122285Y339472D01*
X1122290Y339468D01*
X1122489Y339516D01*
X1122492Y339521D01*
X1122496Y339519D01*
X1122684Y339597D01*
X1122687Y339601D01*
X1122691Y339600D01*
X1122865Y339706D01*
X1122867Y339712D01*
X1122871Y339711D01*
X1123026Y339844D01*
X1123027Y339849D01*
X1123031Y339849D01*
X1123164Y340004D01*
X1123165Y340010D01*
X1123169Y340010D01*
X1123275Y340184D01*
X1123274Y340190D01*
X1123279Y340191D01*
X1123357Y340379D01*
X1123355Y340385D01*
X1123359Y340386D01*
X1123407Y340585D01*
X1123405Y340591D01*
X1123408Y340593D01*
X1123424Y340796D01*
X1123422Y340799D01*
X1123424Y340800D01*
X1123424Y349600D01*
X1123422Y349602D01*
X1123424Y349604D01*
X1123408Y349807D01*
X1123404Y349811D01*
X1123407Y349815D01*
X1123359Y350014D01*
X1123354Y350017D01*
X1123357Y350021D01*
X1123279Y350209D01*
X1123274Y350212D01*
X1123275Y350216D01*
X1123169Y350390D01*
X1123164Y350392D01*
X1123164Y350396D01*
X1123031Y350551D01*
X1123026Y350552D01*
X1123026Y350556D01*
X1122871Y350689D01*
X1122865Y350690D01*
X1122865Y350694D01*
X1122691Y350800D01*
X1122685Y350799D01*
X1122684Y350804D01*
X1122496Y350882D01*
X1122490Y350880D01*
X1122489Y350884D01*
X1122290Y350932D01*
X1122284Y350930D01*
X1122282Y350933D01*
X1122079Y350949D01*
X1122076Y350947D01*
X1122075Y350949D01*
X1119272Y350933D01*
X1119265Y350928D01*
X1119260Y350932D01*
X1119061Y350884D01*
X1119058Y350879D01*
X1119054Y350882D01*
X1118866Y350804D01*
X1118863Y350799D01*
X1118859Y350800D01*
X1118685Y350694D01*
X1118683Y350689D01*
X1118679Y350689D01*
X1118524Y350556D01*
X1118523Y350551D01*
X1118519Y350551D01*
X1118386Y350396D01*
X1118385Y350390D01*
X1118381Y350390D01*
X1118275Y350216D01*
X1118276Y350210D01*
X1118272Y350209D01*
X1118194Y350021D01*
X1118195Y350015D01*
X1118191Y350014D01*
X1118143Y349815D01*
X1118145Y349809D01*
X1118142Y349807D01*
X1118126Y349604D01*
X1118128Y349601D01*
X1118126Y349600D01*
X1118126Y340800D01*
X1118128Y340798D01*
X1118126Y340796D01*
X1118142Y340593D01*
X1118146Y340589D01*
X1118143Y340585D01*
X1118191Y340386D01*
X1118196Y340383D01*
X1118194Y340379D01*
X1118272Y340191D01*
X1118276Y340188D01*
X1118275Y340184D01*
X1118381Y340010D01*
X1118387Y340008D01*
X1118386Y340004D01*
X1118519Y339849D01*
X1118524Y339848D01*
X1118524Y339844D01*
X1118679Y339711D01*
X1118685Y339710D01*
X1118685Y339706D01*
X1118859Y339600D01*
X1118865Y339601D01*
X1118866Y339597D01*
X1119054Y339519D01*
X1119060Y339520D01*
X1119061Y339516D01*
X1119260Y339468D01*
X1119266Y339470D01*
X1119268Y339467D01*
X1119471Y339451D01*
X1119474Y339453D01*
X1119475Y339451D01*
X1122278Y339467D01*
G37*
G36*
X1325478Y339467D02*
X1325478Y339467D01*
X1325485Y339472D01*
X1325490Y339468D01*
X1325689Y339516D01*
X1325692Y339521D01*
X1325696Y339519D01*
X1325884Y339597D01*
X1325887Y339601D01*
X1325891Y339600D01*
X1326065Y339706D01*
X1326067Y339712D01*
X1326071Y339711D01*
X1326226Y339844D01*
X1326227Y339849D01*
X1326231Y339849D01*
X1326364Y340004D01*
X1326365Y340010D01*
X1326369Y340010D01*
X1326475Y340184D01*
X1326474Y340190D01*
X1326479Y340191D01*
X1326557Y340379D01*
X1326555Y340385D01*
X1326559Y340386D01*
X1326607Y340585D01*
X1326605Y340591D01*
X1326608Y340593D01*
X1326624Y340796D01*
X1326622Y340799D01*
X1326624Y340800D01*
X1326624Y349600D01*
X1326622Y349602D01*
X1326624Y349604D01*
X1326608Y349807D01*
X1326604Y349811D01*
X1326607Y349815D01*
X1326559Y350014D01*
X1326554Y350017D01*
X1326557Y350021D01*
X1326479Y350209D01*
X1326474Y350212D01*
X1326475Y350216D01*
X1326369Y350390D01*
X1326364Y350392D01*
X1326364Y350396D01*
X1326231Y350551D01*
X1326226Y350552D01*
X1326226Y350556D01*
X1326071Y350689D01*
X1326065Y350690D01*
X1326065Y350694D01*
X1325891Y350800D01*
X1325885Y350799D01*
X1325884Y350804D01*
X1325696Y350882D01*
X1325690Y350880D01*
X1325689Y350884D01*
X1325490Y350932D01*
X1325484Y350930D01*
X1325482Y350933D01*
X1325279Y350949D01*
X1325276Y350947D01*
X1325275Y350949D01*
X1322472Y350933D01*
X1322465Y350928D01*
X1322460Y350932D01*
X1322261Y350884D01*
X1322258Y350879D01*
X1322254Y350882D01*
X1322066Y350804D01*
X1322063Y350799D01*
X1322059Y350800D01*
X1321885Y350694D01*
X1321883Y350689D01*
X1321879Y350689D01*
X1321724Y350556D01*
X1321723Y350551D01*
X1321719Y350551D01*
X1321586Y350396D01*
X1321585Y350390D01*
X1321581Y350390D01*
X1321475Y350216D01*
X1321476Y350210D01*
X1321472Y350209D01*
X1321394Y350021D01*
X1321395Y350015D01*
X1321391Y350014D01*
X1321343Y349815D01*
X1321345Y349809D01*
X1321342Y349807D01*
X1321326Y349604D01*
X1321328Y349601D01*
X1321326Y349600D01*
X1321326Y340800D01*
X1321328Y340798D01*
X1321326Y340796D01*
X1321342Y340593D01*
X1321346Y340589D01*
X1321343Y340585D01*
X1321391Y340386D01*
X1321396Y340383D01*
X1321394Y340379D01*
X1321472Y340191D01*
X1321476Y340188D01*
X1321475Y340184D01*
X1321581Y340010D01*
X1321587Y340008D01*
X1321586Y340004D01*
X1321719Y339849D01*
X1321724Y339848D01*
X1321724Y339844D01*
X1321879Y339711D01*
X1321885Y339710D01*
X1321885Y339706D01*
X1322059Y339600D01*
X1322065Y339601D01*
X1322066Y339597D01*
X1322254Y339519D01*
X1322260Y339520D01*
X1322261Y339516D01*
X1322460Y339468D01*
X1322466Y339470D01*
X1322468Y339467D01*
X1322671Y339451D01*
X1322674Y339453D01*
X1322675Y339451D01*
X1325478Y339467D01*
G37*
D10*
X943100Y1079500D03*
X911100Y1079500D03*
X873000Y1231900D03*
X905000Y1231900D03*
D11*
X774700Y79400D03*
X774700Y98400D03*
X749300Y79400D03*
X749300Y98400D03*
X825500Y79400D03*
X825500Y98400D03*
X800100Y79400D03*
X800100Y98400D03*
D12*
X140840Y1333500D03*
X188840Y1333500D03*
D11*
X850900Y79400D03*
X850900Y98400D03*
D13*
X720750Y428625D03*
X739750Y428625D03*
D11*
X850900Y628675D03*
X850900Y647675D03*
X657225Y615975D03*
X657225Y634975D03*
D13*
X917550Y431800D03*
X898550Y431800D03*
X917550Y381000D03*
X898550Y381000D03*
D11*
X742950Y387375D03*
X742950Y406375D03*
D13*
X1397025Y381000D03*
X1416025Y381000D03*
X1384325Y457200D03*
X1403325Y457200D03*
X98450Y1117600D03*
X117450Y1117600D03*
D11*
X161925Y1031850D03*
X161925Y1012850D03*
D10*
X66800Y1117600D03*
X34800Y1117600D03*
D11*
X1095375Y333400D03*
X1095375Y352400D03*
D13*
X1193825Y381000D03*
X1212825Y381000D03*
D14*
X993775Y27060D03*
X993775Y75060D03*
D13*
X1181125Y457200D03*
X1200125Y457200D03*
X250850Y1117600D03*
X269850Y1117600D03*
D11*
X314325Y1031850D03*
X314325Y1012850D03*
X1298575Y330225D03*
X1298575Y349225D03*
D10*
X219200Y1117600D03*
X187200Y1117600D03*
D13*
X403250Y1117600D03*
X422250Y1117600D03*
D11*
X466725Y1031850D03*
X466725Y1012850D03*
D14*
X1333500Y773300D03*
X1333500Y725300D03*
X1333500Y1163825D03*
X1333500Y1115825D03*
X1333500Y1030100D03*
X1333500Y1078100D03*
D13*
X698475Y631825D03*
X679475Y631825D03*
D15*
X88900Y692150D03*
D16*
X38100Y692150D03*
D11*
X1298575Y797950D03*
X1298575Y814950D03*
X1266825Y1056250D03*
X1266825Y1039250D03*
X1285875Y1056250D03*
X1285875Y1039250D03*
X647700Y79400D03*
X647700Y98400D03*
X685800Y79400D03*
X685800Y98400D03*
X279400Y771500D03*
X279400Y752500D03*
D13*
X396900Y749300D03*
X415900Y749300D03*
X333400Y850900D03*
X352400Y850900D03*
D11*
X419100Y638200D03*
X419100Y657200D03*
D10*
X943100Y1123950D03*
X911100Y1123950D03*
D17*
X31750Y818700D03*
X31750Y857700D03*
D18*
X419100Y917700D03*
X419100Y885700D03*
D19*
X108400Y768350D03*
X69400Y768350D03*
D11*
X381000Y892200D03*
X381000Y911200D03*
D14*
X1219200Y639950D03*
X1219200Y591950D03*
D11*
X1174750Y504800D03*
X1174750Y485800D03*
D13*
X922900Y939800D03*
X905900Y939800D03*
D15*
X1079500Y749300D03*
D20*
X1079500Y698500D03*
D15*
X971550Y749300D03*
D20*
X971550Y698500D03*
D13*
X986400Y844550D03*
X969400Y844550D03*
D12*
X890400Y990600D03*
X938400Y990600D03*
D11*
X1346200Y850875D03*
X1346200Y831875D03*
X1320800Y850875D03*
X1320800Y831875D03*
D14*
X101600Y39500D03*
X101600Y87500D03*
X101600Y249050D03*
X101600Y297050D03*
X101600Y458600D03*
X101600Y506600D03*
X330200Y227200D03*
X330200Y179200D03*
X330200Y436750D03*
X330200Y388750D03*
D10*
X371600Y1117600D03*
X339600Y1117600D03*
D18*
X419100Y682500D03*
X419100Y714500D03*
D21*
X1261453Y80122D03*
X1261453Y121122D03*
X1460500Y93800D03*
X1460500Y134800D03*
D22*
X1423850Y76200D03*
X1382850Y76200D03*
X1217475Y76200D03*
X1176475Y76200D03*
X1024075Y101600D03*
X1065075Y101600D03*
X680900Y1238250D03*
X639900Y1238250D03*
X922475Y101600D03*
X963475Y101600D03*
D23*
X1314675Y76200D03*
X1358675Y76200D03*
X1098775Y76200D03*
X1142775Y76200D03*
D24*
X514350Y484505D02*
X514350Y499745D01*
X488950Y499745D02*
X488950Y484505D01*
X463550Y484505D02*
X463550Y499745D01*
X438150Y499745D02*
X438150Y484505D01*
D25*
X190500Y190500D03*
X190500Y165100D03*
X190500Y139700D03*
X190500Y114300D03*
D26*
X1301750Y678942D02*
X1301750Y692658D01*
X1327150Y692658D02*
X1327150Y678942D01*
D27*
X1162625Y438150D03*
X1162625Y425450D03*
X1162625Y412750D03*
X1162625Y400050D03*
X1218625Y400050D03*
X1218625Y412750D03*
X1218625Y425450D03*
X1218625Y438150D03*
D28*
X356200Y895350D03*
X304200Y895350D03*
X356200Y882650D03*
X356200Y908050D03*
X356200Y920750D03*
X304200Y882650D03*
X304200Y908050D03*
X304200Y920750D03*
D29*
X464566Y241300D03*
X526034Y241300D03*
X464566Y228600D03*
X464566Y215900D03*
X526034Y228600D03*
X526034Y215900D03*
X464566Y203200D03*
X526034Y203200D03*
X464566Y190500D03*
X526034Y190500D03*
X464566Y177800D03*
X464566Y165100D03*
X526034Y177800D03*
X526034Y165100D03*
X464566Y152400D03*
X526034Y152400D03*
D30*
X107950Y1092800D03*
X107950Y1040800D03*
X120650Y1092800D03*
X95250Y1092800D03*
X82550Y1092800D03*
X120650Y1040800D03*
X95250Y1040800D03*
X82550Y1040800D03*
D27*
X1365825Y438150D03*
X1365825Y425450D03*
X1365825Y412750D03*
X1365825Y400050D03*
X1421825Y400050D03*
X1421825Y412750D03*
X1421825Y425450D03*
X1421825Y438150D03*
D30*
X260350Y1092800D03*
X260350Y1040800D03*
X273050Y1092800D03*
X247650Y1092800D03*
X234950Y1092800D03*
X273050Y1040800D03*
X247650Y1040800D03*
X234950Y1040800D03*
X412750Y1092800D03*
X412750Y1040800D03*
X425450Y1092800D03*
X400050Y1092800D03*
X387350Y1092800D03*
X425450Y1040800D03*
X400050Y1040800D03*
X387350Y1040800D03*
D31*
X704850Y272034D03*
X704850Y210566D03*
X692150Y272034D03*
X679450Y272034D03*
X692150Y210566D03*
X679450Y210566D03*
X666750Y272034D03*
X666750Y210566D03*
X654050Y272034D03*
X654050Y210566D03*
X641350Y272034D03*
X628650Y272034D03*
X641350Y210566D03*
X628650Y210566D03*
X615950Y272034D03*
X615950Y210566D03*
D32*
X349250Y828100D03*
X336550Y828100D03*
X323850Y828100D03*
X311150Y828100D03*
X311150Y772100D03*
X323850Y772100D03*
X336550Y772100D03*
X349250Y772100D03*
D33*
X370600Y650300D03*
X370600Y695900D03*
D34*
X309240Y673100D03*
D35*
X1244600Y723900D03*
X1244600Y749300D03*
X1244600Y774700D03*
X1244600Y800100D03*
X1244600Y825500D03*
X1244600Y1079500D03*
X1244600Y1104900D03*
X1244600Y1130300D03*
X1244600Y1155700D03*
X1244600Y1181100D03*
X1244600Y1206500D03*
D36*
X1039400Y1295900D03*
X789400Y1295900D03*
D37*
X914400Y1281700D03*
X942100Y1281700D03*
X969800Y1281700D03*
X886700Y1281700D03*
X859000Y1281700D03*
X872850Y1310100D03*
X900550Y1310100D03*
X928250Y1310100D03*
X955950Y1310100D03*
D38*
X1155700Y1270000D03*
D39*
X1155700Y1330000D03*
D40*
X1203200Y1288000D03*
X1203200Y1335000D03*
X1108200Y1288000D03*
X1108200Y1335000D03*
D41*
X1155700Y1362500D03*
D42*
X1447800Y628650D03*
X1422400Y628650D03*
X1447800Y654050D03*
X1422400Y654050D03*
X1447800Y679450D03*
X1422400Y679450D03*
X1447800Y704850D03*
X1422400Y704850D03*
X1447800Y730250D03*
X1422400Y730250D03*
X1447800Y755650D03*
X1422400Y755650D03*
X1447800Y781050D03*
X1422400Y781050D03*
X1447800Y806450D03*
X1422400Y806450D03*
X1447800Y831850D03*
X1422400Y831850D03*
X1447800Y857250D03*
X1422400Y857250D03*
X1447800Y882650D03*
X1422400Y882650D03*
X1447800Y908050D03*
X1422400Y908050D03*
X1447800Y933450D03*
X1422400Y933450D03*
X1447800Y958850D03*
X1422400Y958850D03*
X1447800Y984250D03*
X1422400Y984250D03*
X1447800Y1009650D03*
X1422400Y1009650D03*
X1447800Y1035050D03*
X1422400Y1035050D03*
X1447800Y1060450D03*
X1422400Y1060450D03*
X1447800Y1085850D03*
X1422400Y1085850D03*
X1447800Y1111250D03*
X1422400Y1111250D03*
D43*
X381000Y88900D03*
X355600Y88900D03*
X381000Y114300D03*
X355600Y114300D03*
X381000Y139700D03*
X355600Y139700D03*
D44*
X50800Y177800D03*
X76200Y177800D03*
X50800Y152400D03*
X76200Y152400D03*
X50800Y127000D03*
X76200Y127000D03*
D45*
X498475Y727075D03*
X498475Y752475D03*
X523875Y727075D03*
X523875Y752475D03*
X549275Y727075D03*
X549275Y752475D03*
X574675Y752475D03*
X574675Y727075D03*
D44*
X50800Y387350D03*
X76200Y387350D03*
X50800Y361950D03*
X76200Y361950D03*
X50800Y336550D03*
X76200Y336550D03*
X50800Y596900D03*
X76200Y596900D03*
X50800Y571500D03*
X76200Y571500D03*
X50800Y546100D03*
X76200Y546100D03*
D43*
X381000Y298450D03*
X355600Y298450D03*
X381000Y323850D03*
X355600Y323850D03*
X381000Y349250D03*
X355600Y349250D03*
D46*
X190500Y658200D03*
X190500Y764200D03*
X1028700Y1024550D03*
X1028700Y918550D03*
D47*
X861822Y381000D02*
X852678Y381000D01*
X852678Y431800D02*
X861822Y431800D01*
D48*
X213300Y891300D03*
X167700Y891300D03*
D49*
X190500Y829940D03*
D48*
X1359475Y269000D03*
X1313875Y269000D03*
D49*
X1336675Y207640D03*
D48*
X1067375Y269000D03*
X1021775Y269000D03*
D49*
X1044575Y207640D03*
D48*
X1156275Y269000D03*
X1110675Y269000D03*
D49*
X1133475Y207640D03*
D48*
X965775Y269000D03*
X920175Y269000D03*
D49*
X942975Y207640D03*
D11*
X908050Y1158900D03*
X908050Y1177900D03*
X381000Y377850D03*
X381000Y396850D03*
D13*
X920775Y304800D03*
X939775Y304800D03*
X685825Y873125D03*
X704825Y873125D03*
D11*
X933450Y1158900D03*
X933450Y1177900D03*
D13*
X1101750Y457200D03*
X1120750Y457200D03*
X1000100Y1104900D03*
X981100Y1104900D03*
X660375Y1082675D03*
X641375Y1082675D03*
D11*
X523875Y1063650D03*
X523875Y1082650D03*
D13*
X73000Y203200D03*
X54000Y203200D03*
X73000Y412750D03*
X54000Y412750D03*
X73000Y622300D03*
X54000Y622300D03*
X701700Y1082675D03*
X720700Y1082675D03*
X358800Y273050D03*
X377800Y273050D03*
D11*
X879475Y238100D03*
X879475Y219100D03*
X854075Y238100D03*
X854075Y219100D03*
D13*
X552425Y923925D03*
X533425Y923925D03*
X552425Y949325D03*
X533425Y949325D03*
X685825Y974725D03*
X704825Y974725D03*
D11*
X381000Y168300D03*
X381000Y187300D03*
D13*
X358800Y63500D03*
X377800Y63500D03*
D11*
X1298575Y371500D03*
X1298575Y390500D03*
X1343025Y415950D03*
X1343025Y434950D03*
D13*
X898550Y406400D03*
X917550Y406400D03*
D11*
X1368425Y377800D03*
X1368425Y358800D03*
X1362075Y327000D03*
X1362075Y308000D03*
D13*
X1431950Y304800D03*
X1450950Y304800D03*
X1409675Y304800D03*
X1390675Y304800D03*
D50*
X1457325Y342900D03*
X1457325Y368300D03*
X1457325Y393700D03*
D13*
X161900Y1117600D03*
X142900Y1117600D03*
D11*
X41275Y1044550D03*
X41275Y1025550D03*
D13*
X41300Y1079500D03*
X60300Y1079500D03*
D11*
X161925Y987400D03*
X161925Y968400D03*
X161925Y1085825D03*
X161925Y1066825D03*
D13*
X552475Y1082675D03*
X571475Y1082675D03*
D50*
X63500Y977900D03*
X88900Y977900D03*
X114300Y977900D03*
D13*
X92100Y1016000D03*
X111100Y1016000D03*
D11*
X139700Y1085825D03*
X139700Y1066825D03*
X1095375Y374675D03*
X1095375Y393675D03*
X1139825Y434950D03*
X1139825Y415950D03*
X1171575Y377800D03*
X1171575Y358800D03*
X1158875Y327000D03*
X1158875Y308000D03*
D13*
X1228750Y304800D03*
X1247750Y304800D03*
X1206475Y304800D03*
X1187475Y304800D03*
D11*
X50800Y307950D03*
X50800Y288950D03*
D50*
X1254125Y342900D03*
X1254125Y368300D03*
X1254125Y393700D03*
D11*
X1441450Y428650D03*
X1441450Y447650D03*
X1241425Y429285D03*
X1241425Y448285D03*
X1069975Y327000D03*
X1069975Y308000D03*
D13*
X1022375Y304800D03*
X1041375Y304800D03*
D11*
X1120775Y323825D03*
X1120775Y304825D03*
X1323975Y323825D03*
X1323975Y304825D03*
D13*
X314300Y1117600D03*
X295300Y1117600D03*
D11*
X193675Y1044550D03*
X193675Y1025550D03*
D13*
X193700Y1079500D03*
X212700Y1079500D03*
D11*
X50800Y79400D03*
X50800Y98400D03*
D13*
X244500Y1016000D03*
X263500Y1016000D03*
D11*
X314325Y987400D03*
X314325Y968400D03*
X314325Y1085825D03*
X314325Y1066825D03*
D50*
X215900Y977900D03*
X241300Y977900D03*
X266700Y977900D03*
D11*
X292100Y1085825D03*
X292100Y1066825D03*
D51*
X330200Y1195320D03*
X330200Y1166880D03*
X177800Y1195320D03*
X177800Y1166880D03*
D13*
X466700Y1117600D03*
X447700Y1117600D03*
D11*
X346075Y1044550D03*
X346075Y1025550D03*
D13*
X930300Y1244600D03*
X949300Y1244600D03*
X346100Y1079500D03*
X365100Y1079500D03*
D11*
X466725Y987400D03*
X466725Y968400D03*
X466725Y1085825D03*
X466725Y1066825D03*
D50*
X368300Y977900D03*
X393700Y977900D03*
X419100Y977900D03*
D13*
X396900Y1016000D03*
X415900Y1016000D03*
D11*
X444500Y1085825D03*
X444500Y1066825D03*
D51*
X482600Y1195320D03*
X482600Y1166880D03*
D13*
X511150Y454025D03*
X492150Y454025D03*
X949300Y1206500D03*
X930300Y1206500D03*
D11*
X50800Y517500D03*
X50800Y498500D03*
X1257300Y485800D03*
X1257300Y504800D03*
D50*
X1219200Y495300D03*
X1219200Y520700D03*
X1219200Y546100D03*
D11*
X720725Y387375D03*
X720725Y406375D03*
D13*
X241325Y1346200D03*
X260325Y1346200D03*
X327000Y749300D03*
X308000Y749300D03*
D11*
X368300Y777900D03*
X368300Y796900D03*
D13*
X368275Y749300D03*
X349275Y749300D03*
X263500Y901700D03*
X244500Y901700D03*
D50*
X406400Y838200D03*
X406400Y812800D03*
X406400Y787400D03*
D13*
X987400Y819150D03*
X968400Y819150D03*
X1022375Y1104900D03*
X1041375Y1104900D03*
D11*
X914400Y784250D03*
X914400Y803250D03*
X939800Y803250D03*
X939800Y784250D03*
D13*
X685825Y949325D03*
X704825Y949325D03*
X685825Y923925D03*
X704825Y923925D03*
X685825Y898525D03*
X704825Y898525D03*
X552425Y822325D03*
X533425Y822325D03*
X552425Y796925D03*
X533425Y796925D03*
X552425Y847725D03*
X533425Y847725D03*
X552425Y873125D03*
X533425Y873125D03*
D11*
X968375Y327000D03*
X968375Y308000D03*
D52*
X628650Y822325D03*
X603250Y822325D03*
X628650Y847725D03*
X603250Y847725D03*
X628650Y873125D03*
X603250Y873125D03*
X628650Y898525D03*
X603250Y898525D03*
X628650Y923925D03*
X603250Y923925D03*
X628650Y949325D03*
X603250Y949325D03*
X628650Y974725D03*
X603250Y974725D03*
D53*
X699250Y425725D03*
X699250Y380725D03*
X634250Y425725D03*
D54*
X634250Y380725D03*
D55*
X1323975Y404700D03*
X1333475Y382700D03*
X1314475Y382700D03*
X1406525Y331900D03*
X1397025Y353900D03*
X1416025Y353900D03*
X1120775Y404700D03*
X1130275Y382700D03*
X1111275Y382700D03*
X1203325Y331900D03*
X1193825Y353900D03*
X1212825Y353900D03*
D48*
X1402775Y188200D03*
X1448375Y188200D03*
D49*
X1425575Y249560D03*
D48*
X1199575Y188200D03*
X1245175Y188200D03*
D49*
X1222375Y249560D03*
D33*
X294400Y1158300D03*
X294400Y1203900D03*
D34*
X233040Y1181100D03*
D33*
X142000Y1158300D03*
X142000Y1203900D03*
D34*
X80640Y1181100D03*
D33*
X446800Y1158300D03*
X446800Y1203900D03*
D34*
X385440Y1181100D03*
D56*
X406400Y63500D03*
X406400Y88900D03*
X406400Y114300D03*
X406400Y139700D03*
X406400Y165100D03*
X406400Y190500D03*
X406400Y215900D03*
X406400Y241300D03*
X279400Y241300D03*
X279400Y215900D03*
X279400Y190500D03*
X279400Y165100D03*
X279400Y139700D03*
X279400Y114300D03*
X279400Y88900D03*
X279400Y63500D03*
D57*
X850900Y863600D03*
D58*
X934212Y829564D03*
X934212Y846582D03*
X934212Y863600D03*
X934212Y880618D03*
X934212Y897636D03*
D56*
X25400Y203200D03*
X25400Y177800D03*
X25400Y152400D03*
X25400Y127000D03*
X25400Y101600D03*
X25400Y76200D03*
X25400Y50800D03*
X25400Y25400D03*
X152400Y25400D03*
X152400Y50800D03*
X152400Y76200D03*
X152400Y101600D03*
X152400Y127000D03*
X152400Y152400D03*
X152400Y177800D03*
X152400Y203200D03*
X25400Y412750D03*
X25400Y387350D03*
X25400Y361950D03*
X25400Y336550D03*
X25400Y311150D03*
X25400Y285750D03*
X25400Y260350D03*
X25400Y234950D03*
X152400Y234950D03*
X152400Y260350D03*
X152400Y285750D03*
X152400Y311150D03*
X152400Y336550D03*
X152400Y361950D03*
X152400Y387350D03*
X152400Y412750D03*
X25400Y622300D03*
X25400Y596900D03*
X25400Y571500D03*
X25400Y546100D03*
X25400Y520700D03*
X25400Y495300D03*
X25400Y469900D03*
X25400Y444500D03*
X152400Y444500D03*
X152400Y469900D03*
X152400Y495300D03*
X152400Y520700D03*
X152400Y546100D03*
X152400Y571500D03*
X152400Y596900D03*
X152400Y622300D03*
X406400Y273050D03*
X406400Y298450D03*
X406400Y323850D03*
X406400Y349250D03*
X406400Y374650D03*
X406400Y400050D03*
X406400Y425450D03*
X406400Y450850D03*
X279400Y450850D03*
X279400Y425450D03*
X279400Y400050D03*
X279400Y374650D03*
X279400Y349250D03*
X279400Y323850D03*
X279400Y298450D03*
X279400Y273050D03*
D59*
X692699Y606801D02*
X704101Y606801D01*
X704101Y605399D01*
X692699Y605399D01*
X692699Y606801D01*
X692699Y601801D02*
X704101Y601801D01*
X704101Y600399D01*
X692699Y600399D01*
X692699Y601801D01*
X692699Y596801D02*
X704101Y596801D01*
X704101Y595399D01*
X692699Y595399D01*
X692699Y596801D01*
X692699Y591801D02*
X704101Y591801D01*
X704101Y590399D01*
X692699Y590399D01*
X692699Y591801D01*
X692699Y586801D02*
X704101Y586801D01*
X704101Y585399D01*
X692699Y585399D01*
X692699Y586801D01*
X692699Y581801D02*
X704101Y581801D01*
X704101Y580399D01*
X692699Y580399D01*
X692699Y581801D01*
X692699Y576801D02*
X704101Y576801D01*
X704101Y575399D01*
X692699Y575399D01*
X692699Y576801D01*
X692699Y571801D02*
X704101Y571801D01*
X704101Y570399D01*
X692699Y570399D01*
X692699Y571801D01*
X692699Y566801D02*
X704101Y566801D01*
X704101Y565399D01*
X692699Y565399D01*
X692699Y566801D01*
X692699Y561801D02*
X704101Y561801D01*
X704101Y560399D01*
X692699Y560399D01*
X692699Y561801D01*
X692699Y556801D02*
X704101Y556801D01*
X704101Y555399D01*
X692699Y555399D01*
X692699Y556801D01*
X692699Y551801D02*
X704101Y551801D01*
X704101Y550399D01*
X692699Y550399D01*
X692699Y551801D01*
X692699Y546801D02*
X704101Y546801D01*
X704101Y545399D01*
X692699Y545399D01*
X692699Y546801D01*
X692699Y541801D02*
X704101Y541801D01*
X704101Y540399D01*
X692699Y540399D01*
X692699Y541801D01*
X692699Y536801D02*
X704101Y536801D01*
X704101Y535399D01*
X692699Y535399D01*
X692699Y536801D01*
X692699Y531801D02*
X704101Y531801D01*
X704101Y530399D01*
X692699Y530399D01*
X692699Y531801D01*
X692699Y526801D02*
X704101Y526801D01*
X704101Y525399D01*
X692699Y525399D01*
X692699Y526801D01*
X692699Y521801D02*
X704101Y521801D01*
X704101Y520399D01*
X692699Y520399D01*
X692699Y521801D01*
X692699Y516801D02*
X704101Y516801D01*
X704101Y515399D01*
X692699Y515399D01*
X692699Y516801D01*
X692699Y511801D02*
X704101Y511801D01*
X704101Y510399D01*
X692699Y510399D01*
X692699Y511801D01*
X692699Y506801D02*
X704101Y506801D01*
X704101Y505399D01*
X692699Y505399D01*
X692699Y506801D01*
X692699Y501801D02*
X704101Y501801D01*
X704101Y500399D01*
X692699Y500399D01*
X692699Y501801D01*
X692699Y496801D02*
X704101Y496801D01*
X704101Y495399D01*
X692699Y495399D01*
X692699Y496801D01*
X692699Y491801D02*
X704101Y491801D01*
X704101Y490399D01*
X692699Y490399D01*
X692699Y491801D01*
X692699Y486801D02*
X704101Y486801D01*
X704101Y485399D01*
X692699Y485399D01*
X692699Y486801D01*
X713999Y475501D02*
X713999Y464099D01*
X713999Y475501D02*
X715401Y475501D01*
X715401Y464099D01*
X713999Y464099D01*
X713999Y467065D02*
X715401Y467065D01*
X715401Y470031D02*
X713999Y470031D01*
X713999Y472997D02*
X715401Y472997D01*
X718999Y475501D02*
X718999Y464099D01*
X718999Y475501D02*
X720401Y475501D01*
X720401Y464099D01*
X718999Y464099D01*
X718999Y467065D02*
X720401Y467065D01*
X720401Y470031D02*
X718999Y470031D01*
X718999Y472997D02*
X720401Y472997D01*
X723999Y475501D02*
X723999Y464099D01*
X723999Y475501D02*
X725401Y475501D01*
X725401Y464099D01*
X723999Y464099D01*
X723999Y467065D02*
X725401Y467065D01*
X725401Y470031D02*
X723999Y470031D01*
X723999Y472997D02*
X725401Y472997D01*
X728999Y475501D02*
X728999Y464099D01*
X728999Y475501D02*
X730401Y475501D01*
X730401Y464099D01*
X728999Y464099D01*
X728999Y467065D02*
X730401Y467065D01*
X730401Y470031D02*
X728999Y470031D01*
X728999Y472997D02*
X730401Y472997D01*
X733999Y475501D02*
X733999Y464099D01*
X733999Y475501D02*
X735401Y475501D01*
X735401Y464099D01*
X733999Y464099D01*
X733999Y467065D02*
X735401Y467065D01*
X735401Y470031D02*
X733999Y470031D01*
X733999Y472997D02*
X735401Y472997D01*
X738999Y475501D02*
X738999Y464099D01*
X738999Y475501D02*
X740401Y475501D01*
X740401Y464099D01*
X738999Y464099D01*
X738999Y467065D02*
X740401Y467065D01*
X740401Y470031D02*
X738999Y470031D01*
X738999Y472997D02*
X740401Y472997D01*
X743999Y475501D02*
X743999Y464099D01*
X743999Y475501D02*
X745401Y475501D01*
X745401Y464099D01*
X743999Y464099D01*
X743999Y467065D02*
X745401Y467065D01*
X745401Y470031D02*
X743999Y470031D01*
X743999Y472997D02*
X745401Y472997D01*
X748999Y475501D02*
X748999Y464099D01*
X748999Y475501D02*
X750401Y475501D01*
X750401Y464099D01*
X748999Y464099D01*
X748999Y467065D02*
X750401Y467065D01*
X750401Y470031D02*
X748999Y470031D01*
X748999Y472997D02*
X750401Y472997D01*
X753999Y475501D02*
X753999Y464099D01*
X753999Y475501D02*
X755401Y475501D01*
X755401Y464099D01*
X753999Y464099D01*
X753999Y467065D02*
X755401Y467065D01*
X755401Y470031D02*
X753999Y470031D01*
X753999Y472997D02*
X755401Y472997D01*
X758999Y475501D02*
X758999Y464099D01*
X758999Y475501D02*
X760401Y475501D01*
X760401Y464099D01*
X758999Y464099D01*
X758999Y467065D02*
X760401Y467065D01*
X760401Y470031D02*
X758999Y470031D01*
X758999Y472997D02*
X760401Y472997D01*
X763999Y475501D02*
X763999Y464099D01*
X763999Y475501D02*
X765401Y475501D01*
X765401Y464099D01*
X763999Y464099D01*
X763999Y467065D02*
X765401Y467065D01*
X765401Y470031D02*
X763999Y470031D01*
X763999Y472997D02*
X765401Y472997D01*
X768999Y475501D02*
X768999Y464099D01*
X768999Y475501D02*
X770401Y475501D01*
X770401Y464099D01*
X768999Y464099D01*
X768999Y467065D02*
X770401Y467065D01*
X770401Y470031D02*
X768999Y470031D01*
X768999Y472997D02*
X770401Y472997D01*
X773999Y475501D02*
X773999Y464099D01*
X773999Y475501D02*
X775401Y475501D01*
X775401Y464099D01*
X773999Y464099D01*
X773999Y467065D02*
X775401Y467065D01*
X775401Y470031D02*
X773999Y470031D01*
X773999Y472997D02*
X775401Y472997D01*
X778999Y475501D02*
X778999Y464099D01*
X778999Y475501D02*
X780401Y475501D01*
X780401Y464099D01*
X778999Y464099D01*
X778999Y467065D02*
X780401Y467065D01*
X780401Y470031D02*
X778999Y470031D01*
X778999Y472997D02*
X780401Y472997D01*
X783999Y475501D02*
X783999Y464099D01*
X783999Y475501D02*
X785401Y475501D01*
X785401Y464099D01*
X783999Y464099D01*
X783999Y467065D02*
X785401Y467065D01*
X785401Y470031D02*
X783999Y470031D01*
X783999Y472997D02*
X785401Y472997D01*
X788999Y475501D02*
X788999Y464099D01*
X788999Y475501D02*
X790401Y475501D01*
X790401Y464099D01*
X788999Y464099D01*
X788999Y467065D02*
X790401Y467065D01*
X790401Y470031D02*
X788999Y470031D01*
X788999Y472997D02*
X790401Y472997D01*
X793999Y475501D02*
X793999Y464099D01*
X793999Y475501D02*
X795401Y475501D01*
X795401Y464099D01*
X793999Y464099D01*
X793999Y467065D02*
X795401Y467065D01*
X795401Y470031D02*
X793999Y470031D01*
X793999Y472997D02*
X795401Y472997D01*
X798999Y475501D02*
X798999Y464099D01*
X798999Y475501D02*
X800401Y475501D01*
X800401Y464099D01*
X798999Y464099D01*
X798999Y467065D02*
X800401Y467065D01*
X800401Y470031D02*
X798999Y470031D01*
X798999Y472997D02*
X800401Y472997D01*
X803999Y475501D02*
X803999Y464099D01*
X803999Y475501D02*
X805401Y475501D01*
X805401Y464099D01*
X803999Y464099D01*
X803999Y467065D02*
X805401Y467065D01*
X805401Y470031D02*
X803999Y470031D01*
X803999Y472997D02*
X805401Y472997D01*
X808999Y475501D02*
X808999Y464099D01*
X808999Y475501D02*
X810401Y475501D01*
X810401Y464099D01*
X808999Y464099D01*
X808999Y467065D02*
X810401Y467065D01*
X810401Y470031D02*
X808999Y470031D01*
X808999Y472997D02*
X810401Y472997D01*
X813999Y475501D02*
X813999Y464099D01*
X813999Y475501D02*
X815401Y475501D01*
X815401Y464099D01*
X813999Y464099D01*
X813999Y467065D02*
X815401Y467065D01*
X815401Y470031D02*
X813999Y470031D01*
X813999Y472997D02*
X815401Y472997D01*
X818999Y475501D02*
X818999Y464099D01*
X818999Y475501D02*
X820401Y475501D01*
X820401Y464099D01*
X818999Y464099D01*
X818999Y467065D02*
X820401Y467065D01*
X820401Y470031D02*
X818999Y470031D01*
X818999Y472997D02*
X820401Y472997D01*
X823999Y475501D02*
X823999Y464099D01*
X823999Y475501D02*
X825401Y475501D01*
X825401Y464099D01*
X823999Y464099D01*
X823999Y467065D02*
X825401Y467065D01*
X825401Y470031D02*
X823999Y470031D01*
X823999Y472997D02*
X825401Y472997D01*
X828999Y475501D02*
X828999Y464099D01*
X828999Y475501D02*
X830401Y475501D01*
X830401Y464099D01*
X828999Y464099D01*
X828999Y467065D02*
X830401Y467065D01*
X830401Y470031D02*
X828999Y470031D01*
X828999Y472997D02*
X830401Y472997D01*
X833999Y475501D02*
X833999Y464099D01*
X833999Y475501D02*
X835401Y475501D01*
X835401Y464099D01*
X833999Y464099D01*
X833999Y467065D02*
X835401Y467065D01*
X835401Y470031D02*
X833999Y470031D01*
X833999Y472997D02*
X835401Y472997D01*
X845299Y485399D02*
X856701Y485399D01*
X845299Y485399D02*
X845299Y486801D01*
X856701Y486801D01*
X856701Y485399D01*
X856701Y490399D02*
X845299Y490399D01*
X845299Y491801D01*
X856701Y491801D01*
X856701Y490399D01*
X856701Y495399D02*
X845299Y495399D01*
X845299Y496801D01*
X856701Y496801D01*
X856701Y495399D01*
X856701Y500399D02*
X845299Y500399D01*
X845299Y501801D01*
X856701Y501801D01*
X856701Y500399D01*
X856701Y505399D02*
X845299Y505399D01*
X845299Y506801D01*
X856701Y506801D01*
X856701Y505399D01*
X856701Y510399D02*
X845299Y510399D01*
X845299Y511801D01*
X856701Y511801D01*
X856701Y510399D01*
X856701Y515399D02*
X845299Y515399D01*
X845299Y516801D01*
X856701Y516801D01*
X856701Y515399D01*
X856701Y520399D02*
X845299Y520399D01*
X845299Y521801D01*
X856701Y521801D01*
X856701Y520399D01*
X856701Y525399D02*
X845299Y525399D01*
X845299Y526801D01*
X856701Y526801D01*
X856701Y525399D01*
X856701Y530399D02*
X845299Y530399D01*
X845299Y531801D01*
X856701Y531801D01*
X856701Y530399D01*
X856701Y535399D02*
X845299Y535399D01*
X845299Y536801D01*
X856701Y536801D01*
X856701Y535399D01*
X856701Y540399D02*
X845299Y540399D01*
X845299Y541801D01*
X856701Y541801D01*
X856701Y540399D01*
X856701Y545399D02*
X845299Y545399D01*
X845299Y546801D01*
X856701Y546801D01*
X856701Y545399D01*
X856701Y550399D02*
X845299Y550399D01*
X845299Y551801D01*
X856701Y551801D01*
X856701Y550399D01*
X856701Y555399D02*
X845299Y555399D01*
X845299Y556801D01*
X856701Y556801D01*
X856701Y555399D01*
X856701Y560399D02*
X845299Y560399D01*
X845299Y561801D01*
X856701Y561801D01*
X856701Y560399D01*
X856701Y565399D02*
X845299Y565399D01*
X845299Y566801D01*
X856701Y566801D01*
X856701Y565399D01*
X856701Y570399D02*
X845299Y570399D01*
X845299Y571801D01*
X856701Y571801D01*
X856701Y570399D01*
X856701Y575399D02*
X845299Y575399D01*
X845299Y576801D01*
X856701Y576801D01*
X856701Y575399D01*
X856701Y580399D02*
X845299Y580399D01*
X845299Y581801D01*
X856701Y581801D01*
X856701Y580399D01*
X856701Y585399D02*
X845299Y585399D01*
X845299Y586801D01*
X856701Y586801D01*
X856701Y585399D01*
X856701Y590399D02*
X845299Y590399D01*
X845299Y591801D01*
X856701Y591801D01*
X856701Y590399D01*
X856701Y595399D02*
X845299Y595399D01*
X845299Y596801D01*
X856701Y596801D01*
X856701Y595399D01*
X856701Y600399D02*
X845299Y600399D01*
X845299Y601801D01*
X856701Y601801D01*
X856701Y600399D01*
X856701Y605399D02*
X845299Y605399D01*
X845299Y606801D01*
X856701Y606801D01*
X856701Y605399D01*
X835401Y616699D02*
X835401Y628101D01*
X835401Y616699D02*
X833999Y616699D01*
X833999Y628101D01*
X835401Y628101D01*
X835401Y619665D02*
X833999Y619665D01*
X833999Y622631D02*
X835401Y622631D01*
X835401Y625597D02*
X833999Y625597D01*
X830401Y628101D02*
X830401Y616699D01*
X828999Y616699D01*
X828999Y628101D01*
X830401Y628101D01*
X830401Y619665D02*
X828999Y619665D01*
X828999Y622631D02*
X830401Y622631D01*
X830401Y625597D02*
X828999Y625597D01*
X825401Y628101D02*
X825401Y616699D01*
X823999Y616699D01*
X823999Y628101D01*
X825401Y628101D01*
X825401Y619665D02*
X823999Y619665D01*
X823999Y622631D02*
X825401Y622631D01*
X825401Y625597D02*
X823999Y625597D01*
X820401Y628101D02*
X820401Y616699D01*
X818999Y616699D01*
X818999Y628101D01*
X820401Y628101D01*
X820401Y619665D02*
X818999Y619665D01*
X818999Y622631D02*
X820401Y622631D01*
X820401Y625597D02*
X818999Y625597D01*
X815401Y628101D02*
X815401Y616699D01*
X813999Y616699D01*
X813999Y628101D01*
X815401Y628101D01*
X815401Y619665D02*
X813999Y619665D01*
X813999Y622631D02*
X815401Y622631D01*
X815401Y625597D02*
X813999Y625597D01*
X810401Y628101D02*
X810401Y616699D01*
X808999Y616699D01*
X808999Y628101D01*
X810401Y628101D01*
X810401Y619665D02*
X808999Y619665D01*
X808999Y622631D02*
X810401Y622631D01*
X810401Y625597D02*
X808999Y625597D01*
X805401Y628101D02*
X805401Y616699D01*
X803999Y616699D01*
X803999Y628101D01*
X805401Y628101D01*
X805401Y619665D02*
X803999Y619665D01*
X803999Y622631D02*
X805401Y622631D01*
X805401Y625597D02*
X803999Y625597D01*
X800401Y628101D02*
X800401Y616699D01*
X798999Y616699D01*
X798999Y628101D01*
X800401Y628101D01*
X800401Y619665D02*
X798999Y619665D01*
X798999Y622631D02*
X800401Y622631D01*
X800401Y625597D02*
X798999Y625597D01*
X795401Y628101D02*
X795401Y616699D01*
X793999Y616699D01*
X793999Y628101D01*
X795401Y628101D01*
X795401Y619665D02*
X793999Y619665D01*
X793999Y622631D02*
X795401Y622631D01*
X795401Y625597D02*
X793999Y625597D01*
X790401Y628101D02*
X790401Y616699D01*
X788999Y616699D01*
X788999Y628101D01*
X790401Y628101D01*
X790401Y619665D02*
X788999Y619665D01*
X788999Y622631D02*
X790401Y622631D01*
X790401Y625597D02*
X788999Y625597D01*
X785401Y628101D02*
X785401Y616699D01*
X783999Y616699D01*
X783999Y628101D01*
X785401Y628101D01*
X785401Y619665D02*
X783999Y619665D01*
X783999Y622631D02*
X785401Y622631D01*
X785401Y625597D02*
X783999Y625597D01*
X780401Y628101D02*
X780401Y616699D01*
X778999Y616699D01*
X778999Y628101D01*
X780401Y628101D01*
X780401Y619665D02*
X778999Y619665D01*
X778999Y622631D02*
X780401Y622631D01*
X780401Y625597D02*
X778999Y625597D01*
X775401Y628101D02*
X775401Y616699D01*
X773999Y616699D01*
X773999Y628101D01*
X775401Y628101D01*
X775401Y619665D02*
X773999Y619665D01*
X773999Y622631D02*
X775401Y622631D01*
X775401Y625597D02*
X773999Y625597D01*
X770401Y628101D02*
X770401Y616699D01*
X768999Y616699D01*
X768999Y628101D01*
X770401Y628101D01*
X770401Y619665D02*
X768999Y619665D01*
X768999Y622631D02*
X770401Y622631D01*
X770401Y625597D02*
X768999Y625597D01*
X765401Y628101D02*
X765401Y616699D01*
X763999Y616699D01*
X763999Y628101D01*
X765401Y628101D01*
X765401Y619665D02*
X763999Y619665D01*
X763999Y622631D02*
X765401Y622631D01*
X765401Y625597D02*
X763999Y625597D01*
X760401Y628101D02*
X760401Y616699D01*
X758999Y616699D01*
X758999Y628101D01*
X760401Y628101D01*
X760401Y619665D02*
X758999Y619665D01*
X758999Y622631D02*
X760401Y622631D01*
X760401Y625597D02*
X758999Y625597D01*
X755401Y628101D02*
X755401Y616699D01*
X753999Y616699D01*
X753999Y628101D01*
X755401Y628101D01*
X755401Y619665D02*
X753999Y619665D01*
X753999Y622631D02*
X755401Y622631D01*
X755401Y625597D02*
X753999Y625597D01*
X750401Y628101D02*
X750401Y616699D01*
X748999Y616699D01*
X748999Y628101D01*
X750401Y628101D01*
X750401Y619665D02*
X748999Y619665D01*
X748999Y622631D02*
X750401Y622631D01*
X750401Y625597D02*
X748999Y625597D01*
X745401Y628101D02*
X745401Y616699D01*
X743999Y616699D01*
X743999Y628101D01*
X745401Y628101D01*
X745401Y619665D02*
X743999Y619665D01*
X743999Y622631D02*
X745401Y622631D01*
X745401Y625597D02*
X743999Y625597D01*
X740401Y628101D02*
X740401Y616699D01*
X738999Y616699D01*
X738999Y628101D01*
X740401Y628101D01*
X740401Y619665D02*
X738999Y619665D01*
X738999Y622631D02*
X740401Y622631D01*
X740401Y625597D02*
X738999Y625597D01*
X735401Y628101D02*
X735401Y616699D01*
X733999Y616699D01*
X733999Y628101D01*
X735401Y628101D01*
X735401Y619665D02*
X733999Y619665D01*
X733999Y622631D02*
X735401Y622631D01*
X735401Y625597D02*
X733999Y625597D01*
X730401Y628101D02*
X730401Y616699D01*
X728999Y616699D01*
X728999Y628101D01*
X730401Y628101D01*
X730401Y619665D02*
X728999Y619665D01*
X728999Y622631D02*
X730401Y622631D01*
X730401Y625597D02*
X728999Y625597D01*
X725401Y628101D02*
X725401Y616699D01*
X723999Y616699D01*
X723999Y628101D01*
X725401Y628101D01*
X725401Y619665D02*
X723999Y619665D01*
X723999Y622631D02*
X725401Y622631D01*
X725401Y625597D02*
X723999Y625597D01*
X720401Y628101D02*
X720401Y616699D01*
X718999Y616699D01*
X718999Y628101D01*
X720401Y628101D01*
X720401Y619665D02*
X718999Y619665D01*
X718999Y622631D02*
X720401Y622631D01*
X720401Y625597D02*
X718999Y625597D01*
X715401Y628101D02*
X715401Y616699D01*
X713999Y616699D01*
X713999Y628101D01*
X715401Y628101D01*
X715401Y619665D02*
X713999Y619665D01*
X713999Y622631D02*
X715401Y622631D01*
X715401Y625597D02*
X713999Y625597D01*
D60*
X1362678Y872450D03*
X1362678Y878950D03*
X1362678Y885450D03*
X1362678Y891950D03*
X1362678Y898450D03*
X1362678Y904950D03*
X1362678Y911450D03*
X1362678Y917950D03*
X1304322Y917950D03*
X1304322Y911450D03*
X1304322Y904950D03*
X1304322Y898450D03*
X1304322Y891950D03*
X1304322Y885450D03*
X1304322Y878950D03*
X1304322Y872450D03*
X1362678Y924450D03*
X1362678Y930950D03*
X1304322Y924450D03*
X1304322Y930950D03*
D25*
X736600Y177800D03*
X736600Y152400D03*
X736600Y127000D03*
X762000Y177800D03*
X762000Y152400D03*
X762000Y127000D03*
X177800Y361950D03*
X177800Y336550D03*
X177800Y311150D03*
X177800Y285750D03*
D61*
X923925Y149225D02*
X923925Y130175D01*
X962025Y130175D02*
X962025Y149225D01*
X1368425Y149225D02*
X1368425Y130175D01*
X1406525Y130175D02*
X1406525Y149225D01*
X571500Y1260475D02*
X571500Y1279525D01*
X533400Y1279525D02*
X533400Y1260475D01*
X495300Y1260475D02*
X495300Y1279525D01*
X457200Y1279525D02*
X457200Y1260475D01*
X419100Y1260475D02*
X419100Y1279525D01*
X355600Y1279525D02*
X355600Y1260475D01*
X317500Y1260475D02*
X317500Y1279525D01*
X279400Y1279525D02*
X279400Y1260475D01*
X241300Y1260475D02*
X241300Y1279525D01*
X203200Y1279525D02*
X203200Y1260475D01*
X165100Y1260475D02*
X165100Y1279525D01*
X127000Y1279525D02*
X127000Y1260475D01*
X1165225Y149225D02*
X1165225Y130175D01*
X1203325Y130175D02*
X1203325Y149225D01*
X1025525Y149225D02*
X1025525Y130175D01*
X1063625Y130175D02*
X1063625Y149225D01*
D25*
X787400Y177800D03*
X787400Y152400D03*
X787400Y127000D03*
X812800Y177800D03*
X812800Y152400D03*
X812800Y127000D03*
X177800Y571500D03*
X177800Y546100D03*
X177800Y520700D03*
X177800Y495300D03*
X838200Y177800D03*
X838200Y152400D03*
X838200Y127000D03*
X254000Y323850D03*
X254000Y349250D03*
X254000Y374650D03*
X254000Y400050D03*
X254000Y114300D03*
X254000Y139700D03*
X254000Y165100D03*
X254000Y190500D03*
X647700Y177800D03*
X647700Y152400D03*
X647700Y127000D03*
X673100Y177800D03*
X673100Y152400D03*
X673100Y127000D03*
D48*
X523300Y1115300D03*
X568900Y1115300D03*
D49*
X546100Y1176660D03*
D48*
X993200Y1153400D03*
X1038800Y1153400D03*
D49*
X1016000Y1214760D03*
D48*
X637600Y1115300D03*
X683200Y1115300D03*
D49*
X660400Y1176660D03*
D62*
X536575Y619125D03*
X536575Y644525D03*
X511175Y644525D03*
X511175Y619125D03*
X561975Y619125D03*
X561975Y644525D03*
D13*
X498500Y295275D03*
X517500Y295275D03*
D11*
X714375Y168300D03*
X714375Y187300D03*
D24*
X803275Y259080D02*
X803275Y274320D01*
X828675Y274320D02*
X828675Y259080D01*
X854075Y259080D02*
X854075Y274320D01*
X879475Y274320D02*
X879475Y259080D01*
X803275Y290830D02*
X803275Y306070D01*
X828675Y306070D02*
X828675Y290830D01*
X854075Y290830D02*
X854075Y306070D01*
X879475Y306070D02*
X879475Y290830D01*
X803275Y322580D02*
X803275Y337820D01*
X828675Y337820D02*
X828675Y322580D01*
X854075Y322580D02*
X854075Y337820D01*
X879475Y337820D02*
X879475Y322580D01*
D43*
X987425Y393700D03*
X987425Y419100D03*
X987425Y444500D03*
X987425Y469900D03*
X987425Y495300D03*
X987425Y520700D03*
X962025Y393700D03*
X962025Y419100D03*
X962025Y444500D03*
X962025Y469900D03*
X962025Y495300D03*
X962025Y520700D03*
X987425Y546100D03*
X987425Y571500D03*
X962025Y546100D03*
X962025Y571500D03*
X987425Y596900D03*
X962025Y596900D03*
X987425Y622300D03*
X962025Y622300D03*
D63*
X1432350Y1262000D02*
X1432350Y1278000D01*
X1374350Y1278000D02*
X1374350Y1262000D01*
X1428350Y1298500D02*
X1428350Y1314500D01*
X1378350Y1314500D02*
X1378350Y1298500D01*
D64*
X1428350Y1341500D03*
X1378350Y1341500D03*
D65*
X1394600Y1361500D02*
X1412100Y1361500D01*
D63*
X1325350Y1264500D02*
X1325350Y1248500D01*
X1481350Y1248500D02*
X1481350Y1264500D01*
D66*
X1481350Y1341500D03*
X1325350Y1341500D03*
D44*
X1089025Y1212850D03*
X1089025Y1187450D03*
X1089025Y1162050D03*
X1089025Y1136650D03*
X1089025Y1111250D03*
X1114425Y1212850D03*
X1114425Y1187450D03*
X1114425Y1162050D03*
X1114425Y1136650D03*
X1114425Y1111250D03*
D61*
X1012825Y1330325D02*
X1012825Y1349375D01*
X974725Y1349375D02*
X974725Y1330325D01*
X936625Y1330325D02*
X936625Y1349375D01*
X898525Y1349375D02*
X898525Y1330325D01*
X860425Y1330325D02*
X860425Y1349375D01*
X822325Y1349375D02*
X822325Y1330325D01*
D11*
X444500Y803250D03*
X444500Y784250D03*
D13*
X1431900Y565150D03*
X1412900Y565150D03*
D11*
X1479550Y428650D03*
X1479550Y447650D03*
D50*
X1466850Y488950D03*
X1466850Y514350D03*
X1466850Y539750D03*
D14*
X1403350Y484000D03*
X1403350Y532000D03*
D11*
X1358900Y504800D03*
X1358900Y485800D03*
X292100Y1012850D03*
X292100Y1031850D03*
X139700Y1012850D03*
X139700Y1031850D03*
X444500Y1012850D03*
X444500Y1031850D03*
D67*
X689450Y1273875D02*
X689450Y1288125D01*
X669450Y1288125D02*
X669450Y1273875D01*
X714450Y1273875D02*
X714450Y1288125D01*
X644450Y1288125D02*
X644450Y1273875D01*
D68*
X745150Y1308100D03*
X613750Y1308100D03*
D61*
X104775Y819150D02*
X85725Y819150D01*
X85725Y857250D02*
X104775Y857250D01*
D69*
X1285100Y489200D03*
X1308100Y489200D03*
X1331100Y489200D03*
D70*
X1308100Y552200D03*
D69*
X1100950Y489200D03*
X1123950Y489200D03*
X1146950Y489200D03*
D70*
X1123950Y552200D03*
D71*
X647700Y695325D03*
X673100Y695325D03*
X698500Y695325D03*
X723900Y695325D03*
X749300Y695325D03*
X774700Y695325D03*
X647700Y720725D03*
X673100Y720725D03*
X698500Y720725D03*
X723900Y720725D03*
X749300Y720725D03*
X774700Y720725D03*
D22*
X1382850Y1212850D03*
X1423850Y1212850D03*
D21*
X1079500Y805000D03*
X1079500Y846000D03*
D13*
X263500Y882650D03*
X244500Y882650D03*
D61*
X831850Y1171575D02*
X831850Y1190625D01*
X793750Y1190625D02*
X793750Y1171575D01*
X755650Y1171575D02*
X755650Y1190625D01*
X717550Y1190625D02*
X717550Y1171575D01*
M02*
