G04 EAGLE Gerber RS-274X export*
G75*
%MOMM*%
%FSLAX34Y34*%
%LPD*%
%INTop Copper*%
%IPPOS*%
%AMOC8*
5,1,8,0,0,1.08239X$1,22.5*%
G01*
%ADD10R,16.000000X9.000000*%
%ADD11R,16.000000X12.000000*%
%ADD12R,35.000000X8.000000*%
%ADD13R,1.300000X4.000000*%
%ADD14R,1.500000X4.000000*%
%ADD15C,3.048000*%
%ADD16C,1.016000*%
%ADD17C,1.006400*%


D10*
X430000Y145000D03*
X610000Y145000D03*
D11*
X230000Y130000D03*
D12*
X295000Y50000D03*
X745000Y50000D03*
D11*
X810000Y130000D03*
D13*
X330000Y150000D03*
D14*
X349000Y150000D03*
X311000Y150000D03*
D13*
X710000Y150000D03*
D14*
X729000Y150000D03*
X691000Y150000D03*
D15*
X545611Y60250D03*
X494811Y60250D03*
D16*
X310000Y60000D02*
X310000Y140000D01*
X310000Y60000D02*
X495000Y60000D01*
X545000Y60000D02*
X730000Y60000D01*
X730000Y150000D01*
D17*
X430000Y180000D03*
X410000Y180000D03*
X430000Y110000D03*
X410000Y110000D03*
X420000Y145000D03*
X610000Y180000D03*
X630000Y180000D03*
X610000Y110000D03*
X630000Y110000D03*
X620000Y145000D03*
X300000Y80000D03*
X280000Y80000D03*
X260000Y80000D03*
X240000Y80000D03*
X220000Y80000D03*
X740000Y80000D03*
X760000Y80000D03*
X780000Y80000D03*
X800000Y80000D03*
X820000Y80000D03*
M02*
