G04 EAGLE Gerber RS-274X export*
G75*
%MOMM*%
%FSLAX34Y34*%
%LPD*%
%INTop Copper*%
%IPPOS*%
%AMOC8*
5,1,8,0,0,1.08239X$1,22.5*%
G01*
%ADD10R,1.200000X1.200000*%
%ADD11P,1.539592X8X202.500000*%
%ADD12C,0.609600*%
%ADD13C,1.206400*%
%ADD14C,5.000000*%


D10*
X317500Y188300D03*
X317500Y167300D03*
X215900Y167300D03*
X215900Y188300D03*
X50800Y188300D03*
X50800Y167300D03*
X355600Y188300D03*
X355600Y167300D03*
X393700Y188300D03*
X393700Y167300D03*
X393700Y86700D03*
X393700Y65700D03*
X317500Y86700D03*
X317500Y65700D03*
X241300Y86700D03*
X241300Y65700D03*
X50800Y86700D03*
X50800Y65700D03*
X165100Y167300D03*
X165100Y188300D03*
X127000Y167300D03*
X127000Y188300D03*
D11*
X317500Y266700D03*
X317500Y292100D03*
X292100Y266700D03*
X292100Y292100D03*
X266700Y266700D03*
X266700Y292100D03*
X241300Y266700D03*
X241300Y292100D03*
X215900Y266700D03*
X215900Y292100D03*
X190500Y266700D03*
X190500Y292100D03*
X165100Y266700D03*
X165100Y292100D03*
D12*
X215900Y167300D02*
X213700Y165100D01*
X165100Y165100D01*
X165100Y167300D01*
X127000Y167300D01*
X104480Y167300D01*
X83480Y188300D02*
X50800Y188300D01*
X83480Y188300D02*
X104480Y167300D01*
X50800Y86700D02*
X42840Y86700D01*
X36830Y92710D01*
X36830Y182880D01*
X42250Y188300D02*
X50800Y188300D01*
X42250Y188300D02*
X36830Y182880D01*
X241300Y292100D02*
X241300Y298450D01*
X222250Y317500D01*
X71120Y317500D01*
X36830Y283210D01*
X36830Y182880D01*
X317500Y167300D02*
X355600Y167300D01*
X393700Y167300D01*
X393700Y65700D02*
X317500Y65700D01*
X241300Y65700D01*
X317500Y266700D02*
X406400Y266700D01*
X419100Y254000D01*
X419100Y165100D01*
X419100Y76200D01*
X406400Y63500D01*
X395900Y63500D01*
X393700Y65700D01*
X395900Y165100D02*
X393700Y167300D01*
X395900Y165100D02*
X419100Y165100D01*
X317500Y188300D02*
X279400Y226400D01*
X279400Y304800D02*
X287020Y312420D01*
X309880Y312420D01*
X317500Y304800D01*
X317500Y292100D01*
X279400Y304800D02*
X279400Y226400D01*
X292100Y251800D02*
X355600Y188300D01*
X292100Y251800D02*
X292100Y266700D01*
X304800Y279400D02*
X292100Y292100D01*
X304800Y279400D02*
X304800Y259080D01*
X360680Y203200D01*
X381000Y203200D01*
X393700Y190500D01*
X393700Y188300D01*
X340700Y139700D02*
X393700Y86700D01*
X340700Y139700D02*
X105410Y139700D01*
D13*
X105410Y139700D03*
D12*
X203200Y279400D02*
X215900Y292100D01*
X203200Y279400D02*
X177800Y279400D01*
X177800Y254000D01*
X165100Y241300D01*
X114300Y241300D01*
X105410Y232410D01*
X105410Y201930D01*
D13*
X105410Y201930D03*
D12*
X277200Y127000D02*
X317500Y86700D01*
X277200Y127000D02*
X86360Y127000D01*
X86360Y139700D01*
D13*
X86360Y139700D03*
D12*
X93980Y266700D02*
X165100Y266700D01*
X93980Y266700D02*
X86360Y259080D01*
X86360Y201930D01*
D13*
X86360Y201930D03*
D12*
X213700Y114300D02*
X241300Y86700D01*
X67310Y114300D02*
X67310Y139700D01*
X67310Y114300D02*
X213700Y114300D01*
D13*
X67310Y139700D03*
D12*
X190500Y292100D02*
X177800Y304800D01*
X78740Y304800D01*
X67310Y293370D01*
X67310Y201930D01*
D13*
X67310Y201930D03*
D12*
X50800Y65700D02*
X35900Y65700D01*
X25400Y76200D01*
X25400Y292100D01*
X64770Y331470D01*
X227330Y331470D01*
X266700Y292100D01*
X165100Y203200D02*
X165100Y188300D01*
X165100Y203200D02*
X215900Y254000D01*
X215900Y266700D01*
X190500Y251800D02*
X127000Y188300D01*
X190500Y251800D02*
X190500Y266700D01*
X215900Y228600D02*
X215900Y188300D01*
X215900Y228600D02*
X241300Y254000D01*
X241300Y266700D01*
X77810Y167300D02*
X50800Y167300D01*
X77810Y167300D02*
X90170Y154940D01*
X238760Y154940D01*
X266700Y182880D01*
X266700Y266700D01*
D14*
X25400Y342900D03*
X406400Y342900D03*
X406400Y25400D03*
X25400Y25400D03*
M02*
