G04 EAGLE Gerber RS-274X export*
G75*
%MOMM*%
%FSLAX34Y34*%
%LPD*%
%INSilkscreen Top*%
%IPPOS*%
%AMOC8*
5,1,8,0,0,1.08239X$1,22.5*%
G01*
%ADD10C,0.152400*%
%ADD11R,0.150000X0.300000*%
%ADD12R,0.300000X0.300000*%
%ADD13C,0.101600*%


D10*
X98693Y52324D02*
X98691Y52449D01*
X98685Y52574D01*
X98676Y52699D01*
X98662Y52823D01*
X98645Y52947D01*
X98624Y53071D01*
X98599Y53193D01*
X98570Y53315D01*
X98538Y53436D01*
X98502Y53556D01*
X98462Y53675D01*
X98419Y53792D01*
X98372Y53908D01*
X98321Y54023D01*
X98267Y54135D01*
X98209Y54247D01*
X98149Y54356D01*
X98084Y54463D01*
X98017Y54569D01*
X97946Y54672D01*
X97872Y54773D01*
X97795Y54872D01*
X97715Y54968D01*
X97632Y55062D01*
X97547Y55153D01*
X97458Y55242D01*
X97367Y55327D01*
X97273Y55410D01*
X97177Y55490D01*
X97078Y55567D01*
X96977Y55641D01*
X96874Y55712D01*
X96768Y55779D01*
X96661Y55844D01*
X96552Y55904D01*
X96440Y55962D01*
X96328Y56016D01*
X96213Y56067D01*
X96097Y56114D01*
X95980Y56157D01*
X95861Y56197D01*
X95741Y56233D01*
X95620Y56265D01*
X95498Y56294D01*
X95376Y56319D01*
X95252Y56340D01*
X95128Y56357D01*
X95004Y56371D01*
X94879Y56380D01*
X94754Y56386D01*
X94629Y56388D01*
X94486Y56386D01*
X94344Y56380D01*
X94201Y56370D01*
X94059Y56357D01*
X93918Y56339D01*
X93776Y56318D01*
X93636Y56293D01*
X93496Y56264D01*
X93357Y56231D01*
X93219Y56194D01*
X93082Y56154D01*
X92947Y56110D01*
X92812Y56062D01*
X92679Y56010D01*
X92547Y55955D01*
X92417Y55896D01*
X92289Y55834D01*
X92162Y55768D01*
X92037Y55699D01*
X91914Y55627D01*
X91794Y55551D01*
X91675Y55472D01*
X91558Y55389D01*
X91444Y55304D01*
X91332Y55215D01*
X91223Y55124D01*
X91116Y55029D01*
X91011Y54932D01*
X90910Y54831D01*
X90811Y54728D01*
X90715Y54623D01*
X90622Y54514D01*
X90532Y54403D01*
X90445Y54290D01*
X90361Y54175D01*
X90281Y54057D01*
X90203Y53937D01*
X90129Y53815D01*
X90059Y53691D01*
X89991Y53565D01*
X89928Y53437D01*
X89867Y53308D01*
X89810Y53177D01*
X89757Y53045D01*
X89708Y52911D01*
X89662Y52776D01*
X97338Y49163D02*
X97432Y49255D01*
X97522Y49349D01*
X97610Y49446D01*
X97695Y49546D01*
X97777Y49648D01*
X97856Y49753D01*
X97931Y49860D01*
X98003Y49969D01*
X98072Y50080D01*
X98138Y50194D01*
X98200Y50309D01*
X98259Y50426D01*
X98314Y50545D01*
X98365Y50665D01*
X98413Y50787D01*
X98458Y50910D01*
X98498Y51034D01*
X98535Y51160D01*
X98568Y51287D01*
X98597Y51414D01*
X98623Y51543D01*
X98644Y51672D01*
X98662Y51802D01*
X98675Y51932D01*
X98685Y52062D01*
X98691Y52193D01*
X98693Y52324D01*
X97338Y49163D02*
X89662Y40132D01*
X98693Y40132D01*
X105844Y40132D02*
X105844Y56388D01*
X105844Y40132D02*
X113069Y40132D01*
X121789Y46454D02*
X125853Y46454D01*
X121789Y46454D02*
X121677Y46452D01*
X121566Y46446D01*
X121455Y46436D01*
X121344Y46423D01*
X121234Y46405D01*
X121125Y46383D01*
X121016Y46358D01*
X120908Y46329D01*
X120802Y46296D01*
X120696Y46259D01*
X120592Y46219D01*
X120490Y46175D01*
X120389Y46127D01*
X120290Y46076D01*
X120192Y46021D01*
X120097Y45963D01*
X120004Y45902D01*
X119913Y45837D01*
X119824Y45769D01*
X119738Y45698D01*
X119655Y45625D01*
X119574Y45548D01*
X119495Y45468D01*
X119420Y45386D01*
X119348Y45301D01*
X119278Y45214D01*
X119212Y45124D01*
X119149Y45032D01*
X119089Y44937D01*
X119033Y44841D01*
X118980Y44743D01*
X118931Y44643D01*
X118885Y44541D01*
X118843Y44438D01*
X118804Y44333D01*
X118769Y44227D01*
X118738Y44120D01*
X118711Y44012D01*
X118687Y43903D01*
X118668Y43793D01*
X118652Y43683D01*
X118640Y43572D01*
X118632Y43460D01*
X118628Y43349D01*
X118628Y43237D01*
X118632Y43126D01*
X118640Y43014D01*
X118652Y42903D01*
X118668Y42793D01*
X118687Y42683D01*
X118711Y42574D01*
X118738Y42466D01*
X118769Y42359D01*
X118804Y42253D01*
X118843Y42148D01*
X118885Y42045D01*
X118931Y41943D01*
X118980Y41843D01*
X119033Y41745D01*
X119089Y41649D01*
X119149Y41554D01*
X119212Y41462D01*
X119278Y41372D01*
X119348Y41285D01*
X119420Y41200D01*
X119495Y41118D01*
X119574Y41038D01*
X119655Y40961D01*
X119738Y40888D01*
X119824Y40817D01*
X119913Y40749D01*
X120004Y40684D01*
X120097Y40623D01*
X120192Y40565D01*
X120290Y40510D01*
X120389Y40459D01*
X120490Y40411D01*
X120592Y40367D01*
X120696Y40327D01*
X120802Y40290D01*
X120908Y40257D01*
X121016Y40228D01*
X121125Y40203D01*
X121234Y40181D01*
X121344Y40163D01*
X121455Y40150D01*
X121566Y40140D01*
X121677Y40134D01*
X121789Y40132D01*
X125853Y40132D01*
X125853Y48260D01*
X125851Y48361D01*
X125845Y48462D01*
X125836Y48563D01*
X125823Y48664D01*
X125806Y48764D01*
X125785Y48863D01*
X125761Y48961D01*
X125733Y49058D01*
X125701Y49155D01*
X125666Y49250D01*
X125627Y49343D01*
X125585Y49435D01*
X125539Y49526D01*
X125490Y49615D01*
X125438Y49701D01*
X125382Y49786D01*
X125324Y49869D01*
X125262Y49949D01*
X125197Y50027D01*
X125130Y50103D01*
X125060Y50176D01*
X124987Y50246D01*
X124911Y50313D01*
X124833Y50378D01*
X124753Y50440D01*
X124670Y50498D01*
X124585Y50554D01*
X124499Y50606D01*
X124410Y50655D01*
X124319Y50701D01*
X124227Y50743D01*
X124134Y50782D01*
X124039Y50817D01*
X123942Y50849D01*
X123845Y50877D01*
X123747Y50901D01*
X123648Y50922D01*
X123548Y50939D01*
X123447Y50952D01*
X123346Y50961D01*
X123245Y50967D01*
X123144Y50969D01*
X119531Y50969D01*
X133364Y56388D02*
X133364Y40132D01*
X137879Y40132D01*
X137983Y40134D01*
X138086Y40140D01*
X138190Y40150D01*
X138293Y40164D01*
X138395Y40182D01*
X138496Y40203D01*
X138597Y40229D01*
X138696Y40258D01*
X138795Y40291D01*
X138892Y40328D01*
X138987Y40369D01*
X139081Y40413D01*
X139173Y40461D01*
X139263Y40512D01*
X139352Y40567D01*
X139438Y40625D01*
X139521Y40687D01*
X139603Y40751D01*
X139681Y40819D01*
X139757Y40889D01*
X139831Y40962D01*
X139901Y41039D01*
X139969Y41117D01*
X140033Y41199D01*
X140095Y41282D01*
X140153Y41368D01*
X140208Y41457D01*
X140259Y41547D01*
X140307Y41639D01*
X140351Y41733D01*
X140392Y41828D01*
X140429Y41925D01*
X140462Y42024D01*
X140491Y42123D01*
X140517Y42224D01*
X140538Y42325D01*
X140556Y42427D01*
X140570Y42530D01*
X140580Y42634D01*
X140586Y42737D01*
X140588Y42841D01*
X140589Y42841D02*
X140589Y48260D01*
X140588Y48260D02*
X140586Y48361D01*
X140580Y48462D01*
X140571Y48563D01*
X140558Y48664D01*
X140541Y48764D01*
X140520Y48863D01*
X140496Y48961D01*
X140468Y49058D01*
X140436Y49155D01*
X140401Y49250D01*
X140362Y49343D01*
X140320Y49435D01*
X140274Y49526D01*
X140225Y49615D01*
X140173Y49701D01*
X140117Y49786D01*
X140059Y49869D01*
X139997Y49949D01*
X139932Y50027D01*
X139865Y50103D01*
X139795Y50176D01*
X139722Y50246D01*
X139646Y50313D01*
X139568Y50378D01*
X139488Y50440D01*
X139405Y50498D01*
X139320Y50554D01*
X139234Y50606D01*
X139145Y50655D01*
X139054Y50701D01*
X138962Y50743D01*
X138869Y50782D01*
X138774Y50817D01*
X138677Y50849D01*
X138580Y50877D01*
X138482Y50901D01*
X138383Y50922D01*
X138283Y50939D01*
X138182Y50952D01*
X138081Y50961D01*
X137980Y50967D01*
X137879Y50969D01*
X133364Y50969D01*
X148192Y46454D02*
X152708Y44648D01*
X148192Y46454D02*
X148104Y46491D01*
X148018Y46532D01*
X147933Y46576D01*
X147850Y46624D01*
X147770Y46675D01*
X147691Y46729D01*
X147615Y46787D01*
X147541Y46847D01*
X147469Y46911D01*
X147401Y46977D01*
X147335Y47047D01*
X147272Y47118D01*
X147211Y47193D01*
X147154Y47269D01*
X147101Y47348D01*
X147050Y47429D01*
X147003Y47512D01*
X146959Y47597D01*
X146919Y47684D01*
X146882Y47772D01*
X146849Y47862D01*
X146819Y47953D01*
X146794Y48045D01*
X146772Y48138D01*
X146754Y48232D01*
X146739Y48326D01*
X146729Y48421D01*
X146723Y48517D01*
X146720Y48612D01*
X146721Y48708D01*
X146727Y48803D01*
X146736Y48899D01*
X146749Y48993D01*
X146765Y49087D01*
X146786Y49181D01*
X146811Y49273D01*
X146839Y49364D01*
X146871Y49454D01*
X146906Y49543D01*
X146945Y49630D01*
X146988Y49716D01*
X147034Y49800D01*
X147084Y49881D01*
X147136Y49961D01*
X147192Y50039D01*
X147252Y50114D01*
X147314Y50186D01*
X147379Y50256D01*
X147447Y50324D01*
X147517Y50388D01*
X147590Y50450D01*
X147666Y50508D01*
X147744Y50564D01*
X147824Y50616D01*
X147906Y50665D01*
X147990Y50710D01*
X148076Y50752D01*
X148163Y50791D01*
X148252Y50826D01*
X148343Y50857D01*
X148434Y50884D01*
X148527Y50908D01*
X148620Y50928D01*
X148714Y50944D01*
X148809Y50956D01*
X148904Y50965D01*
X149000Y50969D01*
X149095Y50970D01*
X149342Y50963D01*
X149588Y50951D01*
X149834Y50933D01*
X150080Y50908D01*
X150324Y50878D01*
X150568Y50842D01*
X150811Y50801D01*
X151053Y50753D01*
X151294Y50699D01*
X151533Y50640D01*
X151771Y50575D01*
X152007Y50504D01*
X152242Y50428D01*
X152475Y50346D01*
X152705Y50258D01*
X152933Y50165D01*
X153160Y50067D01*
X152708Y44647D02*
X152796Y44610D01*
X152882Y44569D01*
X152967Y44525D01*
X153050Y44477D01*
X153130Y44426D01*
X153209Y44372D01*
X153285Y44314D01*
X153359Y44254D01*
X153431Y44190D01*
X153499Y44124D01*
X153565Y44054D01*
X153628Y43983D01*
X153689Y43908D01*
X153746Y43832D01*
X153799Y43753D01*
X153850Y43672D01*
X153897Y43589D01*
X153941Y43504D01*
X153981Y43417D01*
X154018Y43329D01*
X154051Y43239D01*
X154081Y43148D01*
X154106Y43056D01*
X154128Y42963D01*
X154146Y42869D01*
X154161Y42775D01*
X154171Y42680D01*
X154177Y42584D01*
X154180Y42489D01*
X154179Y42393D01*
X154173Y42298D01*
X154164Y42202D01*
X154151Y42108D01*
X154135Y42014D01*
X154114Y41920D01*
X154089Y41828D01*
X154061Y41737D01*
X154029Y41647D01*
X153994Y41558D01*
X153955Y41471D01*
X153912Y41385D01*
X153866Y41301D01*
X153816Y41220D01*
X153764Y41140D01*
X153708Y41062D01*
X153648Y40987D01*
X153586Y40915D01*
X153521Y40845D01*
X153453Y40777D01*
X153383Y40713D01*
X153310Y40651D01*
X153234Y40593D01*
X153156Y40537D01*
X153076Y40485D01*
X152994Y40436D01*
X152910Y40391D01*
X152824Y40349D01*
X152737Y40310D01*
X152648Y40275D01*
X152557Y40244D01*
X152466Y40217D01*
X152373Y40193D01*
X152280Y40173D01*
X152186Y40157D01*
X152091Y40145D01*
X151996Y40136D01*
X151900Y40132D01*
X151805Y40131D01*
X151804Y40132D02*
X151442Y40141D01*
X151080Y40159D01*
X150719Y40186D01*
X150359Y40221D01*
X149999Y40264D01*
X149640Y40316D01*
X149283Y40377D01*
X148928Y40446D01*
X148574Y40523D01*
X148222Y40609D01*
X147872Y40703D01*
X147524Y40806D01*
X147179Y40916D01*
X146837Y41035D01*
X163997Y40132D02*
X163997Y56388D01*
X159481Y56388D02*
X168513Y56388D01*
X173932Y47357D02*
X173932Y43744D01*
X173932Y47357D02*
X173934Y47476D01*
X173940Y47596D01*
X173950Y47715D01*
X173964Y47833D01*
X173981Y47952D01*
X174003Y48069D01*
X174028Y48186D01*
X174058Y48301D01*
X174091Y48416D01*
X174128Y48530D01*
X174168Y48642D01*
X174213Y48753D01*
X174261Y48862D01*
X174312Y48970D01*
X174367Y49076D01*
X174426Y49180D01*
X174488Y49282D01*
X174553Y49382D01*
X174622Y49480D01*
X174694Y49576D01*
X174769Y49669D01*
X174846Y49759D01*
X174927Y49847D01*
X175011Y49932D01*
X175098Y50014D01*
X175187Y50094D01*
X175279Y50170D01*
X175373Y50244D01*
X175470Y50314D01*
X175568Y50381D01*
X175669Y50445D01*
X175773Y50505D01*
X175878Y50562D01*
X175985Y50615D01*
X176093Y50665D01*
X176203Y50711D01*
X176315Y50753D01*
X176428Y50792D01*
X176542Y50827D01*
X176657Y50858D01*
X176774Y50886D01*
X176891Y50909D01*
X177008Y50929D01*
X177127Y50945D01*
X177246Y50957D01*
X177365Y50965D01*
X177484Y50969D01*
X177604Y50969D01*
X177723Y50965D01*
X177842Y50957D01*
X177961Y50945D01*
X178080Y50929D01*
X178197Y50909D01*
X178314Y50886D01*
X178431Y50858D01*
X178546Y50827D01*
X178660Y50792D01*
X178773Y50753D01*
X178885Y50711D01*
X178995Y50665D01*
X179103Y50615D01*
X179210Y50562D01*
X179315Y50505D01*
X179419Y50445D01*
X179520Y50381D01*
X179618Y50314D01*
X179715Y50244D01*
X179809Y50170D01*
X179901Y50094D01*
X179990Y50014D01*
X180077Y49932D01*
X180161Y49847D01*
X180242Y49759D01*
X180319Y49669D01*
X180394Y49576D01*
X180466Y49480D01*
X180535Y49382D01*
X180600Y49282D01*
X180662Y49180D01*
X180721Y49076D01*
X180776Y48970D01*
X180827Y48862D01*
X180875Y48753D01*
X180920Y48642D01*
X180960Y48530D01*
X180997Y48416D01*
X181030Y48301D01*
X181060Y48186D01*
X181085Y48069D01*
X181107Y47952D01*
X181124Y47833D01*
X181138Y47715D01*
X181148Y47596D01*
X181154Y47476D01*
X181156Y47357D01*
X181157Y47357D02*
X181157Y43744D01*
X181156Y43744D02*
X181154Y43625D01*
X181148Y43505D01*
X181138Y43386D01*
X181124Y43268D01*
X181107Y43149D01*
X181085Y43032D01*
X181060Y42915D01*
X181030Y42800D01*
X180997Y42685D01*
X180960Y42571D01*
X180920Y42459D01*
X180875Y42348D01*
X180827Y42239D01*
X180776Y42131D01*
X180721Y42025D01*
X180662Y41921D01*
X180600Y41819D01*
X180535Y41719D01*
X180466Y41621D01*
X180394Y41525D01*
X180319Y41432D01*
X180242Y41342D01*
X180161Y41254D01*
X180077Y41169D01*
X179990Y41087D01*
X179901Y41007D01*
X179809Y40931D01*
X179715Y40857D01*
X179618Y40787D01*
X179520Y40720D01*
X179419Y40656D01*
X179315Y40596D01*
X179210Y40539D01*
X179103Y40486D01*
X178995Y40436D01*
X178885Y40390D01*
X178773Y40348D01*
X178660Y40309D01*
X178546Y40274D01*
X178431Y40243D01*
X178314Y40215D01*
X178197Y40192D01*
X178080Y40172D01*
X177961Y40156D01*
X177842Y40144D01*
X177723Y40136D01*
X177604Y40132D01*
X177484Y40132D01*
X177365Y40136D01*
X177246Y40144D01*
X177127Y40156D01*
X177008Y40172D01*
X176891Y40192D01*
X176774Y40215D01*
X176657Y40243D01*
X176542Y40274D01*
X176428Y40309D01*
X176315Y40348D01*
X176203Y40390D01*
X176093Y40436D01*
X175985Y40486D01*
X175878Y40539D01*
X175773Y40596D01*
X175669Y40656D01*
X175568Y40720D01*
X175470Y40787D01*
X175373Y40857D01*
X175279Y40931D01*
X175187Y41007D01*
X175098Y41087D01*
X175011Y41169D01*
X174927Y41254D01*
X174846Y41342D01*
X174769Y41432D01*
X174694Y41525D01*
X174622Y41621D01*
X174553Y41719D01*
X174488Y41819D01*
X174426Y41921D01*
X174367Y42025D01*
X174312Y42131D01*
X174261Y42239D01*
X174213Y42348D01*
X174168Y42459D01*
X174128Y42571D01*
X174091Y42685D01*
X174058Y42800D01*
X174028Y42915D01*
X174003Y43032D01*
X173981Y43149D01*
X173964Y43268D01*
X173950Y43386D01*
X173940Y43505D01*
X173934Y43625D01*
X173932Y43744D01*
X194461Y49163D02*
X197170Y49163D01*
X197170Y40132D01*
X191751Y40132D01*
X191633Y40134D01*
X191515Y40140D01*
X191397Y40149D01*
X191280Y40163D01*
X191163Y40180D01*
X191046Y40201D01*
X190931Y40226D01*
X190816Y40255D01*
X190702Y40288D01*
X190590Y40324D01*
X190479Y40364D01*
X190369Y40407D01*
X190260Y40454D01*
X190153Y40504D01*
X190048Y40559D01*
X189945Y40616D01*
X189844Y40677D01*
X189744Y40741D01*
X189647Y40808D01*
X189552Y40878D01*
X189460Y40952D01*
X189369Y41028D01*
X189282Y41108D01*
X189197Y41190D01*
X189115Y41275D01*
X189035Y41362D01*
X188959Y41453D01*
X188885Y41545D01*
X188815Y41640D01*
X188748Y41737D01*
X188684Y41837D01*
X188623Y41938D01*
X188566Y42041D01*
X188511Y42146D01*
X188461Y42253D01*
X188414Y42362D01*
X188371Y42472D01*
X188331Y42583D01*
X188295Y42695D01*
X188262Y42809D01*
X188233Y42924D01*
X188208Y43039D01*
X188187Y43156D01*
X188170Y43273D01*
X188156Y43390D01*
X188147Y43508D01*
X188141Y43626D01*
X188139Y43744D01*
X188139Y52776D01*
X188141Y52894D01*
X188147Y53012D01*
X188156Y53130D01*
X188170Y53247D01*
X188187Y53364D01*
X188208Y53481D01*
X188233Y53596D01*
X188262Y53711D01*
X188295Y53825D01*
X188331Y53937D01*
X188371Y54048D01*
X188414Y54158D01*
X188461Y54267D01*
X188511Y54374D01*
X188565Y54479D01*
X188623Y54582D01*
X188684Y54683D01*
X188748Y54783D01*
X188815Y54880D01*
X188885Y54975D01*
X188959Y55067D01*
X189035Y55158D01*
X189115Y55245D01*
X189197Y55330D01*
X189282Y55412D01*
X189369Y55492D01*
X189460Y55568D01*
X189552Y55642D01*
X189647Y55712D01*
X189744Y55779D01*
X189844Y55843D01*
X189945Y55904D01*
X190048Y55961D01*
X190153Y56015D01*
X190260Y56066D01*
X190369Y56113D01*
X190479Y56156D01*
X190590Y56196D01*
X190702Y56232D01*
X190816Y56265D01*
X190931Y56294D01*
X191046Y56319D01*
X191163Y56340D01*
X191280Y56357D01*
X191397Y56371D01*
X191515Y56380D01*
X191633Y56386D01*
X191751Y56388D01*
X197170Y56388D01*
X204152Y47357D02*
X204152Y43744D01*
X204153Y47357D02*
X204155Y47476D01*
X204161Y47596D01*
X204171Y47715D01*
X204185Y47833D01*
X204202Y47952D01*
X204224Y48069D01*
X204249Y48186D01*
X204279Y48301D01*
X204312Y48416D01*
X204349Y48530D01*
X204389Y48642D01*
X204434Y48753D01*
X204482Y48862D01*
X204533Y48970D01*
X204588Y49076D01*
X204647Y49180D01*
X204709Y49282D01*
X204774Y49382D01*
X204843Y49480D01*
X204915Y49576D01*
X204990Y49669D01*
X205067Y49759D01*
X205148Y49847D01*
X205232Y49932D01*
X205319Y50014D01*
X205408Y50094D01*
X205500Y50170D01*
X205594Y50244D01*
X205691Y50314D01*
X205789Y50381D01*
X205890Y50445D01*
X205994Y50505D01*
X206099Y50562D01*
X206206Y50615D01*
X206314Y50665D01*
X206424Y50711D01*
X206536Y50753D01*
X206649Y50792D01*
X206763Y50827D01*
X206878Y50858D01*
X206995Y50886D01*
X207112Y50909D01*
X207229Y50929D01*
X207348Y50945D01*
X207467Y50957D01*
X207586Y50965D01*
X207705Y50969D01*
X207825Y50969D01*
X207944Y50965D01*
X208063Y50957D01*
X208182Y50945D01*
X208301Y50929D01*
X208418Y50909D01*
X208535Y50886D01*
X208652Y50858D01*
X208767Y50827D01*
X208881Y50792D01*
X208994Y50753D01*
X209106Y50711D01*
X209216Y50665D01*
X209324Y50615D01*
X209431Y50562D01*
X209536Y50505D01*
X209640Y50445D01*
X209741Y50381D01*
X209839Y50314D01*
X209936Y50244D01*
X210030Y50170D01*
X210122Y50094D01*
X210211Y50014D01*
X210298Y49932D01*
X210382Y49847D01*
X210463Y49759D01*
X210540Y49669D01*
X210615Y49576D01*
X210687Y49480D01*
X210756Y49382D01*
X210821Y49282D01*
X210883Y49180D01*
X210942Y49076D01*
X210997Y48970D01*
X211048Y48862D01*
X211096Y48753D01*
X211141Y48642D01*
X211181Y48530D01*
X211218Y48416D01*
X211251Y48301D01*
X211281Y48186D01*
X211306Y48069D01*
X211328Y47952D01*
X211345Y47833D01*
X211359Y47715D01*
X211369Y47596D01*
X211375Y47476D01*
X211377Y47357D01*
X211377Y43744D01*
X211375Y43625D01*
X211369Y43505D01*
X211359Y43386D01*
X211345Y43268D01*
X211328Y43149D01*
X211306Y43032D01*
X211281Y42915D01*
X211251Y42800D01*
X211218Y42685D01*
X211181Y42571D01*
X211141Y42459D01*
X211096Y42348D01*
X211048Y42239D01*
X210997Y42131D01*
X210942Y42025D01*
X210883Y41921D01*
X210821Y41819D01*
X210756Y41719D01*
X210687Y41621D01*
X210615Y41525D01*
X210540Y41432D01*
X210463Y41342D01*
X210382Y41254D01*
X210298Y41169D01*
X210211Y41087D01*
X210122Y41007D01*
X210030Y40931D01*
X209936Y40857D01*
X209839Y40787D01*
X209741Y40720D01*
X209640Y40656D01*
X209536Y40596D01*
X209431Y40539D01*
X209324Y40486D01*
X209216Y40436D01*
X209106Y40390D01*
X208994Y40348D01*
X208881Y40309D01*
X208767Y40274D01*
X208652Y40243D01*
X208535Y40215D01*
X208418Y40192D01*
X208301Y40172D01*
X208182Y40156D01*
X208063Y40144D01*
X207944Y40136D01*
X207825Y40132D01*
X207705Y40132D01*
X207586Y40136D01*
X207467Y40144D01*
X207348Y40156D01*
X207229Y40172D01*
X207112Y40192D01*
X206995Y40215D01*
X206878Y40243D01*
X206763Y40274D01*
X206649Y40309D01*
X206536Y40348D01*
X206424Y40390D01*
X206314Y40436D01*
X206206Y40486D01*
X206099Y40539D01*
X205994Y40596D01*
X205890Y40656D01*
X205789Y40720D01*
X205691Y40787D01*
X205594Y40857D01*
X205500Y40931D01*
X205408Y41007D01*
X205319Y41087D01*
X205232Y41169D01*
X205148Y41254D01*
X205067Y41342D01*
X204990Y41432D01*
X204915Y41525D01*
X204843Y41621D01*
X204774Y41719D01*
X204709Y41819D01*
X204647Y41921D01*
X204588Y42025D01*
X204533Y42131D01*
X204482Y42239D01*
X204434Y42348D01*
X204389Y42459D01*
X204349Y42571D01*
X204312Y42685D01*
X204279Y42800D01*
X204249Y42915D01*
X204224Y43032D01*
X204202Y43149D01*
X204185Y43268D01*
X204171Y43386D01*
X204161Y43505D01*
X204155Y43625D01*
X204153Y43744D01*
X226726Y40132D02*
X226726Y56388D01*
X226726Y40132D02*
X233950Y40132D01*
X240273Y40132D02*
X247498Y40132D01*
X240273Y40132D02*
X240273Y56388D01*
X247498Y56388D01*
X245691Y49163D02*
X240273Y49163D01*
X253790Y56388D02*
X253790Y40132D01*
X253790Y56388D02*
X258305Y56388D01*
X258436Y56386D01*
X258568Y56380D01*
X258699Y56371D01*
X258829Y56357D01*
X258960Y56340D01*
X259089Y56319D01*
X259218Y56295D01*
X259346Y56266D01*
X259474Y56234D01*
X259600Y56198D01*
X259725Y56159D01*
X259850Y56116D01*
X259972Y56069D01*
X260094Y56019D01*
X260214Y55965D01*
X260332Y55908D01*
X260448Y55847D01*
X260563Y55783D01*
X260676Y55716D01*
X260787Y55645D01*
X260895Y55571D01*
X261002Y55494D01*
X261106Y55414D01*
X261208Y55331D01*
X261307Y55246D01*
X261404Y55157D01*
X261498Y55065D01*
X261590Y54971D01*
X261679Y54874D01*
X261764Y54775D01*
X261847Y54673D01*
X261927Y54569D01*
X262004Y54462D01*
X262078Y54354D01*
X262149Y54243D01*
X262216Y54130D01*
X262280Y54015D01*
X262341Y53899D01*
X262398Y53781D01*
X262452Y53661D01*
X262502Y53539D01*
X262549Y53417D01*
X262592Y53292D01*
X262631Y53167D01*
X262667Y53041D01*
X262699Y52913D01*
X262728Y52785D01*
X262752Y52656D01*
X262773Y52527D01*
X262790Y52396D01*
X262804Y52266D01*
X262813Y52135D01*
X262819Y52003D01*
X262821Y51872D01*
X262821Y44648D01*
X262819Y44517D01*
X262813Y44385D01*
X262804Y44254D01*
X262790Y44124D01*
X262773Y43993D01*
X262752Y43864D01*
X262728Y43735D01*
X262699Y43607D01*
X262667Y43479D01*
X262631Y43353D01*
X262592Y43228D01*
X262549Y43103D01*
X262502Y42981D01*
X262452Y42859D01*
X262398Y42739D01*
X262341Y42621D01*
X262280Y42505D01*
X262216Y42390D01*
X262149Y42277D01*
X262078Y42166D01*
X262004Y42058D01*
X261927Y41951D01*
X261847Y41847D01*
X261764Y41745D01*
X261679Y41646D01*
X261590Y41549D01*
X261498Y41455D01*
X261404Y41363D01*
X261307Y41274D01*
X261208Y41189D01*
X261106Y41106D01*
X261002Y41026D01*
X260895Y40949D01*
X260787Y40875D01*
X260676Y40804D01*
X260563Y40737D01*
X260448Y40673D01*
X260332Y40612D01*
X260214Y40555D01*
X260094Y40501D01*
X259972Y40451D01*
X259850Y40404D01*
X259725Y40361D01*
X259600Y40322D01*
X259474Y40286D01*
X259346Y40254D01*
X259218Y40225D01*
X259089Y40201D01*
X258959Y40180D01*
X258829Y40163D01*
X258699Y40149D01*
X258568Y40140D01*
X258436Y40134D01*
X258305Y40132D01*
X253790Y40132D01*
X271158Y46454D02*
X275673Y44648D01*
X271158Y46454D02*
X271070Y46491D01*
X270984Y46532D01*
X270899Y46576D01*
X270816Y46624D01*
X270736Y46675D01*
X270657Y46729D01*
X270581Y46787D01*
X270507Y46847D01*
X270435Y46911D01*
X270367Y46977D01*
X270301Y47047D01*
X270238Y47118D01*
X270177Y47193D01*
X270120Y47269D01*
X270067Y47348D01*
X270016Y47429D01*
X269969Y47512D01*
X269925Y47597D01*
X269885Y47684D01*
X269848Y47772D01*
X269815Y47862D01*
X269785Y47953D01*
X269760Y48045D01*
X269738Y48138D01*
X269720Y48232D01*
X269705Y48326D01*
X269695Y48421D01*
X269689Y48517D01*
X269686Y48612D01*
X269687Y48708D01*
X269693Y48803D01*
X269702Y48899D01*
X269715Y48993D01*
X269731Y49087D01*
X269752Y49181D01*
X269777Y49273D01*
X269805Y49364D01*
X269837Y49454D01*
X269872Y49543D01*
X269911Y49630D01*
X269954Y49716D01*
X270000Y49800D01*
X270050Y49881D01*
X270102Y49961D01*
X270158Y50039D01*
X270218Y50114D01*
X270280Y50186D01*
X270345Y50256D01*
X270413Y50324D01*
X270483Y50388D01*
X270556Y50450D01*
X270632Y50508D01*
X270710Y50564D01*
X270790Y50616D01*
X270872Y50665D01*
X270956Y50710D01*
X271042Y50752D01*
X271129Y50791D01*
X271218Y50826D01*
X271309Y50857D01*
X271400Y50884D01*
X271493Y50908D01*
X271586Y50928D01*
X271680Y50944D01*
X271775Y50956D01*
X271870Y50965D01*
X271966Y50969D01*
X272061Y50970D01*
X272308Y50963D01*
X272554Y50951D01*
X272800Y50933D01*
X273046Y50908D01*
X273290Y50878D01*
X273534Y50842D01*
X273777Y50801D01*
X274019Y50753D01*
X274260Y50699D01*
X274499Y50640D01*
X274737Y50575D01*
X274973Y50504D01*
X275208Y50428D01*
X275441Y50346D01*
X275671Y50258D01*
X275899Y50165D01*
X276126Y50067D01*
X275674Y44647D02*
X275762Y44610D01*
X275848Y44569D01*
X275933Y44525D01*
X276016Y44477D01*
X276096Y44426D01*
X276175Y44372D01*
X276251Y44314D01*
X276325Y44254D01*
X276397Y44190D01*
X276465Y44124D01*
X276531Y44054D01*
X276594Y43983D01*
X276655Y43908D01*
X276712Y43832D01*
X276765Y43753D01*
X276816Y43672D01*
X276863Y43589D01*
X276907Y43504D01*
X276947Y43417D01*
X276984Y43329D01*
X277017Y43239D01*
X277047Y43148D01*
X277072Y43056D01*
X277094Y42963D01*
X277112Y42869D01*
X277127Y42775D01*
X277137Y42680D01*
X277143Y42584D01*
X277146Y42489D01*
X277145Y42393D01*
X277139Y42298D01*
X277130Y42202D01*
X277117Y42108D01*
X277101Y42014D01*
X277080Y41920D01*
X277055Y41828D01*
X277027Y41737D01*
X276995Y41647D01*
X276960Y41558D01*
X276921Y41471D01*
X276878Y41385D01*
X276832Y41301D01*
X276782Y41220D01*
X276730Y41140D01*
X276674Y41062D01*
X276614Y40987D01*
X276552Y40915D01*
X276487Y40845D01*
X276419Y40777D01*
X276349Y40713D01*
X276276Y40651D01*
X276200Y40593D01*
X276122Y40537D01*
X276042Y40485D01*
X275960Y40436D01*
X275876Y40391D01*
X275790Y40349D01*
X275703Y40310D01*
X275614Y40275D01*
X275523Y40244D01*
X275432Y40217D01*
X275339Y40193D01*
X275246Y40173D01*
X275152Y40157D01*
X275057Y40145D01*
X274962Y40136D01*
X274866Y40132D01*
X274771Y40131D01*
X274770Y40132D02*
X274408Y40141D01*
X274046Y40159D01*
X273685Y40186D01*
X273325Y40221D01*
X272965Y40264D01*
X272606Y40316D01*
X272249Y40377D01*
X271894Y40446D01*
X271540Y40523D01*
X271188Y40609D01*
X270838Y40703D01*
X270490Y40806D01*
X270145Y40916D01*
X269803Y41035D01*
X95081Y29718D02*
X95081Y17074D01*
X95080Y17074D02*
X95078Y16956D01*
X95072Y16838D01*
X95063Y16720D01*
X95049Y16603D01*
X95032Y16486D01*
X95011Y16369D01*
X94986Y16254D01*
X94957Y16139D01*
X94924Y16025D01*
X94888Y15913D01*
X94848Y15802D01*
X94805Y15692D01*
X94758Y15583D01*
X94708Y15476D01*
X94653Y15371D01*
X94596Y15268D01*
X94535Y15167D01*
X94471Y15067D01*
X94404Y14970D01*
X94334Y14875D01*
X94260Y14783D01*
X94184Y14692D01*
X94104Y14605D01*
X94022Y14520D01*
X93937Y14438D01*
X93850Y14358D01*
X93759Y14282D01*
X93667Y14208D01*
X93572Y14138D01*
X93475Y14071D01*
X93375Y14007D01*
X93274Y13946D01*
X93171Y13889D01*
X93066Y13834D01*
X92959Y13784D01*
X92850Y13737D01*
X92740Y13694D01*
X92629Y13654D01*
X92517Y13618D01*
X92403Y13585D01*
X92288Y13556D01*
X92173Y13531D01*
X92056Y13510D01*
X91939Y13493D01*
X91822Y13479D01*
X91704Y13470D01*
X91586Y13464D01*
X91468Y13462D01*
X89662Y13462D01*
X107045Y13462D02*
X107163Y13464D01*
X107281Y13470D01*
X107399Y13479D01*
X107516Y13493D01*
X107633Y13510D01*
X107750Y13531D01*
X107865Y13556D01*
X107980Y13585D01*
X108094Y13618D01*
X108206Y13654D01*
X108317Y13694D01*
X108427Y13737D01*
X108536Y13784D01*
X108643Y13834D01*
X108748Y13889D01*
X108851Y13946D01*
X108952Y14007D01*
X109052Y14071D01*
X109149Y14138D01*
X109244Y14208D01*
X109336Y14282D01*
X109427Y14358D01*
X109514Y14438D01*
X109599Y14520D01*
X109681Y14605D01*
X109761Y14692D01*
X109837Y14783D01*
X109911Y14875D01*
X109981Y14970D01*
X110048Y15067D01*
X110112Y15167D01*
X110173Y15268D01*
X110230Y15371D01*
X110285Y15476D01*
X110335Y15583D01*
X110382Y15692D01*
X110425Y15802D01*
X110465Y15913D01*
X110501Y16025D01*
X110534Y16139D01*
X110563Y16254D01*
X110588Y16369D01*
X110609Y16486D01*
X110626Y16603D01*
X110640Y16720D01*
X110649Y16838D01*
X110655Y16956D01*
X110657Y17074D01*
X107045Y13462D02*
X106862Y13464D01*
X106680Y13471D01*
X106498Y13482D01*
X106316Y13497D01*
X106134Y13517D01*
X105953Y13540D01*
X105773Y13569D01*
X105593Y13601D01*
X105414Y13638D01*
X105237Y13679D01*
X105060Y13725D01*
X104884Y13774D01*
X104710Y13828D01*
X104536Y13886D01*
X104365Y13948D01*
X104195Y14014D01*
X104026Y14085D01*
X103859Y14159D01*
X103694Y14237D01*
X103531Y14319D01*
X103370Y14405D01*
X103211Y14495D01*
X103054Y14589D01*
X102900Y14686D01*
X102748Y14787D01*
X102598Y14892D01*
X102451Y15000D01*
X102307Y15111D01*
X102165Y15226D01*
X102026Y15345D01*
X101890Y15467D01*
X101757Y15592D01*
X101627Y15720D01*
X102079Y26106D02*
X102081Y26224D01*
X102087Y26342D01*
X102096Y26460D01*
X102110Y26577D01*
X102127Y26694D01*
X102148Y26811D01*
X102173Y26926D01*
X102202Y27041D01*
X102235Y27155D01*
X102271Y27267D01*
X102311Y27378D01*
X102354Y27488D01*
X102401Y27597D01*
X102451Y27704D01*
X102506Y27809D01*
X102563Y27912D01*
X102624Y28013D01*
X102688Y28113D01*
X102755Y28210D01*
X102825Y28305D01*
X102899Y28397D01*
X102975Y28488D01*
X103055Y28575D01*
X103137Y28660D01*
X103222Y28742D01*
X103309Y28822D01*
X103400Y28898D01*
X103492Y28972D01*
X103587Y29042D01*
X103684Y29109D01*
X103784Y29173D01*
X103885Y29234D01*
X103988Y29292D01*
X104093Y29346D01*
X104200Y29396D01*
X104309Y29443D01*
X104419Y29487D01*
X104530Y29526D01*
X104643Y29562D01*
X104756Y29595D01*
X104871Y29624D01*
X104986Y29649D01*
X105103Y29670D01*
X105220Y29687D01*
X105337Y29701D01*
X105455Y29710D01*
X105573Y29716D01*
X105691Y29718D01*
X105852Y29716D01*
X106014Y29710D01*
X106175Y29701D01*
X106336Y29687D01*
X106496Y29670D01*
X106656Y29649D01*
X106816Y29624D01*
X106975Y29595D01*
X107133Y29563D01*
X107290Y29527D01*
X107446Y29487D01*
X107602Y29443D01*
X107756Y29395D01*
X107909Y29344D01*
X108061Y29290D01*
X108212Y29231D01*
X108361Y29170D01*
X108508Y29104D01*
X108654Y29035D01*
X108799Y28963D01*
X108941Y28887D01*
X109082Y28808D01*
X109221Y28726D01*
X109357Y28640D01*
X109492Y28551D01*
X109625Y28459D01*
X109755Y28363D01*
X103884Y22945D02*
X103783Y23007D01*
X103683Y23072D01*
X103586Y23141D01*
X103491Y23213D01*
X103398Y23287D01*
X103308Y23365D01*
X103220Y23446D01*
X103135Y23529D01*
X103053Y23615D01*
X102974Y23704D01*
X102897Y23795D01*
X102824Y23889D01*
X102753Y23985D01*
X102686Y24083D01*
X102622Y24183D01*
X102561Y24286D01*
X102504Y24390D01*
X102450Y24496D01*
X102400Y24604D01*
X102353Y24713D01*
X102309Y24824D01*
X102269Y24936D01*
X102233Y25050D01*
X102201Y25164D01*
X102172Y25280D01*
X102147Y25396D01*
X102126Y25513D01*
X102109Y25631D01*
X102095Y25749D01*
X102086Y25868D01*
X102080Y25987D01*
X102078Y26106D01*
X108852Y20235D02*
X108953Y20173D01*
X109053Y20108D01*
X109150Y20039D01*
X109245Y19967D01*
X109338Y19893D01*
X109428Y19815D01*
X109516Y19734D01*
X109601Y19651D01*
X109683Y19565D01*
X109762Y19476D01*
X109839Y19385D01*
X109912Y19291D01*
X109983Y19195D01*
X110050Y19097D01*
X110114Y18997D01*
X110175Y18894D01*
X110232Y18790D01*
X110286Y18684D01*
X110336Y18576D01*
X110383Y18467D01*
X110427Y18356D01*
X110467Y18244D01*
X110503Y18130D01*
X110535Y18016D01*
X110564Y17900D01*
X110589Y17784D01*
X110610Y17667D01*
X110627Y17549D01*
X110641Y17431D01*
X110650Y17312D01*
X110656Y17193D01*
X110658Y17074D01*
X108852Y20235D02*
X103884Y22945D01*
X125074Y26106D02*
X129589Y29718D01*
X129589Y13462D01*
X125074Y13462D02*
X134105Y13462D01*
X140705Y26106D02*
X145220Y29718D01*
X145220Y13462D01*
X140705Y13462D02*
X149736Y13462D01*
X155676Y11656D02*
X162901Y31524D01*
X173808Y29718D02*
X173933Y29716D01*
X174058Y29710D01*
X174183Y29701D01*
X174307Y29687D01*
X174431Y29670D01*
X174555Y29649D01*
X174677Y29624D01*
X174799Y29595D01*
X174920Y29563D01*
X175040Y29527D01*
X175159Y29487D01*
X175276Y29444D01*
X175392Y29397D01*
X175507Y29346D01*
X175619Y29292D01*
X175731Y29234D01*
X175840Y29174D01*
X175947Y29109D01*
X176053Y29042D01*
X176156Y28971D01*
X176257Y28897D01*
X176356Y28820D01*
X176452Y28740D01*
X176546Y28657D01*
X176637Y28572D01*
X176726Y28483D01*
X176811Y28392D01*
X176894Y28298D01*
X176974Y28202D01*
X177051Y28103D01*
X177125Y28002D01*
X177196Y27899D01*
X177263Y27793D01*
X177328Y27686D01*
X177388Y27577D01*
X177446Y27465D01*
X177500Y27353D01*
X177551Y27238D01*
X177598Y27122D01*
X177641Y27005D01*
X177681Y26886D01*
X177717Y26766D01*
X177749Y26645D01*
X177778Y26523D01*
X177803Y26401D01*
X177824Y26277D01*
X177841Y26153D01*
X177855Y26029D01*
X177864Y25904D01*
X177870Y25779D01*
X177872Y25654D01*
X173808Y29718D02*
X173665Y29716D01*
X173523Y29710D01*
X173380Y29700D01*
X173238Y29687D01*
X173097Y29669D01*
X172955Y29648D01*
X172815Y29623D01*
X172675Y29594D01*
X172536Y29561D01*
X172398Y29524D01*
X172261Y29484D01*
X172126Y29440D01*
X171991Y29392D01*
X171858Y29340D01*
X171726Y29285D01*
X171596Y29226D01*
X171468Y29164D01*
X171341Y29098D01*
X171216Y29029D01*
X171093Y28957D01*
X170973Y28881D01*
X170854Y28802D01*
X170737Y28719D01*
X170623Y28634D01*
X170511Y28545D01*
X170402Y28454D01*
X170295Y28359D01*
X170190Y28262D01*
X170089Y28161D01*
X169990Y28058D01*
X169894Y27953D01*
X169801Y27844D01*
X169711Y27733D01*
X169624Y27620D01*
X169540Y27505D01*
X169460Y27387D01*
X169382Y27267D01*
X169308Y27145D01*
X169238Y27021D01*
X169170Y26895D01*
X169107Y26767D01*
X169046Y26638D01*
X168989Y26507D01*
X168936Y26375D01*
X168887Y26241D01*
X168841Y26106D01*
X176517Y22493D02*
X176611Y22585D01*
X176701Y22679D01*
X176789Y22776D01*
X176874Y22876D01*
X176956Y22978D01*
X177035Y23083D01*
X177110Y23190D01*
X177182Y23299D01*
X177251Y23410D01*
X177317Y23524D01*
X177379Y23639D01*
X177438Y23756D01*
X177493Y23875D01*
X177544Y23995D01*
X177592Y24117D01*
X177637Y24240D01*
X177677Y24364D01*
X177714Y24490D01*
X177747Y24617D01*
X177776Y24744D01*
X177802Y24873D01*
X177823Y25002D01*
X177841Y25132D01*
X177854Y25262D01*
X177864Y25392D01*
X177870Y25523D01*
X177872Y25654D01*
X176517Y22493D02*
X168841Y13462D01*
X177872Y13462D01*
X184472Y13462D02*
X188988Y13462D01*
X189121Y13464D01*
X189253Y13470D01*
X189385Y13480D01*
X189517Y13493D01*
X189649Y13511D01*
X189779Y13532D01*
X189910Y13557D01*
X190039Y13586D01*
X190167Y13619D01*
X190295Y13655D01*
X190421Y13695D01*
X190546Y13739D01*
X190670Y13787D01*
X190792Y13838D01*
X190913Y13893D01*
X191032Y13951D01*
X191150Y14013D01*
X191265Y14078D01*
X191379Y14147D01*
X191490Y14218D01*
X191599Y14294D01*
X191706Y14372D01*
X191811Y14453D01*
X191913Y14538D01*
X192013Y14625D01*
X192110Y14715D01*
X192205Y14808D01*
X192296Y14904D01*
X192385Y15002D01*
X192471Y15103D01*
X192554Y15207D01*
X192634Y15313D01*
X192710Y15421D01*
X192784Y15531D01*
X192854Y15644D01*
X192921Y15758D01*
X192984Y15875D01*
X193044Y15993D01*
X193101Y16113D01*
X193154Y16235D01*
X193203Y16358D01*
X193249Y16482D01*
X193291Y16608D01*
X193329Y16735D01*
X193364Y16863D01*
X193395Y16992D01*
X193422Y17121D01*
X193445Y17252D01*
X193465Y17383D01*
X193480Y17515D01*
X193492Y17647D01*
X193500Y17779D01*
X193504Y17912D01*
X193504Y18044D01*
X193500Y18177D01*
X193492Y18309D01*
X193480Y18441D01*
X193465Y18573D01*
X193445Y18704D01*
X193422Y18835D01*
X193395Y18964D01*
X193364Y19093D01*
X193329Y19221D01*
X193291Y19348D01*
X193249Y19474D01*
X193203Y19598D01*
X193154Y19721D01*
X193101Y19843D01*
X193044Y19963D01*
X192984Y20081D01*
X192921Y20198D01*
X192854Y20312D01*
X192784Y20425D01*
X192710Y20535D01*
X192634Y20643D01*
X192554Y20749D01*
X192471Y20853D01*
X192385Y20954D01*
X192296Y21052D01*
X192205Y21148D01*
X192110Y21241D01*
X192013Y21331D01*
X191913Y21418D01*
X191811Y21503D01*
X191706Y21584D01*
X191599Y21662D01*
X191490Y21738D01*
X191379Y21809D01*
X191265Y21878D01*
X191150Y21943D01*
X191032Y22005D01*
X190913Y22063D01*
X190792Y22118D01*
X190670Y22169D01*
X190546Y22217D01*
X190421Y22261D01*
X190295Y22301D01*
X190167Y22337D01*
X190039Y22370D01*
X189910Y22399D01*
X189779Y22424D01*
X189649Y22445D01*
X189517Y22463D01*
X189385Y22476D01*
X189253Y22486D01*
X189121Y22492D01*
X188988Y22494D01*
X189891Y29718D02*
X184472Y29718D01*
X189891Y29718D02*
X190010Y29716D01*
X190130Y29710D01*
X190249Y29700D01*
X190367Y29686D01*
X190486Y29669D01*
X190603Y29647D01*
X190720Y29622D01*
X190835Y29592D01*
X190950Y29559D01*
X191064Y29522D01*
X191176Y29482D01*
X191287Y29437D01*
X191396Y29389D01*
X191504Y29338D01*
X191610Y29283D01*
X191714Y29224D01*
X191816Y29162D01*
X191916Y29097D01*
X192014Y29028D01*
X192110Y28956D01*
X192203Y28881D01*
X192293Y28804D01*
X192381Y28723D01*
X192466Y28639D01*
X192548Y28552D01*
X192628Y28463D01*
X192704Y28371D01*
X192778Y28277D01*
X192848Y28180D01*
X192915Y28082D01*
X192979Y27981D01*
X193039Y27877D01*
X193096Y27772D01*
X193149Y27665D01*
X193199Y27557D01*
X193245Y27447D01*
X193287Y27335D01*
X193326Y27222D01*
X193361Y27108D01*
X193392Y26993D01*
X193420Y26876D01*
X193443Y26759D01*
X193463Y26642D01*
X193479Y26523D01*
X193491Y26404D01*
X193499Y26285D01*
X193503Y26166D01*
X193503Y26046D01*
X193499Y25927D01*
X193491Y25808D01*
X193479Y25689D01*
X193463Y25570D01*
X193443Y25453D01*
X193420Y25336D01*
X193392Y25219D01*
X193361Y25104D01*
X193326Y24990D01*
X193287Y24877D01*
X193245Y24765D01*
X193199Y24655D01*
X193149Y24547D01*
X193096Y24440D01*
X193039Y24335D01*
X192979Y24231D01*
X192915Y24130D01*
X192848Y24032D01*
X192778Y23935D01*
X192704Y23841D01*
X192628Y23749D01*
X192548Y23660D01*
X192466Y23573D01*
X192381Y23489D01*
X192293Y23408D01*
X192203Y23331D01*
X192110Y23256D01*
X192014Y23184D01*
X191916Y23115D01*
X191816Y23050D01*
X191714Y22988D01*
X191610Y22929D01*
X191504Y22874D01*
X191396Y22823D01*
X191287Y22775D01*
X191176Y22730D01*
X191064Y22690D01*
X190950Y22653D01*
X190835Y22620D01*
X190720Y22590D01*
X190603Y22565D01*
X190486Y22543D01*
X190367Y22526D01*
X190249Y22512D01*
X190130Y22502D01*
X190010Y22496D01*
X189891Y22494D01*
X189891Y22493D02*
X186278Y22493D01*
D11*
X311500Y179300D03*
X323500Y179300D03*
D12*
X317500Y179300D03*
D13*
X304292Y165608D02*
X292608Y165608D01*
X304292Y165608D02*
X304292Y170801D01*
X304292Y175514D02*
X304292Y180707D01*
X304292Y175514D02*
X292608Y175514D01*
X292608Y180707D01*
X297801Y179409D02*
X297801Y175514D01*
X292608Y185397D02*
X304292Y185397D01*
X292608Y185397D02*
X292608Y188643D01*
X292610Y188756D01*
X292616Y188869D01*
X292626Y188982D01*
X292640Y189095D01*
X292657Y189207D01*
X292679Y189318D01*
X292704Y189428D01*
X292734Y189538D01*
X292767Y189646D01*
X292804Y189753D01*
X292844Y189859D01*
X292889Y189963D01*
X292937Y190066D01*
X292988Y190167D01*
X293043Y190266D01*
X293101Y190363D01*
X293163Y190458D01*
X293228Y190551D01*
X293296Y190641D01*
X293367Y190729D01*
X293442Y190815D01*
X293519Y190898D01*
X293599Y190978D01*
X293682Y191055D01*
X293768Y191130D01*
X293856Y191201D01*
X293946Y191269D01*
X294039Y191334D01*
X294134Y191396D01*
X294231Y191454D01*
X294330Y191509D01*
X294431Y191560D01*
X294534Y191608D01*
X294638Y191653D01*
X294744Y191693D01*
X294851Y191730D01*
X294959Y191763D01*
X295069Y191793D01*
X295179Y191818D01*
X295290Y191840D01*
X295402Y191857D01*
X295515Y191871D01*
X295628Y191881D01*
X295741Y191887D01*
X295854Y191889D01*
X301046Y191889D01*
X301159Y191887D01*
X301272Y191881D01*
X301385Y191871D01*
X301498Y191857D01*
X301610Y191840D01*
X301721Y191818D01*
X301831Y191793D01*
X301941Y191763D01*
X302049Y191730D01*
X302156Y191693D01*
X302262Y191653D01*
X302366Y191608D01*
X302469Y191560D01*
X302570Y191509D01*
X302669Y191454D01*
X302766Y191396D01*
X302861Y191334D01*
X302954Y191269D01*
X303044Y191201D01*
X303132Y191130D01*
X303218Y191055D01*
X303301Y190978D01*
X303381Y190898D01*
X303458Y190815D01*
X303533Y190729D01*
X303604Y190641D01*
X303672Y190551D01*
X303737Y190458D01*
X303799Y190363D01*
X303857Y190266D01*
X303912Y190167D01*
X303963Y190066D01*
X304011Y189963D01*
X304056Y189859D01*
X304096Y189753D01*
X304133Y189646D01*
X304166Y189538D01*
X304196Y189428D01*
X304221Y189318D01*
X304243Y189207D01*
X304260Y189095D01*
X304274Y188982D01*
X304284Y188869D01*
X304290Y188756D01*
X304292Y188643D01*
X304292Y185397D01*
X295204Y197208D02*
X292608Y200454D01*
X304292Y200454D01*
X304292Y203699D02*
X304292Y197208D01*
D11*
X221900Y176300D03*
X209900Y176300D03*
D12*
X215900Y176300D03*
D13*
X229108Y140471D02*
X240792Y140471D01*
X240792Y145663D01*
X240792Y150377D02*
X240792Y155569D01*
X240792Y150377D02*
X229108Y150377D01*
X229108Y155569D01*
X234301Y154271D02*
X234301Y150377D01*
X229108Y160260D02*
X240792Y160260D01*
X229108Y160260D02*
X229108Y163506D01*
X229110Y163619D01*
X229116Y163732D01*
X229126Y163845D01*
X229140Y163958D01*
X229157Y164070D01*
X229179Y164181D01*
X229204Y164291D01*
X229234Y164401D01*
X229267Y164509D01*
X229304Y164616D01*
X229344Y164722D01*
X229389Y164826D01*
X229437Y164929D01*
X229488Y165030D01*
X229543Y165129D01*
X229601Y165226D01*
X229663Y165321D01*
X229728Y165414D01*
X229796Y165504D01*
X229867Y165592D01*
X229942Y165678D01*
X230019Y165761D01*
X230099Y165841D01*
X230182Y165918D01*
X230268Y165993D01*
X230356Y166064D01*
X230446Y166132D01*
X230539Y166197D01*
X230634Y166259D01*
X230731Y166317D01*
X230830Y166372D01*
X230931Y166423D01*
X231034Y166471D01*
X231138Y166516D01*
X231244Y166556D01*
X231351Y166593D01*
X231459Y166626D01*
X231569Y166656D01*
X231679Y166681D01*
X231790Y166703D01*
X231902Y166720D01*
X232015Y166734D01*
X232128Y166744D01*
X232241Y166750D01*
X232354Y166752D01*
X232354Y166751D02*
X237546Y166751D01*
X237546Y166752D02*
X237659Y166750D01*
X237772Y166744D01*
X237885Y166734D01*
X237998Y166720D01*
X238110Y166703D01*
X238221Y166681D01*
X238331Y166656D01*
X238441Y166626D01*
X238549Y166593D01*
X238656Y166556D01*
X238762Y166516D01*
X238866Y166471D01*
X238969Y166423D01*
X239070Y166372D01*
X239169Y166317D01*
X239266Y166259D01*
X239361Y166197D01*
X239454Y166132D01*
X239544Y166064D01*
X239632Y165993D01*
X239718Y165918D01*
X239801Y165841D01*
X239881Y165761D01*
X239958Y165678D01*
X240033Y165592D01*
X240104Y165504D01*
X240172Y165414D01*
X240237Y165321D01*
X240299Y165226D01*
X240357Y165129D01*
X240412Y165030D01*
X240463Y164929D01*
X240511Y164826D01*
X240556Y164722D01*
X240596Y164616D01*
X240633Y164509D01*
X240666Y164401D01*
X240696Y164291D01*
X240721Y164181D01*
X240743Y164070D01*
X240760Y163958D01*
X240774Y163845D01*
X240784Y163732D01*
X240790Y163619D01*
X240792Y163506D01*
X240792Y160260D01*
X231704Y172071D02*
X229108Y175316D01*
X240792Y175316D01*
X240792Y172071D02*
X240792Y178562D01*
X234950Y183501D02*
X234720Y183504D01*
X234490Y183512D01*
X234261Y183526D01*
X234032Y183545D01*
X233803Y183570D01*
X233575Y183600D01*
X233348Y183635D01*
X233122Y183676D01*
X232897Y183722D01*
X232673Y183774D01*
X232450Y183831D01*
X232229Y183893D01*
X232009Y183961D01*
X231791Y184034D01*
X231575Y184112D01*
X231361Y184195D01*
X231149Y184283D01*
X230938Y184376D01*
X230731Y184475D01*
X230731Y184474D02*
X230641Y184507D01*
X230552Y184543D01*
X230464Y184583D01*
X230379Y184627D01*
X230295Y184674D01*
X230213Y184724D01*
X230133Y184778D01*
X230056Y184834D01*
X229980Y184894D01*
X229907Y184957D01*
X229837Y185022D01*
X229769Y185091D01*
X229705Y185162D01*
X229643Y185235D01*
X229584Y185311D01*
X229528Y185389D01*
X229475Y185470D01*
X229426Y185552D01*
X229380Y185636D01*
X229337Y185723D01*
X229298Y185810D01*
X229262Y185900D01*
X229230Y185990D01*
X229202Y186082D01*
X229177Y186175D01*
X229156Y186269D01*
X229139Y186363D01*
X229125Y186458D01*
X229116Y186554D01*
X229110Y186650D01*
X229108Y186746D01*
X229110Y186842D01*
X229116Y186938D01*
X229125Y187034D01*
X229139Y187129D01*
X229156Y187223D01*
X229177Y187317D01*
X229202Y187410D01*
X229230Y187502D01*
X229262Y187592D01*
X229298Y187682D01*
X229337Y187770D01*
X229380Y187856D01*
X229426Y187940D01*
X229475Y188022D01*
X229528Y188103D01*
X229584Y188181D01*
X229643Y188257D01*
X229705Y188330D01*
X229769Y188401D01*
X229837Y188470D01*
X229907Y188535D01*
X229980Y188598D01*
X230056Y188658D01*
X230133Y188714D01*
X230213Y188768D01*
X230295Y188818D01*
X230379Y188865D01*
X230464Y188909D01*
X230552Y188949D01*
X230641Y188985D01*
X230731Y189018D01*
X230938Y189117D01*
X231149Y189210D01*
X231361Y189298D01*
X231575Y189381D01*
X231791Y189459D01*
X232009Y189532D01*
X232229Y189600D01*
X232450Y189662D01*
X232673Y189719D01*
X232897Y189771D01*
X233122Y189817D01*
X233348Y189858D01*
X233575Y189893D01*
X233803Y189923D01*
X234032Y189948D01*
X234261Y189967D01*
X234490Y189981D01*
X234720Y189989D01*
X234950Y189992D01*
X234950Y183501D02*
X235180Y183504D01*
X235410Y183512D01*
X235639Y183526D01*
X235868Y183545D01*
X236097Y183570D01*
X236325Y183600D01*
X236552Y183635D01*
X236778Y183676D01*
X237003Y183722D01*
X237227Y183774D01*
X237450Y183831D01*
X237671Y183893D01*
X237891Y183961D01*
X238109Y184034D01*
X238325Y184112D01*
X238539Y184195D01*
X238751Y184283D01*
X238962Y184376D01*
X239169Y184475D01*
X239169Y184474D02*
X239259Y184507D01*
X239348Y184543D01*
X239436Y184584D01*
X239521Y184627D01*
X239605Y184674D01*
X239687Y184724D01*
X239767Y184778D01*
X239844Y184834D01*
X239920Y184894D01*
X239993Y184957D01*
X240063Y185022D01*
X240131Y185091D01*
X240195Y185162D01*
X240257Y185235D01*
X240316Y185311D01*
X240372Y185389D01*
X240425Y185470D01*
X240474Y185552D01*
X240520Y185636D01*
X240563Y185723D01*
X240602Y185810D01*
X240638Y185900D01*
X240670Y185990D01*
X240698Y186082D01*
X240723Y186175D01*
X240744Y186269D01*
X240761Y186363D01*
X240775Y186458D01*
X240784Y186554D01*
X240790Y186650D01*
X240792Y186746D01*
X239169Y189018D02*
X238962Y189117D01*
X238751Y189210D01*
X238539Y189298D01*
X238325Y189381D01*
X238109Y189459D01*
X237891Y189532D01*
X237671Y189600D01*
X237450Y189662D01*
X237227Y189719D01*
X237003Y189771D01*
X236778Y189817D01*
X236552Y189858D01*
X236325Y189893D01*
X236097Y189923D01*
X235868Y189948D01*
X235639Y189967D01*
X235410Y189981D01*
X235180Y189989D01*
X234950Y189992D01*
X239169Y189018D02*
X239259Y188985D01*
X239348Y188949D01*
X239436Y188909D01*
X239521Y188865D01*
X239605Y188818D01*
X239687Y188768D01*
X239767Y188714D01*
X239844Y188658D01*
X239920Y188598D01*
X239993Y188535D01*
X240063Y188470D01*
X240131Y188401D01*
X240195Y188330D01*
X240257Y188257D01*
X240316Y188181D01*
X240372Y188103D01*
X240425Y188022D01*
X240474Y187940D01*
X240520Y187856D01*
X240563Y187769D01*
X240602Y187682D01*
X240638Y187592D01*
X240670Y187502D01*
X240698Y187410D01*
X240723Y187317D01*
X240744Y187223D01*
X240761Y187129D01*
X240775Y187034D01*
X240784Y186938D01*
X240790Y186842D01*
X240792Y186746D01*
X238196Y184150D02*
X231704Y189343D01*
D11*
X44800Y179300D03*
X56800Y179300D03*
D12*
X50800Y179300D03*
D13*
X37592Y165608D02*
X25908Y165608D01*
X37592Y165608D02*
X37592Y170801D01*
X37592Y175514D02*
X37592Y180707D01*
X37592Y175514D02*
X25908Y175514D01*
X25908Y180707D01*
X31101Y179409D02*
X31101Y175514D01*
X25908Y185397D02*
X37592Y185397D01*
X25908Y185397D02*
X25908Y188643D01*
X25910Y188756D01*
X25916Y188869D01*
X25926Y188982D01*
X25940Y189095D01*
X25957Y189207D01*
X25979Y189318D01*
X26004Y189428D01*
X26034Y189538D01*
X26067Y189646D01*
X26104Y189753D01*
X26144Y189859D01*
X26189Y189963D01*
X26237Y190066D01*
X26288Y190167D01*
X26343Y190266D01*
X26401Y190363D01*
X26463Y190458D01*
X26528Y190551D01*
X26596Y190641D01*
X26667Y190729D01*
X26742Y190815D01*
X26819Y190898D01*
X26899Y190978D01*
X26982Y191055D01*
X27068Y191130D01*
X27156Y191201D01*
X27246Y191269D01*
X27339Y191334D01*
X27434Y191396D01*
X27531Y191454D01*
X27630Y191509D01*
X27731Y191560D01*
X27834Y191608D01*
X27938Y191653D01*
X28044Y191693D01*
X28151Y191730D01*
X28259Y191763D01*
X28369Y191793D01*
X28479Y191818D01*
X28590Y191840D01*
X28702Y191857D01*
X28815Y191871D01*
X28928Y191881D01*
X29041Y191887D01*
X29154Y191889D01*
X34346Y191889D01*
X34459Y191887D01*
X34572Y191881D01*
X34685Y191871D01*
X34798Y191857D01*
X34910Y191840D01*
X35021Y191818D01*
X35131Y191793D01*
X35241Y191763D01*
X35349Y191730D01*
X35456Y191693D01*
X35562Y191653D01*
X35666Y191608D01*
X35769Y191560D01*
X35870Y191509D01*
X35969Y191454D01*
X36066Y191396D01*
X36161Y191334D01*
X36254Y191269D01*
X36344Y191201D01*
X36432Y191130D01*
X36518Y191055D01*
X36601Y190978D01*
X36681Y190898D01*
X36758Y190815D01*
X36833Y190729D01*
X36904Y190641D01*
X36972Y190551D01*
X37037Y190458D01*
X37099Y190363D01*
X37157Y190266D01*
X37212Y190167D01*
X37263Y190066D01*
X37311Y189963D01*
X37356Y189859D01*
X37396Y189753D01*
X37433Y189646D01*
X37466Y189538D01*
X37496Y189428D01*
X37521Y189318D01*
X37543Y189207D01*
X37560Y189095D01*
X37574Y188982D01*
X37584Y188869D01*
X37590Y188756D01*
X37592Y188643D01*
X37592Y185397D01*
X28504Y197208D02*
X25908Y200454D01*
X37592Y200454D01*
X37592Y203699D02*
X37592Y197208D01*
X28504Y208638D02*
X25908Y211884D01*
X37592Y211884D01*
X37592Y215129D02*
X37592Y208638D01*
D11*
X349600Y179300D03*
X361600Y179300D03*
D12*
X355600Y179300D03*
D13*
X342392Y165608D02*
X330708Y165608D01*
X342392Y165608D02*
X342392Y170801D01*
X342392Y175514D02*
X342392Y180707D01*
X342392Y175514D02*
X330708Y175514D01*
X330708Y180707D01*
X335901Y179409D02*
X335901Y175514D01*
X330708Y185397D02*
X342392Y185397D01*
X330708Y185397D02*
X330708Y188643D01*
X330710Y188756D01*
X330716Y188869D01*
X330726Y188982D01*
X330740Y189095D01*
X330757Y189207D01*
X330779Y189318D01*
X330804Y189428D01*
X330834Y189538D01*
X330867Y189646D01*
X330904Y189753D01*
X330944Y189859D01*
X330989Y189963D01*
X331037Y190066D01*
X331088Y190167D01*
X331143Y190266D01*
X331201Y190363D01*
X331263Y190458D01*
X331328Y190551D01*
X331396Y190641D01*
X331467Y190729D01*
X331542Y190815D01*
X331619Y190898D01*
X331699Y190978D01*
X331782Y191055D01*
X331868Y191130D01*
X331956Y191201D01*
X332046Y191269D01*
X332139Y191334D01*
X332234Y191396D01*
X332331Y191454D01*
X332430Y191509D01*
X332531Y191560D01*
X332634Y191608D01*
X332738Y191653D01*
X332844Y191693D01*
X332951Y191730D01*
X333059Y191763D01*
X333169Y191793D01*
X333279Y191818D01*
X333390Y191840D01*
X333502Y191857D01*
X333615Y191871D01*
X333728Y191881D01*
X333841Y191887D01*
X333954Y191889D01*
X339146Y191889D01*
X339259Y191887D01*
X339372Y191881D01*
X339485Y191871D01*
X339598Y191857D01*
X339710Y191840D01*
X339821Y191818D01*
X339931Y191793D01*
X340041Y191763D01*
X340149Y191730D01*
X340256Y191693D01*
X340362Y191653D01*
X340466Y191608D01*
X340569Y191560D01*
X340670Y191509D01*
X340769Y191454D01*
X340866Y191396D01*
X340961Y191334D01*
X341054Y191269D01*
X341144Y191201D01*
X341232Y191130D01*
X341318Y191055D01*
X341401Y190978D01*
X341481Y190898D01*
X341558Y190815D01*
X341633Y190729D01*
X341704Y190641D01*
X341772Y190551D01*
X341837Y190458D01*
X341899Y190363D01*
X341957Y190266D01*
X342012Y190167D01*
X342063Y190066D01*
X342111Y189963D01*
X342156Y189859D01*
X342196Y189753D01*
X342233Y189646D01*
X342266Y189538D01*
X342296Y189428D01*
X342321Y189318D01*
X342343Y189207D01*
X342360Y189095D01*
X342374Y188982D01*
X342384Y188869D01*
X342390Y188756D01*
X342392Y188643D01*
X342392Y185397D01*
X330708Y200778D02*
X330710Y200885D01*
X330716Y200991D01*
X330726Y201097D01*
X330739Y201203D01*
X330757Y201309D01*
X330778Y201413D01*
X330803Y201517D01*
X330832Y201620D01*
X330864Y201721D01*
X330901Y201821D01*
X330941Y201920D01*
X330984Y202018D01*
X331031Y202114D01*
X331082Y202208D01*
X331136Y202300D01*
X331193Y202390D01*
X331253Y202478D01*
X331317Y202563D01*
X331384Y202646D01*
X331454Y202727D01*
X331526Y202805D01*
X331602Y202881D01*
X331680Y202953D01*
X331761Y203023D01*
X331844Y203090D01*
X331929Y203154D01*
X332017Y203214D01*
X332107Y203271D01*
X332199Y203325D01*
X332293Y203376D01*
X332389Y203423D01*
X332487Y203466D01*
X332586Y203506D01*
X332686Y203543D01*
X332787Y203575D01*
X332890Y203604D01*
X332994Y203629D01*
X333098Y203650D01*
X333204Y203668D01*
X333310Y203681D01*
X333416Y203691D01*
X333522Y203697D01*
X333629Y203699D01*
X330708Y200778D02*
X330710Y200657D01*
X330716Y200536D01*
X330726Y200416D01*
X330739Y200295D01*
X330757Y200176D01*
X330778Y200056D01*
X330803Y199938D01*
X330832Y199821D01*
X330865Y199704D01*
X330901Y199589D01*
X330942Y199475D01*
X330985Y199362D01*
X331033Y199250D01*
X331084Y199141D01*
X331139Y199033D01*
X331197Y198926D01*
X331258Y198822D01*
X331323Y198720D01*
X331391Y198620D01*
X331462Y198522D01*
X331536Y198426D01*
X331613Y198333D01*
X331694Y198243D01*
X331777Y198155D01*
X331863Y198070D01*
X331952Y197987D01*
X332043Y197908D01*
X332137Y197831D01*
X332233Y197758D01*
X332331Y197688D01*
X332432Y197621D01*
X332535Y197557D01*
X332640Y197497D01*
X332747Y197439D01*
X332855Y197386D01*
X332965Y197336D01*
X333077Y197290D01*
X333190Y197247D01*
X333305Y197208D01*
X335901Y202725D02*
X335823Y202804D01*
X335743Y202880D01*
X335660Y202953D01*
X335574Y203023D01*
X335487Y203090D01*
X335396Y203154D01*
X335304Y203214D01*
X335210Y203272D01*
X335113Y203326D01*
X335015Y203376D01*
X334915Y203423D01*
X334814Y203467D01*
X334711Y203507D01*
X334606Y203543D01*
X334501Y203575D01*
X334394Y203604D01*
X334287Y203629D01*
X334178Y203651D01*
X334069Y203668D01*
X333960Y203682D01*
X333850Y203691D01*
X333739Y203697D01*
X333629Y203699D01*
X335901Y202726D02*
X342392Y197208D01*
X342392Y203699D01*
D11*
X387700Y179300D03*
X399700Y179300D03*
D12*
X393700Y179300D03*
D13*
X380492Y165608D02*
X368808Y165608D01*
X380492Y165608D02*
X380492Y170801D01*
X380492Y175514D02*
X380492Y180707D01*
X380492Y175514D02*
X368808Y175514D01*
X368808Y180707D01*
X374001Y179409D02*
X374001Y175514D01*
X368808Y185397D02*
X380492Y185397D01*
X368808Y185397D02*
X368808Y188643D01*
X368810Y188756D01*
X368816Y188869D01*
X368826Y188982D01*
X368840Y189095D01*
X368857Y189207D01*
X368879Y189318D01*
X368904Y189428D01*
X368934Y189538D01*
X368967Y189646D01*
X369004Y189753D01*
X369044Y189859D01*
X369089Y189963D01*
X369137Y190066D01*
X369188Y190167D01*
X369243Y190266D01*
X369301Y190363D01*
X369363Y190458D01*
X369428Y190551D01*
X369496Y190641D01*
X369567Y190729D01*
X369642Y190815D01*
X369719Y190898D01*
X369799Y190978D01*
X369882Y191055D01*
X369968Y191130D01*
X370056Y191201D01*
X370146Y191269D01*
X370239Y191334D01*
X370334Y191396D01*
X370431Y191454D01*
X370530Y191509D01*
X370631Y191560D01*
X370734Y191608D01*
X370838Y191653D01*
X370944Y191693D01*
X371051Y191730D01*
X371159Y191763D01*
X371269Y191793D01*
X371379Y191818D01*
X371490Y191840D01*
X371602Y191857D01*
X371715Y191871D01*
X371828Y191881D01*
X371941Y191887D01*
X372054Y191889D01*
X377246Y191889D01*
X377359Y191887D01*
X377472Y191881D01*
X377585Y191871D01*
X377698Y191857D01*
X377810Y191840D01*
X377921Y191818D01*
X378031Y191793D01*
X378141Y191763D01*
X378249Y191730D01*
X378356Y191693D01*
X378462Y191653D01*
X378566Y191608D01*
X378669Y191560D01*
X378770Y191509D01*
X378869Y191454D01*
X378966Y191396D01*
X379061Y191334D01*
X379154Y191269D01*
X379244Y191201D01*
X379332Y191130D01*
X379418Y191055D01*
X379501Y190978D01*
X379581Y190898D01*
X379658Y190815D01*
X379733Y190729D01*
X379804Y190641D01*
X379872Y190551D01*
X379937Y190458D01*
X379999Y190363D01*
X380057Y190266D01*
X380112Y190167D01*
X380163Y190066D01*
X380211Y189963D01*
X380256Y189859D01*
X380296Y189753D01*
X380333Y189646D01*
X380366Y189538D01*
X380396Y189428D01*
X380421Y189318D01*
X380443Y189207D01*
X380460Y189095D01*
X380474Y188982D01*
X380484Y188869D01*
X380490Y188756D01*
X380492Y188643D01*
X380492Y185397D01*
X380492Y197208D02*
X380492Y200454D01*
X380490Y200567D01*
X380484Y200680D01*
X380474Y200793D01*
X380460Y200906D01*
X380443Y201018D01*
X380421Y201129D01*
X380396Y201239D01*
X380366Y201349D01*
X380333Y201457D01*
X380296Y201564D01*
X380256Y201670D01*
X380211Y201774D01*
X380163Y201877D01*
X380112Y201978D01*
X380057Y202077D01*
X379999Y202174D01*
X379937Y202269D01*
X379872Y202362D01*
X379804Y202452D01*
X379733Y202540D01*
X379658Y202626D01*
X379581Y202709D01*
X379501Y202789D01*
X379418Y202866D01*
X379332Y202941D01*
X379244Y203012D01*
X379154Y203080D01*
X379061Y203145D01*
X378966Y203207D01*
X378869Y203265D01*
X378770Y203320D01*
X378669Y203371D01*
X378566Y203419D01*
X378462Y203464D01*
X378356Y203504D01*
X378249Y203541D01*
X378141Y203574D01*
X378031Y203604D01*
X377921Y203629D01*
X377810Y203651D01*
X377698Y203668D01*
X377585Y203682D01*
X377472Y203692D01*
X377359Y203698D01*
X377246Y203700D01*
X377133Y203698D01*
X377020Y203692D01*
X376907Y203682D01*
X376794Y203668D01*
X376682Y203651D01*
X376571Y203629D01*
X376461Y203604D01*
X376351Y203574D01*
X376243Y203541D01*
X376136Y203504D01*
X376030Y203464D01*
X375926Y203419D01*
X375823Y203371D01*
X375722Y203320D01*
X375623Y203265D01*
X375526Y203207D01*
X375431Y203145D01*
X375338Y203080D01*
X375248Y203012D01*
X375160Y202941D01*
X375074Y202866D01*
X374991Y202789D01*
X374911Y202709D01*
X374834Y202626D01*
X374759Y202540D01*
X374688Y202452D01*
X374620Y202362D01*
X374555Y202269D01*
X374493Y202174D01*
X374435Y202077D01*
X374380Y201978D01*
X374329Y201877D01*
X374281Y201774D01*
X374236Y201670D01*
X374196Y201564D01*
X374159Y201457D01*
X374126Y201349D01*
X374096Y201239D01*
X374071Y201129D01*
X374049Y201018D01*
X374032Y200906D01*
X374018Y200793D01*
X374008Y200680D01*
X374002Y200567D01*
X374000Y200454D01*
X368808Y201103D02*
X368808Y197208D01*
X368808Y201103D02*
X368810Y201204D01*
X368816Y201304D01*
X368826Y201404D01*
X368839Y201504D01*
X368857Y201603D01*
X368878Y201702D01*
X368903Y201799D01*
X368932Y201896D01*
X368965Y201991D01*
X369001Y202085D01*
X369041Y202177D01*
X369084Y202268D01*
X369131Y202357D01*
X369181Y202444D01*
X369235Y202530D01*
X369292Y202613D01*
X369352Y202693D01*
X369415Y202772D01*
X369482Y202848D01*
X369551Y202921D01*
X369623Y202991D01*
X369697Y203059D01*
X369774Y203124D01*
X369854Y203185D01*
X369936Y203244D01*
X370020Y203299D01*
X370106Y203351D01*
X370194Y203400D01*
X370284Y203445D01*
X370376Y203487D01*
X370469Y203525D01*
X370564Y203559D01*
X370659Y203590D01*
X370756Y203617D01*
X370854Y203640D01*
X370953Y203660D01*
X371053Y203675D01*
X371153Y203687D01*
X371253Y203695D01*
X371354Y203699D01*
X371454Y203699D01*
X371555Y203695D01*
X371655Y203687D01*
X371755Y203675D01*
X371855Y203660D01*
X371954Y203640D01*
X372052Y203617D01*
X372149Y203590D01*
X372244Y203559D01*
X372339Y203525D01*
X372432Y203487D01*
X372524Y203445D01*
X372614Y203400D01*
X372702Y203351D01*
X372788Y203299D01*
X372872Y203244D01*
X372954Y203185D01*
X373034Y203124D01*
X373111Y203059D01*
X373185Y202991D01*
X373257Y202921D01*
X373326Y202848D01*
X373393Y202772D01*
X373456Y202693D01*
X373516Y202613D01*
X373573Y202530D01*
X373627Y202444D01*
X373677Y202357D01*
X373724Y202268D01*
X373767Y202177D01*
X373807Y202085D01*
X373843Y201991D01*
X373876Y201896D01*
X373905Y201799D01*
X373930Y201702D01*
X373951Y201603D01*
X373969Y201504D01*
X373982Y201404D01*
X373992Y201304D01*
X373998Y201204D01*
X374000Y201103D01*
X374001Y201103D02*
X374001Y198507D01*
D11*
X387700Y77700D03*
X399700Y77700D03*
D12*
X393700Y77700D03*
D13*
X380492Y64008D02*
X368808Y64008D01*
X380492Y64008D02*
X380492Y69201D01*
X380492Y73914D02*
X380492Y79107D01*
X380492Y73914D02*
X368808Y73914D01*
X368808Y79107D01*
X374001Y77809D02*
X374001Y73914D01*
X368808Y83797D02*
X380492Y83797D01*
X368808Y83797D02*
X368808Y87043D01*
X368810Y87156D01*
X368816Y87269D01*
X368826Y87382D01*
X368840Y87495D01*
X368857Y87607D01*
X368879Y87718D01*
X368904Y87828D01*
X368934Y87938D01*
X368967Y88046D01*
X369004Y88153D01*
X369044Y88259D01*
X369089Y88363D01*
X369137Y88466D01*
X369188Y88567D01*
X369243Y88666D01*
X369301Y88763D01*
X369363Y88858D01*
X369428Y88951D01*
X369496Y89041D01*
X369567Y89129D01*
X369642Y89215D01*
X369719Y89298D01*
X369799Y89378D01*
X369882Y89455D01*
X369968Y89530D01*
X370056Y89601D01*
X370146Y89669D01*
X370239Y89734D01*
X370334Y89796D01*
X370431Y89854D01*
X370530Y89909D01*
X370631Y89960D01*
X370734Y90008D01*
X370838Y90053D01*
X370944Y90093D01*
X371051Y90130D01*
X371159Y90163D01*
X371269Y90193D01*
X371379Y90218D01*
X371490Y90240D01*
X371602Y90257D01*
X371715Y90271D01*
X371828Y90281D01*
X371941Y90287D01*
X372054Y90289D01*
X377246Y90289D01*
X377359Y90287D01*
X377472Y90281D01*
X377585Y90271D01*
X377698Y90257D01*
X377810Y90240D01*
X377921Y90218D01*
X378031Y90193D01*
X378141Y90163D01*
X378249Y90130D01*
X378356Y90093D01*
X378462Y90053D01*
X378566Y90008D01*
X378669Y89960D01*
X378770Y89909D01*
X378869Y89854D01*
X378966Y89796D01*
X379061Y89734D01*
X379154Y89669D01*
X379244Y89601D01*
X379332Y89530D01*
X379418Y89455D01*
X379501Y89378D01*
X379581Y89298D01*
X379658Y89215D01*
X379733Y89129D01*
X379804Y89041D01*
X379872Y88951D01*
X379937Y88858D01*
X379999Y88763D01*
X380057Y88666D01*
X380112Y88567D01*
X380163Y88466D01*
X380211Y88363D01*
X380256Y88259D01*
X380296Y88153D01*
X380333Y88046D01*
X380366Y87938D01*
X380396Y87828D01*
X380421Y87718D01*
X380443Y87607D01*
X380460Y87495D01*
X380474Y87382D01*
X380484Y87269D01*
X380490Y87156D01*
X380492Y87043D01*
X380492Y83797D01*
X377896Y95608D02*
X368808Y98205D01*
X377896Y95608D02*
X377896Y102099D01*
X375299Y100152D02*
X380492Y100152D01*
D11*
X311500Y77700D03*
X323500Y77700D03*
D12*
X317500Y77700D03*
D13*
X304292Y64008D02*
X292608Y64008D01*
X304292Y64008D02*
X304292Y69201D01*
X304292Y73914D02*
X304292Y79107D01*
X304292Y73914D02*
X292608Y73914D01*
X292608Y79107D01*
X297801Y77809D02*
X297801Y73914D01*
X292608Y83797D02*
X304292Y83797D01*
X292608Y83797D02*
X292608Y87043D01*
X292610Y87156D01*
X292616Y87269D01*
X292626Y87382D01*
X292640Y87495D01*
X292657Y87607D01*
X292679Y87718D01*
X292704Y87828D01*
X292734Y87938D01*
X292767Y88046D01*
X292804Y88153D01*
X292844Y88259D01*
X292889Y88363D01*
X292937Y88466D01*
X292988Y88567D01*
X293043Y88666D01*
X293101Y88763D01*
X293163Y88858D01*
X293228Y88951D01*
X293296Y89041D01*
X293367Y89129D01*
X293442Y89215D01*
X293519Y89298D01*
X293599Y89378D01*
X293682Y89455D01*
X293768Y89530D01*
X293856Y89601D01*
X293946Y89669D01*
X294039Y89734D01*
X294134Y89796D01*
X294231Y89854D01*
X294330Y89909D01*
X294431Y89960D01*
X294534Y90008D01*
X294638Y90053D01*
X294744Y90093D01*
X294851Y90130D01*
X294959Y90163D01*
X295069Y90193D01*
X295179Y90218D01*
X295290Y90240D01*
X295402Y90257D01*
X295515Y90271D01*
X295628Y90281D01*
X295741Y90287D01*
X295854Y90289D01*
X301046Y90289D01*
X301159Y90287D01*
X301272Y90281D01*
X301385Y90271D01*
X301498Y90257D01*
X301610Y90240D01*
X301721Y90218D01*
X301831Y90193D01*
X301941Y90163D01*
X302049Y90130D01*
X302156Y90093D01*
X302262Y90053D01*
X302366Y90008D01*
X302469Y89960D01*
X302570Y89909D01*
X302669Y89854D01*
X302766Y89796D01*
X302861Y89734D01*
X302954Y89669D01*
X303044Y89601D01*
X303132Y89530D01*
X303218Y89455D01*
X303301Y89378D01*
X303381Y89298D01*
X303458Y89215D01*
X303533Y89129D01*
X303604Y89041D01*
X303672Y88951D01*
X303737Y88858D01*
X303799Y88763D01*
X303857Y88666D01*
X303912Y88567D01*
X303963Y88466D01*
X304011Y88363D01*
X304056Y88259D01*
X304096Y88153D01*
X304133Y88046D01*
X304166Y87938D01*
X304196Y87828D01*
X304221Y87718D01*
X304243Y87607D01*
X304260Y87495D01*
X304274Y87382D01*
X304284Y87269D01*
X304290Y87156D01*
X304292Y87043D01*
X304292Y83797D01*
X304292Y95608D02*
X304292Y99503D01*
X304290Y99602D01*
X304284Y99702D01*
X304275Y99801D01*
X304262Y99899D01*
X304245Y99997D01*
X304224Y100095D01*
X304199Y100191D01*
X304171Y100286D01*
X304139Y100380D01*
X304104Y100473D01*
X304065Y100565D01*
X304022Y100655D01*
X303977Y100743D01*
X303927Y100830D01*
X303875Y100914D01*
X303819Y100997D01*
X303761Y101077D01*
X303699Y101155D01*
X303634Y101230D01*
X303566Y101303D01*
X303496Y101373D01*
X303423Y101441D01*
X303348Y101506D01*
X303270Y101568D01*
X303190Y101626D01*
X303107Y101682D01*
X303023Y101734D01*
X302936Y101784D01*
X302848Y101829D01*
X302758Y101872D01*
X302666Y101911D01*
X302573Y101946D01*
X302479Y101978D01*
X302384Y102006D01*
X302288Y102031D01*
X302190Y102052D01*
X302092Y102069D01*
X301994Y102082D01*
X301895Y102091D01*
X301795Y102097D01*
X301696Y102099D01*
X300397Y102099D01*
X300298Y102097D01*
X300198Y102091D01*
X300099Y102082D01*
X300001Y102069D01*
X299903Y102052D01*
X299805Y102031D01*
X299709Y102006D01*
X299614Y101978D01*
X299520Y101946D01*
X299427Y101911D01*
X299335Y101872D01*
X299245Y101829D01*
X299157Y101784D01*
X299070Y101734D01*
X298986Y101682D01*
X298903Y101626D01*
X298823Y101568D01*
X298745Y101506D01*
X298670Y101441D01*
X298597Y101373D01*
X298527Y101303D01*
X298459Y101230D01*
X298394Y101155D01*
X298332Y101077D01*
X298274Y100997D01*
X298218Y100914D01*
X298166Y100830D01*
X298116Y100743D01*
X298071Y100655D01*
X298028Y100565D01*
X297989Y100473D01*
X297954Y100380D01*
X297922Y100286D01*
X297894Y100191D01*
X297869Y100095D01*
X297848Y99997D01*
X297831Y99899D01*
X297818Y99801D01*
X297809Y99702D01*
X297803Y99602D01*
X297801Y99503D01*
X297801Y95608D01*
X292608Y95608D01*
X292608Y102099D01*
D11*
X235300Y77700D03*
X247300Y77700D03*
D12*
X241300Y77700D03*
D13*
X228092Y64008D02*
X216408Y64008D01*
X228092Y64008D02*
X228092Y69201D01*
X228092Y73914D02*
X228092Y79107D01*
X228092Y73914D02*
X216408Y73914D01*
X216408Y79107D01*
X221601Y77809D02*
X221601Y73914D01*
X216408Y83797D02*
X228092Y83797D01*
X216408Y83797D02*
X216408Y87043D01*
X216410Y87156D01*
X216416Y87269D01*
X216426Y87382D01*
X216440Y87495D01*
X216457Y87607D01*
X216479Y87718D01*
X216504Y87828D01*
X216534Y87938D01*
X216567Y88046D01*
X216604Y88153D01*
X216644Y88259D01*
X216689Y88363D01*
X216737Y88466D01*
X216788Y88567D01*
X216843Y88666D01*
X216901Y88763D01*
X216963Y88858D01*
X217028Y88951D01*
X217096Y89041D01*
X217167Y89129D01*
X217242Y89215D01*
X217319Y89298D01*
X217399Y89378D01*
X217482Y89455D01*
X217568Y89530D01*
X217656Y89601D01*
X217746Y89669D01*
X217839Y89734D01*
X217934Y89796D01*
X218031Y89854D01*
X218130Y89909D01*
X218231Y89960D01*
X218334Y90008D01*
X218438Y90053D01*
X218544Y90093D01*
X218651Y90130D01*
X218759Y90163D01*
X218869Y90193D01*
X218979Y90218D01*
X219090Y90240D01*
X219202Y90257D01*
X219315Y90271D01*
X219428Y90281D01*
X219541Y90287D01*
X219654Y90289D01*
X224846Y90289D01*
X224959Y90287D01*
X225072Y90281D01*
X225185Y90271D01*
X225298Y90257D01*
X225410Y90240D01*
X225521Y90218D01*
X225631Y90193D01*
X225741Y90163D01*
X225849Y90130D01*
X225956Y90093D01*
X226062Y90053D01*
X226166Y90008D01*
X226269Y89960D01*
X226370Y89909D01*
X226469Y89854D01*
X226566Y89796D01*
X226661Y89734D01*
X226754Y89669D01*
X226844Y89601D01*
X226932Y89530D01*
X227018Y89455D01*
X227101Y89378D01*
X227181Y89298D01*
X227258Y89215D01*
X227333Y89129D01*
X227404Y89041D01*
X227472Y88951D01*
X227537Y88858D01*
X227599Y88763D01*
X227657Y88666D01*
X227712Y88567D01*
X227763Y88466D01*
X227811Y88363D01*
X227856Y88259D01*
X227896Y88153D01*
X227933Y88046D01*
X227966Y87938D01*
X227996Y87828D01*
X228021Y87718D01*
X228043Y87607D01*
X228060Y87495D01*
X228074Y87382D01*
X228084Y87269D01*
X228090Y87156D01*
X228092Y87043D01*
X228092Y83797D01*
X221601Y95608D02*
X221601Y99503D01*
X221603Y99602D01*
X221609Y99702D01*
X221618Y99801D01*
X221631Y99899D01*
X221648Y99997D01*
X221669Y100095D01*
X221694Y100191D01*
X221722Y100286D01*
X221754Y100380D01*
X221789Y100473D01*
X221828Y100565D01*
X221871Y100655D01*
X221916Y100743D01*
X221966Y100830D01*
X222018Y100914D01*
X222074Y100997D01*
X222132Y101077D01*
X222194Y101155D01*
X222259Y101230D01*
X222327Y101303D01*
X222397Y101373D01*
X222470Y101441D01*
X222545Y101506D01*
X222623Y101568D01*
X222703Y101626D01*
X222786Y101682D01*
X222870Y101734D01*
X222957Y101784D01*
X223045Y101829D01*
X223135Y101872D01*
X223227Y101911D01*
X223320Y101946D01*
X223414Y101978D01*
X223509Y102006D01*
X223605Y102031D01*
X223703Y102052D01*
X223801Y102069D01*
X223899Y102082D01*
X223998Y102091D01*
X224098Y102097D01*
X224197Y102099D01*
X224846Y102099D01*
X224846Y102100D02*
X224959Y102098D01*
X225072Y102092D01*
X225185Y102082D01*
X225298Y102068D01*
X225410Y102051D01*
X225521Y102029D01*
X225631Y102004D01*
X225741Y101974D01*
X225849Y101941D01*
X225956Y101904D01*
X226062Y101864D01*
X226166Y101819D01*
X226269Y101771D01*
X226370Y101720D01*
X226469Y101665D01*
X226566Y101607D01*
X226661Y101545D01*
X226754Y101480D01*
X226844Y101412D01*
X226932Y101341D01*
X227018Y101266D01*
X227101Y101189D01*
X227181Y101109D01*
X227258Y101026D01*
X227333Y100940D01*
X227404Y100852D01*
X227472Y100762D01*
X227537Y100669D01*
X227599Y100574D01*
X227657Y100477D01*
X227712Y100378D01*
X227763Y100277D01*
X227811Y100174D01*
X227856Y100070D01*
X227896Y99964D01*
X227933Y99857D01*
X227966Y99749D01*
X227996Y99639D01*
X228021Y99529D01*
X228043Y99418D01*
X228060Y99306D01*
X228074Y99193D01*
X228084Y99080D01*
X228090Y98967D01*
X228092Y98854D01*
X228090Y98741D01*
X228084Y98628D01*
X228074Y98515D01*
X228060Y98402D01*
X228043Y98290D01*
X228021Y98179D01*
X227996Y98069D01*
X227966Y97959D01*
X227933Y97851D01*
X227896Y97744D01*
X227856Y97638D01*
X227811Y97534D01*
X227763Y97431D01*
X227712Y97330D01*
X227657Y97231D01*
X227599Y97134D01*
X227537Y97039D01*
X227472Y96946D01*
X227404Y96856D01*
X227333Y96768D01*
X227258Y96682D01*
X227181Y96599D01*
X227101Y96519D01*
X227018Y96442D01*
X226932Y96367D01*
X226844Y96296D01*
X226754Y96228D01*
X226661Y96163D01*
X226566Y96101D01*
X226469Y96043D01*
X226370Y95988D01*
X226269Y95937D01*
X226166Y95889D01*
X226062Y95844D01*
X225956Y95804D01*
X225849Y95767D01*
X225741Y95734D01*
X225631Y95704D01*
X225521Y95679D01*
X225410Y95657D01*
X225298Y95640D01*
X225185Y95626D01*
X225072Y95616D01*
X224959Y95610D01*
X224846Y95608D01*
X221601Y95608D01*
X221458Y95610D01*
X221315Y95616D01*
X221172Y95626D01*
X221030Y95640D01*
X220888Y95657D01*
X220746Y95679D01*
X220605Y95704D01*
X220465Y95734D01*
X220326Y95767D01*
X220188Y95804D01*
X220051Y95845D01*
X219915Y95889D01*
X219780Y95938D01*
X219647Y95990D01*
X219515Y96045D01*
X219385Y96105D01*
X219256Y96168D01*
X219129Y96234D01*
X219005Y96304D01*
X218882Y96377D01*
X218761Y96454D01*
X218642Y96533D01*
X218526Y96617D01*
X218411Y96703D01*
X218300Y96792D01*
X218191Y96885D01*
X218084Y96980D01*
X217980Y97079D01*
X217879Y97180D01*
X217780Y97284D01*
X217685Y97390D01*
X217592Y97500D01*
X217503Y97611D01*
X217417Y97725D01*
X217334Y97842D01*
X217254Y97961D01*
X217177Y98082D01*
X217104Y98204D01*
X217034Y98329D01*
X216968Y98456D01*
X216905Y98585D01*
X216845Y98715D01*
X216790Y98847D01*
X216738Y98980D01*
X216689Y99115D01*
X216645Y99251D01*
X216604Y99388D01*
X216567Y99526D01*
X216534Y99665D01*
X216504Y99805D01*
X216479Y99946D01*
X216457Y100088D01*
X216440Y100230D01*
X216426Y100372D01*
X216416Y100515D01*
X216410Y100658D01*
X216408Y100801D01*
D11*
X44800Y77700D03*
X56800Y77700D03*
D12*
X50800Y77700D03*
D13*
X37592Y64008D02*
X25908Y64008D01*
X37592Y64008D02*
X37592Y69201D01*
X37592Y73914D02*
X37592Y79107D01*
X37592Y73914D02*
X25908Y73914D01*
X25908Y79107D01*
X31101Y77809D02*
X31101Y73914D01*
X25908Y83797D02*
X37592Y83797D01*
X25908Y83797D02*
X25908Y87043D01*
X25910Y87156D01*
X25916Y87269D01*
X25926Y87382D01*
X25940Y87495D01*
X25957Y87607D01*
X25979Y87718D01*
X26004Y87828D01*
X26034Y87938D01*
X26067Y88046D01*
X26104Y88153D01*
X26144Y88259D01*
X26189Y88363D01*
X26237Y88466D01*
X26288Y88567D01*
X26343Y88666D01*
X26401Y88763D01*
X26463Y88858D01*
X26528Y88951D01*
X26596Y89041D01*
X26667Y89129D01*
X26742Y89215D01*
X26819Y89298D01*
X26899Y89378D01*
X26982Y89455D01*
X27068Y89530D01*
X27156Y89601D01*
X27246Y89669D01*
X27339Y89734D01*
X27434Y89796D01*
X27531Y89854D01*
X27630Y89909D01*
X27731Y89960D01*
X27834Y90008D01*
X27938Y90053D01*
X28044Y90093D01*
X28151Y90130D01*
X28259Y90163D01*
X28369Y90193D01*
X28479Y90218D01*
X28590Y90240D01*
X28702Y90257D01*
X28815Y90271D01*
X28928Y90281D01*
X29041Y90287D01*
X29154Y90289D01*
X34346Y90289D01*
X34459Y90287D01*
X34572Y90281D01*
X34685Y90271D01*
X34798Y90257D01*
X34910Y90240D01*
X35021Y90218D01*
X35131Y90193D01*
X35241Y90163D01*
X35349Y90130D01*
X35456Y90093D01*
X35562Y90053D01*
X35666Y90008D01*
X35769Y89960D01*
X35870Y89909D01*
X35969Y89854D01*
X36066Y89796D01*
X36161Y89734D01*
X36254Y89669D01*
X36344Y89601D01*
X36432Y89530D01*
X36518Y89455D01*
X36601Y89378D01*
X36681Y89298D01*
X36758Y89215D01*
X36833Y89129D01*
X36904Y89041D01*
X36972Y88951D01*
X37037Y88858D01*
X37099Y88763D01*
X37157Y88666D01*
X37212Y88567D01*
X37263Y88466D01*
X37311Y88363D01*
X37356Y88259D01*
X37396Y88153D01*
X37433Y88046D01*
X37466Y87938D01*
X37496Y87828D01*
X37521Y87718D01*
X37543Y87607D01*
X37560Y87495D01*
X37574Y87382D01*
X37584Y87269D01*
X37590Y87156D01*
X37592Y87043D01*
X37592Y83797D01*
X27206Y95608D02*
X25908Y95608D01*
X25908Y102099D01*
X37592Y98854D01*
D11*
X171100Y176300D03*
X159100Y176300D03*
D12*
X165100Y176300D03*
D13*
X178308Y151901D02*
X189992Y151901D01*
X189992Y157093D01*
X189992Y161807D02*
X189992Y166999D01*
X189992Y161807D02*
X178308Y161807D01*
X178308Y166999D01*
X183501Y165701D02*
X183501Y161807D01*
X178308Y171690D02*
X189992Y171690D01*
X178308Y171690D02*
X178308Y174935D01*
X178310Y175048D01*
X178316Y175161D01*
X178326Y175274D01*
X178340Y175387D01*
X178357Y175499D01*
X178379Y175610D01*
X178404Y175720D01*
X178434Y175830D01*
X178467Y175938D01*
X178504Y176045D01*
X178544Y176151D01*
X178589Y176255D01*
X178637Y176358D01*
X178688Y176459D01*
X178743Y176558D01*
X178801Y176655D01*
X178863Y176750D01*
X178928Y176843D01*
X178996Y176933D01*
X179067Y177021D01*
X179142Y177107D01*
X179219Y177190D01*
X179299Y177270D01*
X179382Y177347D01*
X179468Y177422D01*
X179556Y177493D01*
X179646Y177561D01*
X179739Y177626D01*
X179834Y177688D01*
X179931Y177746D01*
X180030Y177801D01*
X180131Y177852D01*
X180234Y177900D01*
X180338Y177945D01*
X180444Y177985D01*
X180551Y178022D01*
X180659Y178055D01*
X180769Y178085D01*
X180879Y178110D01*
X180990Y178132D01*
X181102Y178149D01*
X181215Y178163D01*
X181328Y178173D01*
X181441Y178179D01*
X181554Y178181D01*
X186746Y178181D01*
X186746Y178182D02*
X186859Y178180D01*
X186972Y178174D01*
X187085Y178164D01*
X187198Y178150D01*
X187310Y178133D01*
X187421Y178111D01*
X187531Y178086D01*
X187641Y178056D01*
X187749Y178023D01*
X187856Y177986D01*
X187962Y177946D01*
X188066Y177901D01*
X188169Y177853D01*
X188270Y177802D01*
X188369Y177747D01*
X188466Y177689D01*
X188561Y177627D01*
X188654Y177562D01*
X188744Y177494D01*
X188832Y177423D01*
X188918Y177348D01*
X189001Y177271D01*
X189081Y177191D01*
X189158Y177108D01*
X189233Y177022D01*
X189304Y176934D01*
X189372Y176844D01*
X189437Y176751D01*
X189499Y176656D01*
X189557Y176559D01*
X189612Y176460D01*
X189663Y176359D01*
X189711Y176256D01*
X189756Y176152D01*
X189796Y176046D01*
X189833Y175939D01*
X189866Y175831D01*
X189896Y175721D01*
X189921Y175611D01*
X189943Y175500D01*
X189960Y175388D01*
X189974Y175275D01*
X189984Y175162D01*
X189990Y175049D01*
X189992Y174936D01*
X189992Y174935D02*
X189992Y171690D01*
X186746Y183500D02*
X186633Y183502D01*
X186520Y183508D01*
X186407Y183518D01*
X186294Y183532D01*
X186182Y183549D01*
X186071Y183571D01*
X185961Y183596D01*
X185851Y183626D01*
X185743Y183659D01*
X185636Y183696D01*
X185530Y183736D01*
X185426Y183781D01*
X185323Y183829D01*
X185222Y183880D01*
X185123Y183935D01*
X185026Y183993D01*
X184931Y184055D01*
X184838Y184120D01*
X184748Y184188D01*
X184660Y184259D01*
X184574Y184334D01*
X184491Y184411D01*
X184411Y184491D01*
X184334Y184574D01*
X184259Y184660D01*
X184188Y184748D01*
X184120Y184838D01*
X184055Y184931D01*
X183993Y185026D01*
X183935Y185123D01*
X183880Y185222D01*
X183829Y185323D01*
X183781Y185426D01*
X183736Y185530D01*
X183696Y185636D01*
X183659Y185743D01*
X183626Y185851D01*
X183596Y185961D01*
X183571Y186071D01*
X183549Y186182D01*
X183532Y186294D01*
X183518Y186407D01*
X183508Y186520D01*
X183502Y186633D01*
X183500Y186746D01*
X183502Y186859D01*
X183508Y186972D01*
X183518Y187085D01*
X183532Y187198D01*
X183549Y187310D01*
X183571Y187421D01*
X183596Y187531D01*
X183626Y187641D01*
X183659Y187749D01*
X183696Y187856D01*
X183736Y187962D01*
X183781Y188066D01*
X183829Y188169D01*
X183880Y188270D01*
X183935Y188369D01*
X183993Y188466D01*
X184055Y188561D01*
X184120Y188654D01*
X184188Y188744D01*
X184259Y188832D01*
X184334Y188918D01*
X184411Y189001D01*
X184491Y189081D01*
X184574Y189158D01*
X184660Y189233D01*
X184748Y189304D01*
X184838Y189372D01*
X184931Y189437D01*
X185026Y189499D01*
X185123Y189557D01*
X185222Y189612D01*
X185323Y189663D01*
X185426Y189711D01*
X185530Y189756D01*
X185636Y189796D01*
X185743Y189833D01*
X185851Y189866D01*
X185961Y189896D01*
X186071Y189921D01*
X186182Y189943D01*
X186294Y189960D01*
X186407Y189974D01*
X186520Y189984D01*
X186633Y189990D01*
X186746Y189992D01*
X186859Y189990D01*
X186972Y189984D01*
X187085Y189974D01*
X187198Y189960D01*
X187310Y189943D01*
X187421Y189921D01*
X187531Y189896D01*
X187641Y189866D01*
X187749Y189833D01*
X187856Y189796D01*
X187962Y189756D01*
X188066Y189711D01*
X188169Y189663D01*
X188270Y189612D01*
X188369Y189557D01*
X188466Y189499D01*
X188561Y189437D01*
X188654Y189372D01*
X188744Y189304D01*
X188832Y189233D01*
X188918Y189158D01*
X189001Y189081D01*
X189081Y189001D01*
X189158Y188918D01*
X189233Y188832D01*
X189304Y188744D01*
X189372Y188654D01*
X189437Y188561D01*
X189499Y188466D01*
X189557Y188369D01*
X189612Y188270D01*
X189663Y188169D01*
X189711Y188066D01*
X189756Y187962D01*
X189796Y187856D01*
X189833Y187749D01*
X189866Y187641D01*
X189896Y187531D01*
X189921Y187421D01*
X189943Y187310D01*
X189960Y187198D01*
X189974Y187085D01*
X189984Y186972D01*
X189990Y186859D01*
X189992Y186746D01*
X189990Y186633D01*
X189984Y186520D01*
X189974Y186407D01*
X189960Y186294D01*
X189943Y186182D01*
X189921Y186071D01*
X189896Y185961D01*
X189866Y185851D01*
X189833Y185743D01*
X189796Y185636D01*
X189756Y185530D01*
X189711Y185426D01*
X189663Y185323D01*
X189612Y185222D01*
X189557Y185123D01*
X189499Y185026D01*
X189437Y184931D01*
X189372Y184838D01*
X189304Y184748D01*
X189233Y184660D01*
X189158Y184574D01*
X189081Y184491D01*
X189001Y184411D01*
X188918Y184334D01*
X188832Y184259D01*
X188744Y184188D01*
X188654Y184120D01*
X188561Y184055D01*
X188466Y183993D01*
X188369Y183935D01*
X188270Y183880D01*
X188169Y183829D01*
X188066Y183781D01*
X187962Y183736D01*
X187856Y183696D01*
X187749Y183659D01*
X187641Y183626D01*
X187531Y183596D01*
X187421Y183571D01*
X187310Y183549D01*
X187198Y183532D01*
X187085Y183518D01*
X186972Y183508D01*
X186859Y183502D01*
X186746Y183500D01*
X180904Y184150D02*
X180803Y184152D01*
X180703Y184158D01*
X180603Y184168D01*
X180503Y184181D01*
X180404Y184199D01*
X180305Y184220D01*
X180208Y184245D01*
X180111Y184274D01*
X180016Y184307D01*
X179922Y184343D01*
X179830Y184383D01*
X179739Y184426D01*
X179650Y184473D01*
X179563Y184523D01*
X179477Y184577D01*
X179394Y184634D01*
X179314Y184694D01*
X179235Y184757D01*
X179159Y184824D01*
X179086Y184893D01*
X179016Y184965D01*
X178948Y185039D01*
X178883Y185116D01*
X178822Y185196D01*
X178763Y185278D01*
X178708Y185362D01*
X178656Y185448D01*
X178607Y185536D01*
X178562Y185626D01*
X178520Y185718D01*
X178482Y185811D01*
X178448Y185906D01*
X178417Y186001D01*
X178390Y186098D01*
X178367Y186196D01*
X178347Y186295D01*
X178332Y186395D01*
X178320Y186495D01*
X178312Y186595D01*
X178308Y186696D01*
X178308Y186796D01*
X178312Y186897D01*
X178320Y186997D01*
X178332Y187097D01*
X178347Y187197D01*
X178367Y187296D01*
X178390Y187394D01*
X178417Y187491D01*
X178448Y187586D01*
X178482Y187681D01*
X178520Y187774D01*
X178562Y187866D01*
X178607Y187956D01*
X178656Y188044D01*
X178708Y188130D01*
X178763Y188214D01*
X178822Y188296D01*
X178883Y188376D01*
X178948Y188453D01*
X179016Y188527D01*
X179086Y188599D01*
X179159Y188668D01*
X179235Y188735D01*
X179314Y188798D01*
X179394Y188858D01*
X179477Y188915D01*
X179563Y188969D01*
X179650Y189019D01*
X179739Y189066D01*
X179830Y189109D01*
X179922Y189149D01*
X180016Y189185D01*
X180111Y189218D01*
X180208Y189247D01*
X180305Y189272D01*
X180404Y189293D01*
X180503Y189311D01*
X180603Y189324D01*
X180703Y189334D01*
X180803Y189340D01*
X180904Y189342D01*
X181005Y189340D01*
X181105Y189334D01*
X181205Y189324D01*
X181305Y189311D01*
X181404Y189293D01*
X181503Y189272D01*
X181600Y189247D01*
X181697Y189218D01*
X181792Y189185D01*
X181886Y189149D01*
X181978Y189109D01*
X182069Y189066D01*
X182158Y189019D01*
X182245Y188969D01*
X182331Y188915D01*
X182414Y188858D01*
X182494Y188798D01*
X182573Y188735D01*
X182649Y188668D01*
X182722Y188599D01*
X182792Y188527D01*
X182860Y188453D01*
X182925Y188376D01*
X182986Y188296D01*
X183045Y188214D01*
X183100Y188130D01*
X183152Y188044D01*
X183201Y187956D01*
X183246Y187866D01*
X183288Y187774D01*
X183326Y187681D01*
X183360Y187586D01*
X183391Y187491D01*
X183418Y187394D01*
X183441Y187296D01*
X183461Y187197D01*
X183476Y187097D01*
X183488Y186997D01*
X183496Y186897D01*
X183500Y186796D01*
X183500Y186696D01*
X183496Y186595D01*
X183488Y186495D01*
X183476Y186395D01*
X183461Y186295D01*
X183441Y186196D01*
X183418Y186098D01*
X183391Y186001D01*
X183360Y185906D01*
X183326Y185811D01*
X183288Y185718D01*
X183246Y185626D01*
X183201Y185536D01*
X183152Y185448D01*
X183100Y185362D01*
X183045Y185278D01*
X182986Y185196D01*
X182925Y185116D01*
X182860Y185039D01*
X182792Y184965D01*
X182722Y184893D01*
X182649Y184824D01*
X182573Y184757D01*
X182494Y184694D01*
X182414Y184634D01*
X182331Y184577D01*
X182245Y184523D01*
X182158Y184473D01*
X182069Y184426D01*
X181978Y184383D01*
X181886Y184343D01*
X181792Y184307D01*
X181697Y184274D01*
X181600Y184245D01*
X181503Y184220D01*
X181404Y184199D01*
X181305Y184181D01*
X181205Y184168D01*
X181105Y184158D01*
X181005Y184152D01*
X180904Y184150D01*
D11*
X133000Y176300D03*
X121000Y176300D03*
D12*
X127000Y176300D03*
D13*
X140208Y151901D02*
X151892Y151901D01*
X151892Y157093D01*
X151892Y161807D02*
X151892Y166999D01*
X151892Y161807D02*
X140208Y161807D01*
X140208Y166999D01*
X145401Y165701D02*
X145401Y161807D01*
X140208Y171690D02*
X151892Y171690D01*
X140208Y171690D02*
X140208Y174935D01*
X140210Y175048D01*
X140216Y175161D01*
X140226Y175274D01*
X140240Y175387D01*
X140257Y175499D01*
X140279Y175610D01*
X140304Y175720D01*
X140334Y175830D01*
X140367Y175938D01*
X140404Y176045D01*
X140444Y176151D01*
X140489Y176255D01*
X140537Y176358D01*
X140588Y176459D01*
X140643Y176558D01*
X140701Y176655D01*
X140763Y176750D01*
X140828Y176843D01*
X140896Y176933D01*
X140967Y177021D01*
X141042Y177107D01*
X141119Y177190D01*
X141199Y177270D01*
X141282Y177347D01*
X141368Y177422D01*
X141456Y177493D01*
X141546Y177561D01*
X141639Y177626D01*
X141734Y177688D01*
X141831Y177746D01*
X141930Y177801D01*
X142031Y177852D01*
X142134Y177900D01*
X142238Y177945D01*
X142344Y177985D01*
X142451Y178022D01*
X142559Y178055D01*
X142669Y178085D01*
X142779Y178110D01*
X142890Y178132D01*
X143002Y178149D01*
X143115Y178163D01*
X143228Y178173D01*
X143341Y178179D01*
X143454Y178181D01*
X148646Y178181D01*
X148646Y178182D02*
X148759Y178180D01*
X148872Y178174D01*
X148985Y178164D01*
X149098Y178150D01*
X149210Y178133D01*
X149321Y178111D01*
X149431Y178086D01*
X149541Y178056D01*
X149649Y178023D01*
X149756Y177986D01*
X149862Y177946D01*
X149966Y177901D01*
X150069Y177853D01*
X150170Y177802D01*
X150269Y177747D01*
X150366Y177689D01*
X150461Y177627D01*
X150554Y177562D01*
X150644Y177494D01*
X150732Y177423D01*
X150818Y177348D01*
X150901Y177271D01*
X150981Y177191D01*
X151058Y177108D01*
X151133Y177022D01*
X151204Y176934D01*
X151272Y176844D01*
X151337Y176751D01*
X151399Y176656D01*
X151457Y176559D01*
X151512Y176460D01*
X151563Y176359D01*
X151611Y176256D01*
X151656Y176152D01*
X151696Y176046D01*
X151733Y175939D01*
X151766Y175831D01*
X151796Y175721D01*
X151821Y175611D01*
X151843Y175500D01*
X151860Y175388D01*
X151874Y175275D01*
X151884Y175162D01*
X151890Y175049D01*
X151892Y174936D01*
X151892Y174935D02*
X151892Y171690D01*
X146699Y186097D02*
X146699Y189992D01*
X146699Y186097D02*
X146697Y185998D01*
X146691Y185898D01*
X146682Y185799D01*
X146669Y185701D01*
X146652Y185603D01*
X146631Y185505D01*
X146606Y185409D01*
X146578Y185314D01*
X146546Y185220D01*
X146511Y185127D01*
X146472Y185035D01*
X146429Y184945D01*
X146384Y184857D01*
X146334Y184770D01*
X146282Y184686D01*
X146226Y184603D01*
X146168Y184523D01*
X146106Y184445D01*
X146041Y184370D01*
X145973Y184297D01*
X145903Y184227D01*
X145830Y184159D01*
X145755Y184094D01*
X145677Y184032D01*
X145597Y183974D01*
X145514Y183918D01*
X145430Y183866D01*
X145343Y183816D01*
X145255Y183771D01*
X145165Y183728D01*
X145073Y183689D01*
X144980Y183654D01*
X144886Y183622D01*
X144791Y183594D01*
X144695Y183569D01*
X144597Y183548D01*
X144499Y183531D01*
X144401Y183518D01*
X144302Y183509D01*
X144202Y183503D01*
X144103Y183501D01*
X143454Y183501D01*
X143454Y183500D02*
X143341Y183502D01*
X143228Y183508D01*
X143115Y183518D01*
X143002Y183532D01*
X142890Y183549D01*
X142779Y183571D01*
X142669Y183596D01*
X142559Y183626D01*
X142451Y183659D01*
X142344Y183696D01*
X142238Y183736D01*
X142134Y183781D01*
X142031Y183829D01*
X141930Y183880D01*
X141831Y183935D01*
X141734Y183993D01*
X141639Y184055D01*
X141546Y184120D01*
X141456Y184188D01*
X141368Y184259D01*
X141282Y184334D01*
X141199Y184411D01*
X141119Y184491D01*
X141042Y184574D01*
X140967Y184660D01*
X140896Y184748D01*
X140828Y184838D01*
X140763Y184931D01*
X140701Y185026D01*
X140643Y185123D01*
X140588Y185222D01*
X140537Y185323D01*
X140489Y185426D01*
X140444Y185530D01*
X140404Y185636D01*
X140367Y185743D01*
X140334Y185851D01*
X140304Y185961D01*
X140279Y186071D01*
X140257Y186182D01*
X140240Y186294D01*
X140226Y186407D01*
X140216Y186520D01*
X140210Y186633D01*
X140208Y186746D01*
X140210Y186859D01*
X140216Y186972D01*
X140226Y187085D01*
X140240Y187198D01*
X140257Y187310D01*
X140279Y187421D01*
X140304Y187531D01*
X140334Y187641D01*
X140367Y187749D01*
X140404Y187856D01*
X140444Y187962D01*
X140489Y188066D01*
X140537Y188169D01*
X140588Y188270D01*
X140643Y188369D01*
X140701Y188466D01*
X140763Y188561D01*
X140828Y188654D01*
X140896Y188744D01*
X140967Y188832D01*
X141042Y188918D01*
X141119Y189001D01*
X141199Y189081D01*
X141282Y189158D01*
X141368Y189233D01*
X141456Y189304D01*
X141546Y189372D01*
X141639Y189437D01*
X141734Y189499D01*
X141831Y189557D01*
X141930Y189612D01*
X142031Y189663D01*
X142134Y189711D01*
X142238Y189756D01*
X142344Y189796D01*
X142451Y189833D01*
X142559Y189866D01*
X142669Y189896D01*
X142779Y189921D01*
X142890Y189943D01*
X143002Y189960D01*
X143115Y189974D01*
X143228Y189984D01*
X143341Y189990D01*
X143454Y189992D01*
X146699Y189992D01*
X146842Y189990D01*
X146985Y189984D01*
X147128Y189974D01*
X147270Y189960D01*
X147412Y189943D01*
X147554Y189921D01*
X147695Y189896D01*
X147835Y189866D01*
X147974Y189833D01*
X148112Y189796D01*
X148249Y189755D01*
X148385Y189711D01*
X148520Y189662D01*
X148653Y189610D01*
X148785Y189555D01*
X148915Y189495D01*
X149044Y189432D01*
X149171Y189366D01*
X149296Y189296D01*
X149418Y189223D01*
X149539Y189146D01*
X149658Y189066D01*
X149774Y188983D01*
X149889Y188897D01*
X150000Y188808D01*
X150110Y188715D01*
X150216Y188620D01*
X150320Y188521D01*
X150421Y188420D01*
X150520Y188316D01*
X150615Y188210D01*
X150708Y188100D01*
X150797Y187989D01*
X150883Y187874D01*
X150966Y187758D01*
X151046Y187639D01*
X151123Y187518D01*
X151196Y187396D01*
X151266Y187271D01*
X151332Y187144D01*
X151395Y187015D01*
X151455Y186885D01*
X151510Y186753D01*
X151562Y186620D01*
X151611Y186485D01*
X151655Y186349D01*
X151696Y186212D01*
X151733Y186074D01*
X151766Y185935D01*
X151796Y185795D01*
X151821Y185654D01*
X151843Y185512D01*
X151860Y185370D01*
X151874Y185228D01*
X151884Y185085D01*
X151890Y184942D01*
X151892Y184799D01*
M02*
