G04 EAGLE Gerber RS-274X export*
G75*
%MOMM*%
%FSLAX34Y34*%
%LPD*%
%INSilkscreen Bottom*%
%IPPOS*%
%AMOC8*
5,1,8,0,0,1.08239X$1,22.5*%
G01*
%ADD10C,0.152400*%
%ADD11C,0.050800*%
%ADD12C,0.127000*%
%ADD13C,0.177800*%


D10*
X355600Y311150D02*
X127000Y311150D01*
X127000Y247650D01*
X355600Y247650D02*
X355600Y311150D01*
X355600Y323850D02*
X368300Y323850D01*
X161290Y234950D02*
X114300Y234950D01*
X114300Y323850D01*
X368300Y323850D02*
X368300Y234950D01*
X170180Y247650D02*
X127000Y247650D01*
X220980Y255270D02*
X261620Y255270D01*
X261620Y247650D01*
X355600Y247650D01*
X261620Y247650D02*
X261620Y245110D01*
X220980Y247650D02*
X220980Y255270D01*
X220980Y247650D02*
X220980Y245110D01*
X127000Y323850D02*
X127000Y326390D01*
X139700Y326390D01*
X139700Y323850D01*
X127000Y323850D02*
X114300Y323850D01*
X234950Y326390D02*
X247650Y326390D01*
X234950Y326390D02*
X234950Y323850D01*
X139700Y323850D01*
X247650Y323850D02*
X247650Y326390D01*
X342900Y326390D02*
X355600Y326390D01*
X355600Y323850D01*
X342900Y323850D02*
X342900Y326390D01*
X342900Y323850D02*
X247650Y323850D01*
X220980Y234950D02*
X194310Y234950D01*
X220980Y234950D02*
X261620Y234950D01*
X185420Y245110D02*
X185420Y247650D01*
X220980Y247650D01*
X170180Y247650D02*
X170180Y245110D01*
X170180Y247650D02*
X185420Y247650D01*
X190500Y240030D02*
X194310Y234950D01*
X165100Y240030D02*
X161290Y234950D01*
X165100Y240030D02*
X170180Y240030D01*
D11*
X185420Y245110D02*
X220980Y245110D01*
D10*
X220980Y234950D01*
D11*
X170180Y245110D02*
X124460Y245110D01*
X124460Y313690D01*
X358140Y313690D01*
X358140Y245110D01*
X261620Y245110D01*
D10*
X261620Y234950D01*
X185420Y240030D02*
X185420Y245110D01*
X185420Y240030D02*
X190500Y240030D01*
X170180Y240030D02*
X170180Y245110D01*
X170180Y240030D02*
X185420Y240030D01*
X261620Y234950D02*
X309880Y234950D01*
X309880Y236220D01*
X325120Y236220D01*
X325120Y234950D01*
X368300Y234950D01*
D12*
X250825Y248285D02*
X247650Y250825D01*
X247650Y239395D01*
X250825Y239395D02*
X244475Y239395D01*
X239395Y241935D02*
X236855Y250825D01*
X239395Y241935D02*
X233045Y241935D01*
X234950Y244475D02*
X234950Y239395D01*
X339090Y272415D02*
X342265Y269875D01*
X339090Y272415D02*
X339090Y260985D01*
X342265Y260985D02*
X335915Y260985D01*
X335915Y294958D02*
X335917Y295062D01*
X335923Y295167D01*
X335932Y295271D01*
X335945Y295374D01*
X335963Y295477D01*
X335983Y295579D01*
X336008Y295681D01*
X336036Y295781D01*
X336068Y295881D01*
X336104Y295979D01*
X336143Y296076D01*
X336185Y296171D01*
X336231Y296265D01*
X336281Y296357D01*
X336333Y296447D01*
X336389Y296535D01*
X336449Y296621D01*
X336511Y296705D01*
X336576Y296786D01*
X336644Y296865D01*
X336716Y296942D01*
X336789Y297015D01*
X336866Y297087D01*
X336945Y297155D01*
X337026Y297220D01*
X337110Y297282D01*
X337196Y297342D01*
X337284Y297398D01*
X337374Y297450D01*
X337466Y297500D01*
X337560Y297546D01*
X337655Y297588D01*
X337752Y297627D01*
X337850Y297663D01*
X337950Y297695D01*
X338050Y297723D01*
X338152Y297748D01*
X338254Y297768D01*
X338357Y297786D01*
X338460Y297799D01*
X338564Y297808D01*
X338669Y297814D01*
X338773Y297816D01*
X338773Y297815D02*
X338891Y297813D01*
X339010Y297807D01*
X339128Y297798D01*
X339245Y297785D01*
X339362Y297767D01*
X339479Y297747D01*
X339595Y297722D01*
X339710Y297694D01*
X339823Y297661D01*
X339936Y297626D01*
X340048Y297586D01*
X340158Y297544D01*
X340267Y297497D01*
X340375Y297447D01*
X340480Y297394D01*
X340584Y297337D01*
X340686Y297277D01*
X340786Y297214D01*
X340884Y297147D01*
X340980Y297078D01*
X341073Y297005D01*
X341164Y296929D01*
X341253Y296851D01*
X341339Y296769D01*
X341422Y296685D01*
X341503Y296599D01*
X341580Y296509D01*
X341655Y296418D01*
X341727Y296324D01*
X341796Y296227D01*
X341861Y296129D01*
X341924Y296028D01*
X341983Y295925D01*
X342039Y295821D01*
X342091Y295715D01*
X342140Y295607D01*
X342185Y295498D01*
X342227Y295387D01*
X342265Y295275D01*
X336867Y292736D02*
X336791Y292811D01*
X336716Y292890D01*
X336645Y292971D01*
X336576Y293055D01*
X336511Y293141D01*
X336449Y293229D01*
X336389Y293319D01*
X336333Y293411D01*
X336280Y293506D01*
X336231Y293602D01*
X336185Y293700D01*
X336142Y293799D01*
X336103Y293900D01*
X336068Y294002D01*
X336036Y294105D01*
X336008Y294209D01*
X335983Y294314D01*
X335962Y294421D01*
X335945Y294527D01*
X335932Y294634D01*
X335923Y294742D01*
X335917Y294850D01*
X335915Y294958D01*
X336868Y292735D02*
X342265Y286385D01*
X335915Y286385D01*
D13*
X362077Y331089D02*
X361961Y331091D01*
X361844Y331097D01*
X361728Y331106D01*
X361613Y331119D01*
X361498Y331136D01*
X361383Y331157D01*
X361270Y331182D01*
X361157Y331210D01*
X361045Y331242D01*
X360934Y331278D01*
X360824Y331317D01*
X360716Y331360D01*
X360609Y331406D01*
X360504Y331456D01*
X360401Y331509D01*
X360299Y331565D01*
X360199Y331625D01*
X360101Y331688D01*
X360006Y331755D01*
X359912Y331824D01*
X359821Y331896D01*
X359732Y331971D01*
X359646Y332050D01*
X359563Y332131D01*
X359482Y332214D01*
X359403Y332300D01*
X359328Y332389D01*
X359256Y332480D01*
X359187Y332574D01*
X359120Y332669D01*
X359057Y332767D01*
X358997Y332867D01*
X358941Y332969D01*
X358888Y333072D01*
X358838Y333177D01*
X358792Y333284D01*
X358749Y333392D01*
X358710Y333502D01*
X358674Y333613D01*
X358642Y333725D01*
X358614Y333838D01*
X358589Y333951D01*
X358568Y334066D01*
X358551Y334181D01*
X358538Y334296D01*
X358529Y334412D01*
X358523Y334529D01*
X358521Y334645D01*
X362077Y331089D02*
X362257Y331091D01*
X362436Y331098D01*
X362616Y331108D01*
X362795Y331123D01*
X362974Y331143D01*
X363152Y331166D01*
X363329Y331194D01*
X363506Y331226D01*
X363682Y331262D01*
X363857Y331303D01*
X364031Y331348D01*
X364204Y331397D01*
X364376Y331449D01*
X364547Y331507D01*
X364716Y331568D01*
X364883Y331633D01*
X365049Y331702D01*
X365213Y331775D01*
X365376Y331852D01*
X365536Y331933D01*
X365695Y332017D01*
X365851Y332106D01*
X366005Y332198D01*
X366157Y332294D01*
X366307Y332393D01*
X366455Y332496D01*
X366599Y332603D01*
X366742Y332713D01*
X366881Y332826D01*
X367018Y332943D01*
X367152Y333062D01*
X367283Y333185D01*
X367411Y333311D01*
X366967Y343535D02*
X366965Y343651D01*
X366959Y343768D01*
X366950Y343884D01*
X366937Y343999D01*
X366920Y344114D01*
X366899Y344229D01*
X366874Y344342D01*
X366846Y344455D01*
X366814Y344567D01*
X366778Y344678D01*
X366739Y344788D01*
X366696Y344896D01*
X366650Y345003D01*
X366600Y345108D01*
X366547Y345211D01*
X366491Y345313D01*
X366431Y345413D01*
X366368Y345511D01*
X366301Y345606D01*
X366232Y345700D01*
X366160Y345791D01*
X366085Y345880D01*
X366006Y345966D01*
X365925Y346049D01*
X365842Y346130D01*
X365756Y346209D01*
X365667Y346284D01*
X365576Y346356D01*
X365482Y346425D01*
X365387Y346492D01*
X365289Y346555D01*
X365189Y346615D01*
X365087Y346671D01*
X364984Y346724D01*
X364879Y346774D01*
X364772Y346820D01*
X364664Y346863D01*
X364554Y346902D01*
X364443Y346938D01*
X364331Y346970D01*
X364218Y346998D01*
X364105Y347023D01*
X363990Y347044D01*
X363875Y347061D01*
X363760Y347074D01*
X363644Y347083D01*
X363527Y347089D01*
X363411Y347091D01*
X363411Y347092D02*
X363252Y347090D01*
X363093Y347084D01*
X362935Y347075D01*
X362776Y347062D01*
X362618Y347045D01*
X362461Y347024D01*
X362304Y346999D01*
X362147Y346971D01*
X361992Y346939D01*
X361837Y346904D01*
X361683Y346864D01*
X361530Y346821D01*
X361378Y346774D01*
X361227Y346724D01*
X361078Y346670D01*
X360929Y346613D01*
X360783Y346552D01*
X360637Y346488D01*
X360494Y346420D01*
X360352Y346349D01*
X360211Y346274D01*
X360073Y346196D01*
X359936Y346115D01*
X359802Y346031D01*
X359669Y345943D01*
X359538Y345852D01*
X359410Y345758D01*
X365189Y340423D02*
X365289Y340484D01*
X365387Y340549D01*
X365483Y340616D01*
X365576Y340687D01*
X365667Y340760D01*
X365756Y340837D01*
X365842Y340916D01*
X365926Y340998D01*
X366007Y341083D01*
X366085Y341170D01*
X366160Y341260D01*
X366233Y341352D01*
X366302Y341447D01*
X366368Y341543D01*
X366431Y341642D01*
X366491Y341743D01*
X366548Y341846D01*
X366601Y341950D01*
X366650Y342056D01*
X366697Y342164D01*
X366739Y342273D01*
X366779Y342383D01*
X366814Y342495D01*
X366846Y342608D01*
X366874Y342722D01*
X366899Y342836D01*
X366920Y342952D01*
X366937Y343068D01*
X366950Y343184D01*
X366959Y343301D01*
X366965Y343418D01*
X366967Y343535D01*
X360299Y337757D02*
X360199Y337696D01*
X360101Y337631D01*
X360005Y337564D01*
X359912Y337493D01*
X359821Y337420D01*
X359732Y337343D01*
X359646Y337264D01*
X359562Y337182D01*
X359481Y337097D01*
X359403Y337010D01*
X359328Y336920D01*
X359255Y336828D01*
X359186Y336733D01*
X359120Y336637D01*
X359057Y336538D01*
X358997Y336437D01*
X358940Y336334D01*
X358887Y336230D01*
X358838Y336124D01*
X358791Y336016D01*
X358749Y335907D01*
X358709Y335797D01*
X358674Y335685D01*
X358642Y335572D01*
X358614Y335458D01*
X358589Y335344D01*
X358568Y335228D01*
X358551Y335112D01*
X358538Y334996D01*
X358529Y334879D01*
X358523Y334762D01*
X358521Y334645D01*
X360299Y337757D02*
X365189Y340424D01*
X353190Y347091D02*
X347856Y331089D01*
X342522Y347091D01*
X336670Y343535D02*
X332225Y347091D01*
X332225Y331089D01*
X336670Y331089D02*
X327780Y331089D01*
M02*
