G04 EAGLE Gerber RS-274X export*
G75*
%MOMM*%
%FSLAX34Y34*%
%LPD*%
%INTop Copper*%
%IPPOS*%
%AMOC8*
5,1,8,0,0,1.08239X$1,22.5*%
G01*
%ADD10R,6.000000X8.000000*%
%ADD11R,10.000000X4.000000*%
%ADD12R,3.000000X8.000000*%
%ADD13R,1.500000X4.000000*%
%ADD14R,3.000000X4.000000*%
%ADD15C,3.048000*%
%ADD16R,1.430000X3.150000*%
%ADD17C,0.609600*%
%ADD18C,1.016000*%


D10*
X-190000Y-20000D03*
D11*
X-120000Y-40000D03*
D10*
X-115000Y30000D03*
D11*
X-170000Y50000D03*
D10*
X190000Y30000D03*
X115000Y-20000D03*
D11*
X135000Y50000D03*
X170000Y-40000D03*
D12*
X-70000Y30000D03*
D13*
X-62500Y-40000D03*
D12*
X70000Y-20000D03*
D14*
X70000Y50000D03*
D15*
X-25611Y-250D03*
X25189Y-250D03*
D16*
X142850Y5000D03*
X162150Y5000D03*
X-162150Y5000D03*
X-142850Y5000D03*
D17*
X-110000Y5000D02*
X-110000Y60000D01*
X-110000Y5000D02*
X-140000Y5000D01*
X200000Y5000D02*
X200000Y60000D01*
X200000Y5000D02*
X165000Y5000D01*
X180000Y60000D02*
X200000Y60000D01*
X180000Y60000D02*
X160000Y60000D01*
X140000Y60000D01*
X120000Y60000D01*
X25000Y60000D01*
X-110000Y60000D01*
X25000Y60000D02*
X25000Y0D01*
D18*
X120000Y60000D03*
X140000Y60000D03*
X160000Y60000D03*
X180000Y60000D03*
X200000Y60000D03*
D17*
X-165000Y5000D02*
X-195000Y5000D01*
X-195000Y-30000D01*
X-80000Y-30000D01*
D18*
X-80000Y-30000D03*
D17*
X110000Y5000D02*
X140000Y5000D01*
X110000Y5000D02*
X110000Y-30000D01*
X80000Y-30000D01*
D18*
X80000Y-30000D03*
X120000Y-50000D03*
X140000Y-50000D03*
X160000Y-50000D03*
X180000Y-50000D03*
X200000Y-50000D03*
X-120000Y60000D03*
X-140000Y60000D03*
X-160000Y60000D03*
X-180000Y60000D03*
X-200000Y60000D03*
X-120000Y-50000D03*
X-140000Y-50000D03*
X-160000Y-50000D03*
X-180000Y-50000D03*
X-200000Y-50000D03*
M02*
