G04 EAGLE Gerber RS-274X export*
G75*
%MOMM*%
%FSLAX34Y34*%
%LPD*%
%INBottom Copper*%
%IPPOS*%
%AMOC8*
5,1,8,0,0,1.08239X$1,22.5*%
G01*
%ADD10R,23.000000X6.000000*%
%ADD11R,5.000000X6.000000*%
%ADD12C,3.048000*%
%ADD13R,1.803000X1.600000*%
%ADD14C,1.016000*%
%ADD15C,0.609600*%


D10*
X225000Y40000D03*
X225000Y-30000D03*
X-225000Y40000D03*
X-225000Y-30000D03*
D11*
X-365000Y40000D03*
X-365000Y-30000D03*
X365000Y40000D03*
X365000Y-30000D03*
D12*
X-25611Y-250D03*
X25189Y-250D03*
D13*
X-80000Y-4220D03*
X-80000Y24220D03*
X80000Y-4220D03*
X80000Y24220D03*
D14*
X120000Y60000D03*
X140000Y60000D03*
X160000Y60000D03*
X180000Y60000D03*
X200000Y60000D03*
X-80000Y-30000D03*
D15*
X-80000Y0D01*
X-80000Y25000D02*
X-25000Y25000D01*
X80000Y25000D01*
X-25000Y25000D02*
X-25000Y0D01*
D14*
X80000Y-30000D03*
D15*
X80000Y0D01*
D14*
X120000Y-50000D03*
X140000Y-50000D03*
X160000Y-50000D03*
X180000Y-50000D03*
X200000Y-50000D03*
X-120000Y60000D03*
X-140000Y60000D03*
X-160000Y60000D03*
X-180000Y60000D03*
X-200000Y60000D03*
X-120000Y-50000D03*
X-140000Y-50000D03*
X-160000Y-50000D03*
X-180000Y-50000D03*
X-200000Y-50000D03*
M02*
