G04 EAGLE Gerber RS-274X export*
G75*
%MOMM*%
%FSLAX34Y34*%
%LPD*%
%IN*%
%IPPOS*%
%AMOC8*
5,1,8,0,0,1.08239X$1,22.5*%
G01*
%ADD10C,0.254000*%


D10*
X-520000Y-70000D02*
X-225000Y-70000D01*
X-225000Y80000D01*
X-520000Y80000D01*
X-520000Y-70000D01*
X-424000Y4476D02*
X-424069Y3431D01*
X-424205Y2392D01*
X-424410Y1365D01*
X-424681Y353D01*
X-425017Y-639D01*
X-425418Y-1607D01*
X-425882Y-2546D01*
X-426406Y-3454D01*
X-426988Y-4325D01*
X-427625Y-5156D01*
X-428316Y-5943D01*
X-429057Y-6684D01*
X-429844Y-7375D01*
X-430675Y-8013D01*
X-431546Y-8595D01*
X-432454Y-9118D01*
X-433393Y-9582D01*
X-434361Y-9983D01*
X-435353Y-10319D01*
X-436365Y-10590D01*
X-437392Y-10795D01*
X-438431Y-10932D01*
X-439476Y-11000D01*
X-440524Y-11000D01*
X-441569Y-10932D01*
X-442608Y-10795D01*
X-443635Y-10590D01*
X-444647Y-10319D01*
X-445639Y-9983D01*
X-446607Y-9582D01*
X-447546Y-9118D01*
X-448454Y-8595D01*
X-449325Y-8013D01*
X-450156Y-7375D01*
X-450943Y-6684D01*
X-451684Y-5943D01*
X-452375Y-5156D01*
X-453013Y-4325D01*
X-453595Y-3454D01*
X-454118Y-2546D01*
X-454582Y-1607D01*
X-454983Y-639D01*
X-455319Y353D01*
X-455590Y1365D01*
X-455795Y2392D01*
X-455932Y3431D01*
X-456000Y4476D01*
X-456000Y5524D01*
X-455932Y6569D01*
X-455795Y7608D01*
X-455590Y8635D01*
X-455319Y9647D01*
X-454983Y10639D01*
X-454582Y11607D01*
X-454118Y12546D01*
X-453595Y13454D01*
X-453013Y14325D01*
X-452375Y15156D01*
X-451684Y15943D01*
X-450943Y16684D01*
X-450156Y17375D01*
X-449325Y18013D01*
X-448454Y18595D01*
X-447546Y19118D01*
X-446607Y19582D01*
X-445639Y19983D01*
X-444647Y20319D01*
X-443635Y20590D01*
X-442608Y20795D01*
X-441569Y20932D01*
X-440524Y21000D01*
X-439476Y21000D01*
X-438431Y20932D01*
X-437392Y20795D01*
X-436365Y20590D01*
X-435353Y20319D01*
X-434361Y19983D01*
X-433393Y19582D01*
X-432454Y19118D01*
X-431546Y18595D01*
X-430675Y18013D01*
X-429844Y17375D01*
X-429057Y16684D01*
X-428316Y15943D01*
X-427625Y15156D01*
X-426988Y14325D01*
X-426406Y13454D01*
X-425882Y12546D01*
X-425418Y11607D01*
X-425017Y10639D01*
X-424681Y9647D01*
X-424410Y8635D01*
X-424205Y7608D01*
X-424069Y6569D01*
X-424000Y5524D01*
X-424000Y4476D01*
X456000Y4476D02*
X455932Y3431D01*
X455795Y2392D01*
X455590Y1365D01*
X455319Y353D01*
X454983Y-639D01*
X454582Y-1607D01*
X454118Y-2546D01*
X453595Y-3454D01*
X453013Y-4325D01*
X452375Y-5156D01*
X451684Y-5943D01*
X450943Y-6684D01*
X450156Y-7375D01*
X449325Y-8013D01*
X448454Y-8595D01*
X447546Y-9118D01*
X446607Y-9582D01*
X445639Y-9983D01*
X444647Y-10319D01*
X443635Y-10590D01*
X442608Y-10795D01*
X441569Y-10932D01*
X440524Y-11000D01*
X439476Y-11000D01*
X438431Y-10932D01*
X437392Y-10795D01*
X436365Y-10590D01*
X435353Y-10319D01*
X434361Y-9983D01*
X433393Y-9582D01*
X432454Y-9118D01*
X431546Y-8595D01*
X430675Y-8013D01*
X429844Y-7375D01*
X429057Y-6684D01*
X428316Y-5943D01*
X427625Y-5156D01*
X426988Y-4325D01*
X426406Y-3454D01*
X425882Y-2546D01*
X425418Y-1607D01*
X425017Y-639D01*
X424681Y353D01*
X424410Y1365D01*
X424205Y2392D01*
X424069Y3431D01*
X424000Y4476D01*
X424000Y5524D01*
X424069Y6569D01*
X424205Y7608D01*
X424410Y8635D01*
X424681Y9647D01*
X425017Y10639D01*
X425418Y11607D01*
X425882Y12546D01*
X426406Y13454D01*
X426988Y14325D01*
X427625Y15156D01*
X428316Y15943D01*
X429057Y16684D01*
X429844Y17375D01*
X430675Y18013D01*
X431546Y18595D01*
X432454Y19118D01*
X433393Y19582D01*
X434361Y19983D01*
X435353Y20319D01*
X436365Y20590D01*
X437392Y20795D01*
X438431Y20932D01*
X439476Y21000D01*
X440524Y21000D01*
X441569Y20932D01*
X442608Y20795D01*
X443635Y20590D01*
X444647Y20319D01*
X445639Y19983D01*
X446607Y19582D01*
X447546Y19118D01*
X448454Y18595D01*
X449325Y18013D01*
X450156Y17375D01*
X450943Y16684D01*
X451684Y15943D01*
X452375Y15156D01*
X453013Y14325D01*
X453595Y13454D01*
X454118Y12546D01*
X454582Y11607D01*
X454983Y10639D01*
X455319Y9647D01*
X455590Y8635D01*
X455795Y7608D01*
X455932Y6569D01*
X456000Y5524D01*
X456000Y4476D01*
M02*
