G04 EAGLE Gerber RS-274X export*
G75*
%MOMM*%
%FSLAX34Y34*%
%LPD*%
%INSilkscreen Bottom*%
%IPPOS*%
%AMOC8*
5,1,8,0,0,1.08239X$1,22.5*%
G01*
%ADD10C,0.508000*%
%ADD11C,0.203200*%
%ADD12C,0.101600*%


D10*
X137460Y2283D02*
X97802Y2283D01*
X117631Y22112D02*
X117631Y-17546D01*
D11*
X50589Y40500D02*
X-51011Y40500D01*
X-51011Y-25243D02*
X50589Y-25243D01*
X-51011Y19555D02*
X-51011Y24479D01*
X-51011Y33270D02*
X-52298Y33270D01*
X-52298Y29130D02*
X-51011Y29130D01*
X-51011Y31279D01*
X-51011Y33270D01*
X-54081Y27630D02*
X-56711Y27630D01*
X-56711Y34770D02*
X-54081Y34770D01*
X-51011Y29130D02*
X-51011Y24479D01*
X-52298Y33270D02*
X-54081Y34770D01*
X-56711Y34770D02*
X-56711Y27630D01*
X-51011Y-20413D02*
X-51011Y-25243D01*
X-51011Y-20413D02*
X-51011Y19555D01*
X-54081Y27630D02*
X-52298Y29130D01*
X-51011Y24479D02*
X50589Y24479D01*
X50589Y19555D01*
X50589Y31279D02*
X-51011Y31279D01*
X50589Y31279D02*
X50589Y24479D01*
X50589Y19555D02*
X50589Y-20413D01*
X50589Y-25243D01*
X50589Y-40500D01*
X-51011Y33270D02*
X-51011Y37500D01*
X50589Y37500D02*
X50589Y31279D01*
X50589Y-40500D02*
X-51011Y-40500D01*
X-51011Y-25243D01*
X-51011Y37500D02*
X50589Y37500D01*
X-51011Y37500D02*
X-51011Y40500D01*
X50589Y40500D02*
X50589Y37500D01*
X-44761Y-250D02*
X-44755Y220D01*
X-44738Y690D01*
X-44709Y1159D01*
X-44669Y1627D01*
X-44617Y2094D01*
X-44554Y2560D01*
X-44479Y3024D01*
X-44393Y3486D01*
X-44296Y3946D01*
X-44187Y4403D01*
X-44067Y4858D01*
X-43936Y5309D01*
X-43794Y5757D01*
X-43642Y6201D01*
X-43478Y6642D01*
X-43303Y7078D01*
X-43118Y7510D01*
X-42922Y7938D01*
X-42716Y8360D01*
X-42500Y8777D01*
X-42273Y9189D01*
X-42037Y9595D01*
X-41790Y9995D01*
X-41534Y10389D01*
X-41268Y10777D01*
X-40992Y11158D01*
X-40708Y11532D01*
X-40414Y11899D01*
X-40112Y12258D01*
X-39800Y12610D01*
X-39480Y12955D01*
X-39152Y13291D01*
X-38816Y13619D01*
X-38471Y13939D01*
X-38119Y14251D01*
X-37760Y14553D01*
X-37393Y14847D01*
X-37019Y15131D01*
X-36638Y15407D01*
X-36250Y15673D01*
X-35856Y15929D01*
X-35456Y16176D01*
X-35050Y16412D01*
X-34638Y16639D01*
X-34221Y16855D01*
X-33799Y17061D01*
X-33371Y17257D01*
X-32939Y17442D01*
X-32503Y17617D01*
X-32062Y17781D01*
X-31618Y17933D01*
X-31170Y18075D01*
X-30719Y18206D01*
X-30264Y18326D01*
X-29807Y18435D01*
X-29347Y18532D01*
X-28885Y18618D01*
X-28421Y18693D01*
X-27955Y18756D01*
X-27488Y18808D01*
X-27020Y18848D01*
X-26551Y18877D01*
X-26081Y18894D01*
X-25611Y18900D01*
X-25141Y18894D01*
X-24671Y18877D01*
X-24202Y18848D01*
X-23734Y18808D01*
X-23267Y18756D01*
X-22801Y18693D01*
X-22337Y18618D01*
X-21875Y18532D01*
X-21415Y18435D01*
X-20958Y18326D01*
X-20503Y18206D01*
X-20052Y18075D01*
X-19604Y17933D01*
X-19160Y17781D01*
X-18719Y17617D01*
X-18283Y17442D01*
X-17851Y17257D01*
X-17423Y17061D01*
X-17001Y16855D01*
X-16584Y16639D01*
X-16172Y16412D01*
X-15766Y16176D01*
X-15366Y15929D01*
X-14972Y15673D01*
X-14584Y15407D01*
X-14203Y15131D01*
X-13829Y14847D01*
X-13462Y14553D01*
X-13103Y14251D01*
X-12751Y13939D01*
X-12406Y13619D01*
X-12070Y13291D01*
X-11742Y12955D01*
X-11422Y12610D01*
X-11110Y12258D01*
X-10808Y11899D01*
X-10514Y11532D01*
X-10230Y11158D01*
X-9954Y10777D01*
X-9688Y10389D01*
X-9432Y9995D01*
X-9185Y9595D01*
X-8949Y9189D01*
X-8722Y8777D01*
X-8506Y8360D01*
X-8300Y7938D01*
X-8104Y7510D01*
X-7919Y7078D01*
X-7744Y6642D01*
X-7580Y6201D01*
X-7428Y5757D01*
X-7286Y5309D01*
X-7155Y4858D01*
X-7035Y4403D01*
X-6926Y3946D01*
X-6829Y3486D01*
X-6743Y3024D01*
X-6668Y2560D01*
X-6605Y2094D01*
X-6553Y1627D01*
X-6513Y1159D01*
X-6484Y690D01*
X-6467Y220D01*
X-6461Y-250D01*
X-6467Y-720D01*
X-6484Y-1190D01*
X-6513Y-1659D01*
X-6553Y-2127D01*
X-6605Y-2594D01*
X-6668Y-3060D01*
X-6743Y-3524D01*
X-6829Y-3986D01*
X-6926Y-4446D01*
X-7035Y-4903D01*
X-7155Y-5358D01*
X-7286Y-5809D01*
X-7428Y-6257D01*
X-7580Y-6701D01*
X-7744Y-7142D01*
X-7919Y-7578D01*
X-8104Y-8010D01*
X-8300Y-8438D01*
X-8506Y-8860D01*
X-8722Y-9277D01*
X-8949Y-9689D01*
X-9185Y-10095D01*
X-9432Y-10495D01*
X-9688Y-10889D01*
X-9954Y-11277D01*
X-10230Y-11658D01*
X-10514Y-12032D01*
X-10808Y-12399D01*
X-11110Y-12758D01*
X-11422Y-13110D01*
X-11742Y-13455D01*
X-12070Y-13791D01*
X-12406Y-14119D01*
X-12751Y-14439D01*
X-13103Y-14751D01*
X-13462Y-15053D01*
X-13829Y-15347D01*
X-14203Y-15631D01*
X-14584Y-15907D01*
X-14972Y-16173D01*
X-15366Y-16429D01*
X-15766Y-16676D01*
X-16172Y-16912D01*
X-16584Y-17139D01*
X-17001Y-17355D01*
X-17423Y-17561D01*
X-17851Y-17757D01*
X-18283Y-17942D01*
X-18719Y-18117D01*
X-19160Y-18281D01*
X-19604Y-18433D01*
X-20052Y-18575D01*
X-20503Y-18706D01*
X-20958Y-18826D01*
X-21415Y-18935D01*
X-21875Y-19032D01*
X-22337Y-19118D01*
X-22801Y-19193D01*
X-23267Y-19256D01*
X-23734Y-19308D01*
X-24202Y-19348D01*
X-24671Y-19377D01*
X-25141Y-19394D01*
X-25611Y-19400D01*
X-26081Y-19394D01*
X-26551Y-19377D01*
X-27020Y-19348D01*
X-27488Y-19308D01*
X-27955Y-19256D01*
X-28421Y-19193D01*
X-28885Y-19118D01*
X-29347Y-19032D01*
X-29807Y-18935D01*
X-30264Y-18826D01*
X-30719Y-18706D01*
X-31170Y-18575D01*
X-31618Y-18433D01*
X-32062Y-18281D01*
X-32503Y-18117D01*
X-32939Y-17942D01*
X-33371Y-17757D01*
X-33799Y-17561D01*
X-34221Y-17355D01*
X-34638Y-17139D01*
X-35050Y-16912D01*
X-35456Y-16676D01*
X-35856Y-16429D01*
X-36250Y-16173D01*
X-36638Y-15907D01*
X-37019Y-15631D01*
X-37393Y-15347D01*
X-37760Y-15053D01*
X-38119Y-14751D01*
X-38471Y-14439D01*
X-38816Y-14119D01*
X-39152Y-13791D01*
X-39480Y-13455D01*
X-39800Y-13110D01*
X-40112Y-12758D01*
X-40414Y-12399D01*
X-40708Y-12032D01*
X-40992Y-11658D01*
X-41268Y-11277D01*
X-41534Y-10889D01*
X-41790Y-10495D01*
X-42037Y-10095D01*
X-42273Y-9689D01*
X-42500Y-9277D01*
X-42716Y-8860D01*
X-42922Y-8438D01*
X-43118Y-8010D01*
X-43303Y-7578D01*
X-43478Y-7142D01*
X-43642Y-6701D01*
X-43794Y-6257D01*
X-43936Y-5809D01*
X-44067Y-5358D01*
X-44187Y-4903D01*
X-44296Y-4446D01*
X-44393Y-3986D01*
X-44479Y-3524D01*
X-44554Y-3060D01*
X-44617Y-2594D01*
X-44669Y-2127D01*
X-44709Y-1659D01*
X-44738Y-1190D01*
X-44755Y-720D01*
X-44761Y-250D01*
X6039Y-250D02*
X6045Y220D01*
X6062Y690D01*
X6091Y1159D01*
X6131Y1627D01*
X6183Y2094D01*
X6246Y2560D01*
X6321Y3024D01*
X6407Y3486D01*
X6504Y3946D01*
X6613Y4403D01*
X6733Y4858D01*
X6864Y5309D01*
X7006Y5757D01*
X7158Y6201D01*
X7322Y6642D01*
X7497Y7078D01*
X7682Y7510D01*
X7878Y7938D01*
X8084Y8360D01*
X8300Y8777D01*
X8527Y9189D01*
X8763Y9595D01*
X9010Y9995D01*
X9266Y10389D01*
X9532Y10777D01*
X9808Y11158D01*
X10092Y11532D01*
X10386Y11899D01*
X10688Y12258D01*
X11000Y12610D01*
X11320Y12955D01*
X11648Y13291D01*
X11984Y13619D01*
X12329Y13939D01*
X12681Y14251D01*
X13040Y14553D01*
X13407Y14847D01*
X13781Y15131D01*
X14162Y15407D01*
X14550Y15673D01*
X14944Y15929D01*
X15344Y16176D01*
X15750Y16412D01*
X16162Y16639D01*
X16579Y16855D01*
X17001Y17061D01*
X17429Y17257D01*
X17861Y17442D01*
X18297Y17617D01*
X18738Y17781D01*
X19182Y17933D01*
X19630Y18075D01*
X20081Y18206D01*
X20536Y18326D01*
X20993Y18435D01*
X21453Y18532D01*
X21915Y18618D01*
X22379Y18693D01*
X22845Y18756D01*
X23312Y18808D01*
X23780Y18848D01*
X24249Y18877D01*
X24719Y18894D01*
X25189Y18900D01*
X25659Y18894D01*
X26129Y18877D01*
X26598Y18848D01*
X27066Y18808D01*
X27533Y18756D01*
X27999Y18693D01*
X28463Y18618D01*
X28925Y18532D01*
X29385Y18435D01*
X29842Y18326D01*
X30297Y18206D01*
X30748Y18075D01*
X31196Y17933D01*
X31640Y17781D01*
X32081Y17617D01*
X32517Y17442D01*
X32949Y17257D01*
X33377Y17061D01*
X33799Y16855D01*
X34216Y16639D01*
X34628Y16412D01*
X35034Y16176D01*
X35434Y15929D01*
X35828Y15673D01*
X36216Y15407D01*
X36597Y15131D01*
X36971Y14847D01*
X37338Y14553D01*
X37697Y14251D01*
X38049Y13939D01*
X38394Y13619D01*
X38730Y13291D01*
X39058Y12955D01*
X39378Y12610D01*
X39690Y12258D01*
X39992Y11899D01*
X40286Y11532D01*
X40570Y11158D01*
X40846Y10777D01*
X41112Y10389D01*
X41368Y9995D01*
X41615Y9595D01*
X41851Y9189D01*
X42078Y8777D01*
X42294Y8360D01*
X42500Y7938D01*
X42696Y7510D01*
X42881Y7078D01*
X43056Y6642D01*
X43220Y6201D01*
X43372Y5757D01*
X43514Y5309D01*
X43645Y4858D01*
X43765Y4403D01*
X43874Y3946D01*
X43971Y3486D01*
X44057Y3024D01*
X44132Y2560D01*
X44195Y2094D01*
X44247Y1627D01*
X44287Y1159D01*
X44316Y690D01*
X44333Y220D01*
X44339Y-250D01*
X44333Y-720D01*
X44316Y-1190D01*
X44287Y-1659D01*
X44247Y-2127D01*
X44195Y-2594D01*
X44132Y-3060D01*
X44057Y-3524D01*
X43971Y-3986D01*
X43874Y-4446D01*
X43765Y-4903D01*
X43645Y-5358D01*
X43514Y-5809D01*
X43372Y-6257D01*
X43220Y-6701D01*
X43056Y-7142D01*
X42881Y-7578D01*
X42696Y-8010D01*
X42500Y-8438D01*
X42294Y-8860D01*
X42078Y-9277D01*
X41851Y-9689D01*
X41615Y-10095D01*
X41368Y-10495D01*
X41112Y-10889D01*
X40846Y-11277D01*
X40570Y-11658D01*
X40286Y-12032D01*
X39992Y-12399D01*
X39690Y-12758D01*
X39378Y-13110D01*
X39058Y-13455D01*
X38730Y-13791D01*
X38394Y-14119D01*
X38049Y-14439D01*
X37697Y-14751D01*
X37338Y-15053D01*
X36971Y-15347D01*
X36597Y-15631D01*
X36216Y-15907D01*
X35828Y-16173D01*
X35434Y-16429D01*
X35034Y-16676D01*
X34628Y-16912D01*
X34216Y-17139D01*
X33799Y-17355D01*
X33377Y-17561D01*
X32949Y-17757D01*
X32517Y-17942D01*
X32081Y-18117D01*
X31640Y-18281D01*
X31196Y-18433D01*
X30748Y-18575D01*
X30297Y-18706D01*
X29842Y-18826D01*
X29385Y-18935D01*
X28925Y-19032D01*
X28463Y-19118D01*
X27999Y-19193D01*
X27533Y-19256D01*
X27066Y-19308D01*
X26598Y-19348D01*
X26129Y-19377D01*
X25659Y-19394D01*
X25189Y-19400D01*
X24719Y-19394D01*
X24249Y-19377D01*
X23780Y-19348D01*
X23312Y-19308D01*
X22845Y-19256D01*
X22379Y-19193D01*
X21915Y-19118D01*
X21453Y-19032D01*
X20993Y-18935D01*
X20536Y-18826D01*
X20081Y-18706D01*
X19630Y-18575D01*
X19182Y-18433D01*
X18738Y-18281D01*
X18297Y-18117D01*
X17861Y-17942D01*
X17429Y-17757D01*
X17001Y-17561D01*
X16579Y-17355D01*
X16162Y-17139D01*
X15750Y-16912D01*
X15344Y-16676D01*
X14944Y-16429D01*
X14550Y-16173D01*
X14162Y-15907D01*
X13781Y-15631D01*
X13407Y-15347D01*
X13040Y-15053D01*
X12681Y-14751D01*
X12329Y-14439D01*
X11984Y-14119D01*
X11648Y-13791D01*
X11320Y-13455D01*
X11000Y-13110D01*
X10688Y-12758D01*
X10386Y-12399D01*
X10092Y-12032D01*
X9808Y-11658D01*
X9532Y-11277D01*
X9266Y-10889D01*
X9010Y-10495D01*
X8763Y-10095D01*
X8527Y-9689D01*
X8300Y-9277D01*
X8084Y-8860D01*
X7878Y-8438D01*
X7682Y-8010D01*
X7497Y-7578D01*
X7322Y-7142D01*
X7158Y-6701D01*
X7006Y-6257D01*
X6864Y-5809D01*
X6733Y-5358D01*
X6613Y-4903D01*
X6504Y-4446D01*
X6407Y-3986D01*
X6321Y-3524D01*
X6246Y-3060D01*
X6183Y-2594D01*
X6131Y-2127D01*
X6091Y-1659D01*
X6062Y-1190D01*
X6045Y-720D01*
X6039Y-250D01*
D12*
X-12937Y-44948D02*
X-20733Y-44948D01*
X-12937Y-44948D02*
X-12937Y-56642D01*
X-20733Y-56642D01*
X-16835Y-50795D02*
X-12937Y-50795D01*
X-24631Y-54693D02*
X-26580Y-56642D01*
X-30478Y-56642D01*
X-32427Y-54693D01*
X-32427Y-52744D01*
X-30478Y-50795D01*
X-26580Y-50795D01*
X-24631Y-48846D01*
X-24631Y-46897D01*
X-26580Y-44948D01*
X-30478Y-44948D01*
X-32427Y-46897D01*
X-28529Y-42999D02*
X-28529Y-58591D01*
X-36325Y-44948D02*
X-44121Y-44948D01*
X-44121Y-46897D01*
X-36325Y-54693D01*
X-36325Y-56642D01*
X-93198Y-11874D02*
X-93198Y-4078D01*
X-93198Y-11874D02*
X-104892Y-11874D01*
X-104892Y-4078D01*
X-99045Y-7976D02*
X-99045Y-11874D01*
X-102943Y-180D02*
X-104892Y1769D01*
X-104892Y5667D01*
X-102943Y7616D01*
X-100994Y7616D01*
X-99045Y5667D01*
X-99045Y1769D01*
X-97096Y-180D01*
X-95147Y-180D01*
X-93198Y1769D01*
X-93198Y5667D01*
X-95147Y7616D01*
X-91249Y3718D02*
X-106841Y3718D01*
X-93198Y11514D02*
X-93198Y19310D01*
X-93198Y11514D02*
X-99045Y11514D01*
X-97096Y15412D01*
X-97096Y17361D01*
X-99045Y19310D01*
X-102943Y19310D01*
X-104892Y17361D01*
X-104892Y13463D01*
X-102943Y11514D01*
X66802Y-4078D02*
X66802Y-11874D01*
X55108Y-11874D01*
X55108Y-4078D01*
X60955Y-7976D02*
X60955Y-11874D01*
X57057Y-180D02*
X55108Y1769D01*
X55108Y5667D01*
X57057Y7616D01*
X59006Y7616D01*
X60955Y5667D01*
X60955Y1769D01*
X62904Y-180D01*
X64853Y-180D01*
X66802Y1769D01*
X66802Y5667D01*
X64853Y7616D01*
X68751Y3718D02*
X53159Y3718D01*
X64853Y15412D02*
X66802Y19310D01*
X64853Y15412D02*
X60955Y11514D01*
X57057Y11514D01*
X55108Y13463D01*
X55108Y17361D01*
X57057Y19310D01*
X59006Y19310D01*
X60955Y17361D01*
X60955Y11514D01*
M02*
