M48
;GenerationSoftware,Autodesk,EAGLE,9.6.2*%
;CreationDate,2026-03-23T13:35:02Z*%
FMAT,2
ICI,OFF
METRIC,TZ,000.000
T3C0.600
T2C1.300
T1C3.200
%
G90
M71
T1
X96000Y5000
X8000Y5000
T2
X54561Y6025
X49481Y6025
T3
X43000Y18000
X41000Y18000
X43000Y11000
X41000Y11000
X42000Y14500
X61000Y18000
X63000Y18000
X61000Y11000
X63000Y11000
X62000Y14500
X30000Y8000
X28000Y8000
X26000Y8000
X24000Y8000
X22000Y8000
X74000Y8000
X76000Y8000
X78000Y8000
X80000Y8000
X82000Y8000
M30