M48
;GenerationSoftware,Autodesk,EAGLE,9.6.2*%
;CreationDate,2026-03-23T13:30:22Z*%
FMAT,2
ICI,OFF
METRIC,TZ,000.000
T3C0.800
T2C0.914
T1C3.000
%
G90
M71
T1
X2540Y34290
X40640Y34290
X40640Y2540
X2540Y2540
T2
X31750Y26670
X31750Y29210
X29210Y26670
X29210Y29210
X26670Y26670
X26670Y29210
X24130Y26670
X24130Y29210
X21590Y26670
X21590Y29210
X19050Y26670
X19050Y29210
X16510Y26670
X16510Y29210
T3
X10541Y13970
X10541Y20193
X8636Y13970
X8636Y20193
X6731Y13970
X6731Y20193
M30